  0
SECTION
  2
HEADER
  9
$ANGBASE
  50
0.0
  9
$ANGDIR
  70
1
  9
$MEASUREMENT
  70
0
  0
ENDSEC
  0
SECTION
  2
TABLES
  0
TABLE
  2
LTYPE
  70
4
  0
LTYPE
  5
40F
  2
CONTINUOUS
  70
0
  3
Solid line
  72
65
  73
0
  40
0.0
  0
LTYPE
  5
410
  2
DASHDOT
 70
0
  3
Dash Dot ____ _ ____ _
 72
65
 73
4
 40
2.0
 49
1.25
 49
-0.25
 49
0.25
 49
-0.25
  0
LTYPE
  5
411
  2
DASHED
 70
0
  3
Dashed __ __ __ __ __
 72
65
 73
2
 40
0.75
 49
0.5
 49
-0.25
  0
LTYPE
  5
43B
  2
DOTTED
 70
0
  3
Dotted .  .  .  .
 72
65
 73
2
 40
0.2
 49
0.0
 49
-0.2
  0
ENDTAB
  0
TABLE
  2
STYLE
  70
4
  0
STYLE
  2
KICAD
  70
0
  40
0
  41
1
  42
1
  50
0
  71
0
  3
isocp.shx
  0
STYLE
  2
KICADB
  70
0
  40
0
  41
1
  42
1
  50
0
  71
0
  3
isocp.shx
  0
STYLE
  2
KICADI
  70
0
  40
0
  41
1
  42
1
  50
15
  71
0
  3
isocp.shx
  0
STYLE
  2
KICADBI
  70
0
  40
0
  41
1
  42
1
  50
15
  71
0
  3
isocp.shx
  0
ENDTAB
  0
TABLE
  2
LAYER
  70
1
  0
LAYER
  2
BLACK
  70
0
  62
7
  6
CONTINUOUS
  0
ENDTAB
  0
ENDSEC
  0
SECTION
  2
ENTITIES
0
LINE
8
BLACK
6
CONTINUOUS
10
6.15591
20
-2.75
11
6.08
21
-2.825
0
LINE
8
BLACK
6
CONTINUOUS
10
6.15591
20
-1.15
11
6.15591
21
-2.75
0
LINE
8
BLACK
6
CONTINUOUS
10
3.38031
20
-1.15
11
6.15591
21
-1.15
0
LINE
8
BLACK
6
CONTINUOUS
10
3.38031
20
-2.825
11
3.38031
21
-1.15
0
LINE
8
BLACK
6
CONTINUOUS
10
6.08
20
-2.825
11
3.38031
21
-2.825
0
LINE
8
BLACK
6
CONTINUOUS
10
3.49111
20
-3.01032
11
3.49111
21
-2.89221
0
LINE
8
BLACK
6
CONTINUOUS
10
3.49111
20
-2.89221
11
3.51924
21
-2.89221
0
LINE
8
BLACK
6
CONTINUOUS
10
3.51924
20
-2.89221
11
3.53611
21
-2.89783
0
LINE
8
BLACK
6
CONTINUOUS
10
3.53611
20
-2.89783
11
3.54736
21
-2.90908
0
LINE
8
BLACK
6
CONTINUOUS
10
3.54736
20
-2.90908
11
3.55298
21
-2.92033
0
LINE
8
BLACK
6
CONTINUOUS
10
3.55298
20
-2.92033
11
3.55861
21
-2.94283
0
LINE
8
BLACK
6
CONTINUOUS
10
3.55861
20
-2.94283
11
3.55861
21
-2.9597
0
LINE
8
BLACK
6
CONTINUOUS
10
3.55861
20
-2.9597
11
3.55298
21
-2.9822
0
LINE
8
BLACK
6
CONTINUOUS
10
3.55298
20
-2.9822
11
3.54736
21
-2.99345
0
LINE
8
BLACK
6
CONTINUOUS
10
3.54736
20
-2.99345
11
3.53611
21
-3.0047
0
LINE
8
BLACK
6
CONTINUOUS
10
3.53611
20
-3.0047
11
3.51924
21
-3.01032
0
LINE
8
BLACK
6
CONTINUOUS
10
3.51924
20
-3.01032
11
3.49111
21
-3.01032
0
LINE
8
BLACK
6
CONTINUOUS
10
3.60922
20
-3.01032
11
3.60922
21
-2.93158
0
LINE
8
BLACK
6
CONTINUOUS
10
3.60922
20
-2.95408
11
3.61485
21
-2.94283
0
LINE
8
BLACK
6
CONTINUOUS
10
3.61485
20
-2.94283
11
3.62047
21
-2.9372
0
LINE
8
BLACK
6
CONTINUOUS
10
3.62047
20
-2.9372
11
3.63172
21
-2.93158
0
LINE
8
BLACK
6
CONTINUOUS
10
3.63172
20
-2.93158
11
3.64297
21
-2.93158
0
LINE
8
BLACK
6
CONTINUOUS
10
3.68234
20
-3.01032
11
3.68234
21
-2.93158
0
LINE
8
BLACK
6
CONTINUOUS
10
3.68234
20
-2.89221
11
3.67672
21
-2.89783
0
LINE
8
BLACK
6
CONTINUOUS
10
3.67672
20
-2.89783
11
3.68234
21
-2.90346
0
LINE
8
BLACK
6
CONTINUOUS
10
3.68234
20
-2.90346
11
3.68796
21
-2.89783
0
LINE
8
BLACK
6
CONTINUOUS
10
3.68796
20
-2.89783
11
3.68234
21
-2.89221
0
LINE
8
BLACK
6
CONTINUOUS
10
3.68234
20
-2.89221
11
3.68234
21
-2.90346
0
LINE
8
BLACK
6
CONTINUOUS
10
3.75546
20
-3.01032
11
3.74421
21
-3.0047
0
LINE
8
BLACK
6
CONTINUOUS
10
3.74421
20
-3.0047
11
3.73858
21
-2.99345
0
LINE
8
BLACK
6
CONTINUOUS
10
3.73858
20
-2.99345
11
3.73858
21
-2.89221
0
LINE
8
BLACK
6
CONTINUOUS
10
3.81732
20
-3.01032
11
3.80607
21
-3.0047
0
LINE
8
BLACK
6
CONTINUOUS
10
3.80607
20
-3.0047
11
3.80045
21
-2.99345
0
LINE
8
BLACK
6
CONTINUOUS
10
3.80045
20
-2.99345
11
3.80045
21
-2.89221
0
LINE
8
BLACK
6
CONTINUOUS
10
3.95231
20
-3.01032
11
3.95231
21
-2.89221
0
LINE
8
BLACK
6
CONTINUOUS
10
3.95231
20
-2.89221
11
3.99168
21
-2.97657
0
LINE
8
BLACK
6
CONTINUOUS
10
3.99168
20
-2.97657
11
4.03105
21
-2.89221
0
LINE
8
BLACK
6
CONTINUOUS
10
4.03105
20
-2.89221
11
4.03105
21
-3.01032
0
LINE
8
BLACK
6
CONTINUOUS
10
4.13791
20
-3.01032
11
4.13791
21
-2.94845
0
LINE
8
BLACK
6
CONTINUOUS
10
4.13791
20
-2.94845
11
4.13228
21
-2.9372
0
LINE
8
BLACK
6
CONTINUOUS
10
4.13228
20
-2.9372
11
4.12103
21
-2.93158
0
LINE
8
BLACK
6
CONTINUOUS
10
4.12103
20
-2.93158
11
4.09854
21
-2.93158
0
LINE
8
BLACK
6
CONTINUOUS
10
4.09854
20
-2.93158
11
4.08729
21
-2.9372
0
LINE
8
BLACK
6
CONTINUOUS
10
4.13791
20
-3.0047
11
4.12666
21
-3.01032
0
LINE
8
BLACK
6
CONTINUOUS
10
4.12666
20
-3.01032
11
4.09854
21
-3.01032
0
LINE
8
BLACK
6
CONTINUOUS
10
4.09854
20
-3.01032
11
4.08729
21
-3.0047
0
LINE
8
BLACK
6
CONTINUOUS
10
4.08729
20
-3.0047
11
4.08166
21
-2.99345
0
LINE
8
BLACK
6
CONTINUOUS
10
4.08166
20
-2.99345
11
4.08166
21
-2.9822
0
LINE
8
BLACK
6
CONTINUOUS
10
4.08166
20
-2.9822
11
4.08729
21
-2.97095
0
LINE
8
BLACK
6
CONTINUOUS
10
4.08729
20
-2.97095
11
4.09854
21
-2.96533
0
LINE
8
BLACK
6
CONTINUOUS
10
4.09854
20
-2.96533
11
4.12666
21
-2.96533
0
LINE
8
BLACK
6
CONTINUOUS
10
4.12666
20
-2.96533
11
4.13791
21
-2.9597
0
LINE
8
BLACK
6
CONTINUOUS
10
4.19415
20
-2.93158
11
4.19415
21
-3.04969
0
LINE
8
BLACK
6
CONTINUOUS
10
4.19415
20
-2.9372
11
4.2054
21
-2.93158
0
LINE
8
BLACK
6
CONTINUOUS
10
4.2054
20
-2.93158
11
4.2279
21
-2.93158
0
LINE
8
BLACK
6
CONTINUOUS
10
4.2279
20
-2.93158
11
4.23915
21
-2.9372
0
LINE
8
BLACK
6
CONTINUOUS
10
4.23915
20
-2.9372
11
4.24477
21
-2.94283
0
LINE
8
BLACK
6
CONTINUOUS
10
4.24477
20
-2.94283
11
4.25039
21
-2.95408
0
LINE
8
BLACK
6
CONTINUOUS
10
4.25039
20
-2.95408
11
4.25039
21
-2.98782
0
LINE
8
BLACK
6
CONTINUOUS
10
4.25039
20
-2.98782
11
4.24477
21
-2.99907
0
LINE
8
BLACK
6
CONTINUOUS
10
4.24477
20
-2.99907
11
4.23915
21
-3.0047
0
LINE
8
BLACK
6
CONTINUOUS
10
4.23915
20
-3.0047
11
4.2279
21
-3.01032
0
LINE
8
BLACK
6
CONTINUOUS
10
4.2279
20
-3.01032
11
4.2054
21
-3.01032
0
LINE
8
BLACK
6
CONTINUOUS
10
4.2054
20
-3.01032
11
4.19415
21
-3.0047
0
LINE
8
BLACK
6
CONTINUOUS
10
4.30101
20
-2.99907
11
4.30664
21
-3.0047
0
LINE
8
BLACK
6
CONTINUOUS
10
4.30664
20
-3.0047
11
4.30101
21
-3.01032
0
LINE
8
BLACK
6
CONTINUOUS
10
4.30101
20
-3.01032
11
4.29539
21
-3.0047
0
LINE
8
BLACK
6
CONTINUOUS
10
4.29539
20
-3.0047
11
4.30101
21
-2.99907
0
LINE
8
BLACK
6
CONTINUOUS
10
4.30101
20
-2.99907
11
4.30101
21
-3.01032
0
LINE
8
BLACK
6
CONTINUOUS
10
4.30101
20
-2.9372
11
4.30664
21
-2.94283
0
LINE
8
BLACK
6
CONTINUOUS
10
4.30664
20
-2.94283
11
4.30101
21
-2.94845
0
LINE
8
BLACK
6
CONTINUOUS
10
4.30101
20
-2.94845
11
4.29539
21
-2.94283
0
LINE
8
BLACK
6
CONTINUOUS
10
4.29539
20
-2.94283
11
4.30101
21
-2.9372
0
LINE
8
BLACK
6
CONTINUOUS
10
4.30101
20
-2.9372
11
4.30101
21
-2.94845
  0
ENDSEC
  0
EOF
