  0
SECTION
  2
HEADER
  9
$ANGBASE
  50
0.0
  9
$ANGDIR
  70
1
  9
$MEASUREMENT
  70
1
  0
ENDSEC
  0
SECTION
  2
TABLES
  0
TABLE
  2
LTYPE
  70
4
  0
LTYPE
  5
40F
  2
CONTINUOUS
  70
0
  3
Solid line
  72
65
  73
0
  40
0.0
  0
LTYPE
  5
410
  2
DASHDOT
 70
0
  3
Dash Dot ____ _ ____ _
 72
65
 73
4
 40
2.0
 49
1.25
 49
-0.25
 49
0.25
 49
-0.25
  0
LTYPE
  5
411
  2
DASHED
 70
0
  3
Dashed __ __ __ __ __
 72
65
 73
2
 40
0.75
 49
0.5
 49
-0.25
  0
LTYPE
  5
43B
  2
DOTTED
 70
0
  3
Dotted .  .  .  .
 72
65
 73
2
 40
0.2
 49
0.0
 49
-0.2
  0
ENDTAB
  0
TABLE
  2
STYLE
  70
4
  0
STYLE
  2
KICAD
  70
0
  40
0
  41
1
  42
1
  50
0
  71
0
  3
isocp.shx
  0
STYLE
  2
KICADB
  70
0
  40
0
  41
1
  42
1
  50
0
  71
0
  3
isocp.shx
  0
STYLE
  2
KICADI
  70
0
  40
0
  41
1
  42
1
  50
15
  71
0
  3
isocp.shx
  0
STYLE
  2
KICADBI
  70
0
  40
0
  41
1
  42
1
  50
15
  71
0
  3
isocp.shx
  0
ENDTAB
  0
TABLE
  2
LAYER
  70
1
  0
LAYER
  2
BLACK
  70
0
  62
7
  6
CONTINUOUS
  0
ENDTAB
  0
ENDSEC
  0
SECTION
  2
ENTITIES
0
LINE
8
BLACK
6
CONTINUOUS
10
124.932
20
-64.666
11
124.94
21
-64.6667
0
LINE
8
BLACK
6
CONTINUOUS
10
124.94
20
-64.6667
11
124.949
21
-64.6696
0
LINE
8
BLACK
6
CONTINUOUS
10
124.949
20
-64.6696
11
124.958
21
-64.6742
0
LINE
8
BLACK
6
CONTINUOUS
10
124.958
20
-64.6742
11
124.966
21
-64.6805
0
LINE
8
BLACK
6
CONTINUOUS
10
124.966
20
-64.6805
11
124.972
21
-64.6881
0
LINE
8
BLACK
6
CONTINUOUS
10
124.972
20
-64.6881
11
124.976
21
-64.6968
0
LINE
8
BLACK
6
CONTINUOUS
10
124.976
20
-64.6968
11
124.979
21
-64.7062
0
LINE
8
BLACK
6
CONTINUOUS
10
124.979
20
-64.7062
11
124.98
21
-64.716
0
LINE
8
BLACK
6
CONTINUOUS
10
124.98
20
-64.716
11
124.98
21
-64.7184
0
LINE
8
BLACK
6
CONTINUOUS
10
124.98
20
-64.7184
11
124.98
21
-70.4936
0
LINE
8
BLACK
6
CONTINUOUS
10
124.98
20
-70.4936
11
124.98
21
-70.496
0
LINE
8
BLACK
6
CONTINUOUS
10
124.98
20
-70.496
11
124.98
21
-70.4984
0
LINE
8
BLACK
6
CONTINUOUS
10
124.98
20
-70.4984
11
124.98
21
-70.4984
0
LINE
8
BLACK
6
CONTINUOUS
10
124.98
20
-70.4984
11
124.979
21
-70.5058
0
LINE
8
BLACK
6
CONTINUOUS
10
124.979
20
-70.5058
11
124.976
21
-70.5152
0
LINE
8
BLACK
6
CONTINUOUS
10
124.976
20
-70.5152
11
124.972
21
-70.5239
0
LINE
8
BLACK
6
CONTINUOUS
10
124.972
20
-70.5239
11
124.966
21
-70.5315
0
LINE
8
BLACK
6
CONTINUOUS
10
124.966
20
-70.5315
11
124.958
21
-70.5378
0
LINE
8
BLACK
6
CONTINUOUS
10
124.958
20
-70.5378
11
124.949
21
-70.5424
0
LINE
8
BLACK
6
CONTINUOUS
10
124.949
20
-70.5424
11
124.94
21
-70.5453
0
LINE
8
BLACK
6
CONTINUOUS
10
124.94
20
-70.5453
11
124.93
21
-70.5462
0
LINE
8
BLACK
6
CONTINUOUS
10
124.93
20
-70.5462
11
124.928
21
-70.546
0
LINE
8
BLACK
6
CONTINUOUS
10
124.928
20
-70.546
11
100.332
21
-70.546
0
LINE
8
BLACK
6
CONTINUOUS
10
100.332
20
-70.546
11
100.33
21
-70.5462
0
LINE
8
BLACK
6
CONTINUOUS
10
100.33
20
-70.5462
11
100.32
21
-70.5453
0
LINE
8
BLACK
6
CONTINUOUS
10
100.32
20
-70.5453
11
100.311
21
-70.5424
0
LINE
8
BLACK
6
CONTINUOUS
10
100.311
20
-70.5424
11
100.302
21
-70.5378
0
LINE
8
BLACK
6
CONTINUOUS
10
100.302
20
-70.5378
11
100.294
21
-70.5315
0
LINE
8
BLACK
6
CONTINUOUS
10
100.294
20
-70.5315
11
100.288
21
-70.5239
0
LINE
8
BLACK
6
CONTINUOUS
10
100.288
20
-70.5239
11
100.284
21
-70.5152
0
LINE
8
BLACK
6
CONTINUOUS
10
100.284
20
-70.5152
11
100.281
21
-70.5058
0
LINE
8
BLACK
6
CONTINUOUS
10
100.281
20
-70.5058
11
100.28
21
-70.496
0
LINE
8
BLACK
6
CONTINUOUS
10
100.28
20
-70.496
11
100.28
21
-70.4936
0
LINE
8
BLACK
6
CONTINUOUS
10
100.28
20
-70.4936
11
100.28
21
-64.7185
0
LINE
8
BLACK
6
CONTINUOUS
10
100.28
20
-64.7185
11
100.28
21
-64.716
0
LINE
8
BLACK
6
CONTINUOUS
10
100.28
20
-64.716
11
100.281
21
-64.7062
0
LINE
8
BLACK
6
CONTINUOUS
10
100.281
20
-64.7062
11
100.284
21
-64.6968
0
LINE
8
BLACK
6
CONTINUOUS
10
100.284
20
-64.6968
11
100.288
21
-64.6881
0
LINE
8
BLACK
6
CONTINUOUS
10
100.288
20
-64.6881
11
100.294
21
-64.6805
0
LINE
8
BLACK
6
CONTINUOUS
10
100.294
20
-64.6805
11
100.302
21
-64.6742
0
LINE
8
BLACK
6
CONTINUOUS
10
100.302
20
-64.6742
11
100.311
21
-64.6696
0
LINE
8
BLACK
6
CONTINUOUS
10
100.311
20
-64.6696
11
100.32
21
-64.6667
0
LINE
8
BLACK
6
CONTINUOUS
10
100.32
20
-64.6667
11
100.328
21
-64.666
0
LINE
8
BLACK
6
CONTINUOUS
10
100.328
20
-64.666
11
100.33
21
-64.6658
0
LINE
8
BLACK
6
CONTINUOUS
10
100.33
20
-64.6658
11
100.332
21
-64.666
0
LINE
8
BLACK
6
CONTINUOUS
10
100.332
20
-64.666
11
124.928
21
-64.666
0
LINE
8
BLACK
6
CONTINUOUS
10
124.928
20
-64.666
11
124.93
21
-64.6658
0
LINE
8
BLACK
6
CONTINUOUS
10
124.93
20
-64.6658
11
124.932
21
-64.666
0
LINE
8
BLACK
6
CONTINUOUS
10
100.38
20
-64.766
11
100.38
21
-70.446
0
LINE
8
BLACK
6
CONTINUOUS
10
100.38
20
-70.446
11
124.88
21
-70.446
0
LINE
8
BLACK
6
CONTINUOUS
10
124.88
20
-70.446
11
124.88
21
-64.766
0
LINE
8
BLACK
6
CONTINUOUS
10
124.88
20
-64.766
11
100.38
21
-64.766
0
LINE
8
BLACK
6
CONTINUOUS
10
123.935
20
-66.036
11
123.95
21
-66.0374
0
LINE
8
BLACK
6
CONTINUOUS
10
123.95
20
-66.0374
11
123.968
21
-66.0432
0
LINE
8
BLACK
6
CONTINUOUS
10
123.968
20
-66.0432
11
123.986
21
-66.0525
0
LINE
8
BLACK
6
CONTINUOUS
10
123.986
20
-66.0525
11
124.001
21
-66.0649
0
LINE
8
BLACK
6
CONTINUOUS
10
124.001
20
-66.0649
11
124.014
21
-66.0802
0
LINE
8
BLACK
6
CONTINUOUS
10
124.014
20
-66.0802
11
124.023
21
-66.0975
0
LINE
8
BLACK
6
CONTINUOUS
10
124.023
20
-66.0975
11
124.029
21
-66.1164
0
LINE
8
BLACK
6
CONTINUOUS
10
124.029
20
-66.1164
11
124.03
21
-66.136
0
LINE
8
BLACK
6
CONTINUOUS
10
124.03
20
-66.136
11
124.03
21
-66.1409
0
LINE
8
BLACK
6
CONTINUOUS
10
124.03
20
-66.1409
11
124.03
21
-69.0711
0
LINE
8
BLACK
6
CONTINUOUS
10
124.03
20
-69.0711
11
124.03
21
-69.076
0
LINE
8
BLACK
6
CONTINUOUS
10
124.03
20
-69.076
11
124.029
21
-69.0956
0
LINE
8
BLACK
6
CONTINUOUS
10
124.029
20
-69.0956
11
124.023
21
-69.1145
0
LINE
8
BLACK
6
CONTINUOUS
10
124.023
20
-69.1145
11
124.014
21
-69.1318
0
LINE
8
BLACK
6
CONTINUOUS
10
124.014
20
-69.1318
11
124.001
21
-69.1471
0
LINE
8
BLACK
6
CONTINUOUS
10
124.001
20
-69.1471
11
123.986
21
-69.1595
0
LINE
8
BLACK
6
CONTINUOUS
10
123.986
20
-69.1595
11
123.968
21
-69.1688
0
LINE
8
BLACK
6
CONTINUOUS
10
123.968
20
-69.1688
11
123.95
21
-69.1746
0
LINE
8
BLACK
6
CONTINUOUS
10
123.95
20
-69.1746
11
123.935
21
-69.176
0
LINE
8
BLACK
6
CONTINUOUS
10
123.935
20
-69.176
11
123.93
21
-69.1765
0
LINE
8
BLACK
6
CONTINUOUS
10
123.93
20
-69.1765
11
123.925
21
-69.176
0
LINE
8
BLACK
6
CONTINUOUS
10
123.925
20
-69.176
11
101.335
21
-69.176
0
LINE
8
BLACK
6
CONTINUOUS
10
101.335
20
-69.176
11
101.33
21
-69.1765
0
LINE
8
BLACK
6
CONTINUOUS
10
101.33
20
-69.1765
11
101.31
21
-69.1746
0
LINE
8
BLACK
6
CONTINUOUS
10
101.31
20
-69.1746
11
101.292
21
-69.1688
0
LINE
8
BLACK
6
CONTINUOUS
10
101.292
20
-69.1688
11
101.274
21
-69.1595
0
LINE
8
BLACK
6
CONTINUOUS
10
101.274
20
-69.1595
11
101.259
21
-69.1471
0
LINE
8
BLACK
6
CONTINUOUS
10
101.259
20
-69.1471
11
101.246
21
-69.1318
0
LINE
8
BLACK
6
CONTINUOUS
10
101.246
20
-69.1318
11
101.237
21
-69.1145
0
LINE
8
BLACK
6
CONTINUOUS
10
101.237
20
-69.1145
11
101.231
21
-69.0956
0
LINE
8
BLACK
6
CONTINUOUS
10
101.231
20
-69.0956
11
101.23
21
-69.076
0
LINE
8
BLACK
6
CONTINUOUS
10
101.23
20
-69.076
11
101.23
21
-69.0711
0
LINE
8
BLACK
6
CONTINUOUS
10
101.23
20
-69.0711
11
101.23
21
-66.1409
0
LINE
8
BLACK
6
CONTINUOUS
10
101.23
20
-66.1409
11
101.23
21
-66.136
0
LINE
8
BLACK
6
CONTINUOUS
10
101.23
20
-66.136
11
101.231
21
-66.1164
0
LINE
8
BLACK
6
CONTINUOUS
10
101.231
20
-66.1164
11
101.237
21
-66.0975
0
LINE
8
BLACK
6
CONTINUOUS
10
101.237
20
-66.0975
11
101.246
21
-66.0802
0
LINE
8
BLACK
6
CONTINUOUS
10
101.246
20
-66.0802
11
101.259
21
-66.0649
0
LINE
8
BLACK
6
CONTINUOUS
10
101.259
20
-66.0649
11
101.274
21
-66.0525
0
LINE
8
BLACK
6
CONTINUOUS
10
101.274
20
-66.0525
11
101.292
21
-66.0432
0
LINE
8
BLACK
6
CONTINUOUS
10
101.292
20
-66.0432
11
101.31
21
-66.0374
0
LINE
8
BLACK
6
CONTINUOUS
10
101.31
20
-66.0374
11
101.325
21
-66.036
0
LINE
8
BLACK
6
CONTINUOUS
10
101.325
20
-66.036
11
101.33
21
-66.0355
0
LINE
8
BLACK
6
CONTINUOUS
10
101.33
20
-66.0355
11
101.335
21
-66.036
0
LINE
8
BLACK
6
CONTINUOUS
10
101.335
20
-66.036
11
123.925
21
-66.036
0
LINE
8
BLACK
6
CONTINUOUS
10
123.925
20
-66.036
11
123.93
21
-66.0355
0
LINE
8
BLACK
6
CONTINUOUS
10
123.93
20
-66.0355
11
123.935
21
-66.036
0
LINE
8
BLACK
6
CONTINUOUS
10
101.43
20
-66.236
11
101.43
21
-68.976
0
LINE
8
BLACK
6
CONTINUOUS
10
101.43
20
-68.976
11
123.83
21
-68.976
0
LINE
8
BLACK
6
CONTINUOUS
10
123.83
20
-68.976
11
123.83
21
-66.236
0
LINE
8
BLACK
6
CONTINUOUS
10
123.83
20
-66.236
11
101.43
21
-66.236
0
LINE
8
BLACK
6
CONTINUOUS
10
128.98
20
-34.439
11
128.98
21
-34.439
0
LINE
8
BLACK
6
CONTINUOUS
10
128.98
20
-34.439
11
128.984
21
-34.4394
0
LINE
8
BLACK
6
CONTINUOUS
10
128.984
20
-34.4394
11
128.989
21
-34.4408
0
LINE
8
BLACK
6
CONTINUOUS
10
128.989
20
-34.4408
11
128.993
21
-34.4431
0
LINE
8
BLACK
6
CONTINUOUS
10
128.993
20
-34.4431
11
128.997
21
-34.4462
0
LINE
8
BLACK
6
CONTINUOUS
10
128.997
20
-34.4462
11
129
21
-34.45
0
LINE
8
BLACK
6
CONTINUOUS
10
129
20
-34.45
11
129.002
21
-34.4544
0
LINE
8
BLACK
6
CONTINUOUS
10
129.002
20
-34.4544
11
129.004
21
-34.4591
0
LINE
8
BLACK
6
CONTINUOUS
10
129.004
20
-34.4591
11
129.004
21
-34.464
0
LINE
8
BLACK
6
CONTINUOUS
10
129.004
20
-34.464
11
129.004
21
-34.4652
0
LINE
8
BLACK
6
CONTINUOUS
10
129.004
20
-34.4652
11
129.004
21
-37.1628
0
LINE
8
BLACK
6
CONTINUOUS
10
129.004
20
-37.1628
11
129.004
21
-37.164
0
LINE
8
BLACK
6
CONTINUOUS
10
129.004
20
-37.164
11
129.004
21
-37.1652
0
LINE
8
BLACK
6
CONTINUOUS
10
129.004
20
-37.1652
11
129.004
21
-37.1652
0
LINE
8
BLACK
6
CONTINUOUS
10
129.004
20
-37.1652
11
129.004
21
-37.1689
0
LINE
8
BLACK
6
CONTINUOUS
10
129.004
20
-37.1689
11
129.002
21
-37.1736
0
LINE
8
BLACK
6
CONTINUOUS
10
129.002
20
-37.1736
11
129
21
-37.178
0
LINE
8
BLACK
6
CONTINUOUS
10
129
20
-37.178
11
128.997
21
-37.1818
0
LINE
8
BLACK
6
CONTINUOUS
10
128.997
20
-37.1818
11
128.993
21
-37.1849
0
LINE
8
BLACK
6
CONTINUOUS
10
128.993
20
-37.1849
11
128.989
21
-37.1872
0
LINE
8
BLACK
6
CONTINUOUS
10
128.989
20
-37.1872
11
128.984
21
-37.1886
0
LINE
8
BLACK
6
CONTINUOUS
10
128.984
20
-37.1886
11
128.979
21
-37.1891
0
LINE
8
BLACK
6
CONTINUOUS
10
128.979
20
-37.1891
11
128.978
21
-37.189
0
LINE
8
BLACK
6
CONTINUOUS
10
128.978
20
-37.189
11
125.53
21
-37.189
0
LINE
8
BLACK
6
CONTINUOUS
10
125.53
20
-37.189
11
125.529
21
-37.1891
0
LINE
8
BLACK
6
CONTINUOUS
10
125.529
20
-37.1891
11
125.524
21
-37.1886
0
LINE
8
BLACK
6
CONTINUOUS
10
125.524
20
-37.1886
11
125.519
21
-37.1872
0
LINE
8
BLACK
6
CONTINUOUS
10
125.519
20
-37.1872
11
125.515
21
-37.1849
0
LINE
8
BLACK
6
CONTINUOUS
10
125.515
20
-37.1849
11
125.511
21
-37.1818
0
LINE
8
BLACK
6
CONTINUOUS
10
125.511
20
-37.1818
11
125.508
21
-37.178
0
LINE
8
BLACK
6
CONTINUOUS
10
125.508
20
-37.178
11
125.506
21
-37.1736
0
LINE
8
BLACK
6
CONTINUOUS
10
125.506
20
-37.1736
11
125.504
21
-37.1689
0
LINE
8
BLACK
6
CONTINUOUS
10
125.504
20
-37.1689
11
125.504
21
-37.164
0
LINE
8
BLACK
6
CONTINUOUS
10
125.504
20
-37.164
11
125.504
21
-37.1628
0
LINE
8
BLACK
6
CONTINUOUS
10
125.504
20
-37.1628
11
125.504
21
-34.4652
0
LINE
8
BLACK
6
CONTINUOUS
10
125.504
20
-34.4652
11
125.504
21
-34.464
0
LINE
8
BLACK
6
CONTINUOUS
10
125.504
20
-34.464
11
125.504
21
-34.4591
0
LINE
8
BLACK
6
CONTINUOUS
10
125.504
20
-34.4591
11
125.506
21
-34.4544
0
LINE
8
BLACK
6
CONTINUOUS
10
125.506
20
-34.4544
11
125.508
21
-34.45
0
LINE
8
BLACK
6
CONTINUOUS
10
125.508
20
-34.45
11
125.511
21
-34.4462
0
LINE
8
BLACK
6
CONTINUOUS
10
125.511
20
-34.4462
11
125.515
21
-34.4431
0
LINE
8
BLACK
6
CONTINUOUS
10
125.515
20
-34.4431
11
125.519
21
-34.4408
0
LINE
8
BLACK
6
CONTINUOUS
10
125.519
20
-34.4408
11
125.524
21
-34.4394
0
LINE
8
BLACK
6
CONTINUOUS
10
125.524
20
-34.4394
11
125.528
21
-34.439
0
LINE
8
BLACK
6
CONTINUOUS
10
125.528
20
-34.439
11
125.528
21
-34.439
0
LINE
8
BLACK
6
CONTINUOUS
10
125.528
20
-34.439
11
125.529
21
-34.4389
0
LINE
8
BLACK
6
CONTINUOUS
10
125.529
20
-34.4389
11
125.53
21
-34.439
0
LINE
8
BLACK
6
CONTINUOUS
10
125.53
20
-34.439
11
128.978
21
-34.439
0
LINE
8
BLACK
6
CONTINUOUS
10
128.978
20
-34.439
11
128.979
21
-34.4389
0
LINE
8
BLACK
6
CONTINUOUS
10
128.979
20
-34.4389
11
128.98
21
-34.439
0
LINE
8
BLACK
6
CONTINUOUS
10
125.554
20
-34.489
11
125.554
21
-37.139
0
LINE
8
BLACK
6
CONTINUOUS
10
125.554
20
-37.139
11
128.954
21
-37.139
0
LINE
8
BLACK
6
CONTINUOUS
10
128.954
20
-37.139
11
128.954
21
-34.489
0
LINE
8
BLACK
6
CONTINUOUS
10
128.954
20
-34.489
11
125.554
21
-34.489
0
LINE
8
BLACK
6
CONTINUOUS
10
127.881
20
-34.764
11
127.889
21
-34.7647
0
LINE
8
BLACK
6
CONTINUOUS
10
127.889
20
-34.7647
11
127.898
21
-34.7676
0
LINE
8
BLACK
6
CONTINUOUS
10
127.898
20
-34.7676
11
127.907
21
-34.7722
0
LINE
8
BLACK
6
CONTINUOUS
10
127.907
20
-34.7722
11
127.915
21
-34.7785
0
LINE
8
BLACK
6
CONTINUOUS
10
127.915
20
-34.7785
11
127.921
21
-34.7861
0
LINE
8
BLACK
6
CONTINUOUS
10
127.921
20
-34.7861
11
127.925
21
-34.7948
0
LINE
8
BLACK
6
CONTINUOUS
10
127.925
20
-34.7948
11
127.928
21
-34.8042
0
LINE
8
BLACK
6
CONTINUOUS
10
127.928
20
-34.8042
11
127.929
21
-34.814
0
LINE
8
BLACK
6
CONTINUOUS
10
127.929
20
-34.814
11
127.929
21
-34.8164
0
LINE
8
BLACK
6
CONTINUOUS
10
127.929
20
-34.8164
11
127.929
21
-36.8116
0
LINE
8
BLACK
6
CONTINUOUS
10
127.929
20
-36.8116
11
127.929
21
-36.814
0
LINE
8
BLACK
6
CONTINUOUS
10
127.929
20
-36.814
11
127.929
21
-36.8164
0
LINE
8
BLACK
6
CONTINUOUS
10
127.929
20
-36.8164
11
127.929
21
-36.8164
0
LINE
8
BLACK
6
CONTINUOUS
10
127.929
20
-36.8164
11
127.928
21
-36.8238
0
LINE
8
BLACK
6
CONTINUOUS
10
127.928
20
-36.8238
11
127.925
21
-36.8332
0
LINE
8
BLACK
6
CONTINUOUS
10
127.925
20
-36.8332
11
127.921
21
-36.8419
0
LINE
8
BLACK
6
CONTINUOUS
10
127.921
20
-36.8419
11
127.915
21
-36.8495
0
LINE
8
BLACK
6
CONTINUOUS
10
127.915
20
-36.8495
11
127.907
21
-36.8558
0
LINE
8
BLACK
6
CONTINUOUS
10
127.907
20
-36.8558
11
127.898
21
-36.8604
0
LINE
8
BLACK
6
CONTINUOUS
10
127.898
20
-36.8604
11
127.889
21
-36.8633
0
LINE
8
BLACK
6
CONTINUOUS
10
127.889
20
-36.8633
11
127.879
21
-36.8642
0
LINE
8
BLACK
6
CONTINUOUS
10
127.879
20
-36.8642
11
127.877
21
-36.864
0
LINE
8
BLACK
6
CONTINUOUS
10
127.877
20
-36.864
11
126.631
21
-36.864
0
LINE
8
BLACK
6
CONTINUOUS
10
126.631
20
-36.864
11
126.629
21
-36.8642
0
LINE
8
BLACK
6
CONTINUOUS
10
126.629
20
-36.8642
11
126.619
21
-36.8633
0
LINE
8
BLACK
6
CONTINUOUS
10
126.619
20
-36.8633
11
126.61
21
-36.8604
0
LINE
8
BLACK
6
CONTINUOUS
10
126.61
20
-36.8604
11
126.601
21
-36.8558
0
LINE
8
BLACK
6
CONTINUOUS
10
126.601
20
-36.8558
11
126.593
21
-36.8495
0
LINE
8
BLACK
6
CONTINUOUS
10
126.593
20
-36.8495
11
126.587
21
-36.8419
0
LINE
8
BLACK
6
CONTINUOUS
10
126.587
20
-36.8419
11
126.583
21
-36.8332
0
LINE
8
BLACK
6
CONTINUOUS
10
126.583
20
-36.8332
11
126.58
21
-36.8238
0
LINE
8
BLACK
6
CONTINUOUS
10
126.58
20
-36.8238
11
126.579
21
-36.814
0
LINE
8
BLACK
6
CONTINUOUS
10
126.579
20
-36.814
11
126.579
21
-36.8116
0
LINE
8
BLACK
6
CONTINUOUS
10
126.579
20
-36.8116
11
126.579
21
-35.4665
0
LINE
8
BLACK
6
CONTINUOUS
10
126.579
20
-35.4665
11
126.579
21
-35.464
0
LINE
8
BLACK
6
CONTINUOUS
10
126.579
20
-35.464
11
126.579
21
-35.4615
0
LINE
8
BLACK
6
CONTINUOUS
10
126.579
20
-35.4615
11
126.579
21
-34.8165
0
LINE
8
BLACK
6
CONTINUOUS
10
126.579
20
-34.8165
11
126.579
21
-34.814
0
LINE
8
BLACK
6
CONTINUOUS
10
126.579
20
-34.814
11
126.58
21
-34.8042
0
LINE
8
BLACK
6
CONTINUOUS
10
126.58
20
-34.8042
11
126.583
21
-34.7948
0
LINE
8
BLACK
6
CONTINUOUS
10
126.583
20
-34.7948
11
126.587
21
-34.7861
0
LINE
8
BLACK
6
CONTINUOUS
10
126.587
20
-34.7861
11
126.593
21
-34.7785
0
LINE
8
BLACK
6
CONTINUOUS
10
126.593
20
-34.7785
11
126.601
21
-34.7722
0
LINE
8
BLACK
6
CONTINUOUS
10
126.601
20
-34.7722
11
126.61
21
-34.7676
0
LINE
8
BLACK
6
CONTINUOUS
10
126.61
20
-34.7676
11
126.619
21
-34.7647
0
LINE
8
BLACK
6
CONTINUOUS
10
126.619
20
-34.7647
11
126.627
21
-34.764
0
LINE
8
BLACK
6
CONTINUOUS
10
126.627
20
-34.764
11
126.629
21
-34.7638
0
LINE
8
BLACK
6
CONTINUOUS
10
126.629
20
-34.7638
11
126.631
21
-34.764
0
LINE
8
BLACK
6
CONTINUOUS
10
126.631
20
-34.764
11
127.277
21
-34.764
0
LINE
8
BLACK
6
CONTINUOUS
10
127.277
20
-34.764
11
127.279
21
-34.7638
0
LINE
8
BLACK
6
CONTINUOUS
10
127.279
20
-34.7638
11
127.281
21
-34.764
0
LINE
8
BLACK
6
CONTINUOUS
10
127.281
20
-34.764
11
127.877
21
-34.764
0
LINE
8
BLACK
6
CONTINUOUS
10
127.877
20
-34.764
11
127.879
21
-34.7638
0
LINE
8
BLACK
6
CONTINUOUS
10
127.879
20
-34.7638
11
127.881
21
-34.764
0
LINE
8
BLACK
6
CONTINUOUS
10
127.3
20
-34.864
11
126.679
21
-35.4847
0
LINE
8
BLACK
6
CONTINUOUS
10
126.679
20
-35.4847
11
126.679
21
-36.764
0
LINE
8
BLACK
6
CONTINUOUS
10
126.679
20
-36.764
11
127.829
21
-36.764
0
LINE
8
BLACK
6
CONTINUOUS
10
127.829
20
-36.764
11
127.829
21
-34.864
0
LINE
8
BLACK
6
CONTINUOUS
10
127.829
20
-34.864
11
127.3
21
-34.864
0
LINE
8
BLACK
6
CONTINUOUS
10
126.679
20
-34.864
11
126.679
21
-35.3433
0
LINE
8
BLACK
6
CONTINUOUS
10
126.679
20
-35.3433
11
127.158
21
-34.864
0
LINE
8
BLACK
6
CONTINUOUS
10
127.158
20
-34.864
11
126.679
21
-34.864
0
LINE
8
BLACK
6
CONTINUOUS
10
124.932
20
-30.666
11
124.94
21
-30.6667
0
LINE
8
BLACK
6
CONTINUOUS
10
124.94
20
-30.6667
11
124.949
21
-30.6696
0
LINE
8
BLACK
6
CONTINUOUS
10
124.949
20
-30.6696
11
124.958
21
-30.6742
0
LINE
8
BLACK
6
CONTINUOUS
10
124.958
20
-30.6742
11
124.966
21
-30.6805
0
LINE
8
BLACK
6
CONTINUOUS
10
124.966
20
-30.6805
11
124.972
21
-30.6881
0
LINE
8
BLACK
6
CONTINUOUS
10
124.972
20
-30.6881
11
124.976
21
-30.6968
0
LINE
8
BLACK
6
CONTINUOUS
10
124.976
20
-30.6968
11
124.979
21
-30.7062
0
LINE
8
BLACK
6
CONTINUOUS
10
124.979
20
-30.7062
11
124.98
21
-30.716
0
LINE
8
BLACK
6
CONTINUOUS
10
124.98
20
-30.716
11
124.98
21
-30.7184
0
LINE
8
BLACK
6
CONTINUOUS
10
124.98
20
-30.7184
11
124.98
21
-36.4936
0
LINE
8
BLACK
6
CONTINUOUS
10
124.98
20
-36.4936
11
124.98
21
-36.496
0
LINE
8
BLACK
6
CONTINUOUS
10
124.98
20
-36.496
11
124.98
21
-36.4984
0
LINE
8
BLACK
6
CONTINUOUS
10
124.98
20
-36.4984
11
124.98
21
-36.4984
0
LINE
8
BLACK
6
CONTINUOUS
10
124.98
20
-36.4984
11
124.979
21
-36.5058
0
LINE
8
BLACK
6
CONTINUOUS
10
124.979
20
-36.5058
11
124.976
21
-36.5152
0
LINE
8
BLACK
6
CONTINUOUS
10
124.976
20
-36.5152
11
124.972
21
-36.5239
0
LINE
8
BLACK
6
CONTINUOUS
10
124.972
20
-36.5239
11
124.966
21
-36.5315
0
LINE
8
BLACK
6
CONTINUOUS
10
124.966
20
-36.5315
11
124.958
21
-36.5378
0
LINE
8
BLACK
6
CONTINUOUS
10
124.958
20
-36.5378
11
124.949
21
-36.5424
0
LINE
8
BLACK
6
CONTINUOUS
10
124.949
20
-36.5424
11
124.94
21
-36.5453
0
LINE
8
BLACK
6
CONTINUOUS
10
124.94
20
-36.5453
11
124.93
21
-36.5462
0
LINE
8
BLACK
6
CONTINUOUS
10
124.93
20
-36.5462
11
124.928
21
-36.546
0
LINE
8
BLACK
6
CONTINUOUS
10
124.928
20
-36.546
11
100.332
21
-36.546
0
LINE
8
BLACK
6
CONTINUOUS
10
100.332
20
-36.546
11
100.33
21
-36.5462
0
LINE
8
BLACK
6
CONTINUOUS
10
100.33
20
-36.5462
11
100.32
21
-36.5453
0
LINE
8
BLACK
6
CONTINUOUS
10
100.32
20
-36.5453
11
100.311
21
-36.5424
0
LINE
8
BLACK
6
CONTINUOUS
10
100.311
20
-36.5424
11
100.302
21
-36.5378
0
LINE
8
BLACK
6
CONTINUOUS
10
100.302
20
-36.5378
11
100.294
21
-36.5315
0
LINE
8
BLACK
6
CONTINUOUS
10
100.294
20
-36.5315
11
100.288
21
-36.5239
0
LINE
8
BLACK
6
CONTINUOUS
10
100.288
20
-36.5239
11
100.284
21
-36.5152
0
LINE
8
BLACK
6
CONTINUOUS
10
100.284
20
-36.5152
11
100.281
21
-36.5058
0
LINE
8
BLACK
6
CONTINUOUS
10
100.281
20
-36.5058
11
100.28
21
-36.496
0
LINE
8
BLACK
6
CONTINUOUS
10
100.28
20
-36.496
11
100.28
21
-36.4936
0
LINE
8
BLACK
6
CONTINUOUS
10
100.28
20
-36.4936
11
100.28
21
-30.7185
0
LINE
8
BLACK
6
CONTINUOUS
10
100.28
20
-30.7185
11
100.28
21
-30.716
0
LINE
8
BLACK
6
CONTINUOUS
10
100.28
20
-30.716
11
100.281
21
-30.7062
0
LINE
8
BLACK
6
CONTINUOUS
10
100.281
20
-30.7062
11
100.284
21
-30.6968
0
LINE
8
BLACK
6
CONTINUOUS
10
100.284
20
-30.6968
11
100.288
21
-30.6881
0
LINE
8
BLACK
6
CONTINUOUS
10
100.288
20
-30.6881
11
100.294
21
-30.6805
0
LINE
8
BLACK
6
CONTINUOUS
10
100.294
20
-30.6805
11
100.302
21
-30.6742
0
LINE
8
BLACK
6
CONTINUOUS
10
100.302
20
-30.6742
11
100.311
21
-30.6696
0
LINE
8
BLACK
6
CONTINUOUS
10
100.311
20
-30.6696
11
100.32
21
-30.6667
0
LINE
8
BLACK
6
CONTINUOUS
10
100.32
20
-30.6667
11
100.328
21
-30.666
0
LINE
8
BLACK
6
CONTINUOUS
10
100.328
20
-30.666
11
100.33
21
-30.6658
0
LINE
8
BLACK
6
CONTINUOUS
10
100.33
20
-30.6658
11
100.332
21
-30.666
0
LINE
8
BLACK
6
CONTINUOUS
10
100.332
20
-30.666
11
124.928
21
-30.666
0
LINE
8
BLACK
6
CONTINUOUS
10
124.928
20
-30.666
11
124.93
21
-30.6658
0
LINE
8
BLACK
6
CONTINUOUS
10
124.93
20
-30.6658
11
124.932
21
-30.666
0
LINE
8
BLACK
6
CONTINUOUS
10
100.38
20
-30.766
11
100.38
21
-36.446
0
LINE
8
BLACK
6
CONTINUOUS
10
100.38
20
-36.446
11
124.88
21
-36.446
0
LINE
8
BLACK
6
CONTINUOUS
10
124.88
20
-36.446
11
124.88
21
-30.766
0
LINE
8
BLACK
6
CONTINUOUS
10
124.88
20
-30.766
11
100.38
21
-30.766
0
LINE
8
BLACK
6
CONTINUOUS
10
123.935
20
-32.036
11
123.95
21
-32.0374
0
LINE
8
BLACK
6
CONTINUOUS
10
123.95
20
-32.0374
11
123.968
21
-32.0432
0
LINE
8
BLACK
6
CONTINUOUS
10
123.968
20
-32.0432
11
123.986
21
-32.0525
0
LINE
8
BLACK
6
CONTINUOUS
10
123.986
20
-32.0525
11
124.001
21
-32.0649
0
LINE
8
BLACK
6
CONTINUOUS
10
124.001
20
-32.0649
11
124.014
21
-32.0802
0
LINE
8
BLACK
6
CONTINUOUS
10
124.014
20
-32.0802
11
124.023
21
-32.0975
0
LINE
8
BLACK
6
CONTINUOUS
10
124.023
20
-32.0975
11
124.029
21
-32.1164
0
LINE
8
BLACK
6
CONTINUOUS
10
124.029
20
-32.1164
11
124.03
21
-32.136
0
LINE
8
BLACK
6
CONTINUOUS
10
124.03
20
-32.136
11
124.03
21
-32.1409
0
LINE
8
BLACK
6
CONTINUOUS
10
124.03
20
-32.1409
11
124.03
21
-35.0711
0
LINE
8
BLACK
6
CONTINUOUS
10
124.03
20
-35.0711
11
124.03
21
-35.076
0
LINE
8
BLACK
6
CONTINUOUS
10
124.03
20
-35.076
11
124.029
21
-35.0956
0
LINE
8
BLACK
6
CONTINUOUS
10
124.029
20
-35.0956
11
124.023
21
-35.1145
0
LINE
8
BLACK
6
CONTINUOUS
10
124.023
20
-35.1145
11
124.014
21
-35.1318
0
LINE
8
BLACK
6
CONTINUOUS
10
124.014
20
-35.1318
11
124.001
21
-35.1471
0
LINE
8
BLACK
6
CONTINUOUS
10
124.001
20
-35.1471
11
123.986
21
-35.1595
0
LINE
8
BLACK
6
CONTINUOUS
10
123.986
20
-35.1595
11
123.968
21
-35.1688
0
LINE
8
BLACK
6
CONTINUOUS
10
123.968
20
-35.1688
11
123.95
21
-35.1746
0
LINE
8
BLACK
6
CONTINUOUS
10
123.95
20
-35.1746
11
123.935
21
-35.176
0
LINE
8
BLACK
6
CONTINUOUS
10
123.935
20
-35.176
11
123.93
21
-35.1765
0
LINE
8
BLACK
6
CONTINUOUS
10
123.93
20
-35.1765
11
123.925
21
-35.176
0
LINE
8
BLACK
6
CONTINUOUS
10
123.925
20
-35.176
11
101.335
21
-35.176
0
LINE
8
BLACK
6
CONTINUOUS
10
101.335
20
-35.176
11
101.33
21
-35.1765
0
LINE
8
BLACK
6
CONTINUOUS
10
101.33
20
-35.1765
11
101.31
21
-35.1746
0
LINE
8
BLACK
6
CONTINUOUS
10
101.31
20
-35.1746
11
101.292
21
-35.1688
0
LINE
8
BLACK
6
CONTINUOUS
10
101.292
20
-35.1688
11
101.274
21
-35.1595
0
LINE
8
BLACK
6
CONTINUOUS
10
101.274
20
-35.1595
11
101.259
21
-35.1471
0
LINE
8
BLACK
6
CONTINUOUS
10
101.259
20
-35.1471
11
101.246
21
-35.1318
0
LINE
8
BLACK
6
CONTINUOUS
10
101.246
20
-35.1318
11
101.237
21
-35.1145
0
LINE
8
BLACK
6
CONTINUOUS
10
101.237
20
-35.1145
11
101.231
21
-35.0956
0
LINE
8
BLACK
6
CONTINUOUS
10
101.231
20
-35.0956
11
101.23
21
-35.076
0
LINE
8
BLACK
6
CONTINUOUS
10
101.23
20
-35.076
11
101.23
21
-35.0711
0
LINE
8
BLACK
6
CONTINUOUS
10
101.23
20
-35.0711
11
101.23
21
-32.1409
0
LINE
8
BLACK
6
CONTINUOUS
10
101.23
20
-32.1409
11
101.23
21
-32.136
0
LINE
8
BLACK
6
CONTINUOUS
10
101.23
20
-32.136
11
101.231
21
-32.1164
0
LINE
8
BLACK
6
CONTINUOUS
10
101.231
20
-32.1164
11
101.237
21
-32.0975
0
LINE
8
BLACK
6
CONTINUOUS
10
101.237
20
-32.0975
11
101.246
21
-32.0802
0
LINE
8
BLACK
6
CONTINUOUS
10
101.246
20
-32.0802
11
101.259
21
-32.0649
0
LINE
8
BLACK
6
CONTINUOUS
10
101.259
20
-32.0649
11
101.274
21
-32.0525
0
LINE
8
BLACK
6
CONTINUOUS
10
101.274
20
-32.0525
11
101.292
21
-32.0432
0
LINE
8
BLACK
6
CONTINUOUS
10
101.292
20
-32.0432
11
101.31
21
-32.0374
0
LINE
8
BLACK
6
CONTINUOUS
10
101.31
20
-32.0374
11
101.325
21
-32.036
0
LINE
8
BLACK
6
CONTINUOUS
10
101.325
20
-32.036
11
101.33
21
-32.0355
0
LINE
8
BLACK
6
CONTINUOUS
10
101.33
20
-32.0355
11
101.335
21
-32.036
0
LINE
8
BLACK
6
CONTINUOUS
10
101.335
20
-32.036
11
123.925
21
-32.036
0
LINE
8
BLACK
6
CONTINUOUS
10
123.925
20
-32.036
11
123.93
21
-32.0355
0
LINE
8
BLACK
6
CONTINUOUS
10
123.93
20
-32.0355
11
123.935
21
-32.036
0
LINE
8
BLACK
6
CONTINUOUS
10
101.43
20
-32.236
11
101.43
21
-34.976
0
LINE
8
BLACK
6
CONTINUOUS
10
101.43
20
-34.976
11
123.83
21
-34.976
0
LINE
8
BLACK
6
CONTINUOUS
10
123.83
20
-34.976
11
123.83
21
-32.236
0
LINE
8
BLACK
6
CONTINUOUS
10
123.83
20
-32.236
11
101.43
21
-32.236
  0
ENDSEC
  0
EOF
