M48
; DRILL file {KiCad (5.1.9)-1} date 04/07/21 17:59:36
; FORMAT={-:-/ absolute / inch / decimal}
; #@! TF.CreationDate,2021-04-07T17:59:36+02:00
; #@! TF.GenerationSoftware,Kicad,Pcbnew,(5.1.9)-1
; #@! TF.FileFunction,Plated,1,2,PTH
FMAT,2
INCH
T1C0.0118
T2C0.0157
T3C0.0394
T4C0.1181
%
G90
G05
T1
X3.84Y-1.36
X4.07Y-1.23
X4.13Y-1.2
X4.15Y-1.17
X4.17Y-1.2
X4.19Y-1.17
X4.21Y-1.2
X4.23Y-1.17
X4.25Y-1.2
X4.27Y-1.4164
X4.4Y-1.31
X4.43Y-1.31
X4.46Y-1.34
X4.49Y-1.32
X4.54Y-1.32
X4.58Y-1.71
X4.59Y-1.32
X4.62Y-1.71
X4.66Y-1.71
X4.93Y-1.41
X5.0513Y-1.2513
X5.36Y-1.41
X5.59Y-1.54
X5.59Y-1.67
X5.59Y-1.76
X5.59Y-1.85
X5.59Y-1.94
X5.61Y-2.17
X5.61Y-2.25
X5.64Y-2.21
X5.66Y-1.3
X5.66Y-1.39
X5.67Y-2.17
X5.67Y-2.25
X5.68Y-1.9119
X5.7Y-2.21
X5.73Y-2.17
X5.73Y-2.25
X5.78Y-1.64
X5.78Y-1.7
X5.805Y-1.67
X5.83Y-1.64
X5.83Y-1.7
X5.855Y-1.67
X5.88Y-1.64
X5.88Y-1.7
X5.94Y-1.55
X5.94Y-1.78
X6.07Y-1.33
X6.07Y-1.42
X6.08Y-1.64
X6.09Y-1.2
T2
X3.44Y-1.19
T3
X3.45Y-2.0
X3.45Y-2.1
X3.45Y-2.2
X3.45Y-2.3
X3.45Y-2.4
X3.45Y-2.5
X3.45Y-2.6
X3.45Y-2.7
X3.75Y-1.2
X3.85Y-1.2
X4.35Y-2.0
X4.35Y-2.1
X4.35Y-2.2
X4.35Y-2.3
X5.1819Y-2.0
X5.1819Y-2.1
X5.1819Y-2.2
X5.1819Y-2.3
X5.1819Y-2.4
X5.1819Y-2.5
X5.1819Y-2.6
X5.1819Y-2.7
X5.4819Y-1.2
X5.5819Y-1.2
X5.6819Y-1.2
X5.7Y-2.4
X5.7Y-2.5
X5.7Y-2.6
X5.7Y-2.7
X5.7819Y-1.2
X5.84Y-2.4
X5.84Y-2.5
X5.84Y-2.6
X5.84Y-2.7
X5.98Y-2.4
X5.98Y-2.5
X5.98Y-2.6
X5.98Y-2.7
X6.0819Y-2.0
X6.0819Y-2.1
X6.0819Y-2.2
X6.0819Y-2.3
X6.0819Y-2.4
X6.0819Y-2.5
X6.0819Y-2.6
X6.0819Y-2.7
T4
X3.5878Y-1.3428
X3.5878Y-2.642
X5.4776Y-1.3428
X5.4776Y-2.642
T0
M30
