  0
SECTION
  2
HEADER
  9
$ANGBASE
  50
0.0
  9
$ANGDIR
  70
1
  9
$MEASUREMENT
  70
1
  0
ENDSEC
  0
SECTION
  2
TABLES
  0
TABLE
  2
LTYPE
  70
4
  0
LTYPE
  5
40F
  2
CONTINUOUS
  70
0
  3
Solid line
  72
65
  73
0
  40
0.0
  0
LTYPE
  5
410
  2
DASHDOT
 70
0
  3
Dash Dot ____ _ ____ _
 72
65
 73
4
 40
2.0
 49
1.25
 49
-0.25
 49
0.25
 49
-0.25
  0
LTYPE
  5
411
  2
DASHED
 70
0
  3
Dashed __ __ __ __ __
 72
65
 73
2
 40
0.75
 49
0.5
 49
-0.25
  0
LTYPE
  5
43B
  2
DOTTED
 70
0
  3
Dotted .  .  .  .
 72
65
 73
2
 40
0.2
 49
0.0
 49
-0.2
  0
ENDTAB
  0
TABLE
  2
STYLE
  70
4
  0
STYLE
  2
KICAD
  70
0
  40
0
  41
1
  42
1
  50
0
  71
0
  3
isocp.shx
  0
STYLE
  2
KICADB
  70
0
  40
0
  41
1
  42
1
  50
0
  71
0
  3
isocp.shx
  0
STYLE
  2
KICADI
  70
0
  40
0
  41
1
  42
1
  50
15
  71
0
  3
isocp.shx
  0
STYLE
  2
KICADBI
  70
0
  40
0
  41
1
  42
1
  50
15
  71
0
  3
isocp.shx
  0
ENDTAB
  0
TABLE
  2
LAYER
  70
1
  0
LAYER
  2
BLACK
  70
0
  62
7
  6
CONTINUOUS
  0
ENDTAB
  0
ENDSEC
  0
SECTION
  2
ENTITIES
0
LINE
8
BLACK
6
CONTINUOUS
10
145.63
20
-69.43
11
143.93
21
-69.43
0
LINE
8
BLACK
6
CONTINUOUS
10
143.93
20
-69.43
11
143.93
21
-67.73
0
LINE
8
BLACK
6
CONTINUOUS
10
143.93
20
-67.73
11
145.63
21
-67.73
0
LINE
8
BLACK
6
CONTINUOUS
10
145.63
20
-67.73
11
145.63
21
-69.43
0
LINE
8
BLACK
6
CONTINUOUS
10
152.14
20
-67.7627
11
152.295
21
-67.8267
0
LINE
8
BLACK
6
CONTINUOUS
10
152.295
20
-67.8267
11
152.434
21
-67.9198
0
LINE
8
BLACK
6
CONTINUOUS
10
152.434
20
-67.9198
11
152.552
21
-68.0382
0
LINE
8
BLACK
6
CONTINUOUS
10
152.552
20
-68.0382
11
152.645
21
-68.1774
0
LINE
8
BLACK
6
CONTINUOUS
10
152.645
20
-68.1774
11
152.709
21
-68.3321
0
LINE
8
BLACK
6
CONTINUOUS
10
152.709
20
-68.3321
11
152.742
21
-68.4963
0
LINE
8
BLACK
6
CONTINUOUS
10
152.742
20
-68.4963
11
152.742
21
-68.6637
0
LINE
8
BLACK
6
CONTINUOUS
10
152.742
20
-68.6637
11
152.709
21
-68.8279
0
LINE
8
BLACK
6
CONTINUOUS
10
152.709
20
-68.8279
11
152.645
21
-68.9826
0
LINE
8
BLACK
6
CONTINUOUS
10
152.645
20
-68.9826
11
152.552
21
-69.1218
0
LINE
8
BLACK
6
CONTINUOUS
10
152.552
20
-69.1218
11
152.434
21
-69.2402
0
LINE
8
BLACK
6
CONTINUOUS
10
152.434
20
-69.2402
11
152.295
21
-69.3333
0
LINE
8
BLACK
6
CONTINUOUS
10
152.295
20
-69.3333
11
152.14
21
-69.3973
0
LINE
8
BLACK
6
CONTINUOUS
10
152.14
20
-69.3973
11
151.976
21
-69.43
0
LINE
8
BLACK
6
CONTINUOUS
10
151.976
20
-69.43
11
151.808
21
-69.43
0
LINE
8
BLACK
6
CONTINUOUS
10
151.808
20
-69.43
11
151.644
21
-69.3973
0
LINE
8
BLACK
6
CONTINUOUS
10
151.644
20
-69.3973
11
151.489
21
-69.3333
0
LINE
8
BLACK
6
CONTINUOUS
10
151.489
20
-69.3333
11
151.35
21
-69.2402
0
LINE
8
BLACK
6
CONTINUOUS
10
151.35
20
-69.2402
11
151.232
21
-69.1218
0
LINE
8
BLACK
6
CONTINUOUS
10
151.232
20
-69.1218
11
151.139
21
-68.9826
0
LINE
8
BLACK
6
CONTINUOUS
10
151.139
20
-68.9826
11
151.075
21
-68.8279
0
LINE
8
BLACK
6
CONTINUOUS
10
151.075
20
-68.8279
11
151.042
21
-68.6637
0
LINE
8
BLACK
6
CONTINUOUS
10
151.042
20
-68.6637
11
151.042
21
-68.4963
0
LINE
8
BLACK
6
CONTINUOUS
10
151.042
20
-68.4963
11
151.075
21
-68.3321
0
LINE
8
BLACK
6
CONTINUOUS
10
151.075
20
-68.3321
11
151.139
21
-68.1774
0
LINE
8
BLACK
6
CONTINUOUS
10
151.139
20
-68.1774
11
151.232
21
-68.0382
0
LINE
8
BLACK
6
CONTINUOUS
10
151.232
20
-68.0382
11
151.35
21
-67.9198
0
LINE
8
BLACK
6
CONTINUOUS
10
151.35
20
-67.9198
11
151.489
21
-67.8267
0
LINE
8
BLACK
6
CONTINUOUS
10
151.489
20
-67.8267
11
151.644
21
-67.7627
0
LINE
8
BLACK
6
CONTINUOUS
10
151.644
20
-67.7627
11
151.808
21
-67.73
0
LINE
8
BLACK
6
CONTINUOUS
10
151.808
20
-67.73
11
151.976
21
-67.73
0
LINE
8
BLACK
6
CONTINUOUS
10
151.976
20
-67.73
11
152.14
21
-67.7627
0
LINE
8
BLACK
6
CONTINUOUS
10
87.8779
20
-67.7627
11
88.0326
21
-67.8267
0
LINE
8
BLACK
6
CONTINUOUS
10
88.0326
20
-67.8267
11
88.1718
21
-67.9198
0
LINE
8
BLACK
6
CONTINUOUS
10
88.1718
20
-67.9198
11
88.2902
21
-68.0382
0
LINE
8
BLACK
6
CONTINUOUS
10
88.2902
20
-68.0382
11
88.3833
21
-68.1774
0
LINE
8
BLACK
6
CONTINUOUS
10
88.3833
20
-68.1774
11
88.4473
21
-68.3321
0
LINE
8
BLACK
6
CONTINUOUS
10
88.4473
20
-68.3321
11
88.48
21
-68.4963
0
LINE
8
BLACK
6
CONTINUOUS
10
88.48
20
-68.4963
11
88.48
21
-68.6637
0
LINE
8
BLACK
6
CONTINUOUS
10
88.48
20
-68.6637
11
88.4473
21
-68.8279
0
LINE
8
BLACK
6
CONTINUOUS
10
88.4473
20
-68.8279
11
88.3833
21
-68.9826
0
LINE
8
BLACK
6
CONTINUOUS
10
88.3833
20
-68.9826
11
88.2902
21
-69.1218
0
LINE
8
BLACK
6
CONTINUOUS
10
88.2902
20
-69.1218
11
88.1718
21
-69.2402
0
LINE
8
BLACK
6
CONTINUOUS
10
88.1718
20
-69.2402
11
88.0326
21
-69.3333
0
LINE
8
BLACK
6
CONTINUOUS
10
88.0326
20
-69.3333
11
87.8779
21
-69.3973
0
LINE
8
BLACK
6
CONTINUOUS
10
87.8779
20
-69.3973
11
87.7137
21
-69.43
0
LINE
8
BLACK
6
CONTINUOUS
10
87.7137
20
-69.43
11
87.5463
21
-69.43
0
LINE
8
BLACK
6
CONTINUOUS
10
87.5463
20
-69.43
11
87.3821
21
-69.3973
0
LINE
8
BLACK
6
CONTINUOUS
10
87.3821
20
-69.3973
11
87.2274
21
-69.3333
0
LINE
8
BLACK
6
CONTINUOUS
10
87.2274
20
-69.3333
11
87.0882
21
-69.2402
0
LINE
8
BLACK
6
CONTINUOUS
10
87.0882
20
-69.2402
11
86.9698
21
-69.1218
0
LINE
8
BLACK
6
CONTINUOUS
10
86.9698
20
-69.1218
11
86.8767
21
-68.9826
0
LINE
8
BLACK
6
CONTINUOUS
10
86.8767
20
-68.9826
11
86.8127
21
-68.8279
0
LINE
8
BLACK
6
CONTINUOUS
10
86.8127
20
-68.8279
11
86.78
21
-68.6637
0
LINE
8
BLACK
6
CONTINUOUS
10
86.78
20
-68.6637
11
86.78
21
-68.4963
0
LINE
8
BLACK
6
CONTINUOUS
10
86.78
20
-68.4963
11
86.8127
21
-68.3321
0
LINE
8
BLACK
6
CONTINUOUS
10
86.8127
20
-68.3321
11
86.8767
21
-68.1774
0
LINE
8
BLACK
6
CONTINUOUS
10
86.8767
20
-68.1774
11
86.9698
21
-68.0382
0
LINE
8
BLACK
6
CONTINUOUS
10
86.9698
20
-68.0382
11
87.0882
21
-67.9198
0
LINE
8
BLACK
6
CONTINUOUS
10
87.0882
20
-67.9198
11
87.2274
21
-67.8267
0
LINE
8
BLACK
6
CONTINUOUS
10
87.2274
20
-67.8267
11
87.3821
21
-67.7627
0
LINE
8
BLACK
6
CONTINUOUS
10
87.3821
20
-67.7627
11
87.5463
21
-67.73
0
LINE
8
BLACK
6
CONTINUOUS
10
87.5463
20
-67.73
11
87.7137
21
-67.73
0
LINE
8
BLACK
6
CONTINUOUS
10
87.7137
20
-67.73
11
87.8779
21
-67.7627
0
LINE
8
BLACK
6
CONTINUOUS
10
149.186
20
-69.43
11
147.486
21
-69.43
0
LINE
8
BLACK
6
CONTINUOUS
10
147.486
20
-69.43
11
147.486
21
-67.73
0
LINE
8
BLACK
6
CONTINUOUS
10
147.486
20
-67.73
11
149.186
21
-67.73
0
LINE
8
BLACK
6
CONTINUOUS
10
149.186
20
-67.73
11
149.186
21
-69.43
0
LINE
8
BLACK
6
CONTINUOUS
10
131.868
20
-67.7627
11
132.023
21
-67.8267
0
LINE
8
BLACK
6
CONTINUOUS
10
132.023
20
-67.8267
11
132.162
21
-67.9198
0
LINE
8
BLACK
6
CONTINUOUS
10
132.162
20
-67.9198
11
132.28
21
-68.0382
0
LINE
8
BLACK
6
CONTINUOUS
10
132.28
20
-68.0382
11
132.373
21
-68.1774
0
LINE
8
BLACK
6
CONTINUOUS
10
132.373
20
-68.1774
11
132.437
21
-68.3321
0
LINE
8
BLACK
6
CONTINUOUS
10
132.437
20
-68.3321
11
132.47
21
-68.4963
0
LINE
8
BLACK
6
CONTINUOUS
10
132.47
20
-68.4963
11
132.47
21
-68.6637
0
LINE
8
BLACK
6
CONTINUOUS
10
132.47
20
-68.6637
11
132.437
21
-68.8279
0
LINE
8
BLACK
6
CONTINUOUS
10
132.437
20
-68.8279
11
132.373
21
-68.9826
0
LINE
8
BLACK
6
CONTINUOUS
10
132.373
20
-68.9826
11
132.28
21
-69.1218
0
LINE
8
BLACK
6
CONTINUOUS
10
132.28
20
-69.1218
11
132.162
21
-69.2402
0
LINE
8
BLACK
6
CONTINUOUS
10
132.162
20
-69.2402
11
132.023
21
-69.3333
0
LINE
8
BLACK
6
CONTINUOUS
10
132.023
20
-69.3333
11
131.868
21
-69.3973
0
LINE
8
BLACK
6
CONTINUOUS
10
131.868
20
-69.3973
11
131.704
21
-69.43
0
LINE
8
BLACK
6
CONTINUOUS
10
131.704
20
-69.43
11
131.536
21
-69.43
0
LINE
8
BLACK
6
CONTINUOUS
10
131.536
20
-69.43
11
131.372
21
-69.3973
0
LINE
8
BLACK
6
CONTINUOUS
10
131.372
20
-69.3973
11
131.217
21
-69.3333
0
LINE
8
BLACK
6
CONTINUOUS
10
131.217
20
-69.3333
11
131.078
21
-69.2402
0
LINE
8
BLACK
6
CONTINUOUS
10
131.078
20
-69.2402
11
130.96
21
-69.1218
0
LINE
8
BLACK
6
CONTINUOUS
10
130.96
20
-69.1218
11
130.867
21
-68.9826
0
LINE
8
BLACK
6
CONTINUOUS
10
130.867
20
-68.9826
11
130.803
21
-68.8279
0
LINE
8
BLACK
6
CONTINUOUS
10
130.803
20
-68.8279
11
130.77
21
-68.6637
0
LINE
8
BLACK
6
CONTINUOUS
10
130.77
20
-68.6637
11
130.77
21
-68.4963
0
LINE
8
BLACK
6
CONTINUOUS
10
130.77
20
-68.4963
11
130.803
21
-68.3321
0
LINE
8
BLACK
6
CONTINUOUS
10
130.803
20
-68.3321
11
130.867
21
-68.1774
0
LINE
8
BLACK
6
CONTINUOUS
10
130.867
20
-68.1774
11
130.96
21
-68.0382
0
LINE
8
BLACK
6
CONTINUOUS
10
130.96
20
-68.0382
11
131.078
21
-67.9198
0
LINE
8
BLACK
6
CONTINUOUS
10
131.078
20
-67.9198
11
131.217
21
-67.8267
0
LINE
8
BLACK
6
CONTINUOUS
10
131.217
20
-67.8267
11
131.372
21
-67.7627
0
LINE
8
BLACK
6
CONTINUOUS
10
131.372
20
-67.7627
11
131.536
21
-67.73
0
LINE
8
BLACK
6
CONTINUOUS
10
131.536
20
-67.73
11
131.704
21
-67.73
0
LINE
8
BLACK
6
CONTINUOUS
10
131.704
20
-67.73
11
131.868
21
-67.7627
0
LINE
8
BLACK
6
CONTINUOUS
10
154.728
20
-67.7627
11
154.883
21
-67.8267
0
LINE
8
BLACK
6
CONTINUOUS
10
154.883
20
-67.8267
11
155.022
21
-67.9198
0
LINE
8
BLACK
6
CONTINUOUS
10
155.022
20
-67.9198
11
155.14
21
-68.0382
0
LINE
8
BLACK
6
CONTINUOUS
10
155.14
20
-68.0382
11
155.233
21
-68.1774
0
LINE
8
BLACK
6
CONTINUOUS
10
155.233
20
-68.1774
11
155.297
21
-68.3321
0
LINE
8
BLACK
6
CONTINUOUS
10
155.297
20
-68.3321
11
155.33
21
-68.4963
0
LINE
8
BLACK
6
CONTINUOUS
10
155.33
20
-68.4963
11
155.33
21
-68.6637
0
LINE
8
BLACK
6
CONTINUOUS
10
155.33
20
-68.6637
11
155.297
21
-68.8279
0
LINE
8
BLACK
6
CONTINUOUS
10
155.297
20
-68.8279
11
155.233
21
-68.9826
0
LINE
8
BLACK
6
CONTINUOUS
10
155.233
20
-68.9826
11
155.14
21
-69.1218
0
LINE
8
BLACK
6
CONTINUOUS
10
155.14
20
-69.1218
11
155.022
21
-69.2402
0
LINE
8
BLACK
6
CONTINUOUS
10
155.022
20
-69.2402
11
154.883
21
-69.3333
0
LINE
8
BLACK
6
CONTINUOUS
10
154.883
20
-69.3333
11
154.728
21
-69.3973
0
LINE
8
BLACK
6
CONTINUOUS
10
154.728
20
-69.3973
11
154.564
21
-69.43
0
LINE
8
BLACK
6
CONTINUOUS
10
154.564
20
-69.43
11
154.396
21
-69.43
0
LINE
8
BLACK
6
CONTINUOUS
10
154.396
20
-69.43
11
154.232
21
-69.3973
0
LINE
8
BLACK
6
CONTINUOUS
10
154.232
20
-69.3973
11
154.077
21
-69.3333
0
LINE
8
BLACK
6
CONTINUOUS
10
154.077
20
-69.3333
11
153.938
21
-69.2402
0
LINE
8
BLACK
6
CONTINUOUS
10
153.938
20
-69.2402
11
153.82
21
-69.1218
0
LINE
8
BLACK
6
CONTINUOUS
10
153.82
20
-69.1218
11
153.727
21
-68.9826
0
LINE
8
BLACK
6
CONTINUOUS
10
153.727
20
-68.9826
11
153.663
21
-68.8279
0
LINE
8
BLACK
6
CONTINUOUS
10
153.663
20
-68.8279
11
153.63
21
-68.6637
0
LINE
8
BLACK
6
CONTINUOUS
10
153.63
20
-68.6637
11
153.63
21
-68.4963
0
LINE
8
BLACK
6
CONTINUOUS
10
153.63
20
-68.4963
11
153.663
21
-68.3321
0
LINE
8
BLACK
6
CONTINUOUS
10
153.663
20
-68.3321
11
153.727
21
-68.1774
0
LINE
8
BLACK
6
CONTINUOUS
10
153.727
20
-68.1774
11
153.82
21
-68.0382
0
LINE
8
BLACK
6
CONTINUOUS
10
153.82
20
-68.0382
11
153.938
21
-67.9198
0
LINE
8
BLACK
6
CONTINUOUS
10
153.938
20
-67.9198
11
154.077
21
-67.8267
0
LINE
8
BLACK
6
CONTINUOUS
10
154.077
20
-67.8267
11
154.232
21
-67.7627
0
LINE
8
BLACK
6
CONTINUOUS
10
154.232
20
-67.7627
11
154.396
21
-67.73
0
LINE
8
BLACK
6
CONTINUOUS
10
154.396
20
-67.73
11
154.564
21
-67.73
0
LINE
8
BLACK
6
CONTINUOUS
10
154.564
20
-67.73
11
154.728
21
-67.7627
0
LINE
8
BLACK
6
CONTINUOUS
10
154.728
20
-65.2227
11
154.883
21
-65.2867
0
LINE
8
BLACK
6
CONTINUOUS
10
154.883
20
-65.2867
11
155.022
21
-65.3798
0
LINE
8
BLACK
6
CONTINUOUS
10
155.022
20
-65.3798
11
155.14
21
-65.4982
0
LINE
8
BLACK
6
CONTINUOUS
10
155.14
20
-65.4982
11
155.233
21
-65.6374
0
LINE
8
BLACK
6
CONTINUOUS
10
155.233
20
-65.6374
11
155.297
21
-65.7921
0
LINE
8
BLACK
6
CONTINUOUS
10
155.297
20
-65.7921
11
155.33
21
-65.9563
0
LINE
8
BLACK
6
CONTINUOUS
10
155.33
20
-65.9563
11
155.33
21
-66.1237
0
LINE
8
BLACK
6
CONTINUOUS
10
155.33
20
-66.1237
11
155.297
21
-66.2879
0
LINE
8
BLACK
6
CONTINUOUS
10
155.297
20
-66.2879
11
155.233
21
-66.4426
0
LINE
8
BLACK
6
CONTINUOUS
10
155.233
20
-66.4426
11
155.14
21
-66.5818
0
LINE
8
BLACK
6
CONTINUOUS
10
155.14
20
-66.5818
11
155.022
21
-66.7002
0
LINE
8
BLACK
6
CONTINUOUS
10
155.022
20
-66.7002
11
154.883
21
-66.7933
0
LINE
8
BLACK
6
CONTINUOUS
10
154.883
20
-66.7933
11
154.728
21
-66.8573
0
LINE
8
BLACK
6
CONTINUOUS
10
154.728
20
-66.8573
11
154.564
21
-66.89
0
LINE
8
BLACK
6
CONTINUOUS
10
154.564
20
-66.89
11
154.396
21
-66.89
0
LINE
8
BLACK
6
CONTINUOUS
10
154.396
20
-66.89
11
154.232
21
-66.8573
0
LINE
8
BLACK
6
CONTINUOUS
10
154.232
20
-66.8573
11
154.077
21
-66.7933
0
LINE
8
BLACK
6
CONTINUOUS
10
154.077
20
-66.7933
11
153.938
21
-66.7002
0
LINE
8
BLACK
6
CONTINUOUS
10
153.938
20
-66.7002
11
153.82
21
-66.5818
0
LINE
8
BLACK
6
CONTINUOUS
10
153.82
20
-66.5818
11
153.727
21
-66.4426
0
LINE
8
BLACK
6
CONTINUOUS
10
153.727
20
-66.4426
11
153.663
21
-66.2879
0
LINE
8
BLACK
6
CONTINUOUS
10
153.663
20
-66.2879
11
153.63
21
-66.1237
0
LINE
8
BLACK
6
CONTINUOUS
10
153.63
20
-66.1237
11
153.63
21
-65.9563
0
LINE
8
BLACK
6
CONTINUOUS
10
153.63
20
-65.9563
11
153.663
21
-65.7921
0
LINE
8
BLACK
6
CONTINUOUS
10
153.663
20
-65.7921
11
153.727
21
-65.6374
0
LINE
8
BLACK
6
CONTINUOUS
10
153.727
20
-65.6374
11
153.82
21
-65.4982
0
LINE
8
BLACK
6
CONTINUOUS
10
153.82
20
-65.4982
11
153.938
21
-65.3798
0
LINE
8
BLACK
6
CONTINUOUS
10
153.938
20
-65.3798
11
154.077
21
-65.2867
0
LINE
8
BLACK
6
CONTINUOUS
10
154.077
20
-65.2867
11
154.232
21
-65.2227
0
LINE
8
BLACK
6
CONTINUOUS
10
154.232
20
-65.2227
11
154.396
21
-65.19
0
LINE
8
BLACK
6
CONTINUOUS
10
154.396
20
-65.19
11
154.564
21
-65.19
0
LINE
8
BLACK
6
CONTINUOUS
10
154.564
20
-65.19
11
154.728
21
-65.2227
0
LINE
8
BLACK
6
CONTINUOUS
10
152.14
20
-65.2227
11
152.295
21
-65.2867
0
LINE
8
BLACK
6
CONTINUOUS
10
152.295
20
-65.2867
11
152.434
21
-65.3798
0
LINE
8
BLACK
6
CONTINUOUS
10
152.434
20
-65.3798
11
152.552
21
-65.4982
0
LINE
8
BLACK
6
CONTINUOUS
10
152.552
20
-65.4982
11
152.645
21
-65.6374
0
LINE
8
BLACK
6
CONTINUOUS
10
152.645
20
-65.6374
11
152.709
21
-65.7921
0
LINE
8
BLACK
6
CONTINUOUS
10
152.709
20
-65.7921
11
152.742
21
-65.9563
0
LINE
8
BLACK
6
CONTINUOUS
10
152.742
20
-65.9563
11
152.742
21
-66.1237
0
LINE
8
BLACK
6
CONTINUOUS
10
152.742
20
-66.1237
11
152.709
21
-66.2879
0
LINE
8
BLACK
6
CONTINUOUS
10
152.709
20
-66.2879
11
152.645
21
-66.4426
0
LINE
8
BLACK
6
CONTINUOUS
10
152.645
20
-66.4426
11
152.552
21
-66.5818
0
LINE
8
BLACK
6
CONTINUOUS
10
152.552
20
-66.5818
11
152.434
21
-66.7002
0
LINE
8
BLACK
6
CONTINUOUS
10
152.434
20
-66.7002
11
152.295
21
-66.7933
0
LINE
8
BLACK
6
CONTINUOUS
10
152.295
20
-66.7933
11
152.14
21
-66.8573
0
LINE
8
BLACK
6
CONTINUOUS
10
152.14
20
-66.8573
11
151.976
21
-66.89
0
LINE
8
BLACK
6
CONTINUOUS
10
151.976
20
-66.89
11
151.808
21
-66.89
0
LINE
8
BLACK
6
CONTINUOUS
10
151.808
20
-66.89
11
151.644
21
-66.8573
0
LINE
8
BLACK
6
CONTINUOUS
10
151.644
20
-66.8573
11
151.489
21
-66.7933
0
LINE
8
BLACK
6
CONTINUOUS
10
151.489
20
-66.7933
11
151.35
21
-66.7002
0
LINE
8
BLACK
6
CONTINUOUS
10
151.35
20
-66.7002
11
151.232
21
-66.5818
0
LINE
8
BLACK
6
CONTINUOUS
10
151.232
20
-66.5818
11
151.139
21
-66.4426
0
LINE
8
BLACK
6
CONTINUOUS
10
151.139
20
-66.4426
11
151.075
21
-66.2879
0
LINE
8
BLACK
6
CONTINUOUS
10
151.075
20
-66.2879
11
151.042
21
-66.1237
0
LINE
8
BLACK
6
CONTINUOUS
10
151.042
20
-66.1237
11
151.042
21
-65.9563
0
LINE
8
BLACK
6
CONTINUOUS
10
151.042
20
-65.9563
11
151.075
21
-65.7921
0
LINE
8
BLACK
6
CONTINUOUS
10
151.075
20
-65.7921
11
151.139
21
-65.6374
0
LINE
8
BLACK
6
CONTINUOUS
10
151.139
20
-65.6374
11
151.232
21
-65.4982
0
LINE
8
BLACK
6
CONTINUOUS
10
151.232
20
-65.4982
11
151.35
21
-65.3798
0
LINE
8
BLACK
6
CONTINUOUS
10
151.35
20
-65.3798
11
151.489
21
-65.2867
0
LINE
8
BLACK
6
CONTINUOUS
10
151.489
20
-65.2867
11
151.644
21
-65.2227
0
LINE
8
BLACK
6
CONTINUOUS
10
151.644
20
-65.2227
11
151.808
21
-65.19
0
LINE
8
BLACK
6
CONTINUOUS
10
151.808
20
-65.19
11
151.976
21
-65.19
0
LINE
8
BLACK
6
CONTINUOUS
10
151.976
20
-65.19
11
152.14
21
-65.2227
0
LINE
8
BLACK
6
CONTINUOUS
10
87.8779
20
-65.2227
11
88.0326
21
-65.2867
0
LINE
8
BLACK
6
CONTINUOUS
10
88.0326
20
-65.2867
11
88.1718
21
-65.3798
0
LINE
8
BLACK
6
CONTINUOUS
10
88.1718
20
-65.3798
11
88.2902
21
-65.4982
0
LINE
8
BLACK
6
CONTINUOUS
10
88.2902
20
-65.4982
11
88.3833
21
-65.6374
0
LINE
8
BLACK
6
CONTINUOUS
10
88.3833
20
-65.6374
11
88.4473
21
-65.7921
0
LINE
8
BLACK
6
CONTINUOUS
10
88.4473
20
-65.7921
11
88.48
21
-65.9563
0
LINE
8
BLACK
6
CONTINUOUS
10
88.48
20
-65.9563
11
88.48
21
-66.1237
0
LINE
8
BLACK
6
CONTINUOUS
10
88.48
20
-66.1237
11
88.4473
21
-66.2879
0
LINE
8
BLACK
6
CONTINUOUS
10
88.4473
20
-66.2879
11
88.3833
21
-66.4426
0
LINE
8
BLACK
6
CONTINUOUS
10
88.3833
20
-66.4426
11
88.2902
21
-66.5818
0
LINE
8
BLACK
6
CONTINUOUS
10
88.2902
20
-66.5818
11
88.1718
21
-66.7002
0
LINE
8
BLACK
6
CONTINUOUS
10
88.1718
20
-66.7002
11
88.0326
21
-66.7933
0
LINE
8
BLACK
6
CONTINUOUS
10
88.0326
20
-66.7933
11
87.8779
21
-66.8573
0
LINE
8
BLACK
6
CONTINUOUS
10
87.8779
20
-66.8573
11
87.7137
21
-66.89
0
LINE
8
BLACK
6
CONTINUOUS
10
87.7137
20
-66.89
11
87.5463
21
-66.89
0
LINE
8
BLACK
6
CONTINUOUS
10
87.5463
20
-66.89
11
87.3821
21
-66.8573
0
LINE
8
BLACK
6
CONTINUOUS
10
87.3821
20
-66.8573
11
87.2274
21
-66.7933
0
LINE
8
BLACK
6
CONTINUOUS
10
87.2274
20
-66.7933
11
87.0882
21
-66.7002
0
LINE
8
BLACK
6
CONTINUOUS
10
87.0882
20
-66.7002
11
86.9698
21
-66.5818
0
LINE
8
BLACK
6
CONTINUOUS
10
86.9698
20
-66.5818
11
86.8767
21
-66.4426
0
LINE
8
BLACK
6
CONTINUOUS
10
86.8767
20
-66.4426
11
86.8127
21
-66.2879
0
LINE
8
BLACK
6
CONTINUOUS
10
86.8127
20
-66.2879
11
86.78
21
-66.1237
0
LINE
8
BLACK
6
CONTINUOUS
10
86.78
20
-66.1237
11
86.78
21
-65.9563
0
LINE
8
BLACK
6
CONTINUOUS
10
86.78
20
-65.9563
11
86.8127
21
-65.7921
0
LINE
8
BLACK
6
CONTINUOUS
10
86.8127
20
-65.7921
11
86.8767
21
-65.6374
0
LINE
8
BLACK
6
CONTINUOUS
10
86.8767
20
-65.6374
11
86.9698
21
-65.4982
0
LINE
8
BLACK
6
CONTINUOUS
10
86.9698
20
-65.4982
11
87.0882
21
-65.3798
0
LINE
8
BLACK
6
CONTINUOUS
10
87.0882
20
-65.3798
11
87.2274
21
-65.2867
0
LINE
8
BLACK
6
CONTINUOUS
10
87.2274
20
-65.2867
11
87.3821
21
-65.2227
0
LINE
8
BLACK
6
CONTINUOUS
10
87.3821
20
-65.2227
11
87.5463
21
-65.19
0
LINE
8
BLACK
6
CONTINUOUS
10
87.5463
20
-65.19
11
87.7137
21
-65.19
0
LINE
8
BLACK
6
CONTINUOUS
10
87.7137
20
-65.19
11
87.8779
21
-65.2227
0
LINE
8
BLACK
6
CONTINUOUS
10
148.584
20
-65.2227
11
148.739
21
-65.2867
0
LINE
8
BLACK
6
CONTINUOUS
10
148.739
20
-65.2867
11
148.878
21
-65.3798
0
LINE
8
BLACK
6
CONTINUOUS
10
148.878
20
-65.3798
11
148.996
21
-65.4982
0
LINE
8
BLACK
6
CONTINUOUS
10
148.996
20
-65.4982
11
149.089
21
-65.6374
0
LINE
8
BLACK
6
CONTINUOUS
10
149.089
20
-65.6374
11
149.153
21
-65.7921
0
LINE
8
BLACK
6
CONTINUOUS
10
149.153
20
-65.7921
11
149.186
21
-65.9563
0
LINE
8
BLACK
6
CONTINUOUS
10
149.186
20
-65.9563
11
149.186
21
-66.1237
0
LINE
8
BLACK
6
CONTINUOUS
10
149.186
20
-66.1237
11
149.153
21
-66.2879
0
LINE
8
BLACK
6
CONTINUOUS
10
149.153
20
-66.2879
11
149.089
21
-66.4426
0
LINE
8
BLACK
6
CONTINUOUS
10
149.089
20
-66.4426
11
148.996
21
-66.5818
0
LINE
8
BLACK
6
CONTINUOUS
10
148.996
20
-66.5818
11
148.878
21
-66.7002
0
LINE
8
BLACK
6
CONTINUOUS
10
148.878
20
-66.7002
11
148.739
21
-66.7933
0
LINE
8
BLACK
6
CONTINUOUS
10
148.739
20
-66.7933
11
148.584
21
-66.8573
0
LINE
8
BLACK
6
CONTINUOUS
10
148.584
20
-66.8573
11
148.42
21
-66.89
0
LINE
8
BLACK
6
CONTINUOUS
10
148.42
20
-66.89
11
148.252
21
-66.89
0
LINE
8
BLACK
6
CONTINUOUS
10
148.252
20
-66.89
11
148.088
21
-66.8573
0
LINE
8
BLACK
6
CONTINUOUS
10
148.088
20
-66.8573
11
147.933
21
-66.7933
0
LINE
8
BLACK
6
CONTINUOUS
10
147.933
20
-66.7933
11
147.794
21
-66.7002
0
LINE
8
BLACK
6
CONTINUOUS
10
147.794
20
-66.7002
11
147.676
21
-66.5818
0
LINE
8
BLACK
6
CONTINUOUS
10
147.676
20
-66.5818
11
147.583
21
-66.4426
0
LINE
8
BLACK
6
CONTINUOUS
10
147.583
20
-66.4426
11
147.519
21
-66.2879
0
LINE
8
BLACK
6
CONTINUOUS
10
147.519
20
-66.2879
11
147.486
21
-66.1237
0
LINE
8
BLACK
6
CONTINUOUS
10
147.486
20
-66.1237
11
147.486
21
-65.9563
0
LINE
8
BLACK
6
CONTINUOUS
10
147.486
20
-65.9563
11
147.519
21
-65.7921
0
LINE
8
BLACK
6
CONTINUOUS
10
147.519
20
-65.7921
11
147.583
21
-65.6374
0
LINE
8
BLACK
6
CONTINUOUS
10
147.583
20
-65.6374
11
147.676
21
-65.4982
0
LINE
8
BLACK
6
CONTINUOUS
10
147.676
20
-65.4982
11
147.794
21
-65.3798
0
LINE
8
BLACK
6
CONTINUOUS
10
147.794
20
-65.3798
11
147.933
21
-65.2867
0
LINE
8
BLACK
6
CONTINUOUS
10
147.933
20
-65.2867
11
148.088
21
-65.2227
0
LINE
8
BLACK
6
CONTINUOUS
10
148.088
20
-65.2227
11
148.252
21
-65.19
0
LINE
8
BLACK
6
CONTINUOUS
10
148.252
20
-65.19
11
148.42
21
-65.19
0
LINE
8
BLACK
6
CONTINUOUS
10
148.42
20
-65.19
11
148.584
21
-65.2227
0
LINE
8
BLACK
6
CONTINUOUS
10
131.868
20
-65.2227
11
132.023
21
-65.2867
0
LINE
8
BLACK
6
CONTINUOUS
10
132.023
20
-65.2867
11
132.162
21
-65.3798
0
LINE
8
BLACK
6
CONTINUOUS
10
132.162
20
-65.3798
11
132.28
21
-65.4982
0
LINE
8
BLACK
6
CONTINUOUS
10
132.28
20
-65.4982
11
132.373
21
-65.6374
0
LINE
8
BLACK
6
CONTINUOUS
10
132.373
20
-65.6374
11
132.437
21
-65.7921
0
LINE
8
BLACK
6
CONTINUOUS
10
132.437
20
-65.7921
11
132.47
21
-65.9563
0
LINE
8
BLACK
6
CONTINUOUS
10
132.47
20
-65.9563
11
132.47
21
-66.1237
0
LINE
8
BLACK
6
CONTINUOUS
10
132.47
20
-66.1237
11
132.437
21
-66.2879
0
LINE
8
BLACK
6
CONTINUOUS
10
132.437
20
-66.2879
11
132.373
21
-66.4426
0
LINE
8
BLACK
6
CONTINUOUS
10
132.373
20
-66.4426
11
132.28
21
-66.5818
0
LINE
8
BLACK
6
CONTINUOUS
10
132.28
20
-66.5818
11
132.162
21
-66.7002
0
LINE
8
BLACK
6
CONTINUOUS
10
132.162
20
-66.7002
11
132.023
21
-66.7933
0
LINE
8
BLACK
6
CONTINUOUS
10
132.023
20
-66.7933
11
131.868
21
-66.8573
0
LINE
8
BLACK
6
CONTINUOUS
10
131.868
20
-66.8573
11
131.704
21
-66.89
0
LINE
8
BLACK
6
CONTINUOUS
10
131.704
20
-66.89
11
131.536
21
-66.89
0
LINE
8
BLACK
6
CONTINUOUS
10
131.536
20
-66.89
11
131.372
21
-66.8573
0
LINE
8
BLACK
6
CONTINUOUS
10
131.372
20
-66.8573
11
131.217
21
-66.7933
0
LINE
8
BLACK
6
CONTINUOUS
10
131.217
20
-66.7933
11
131.078
21
-66.7002
0
LINE
8
BLACK
6
CONTINUOUS
10
131.078
20
-66.7002
11
130.96
21
-66.5818
0
LINE
8
BLACK
6
CONTINUOUS
10
130.96
20
-66.5818
11
130.867
21
-66.4426
0
LINE
8
BLACK
6
CONTINUOUS
10
130.867
20
-66.4426
11
130.803
21
-66.2879
0
LINE
8
BLACK
6
CONTINUOUS
10
130.803
20
-66.2879
11
130.77
21
-66.1237
0
LINE
8
BLACK
6
CONTINUOUS
10
130.77
20
-66.1237
11
130.77
21
-65.9563
0
LINE
8
BLACK
6
CONTINUOUS
10
130.77
20
-65.9563
11
130.803
21
-65.7921
0
LINE
8
BLACK
6
CONTINUOUS
10
130.803
20
-65.7921
11
130.867
21
-65.6374
0
LINE
8
BLACK
6
CONTINUOUS
10
130.867
20
-65.6374
11
130.96
21
-65.4982
0
LINE
8
BLACK
6
CONTINUOUS
10
130.96
20
-65.4982
11
131.078
21
-65.3798
0
LINE
8
BLACK
6
CONTINUOUS
10
131.078
20
-65.3798
11
131.217
21
-65.2867
0
LINE
8
BLACK
6
CONTINUOUS
10
131.217
20
-65.2867
11
131.372
21
-65.2227
0
LINE
8
BLACK
6
CONTINUOUS
10
131.372
20
-65.2227
11
131.536
21
-65.19
0
LINE
8
BLACK
6
CONTINUOUS
10
131.536
20
-65.19
11
131.704
21
-65.19
0
LINE
8
BLACK
6
CONTINUOUS
10
131.704
20
-65.19
11
131.868
21
-65.2227
0
LINE
8
BLACK
6
CONTINUOUS
10
145.028
20
-65.2227
11
145.183
21
-65.2867
0
LINE
8
BLACK
6
CONTINUOUS
10
145.183
20
-65.2867
11
145.322
21
-65.3798
0
LINE
8
BLACK
6
CONTINUOUS
10
145.322
20
-65.3798
11
145.44
21
-65.4982
0
LINE
8
BLACK
6
CONTINUOUS
10
145.44
20
-65.4982
11
145.533
21
-65.6374
0
LINE
8
BLACK
6
CONTINUOUS
10
145.533
20
-65.6374
11
145.597
21
-65.7921
0
LINE
8
BLACK
6
CONTINUOUS
10
145.597
20
-65.7921
11
145.63
21
-65.9563
0
LINE
8
BLACK
6
CONTINUOUS
10
145.63
20
-65.9563
11
145.63
21
-66.1237
0
LINE
8
BLACK
6
CONTINUOUS
10
145.63
20
-66.1237
11
145.597
21
-66.2879
0
LINE
8
BLACK
6
CONTINUOUS
10
145.597
20
-66.2879
11
145.533
21
-66.4426
0
LINE
8
BLACK
6
CONTINUOUS
10
145.533
20
-66.4426
11
145.44
21
-66.5818
0
LINE
8
BLACK
6
CONTINUOUS
10
145.44
20
-66.5818
11
145.322
21
-66.7002
0
LINE
8
BLACK
6
CONTINUOUS
10
145.322
20
-66.7002
11
145.183
21
-66.7933
0
LINE
8
BLACK
6
CONTINUOUS
10
145.183
20
-66.7933
11
145.028
21
-66.8573
0
LINE
8
BLACK
6
CONTINUOUS
10
145.028
20
-66.8573
11
144.864
21
-66.89
0
LINE
8
BLACK
6
CONTINUOUS
10
144.864
20
-66.89
11
144.696
21
-66.89
0
LINE
8
BLACK
6
CONTINUOUS
10
144.696
20
-66.89
11
144.532
21
-66.8573
0
LINE
8
BLACK
6
CONTINUOUS
10
144.532
20
-66.8573
11
144.377
21
-66.7933
0
LINE
8
BLACK
6
CONTINUOUS
10
144.377
20
-66.7933
11
144.238
21
-66.7002
0
LINE
8
BLACK
6
CONTINUOUS
10
144.238
20
-66.7002
11
144.12
21
-66.5818
0
LINE
8
BLACK
6
CONTINUOUS
10
144.12
20
-66.5818
11
144.027
21
-66.4426
0
LINE
8
BLACK
6
CONTINUOUS
10
144.027
20
-66.4426
11
143.963
21
-66.2879
0
LINE
8
BLACK
6
CONTINUOUS
10
143.963
20
-66.2879
11
143.93
21
-66.1237
0
LINE
8
BLACK
6
CONTINUOUS
10
143.93
20
-66.1237
11
143.93
21
-65.9563
0
LINE
8
BLACK
6
CONTINUOUS
10
143.93
20
-65.9563
11
143.963
21
-65.7921
0
LINE
8
BLACK
6
CONTINUOUS
10
143.963
20
-65.7921
11
144.027
21
-65.6374
0
LINE
8
BLACK
6
CONTINUOUS
10
144.027
20
-65.6374
11
144.12
21
-65.4982
0
LINE
8
BLACK
6
CONTINUOUS
10
144.12
20
-65.4982
11
144.238
21
-65.3798
0
LINE
8
BLACK
6
CONTINUOUS
10
144.238
20
-65.3798
11
144.377
21
-65.2867
0
LINE
8
BLACK
6
CONTINUOUS
10
144.377
20
-65.2867
11
144.532
21
-65.2227
0
LINE
8
BLACK
6
CONTINUOUS
10
144.532
20
-65.2227
11
144.696
21
-65.19
0
LINE
8
BLACK
6
CONTINUOUS
10
144.696
20
-65.19
11
144.864
21
-65.19
0
LINE
8
BLACK
6
CONTINUOUS
10
144.864
20
-65.19
11
145.028
21
-65.2227
0
LINE
8
BLACK
6
CONTINUOUS
10
148.584
20
-62.6827
11
148.739
21
-62.7467
0
LINE
8
BLACK
6
CONTINUOUS
10
148.739
20
-62.7467
11
148.878
21
-62.8398
0
LINE
8
BLACK
6
CONTINUOUS
10
148.878
20
-62.8398
11
148.996
21
-62.9582
0
LINE
8
BLACK
6
CONTINUOUS
10
148.996
20
-62.9582
11
149.089
21
-63.0974
0
LINE
8
BLACK
6
CONTINUOUS
10
149.089
20
-63.0974
11
149.153
21
-63.2521
0
LINE
8
BLACK
6
CONTINUOUS
10
149.153
20
-63.2521
11
149.186
21
-63.4163
0
LINE
8
BLACK
6
CONTINUOUS
10
149.186
20
-63.4163
11
149.186
21
-63.5837
0
LINE
8
BLACK
6
CONTINUOUS
10
149.186
20
-63.5837
11
149.153
21
-63.7479
0
LINE
8
BLACK
6
CONTINUOUS
10
149.153
20
-63.7479
11
149.089
21
-63.9026
0
LINE
8
BLACK
6
CONTINUOUS
10
149.089
20
-63.9026
11
148.996
21
-64.0418
0
LINE
8
BLACK
6
CONTINUOUS
10
148.996
20
-64.0418
11
148.878
21
-64.1602
0
LINE
8
BLACK
6
CONTINUOUS
10
148.878
20
-64.1602
11
148.739
21
-64.2533
0
LINE
8
BLACK
6
CONTINUOUS
10
148.739
20
-64.2533
11
148.584
21
-64.3173
0
LINE
8
BLACK
6
CONTINUOUS
10
148.584
20
-64.3173
11
148.42
21
-64.35
0
LINE
8
BLACK
6
CONTINUOUS
10
148.42
20
-64.35
11
148.252
21
-64.35
0
LINE
8
BLACK
6
CONTINUOUS
10
148.252
20
-64.35
11
148.088
21
-64.3173
0
LINE
8
BLACK
6
CONTINUOUS
10
148.088
20
-64.3173
11
147.933
21
-64.2533
0
LINE
8
BLACK
6
CONTINUOUS
10
147.933
20
-64.2533
11
147.794
21
-64.1602
0
LINE
8
BLACK
6
CONTINUOUS
10
147.794
20
-64.1602
11
147.676
21
-64.0418
0
LINE
8
BLACK
6
CONTINUOUS
10
147.676
20
-64.0418
11
147.583
21
-63.9026
0
LINE
8
BLACK
6
CONTINUOUS
10
147.583
20
-63.9026
11
147.519
21
-63.7479
0
LINE
8
BLACK
6
CONTINUOUS
10
147.519
20
-63.7479
11
147.486
21
-63.5837
0
LINE
8
BLACK
6
CONTINUOUS
10
147.486
20
-63.5837
11
147.486
21
-63.4163
0
LINE
8
BLACK
6
CONTINUOUS
10
147.486
20
-63.4163
11
147.519
21
-63.2521
0
LINE
8
BLACK
6
CONTINUOUS
10
147.519
20
-63.2521
11
147.583
21
-63.0974
0
LINE
8
BLACK
6
CONTINUOUS
10
147.583
20
-63.0974
11
147.676
21
-62.9582
0
LINE
8
BLACK
6
CONTINUOUS
10
147.676
20
-62.9582
11
147.794
21
-62.8398
0
LINE
8
BLACK
6
CONTINUOUS
10
147.794
20
-62.8398
11
147.933
21
-62.7467
0
LINE
8
BLACK
6
CONTINUOUS
10
147.933
20
-62.7467
11
148.088
21
-62.6827
0
LINE
8
BLACK
6
CONTINUOUS
10
148.088
20
-62.6827
11
148.252
21
-62.65
0
LINE
8
BLACK
6
CONTINUOUS
10
148.252
20
-62.65
11
148.42
21
-62.65
0
LINE
8
BLACK
6
CONTINUOUS
10
148.42
20
-62.65
11
148.584
21
-62.6827
0
LINE
8
BLACK
6
CONTINUOUS
10
152.14
20
-62.6827
11
152.295
21
-62.7467
0
LINE
8
BLACK
6
CONTINUOUS
10
152.295
20
-62.7467
11
152.434
21
-62.8398
0
LINE
8
BLACK
6
CONTINUOUS
10
152.434
20
-62.8398
11
152.552
21
-62.9582
0
LINE
8
BLACK
6
CONTINUOUS
10
152.552
20
-62.9582
11
152.645
21
-63.0974
0
LINE
8
BLACK
6
CONTINUOUS
10
152.645
20
-63.0974
11
152.709
21
-63.2521
0
LINE
8
BLACK
6
CONTINUOUS
10
152.709
20
-63.2521
11
152.742
21
-63.4163
0
LINE
8
BLACK
6
CONTINUOUS
10
152.742
20
-63.4163
11
152.742
21
-63.5837
0
LINE
8
BLACK
6
CONTINUOUS
10
152.742
20
-63.5837
11
152.709
21
-63.7479
0
LINE
8
BLACK
6
CONTINUOUS
10
152.709
20
-63.7479
11
152.645
21
-63.9026
0
LINE
8
BLACK
6
CONTINUOUS
10
152.645
20
-63.9026
11
152.552
21
-64.0418
0
LINE
8
BLACK
6
CONTINUOUS
10
152.552
20
-64.0418
11
152.434
21
-64.1602
0
LINE
8
BLACK
6
CONTINUOUS
10
152.434
20
-64.1602
11
152.295
21
-64.2533
0
LINE
8
BLACK
6
CONTINUOUS
10
152.295
20
-64.2533
11
152.14
21
-64.3173
0
LINE
8
BLACK
6
CONTINUOUS
10
152.14
20
-64.3173
11
151.976
21
-64.35
0
LINE
8
BLACK
6
CONTINUOUS
10
151.976
20
-64.35
11
151.808
21
-64.35
0
LINE
8
BLACK
6
CONTINUOUS
10
151.808
20
-64.35
11
151.644
21
-64.3173
0
LINE
8
BLACK
6
CONTINUOUS
10
151.644
20
-64.3173
11
151.489
21
-64.2533
0
LINE
8
BLACK
6
CONTINUOUS
10
151.489
20
-64.2533
11
151.35
21
-64.1602
0
LINE
8
BLACK
6
CONTINUOUS
10
151.35
20
-64.1602
11
151.232
21
-64.0418
0
LINE
8
BLACK
6
CONTINUOUS
10
151.232
20
-64.0418
11
151.139
21
-63.9026
0
LINE
8
BLACK
6
CONTINUOUS
10
151.139
20
-63.9026
11
151.075
21
-63.7479
0
LINE
8
BLACK
6
CONTINUOUS
10
151.075
20
-63.7479
11
151.042
21
-63.5837
0
LINE
8
BLACK
6
CONTINUOUS
10
151.042
20
-63.5837
11
151.042
21
-63.4163
0
LINE
8
BLACK
6
CONTINUOUS
10
151.042
20
-63.4163
11
151.075
21
-63.2521
0
LINE
8
BLACK
6
CONTINUOUS
10
151.075
20
-63.2521
11
151.139
21
-63.0974
0
LINE
8
BLACK
6
CONTINUOUS
10
151.139
20
-63.0974
11
151.232
21
-62.9582
0
LINE
8
BLACK
6
CONTINUOUS
10
151.232
20
-62.9582
11
151.35
21
-62.8398
0
LINE
8
BLACK
6
CONTINUOUS
10
151.35
20
-62.8398
11
151.489
21
-62.7467
0
LINE
8
BLACK
6
CONTINUOUS
10
151.489
20
-62.7467
11
151.644
21
-62.6827
0
LINE
8
BLACK
6
CONTINUOUS
10
151.644
20
-62.6827
11
151.808
21
-62.65
0
LINE
8
BLACK
6
CONTINUOUS
10
151.808
20
-62.65
11
151.976
21
-62.65
0
LINE
8
BLACK
6
CONTINUOUS
10
151.976
20
-62.65
11
152.14
21
-62.6827
0
LINE
8
BLACK
6
CONTINUOUS
10
87.8779
20
-62.6827
11
88.0326
21
-62.7467
0
LINE
8
BLACK
6
CONTINUOUS
10
88.0326
20
-62.7467
11
88.1718
21
-62.8398
0
LINE
8
BLACK
6
CONTINUOUS
10
88.1718
20
-62.8398
11
88.2902
21
-62.9582
0
LINE
8
BLACK
6
CONTINUOUS
10
88.2902
20
-62.9582
11
88.3833
21
-63.0974
0
LINE
8
BLACK
6
CONTINUOUS
10
88.3833
20
-63.0974
11
88.4473
21
-63.2521
0
LINE
8
BLACK
6
CONTINUOUS
10
88.4473
20
-63.2521
11
88.48
21
-63.4163
0
LINE
8
BLACK
6
CONTINUOUS
10
88.48
20
-63.4163
11
88.48
21
-63.5837
0
LINE
8
BLACK
6
CONTINUOUS
10
88.48
20
-63.5837
11
88.4473
21
-63.7479
0
LINE
8
BLACK
6
CONTINUOUS
10
88.4473
20
-63.7479
11
88.3833
21
-63.9026
0
LINE
8
BLACK
6
CONTINUOUS
10
88.3833
20
-63.9026
11
88.2902
21
-64.0418
0
LINE
8
BLACK
6
CONTINUOUS
10
88.2902
20
-64.0418
11
88.1718
21
-64.1602
0
LINE
8
BLACK
6
CONTINUOUS
10
88.1718
20
-64.1602
11
88.0326
21
-64.2533
0
LINE
8
BLACK
6
CONTINUOUS
10
88.0326
20
-64.2533
11
87.8779
21
-64.3173
0
LINE
8
BLACK
6
CONTINUOUS
10
87.8779
20
-64.3173
11
87.7137
21
-64.35
0
LINE
8
BLACK
6
CONTINUOUS
10
87.7137
20
-64.35
11
87.5463
21
-64.35
0
LINE
8
BLACK
6
CONTINUOUS
10
87.5463
20
-64.35
11
87.3821
21
-64.3173
0
LINE
8
BLACK
6
CONTINUOUS
10
87.3821
20
-64.3173
11
87.2274
21
-64.2533
0
LINE
8
BLACK
6
CONTINUOUS
10
87.2274
20
-64.2533
11
87.0882
21
-64.1602
0
LINE
8
BLACK
6
CONTINUOUS
10
87.0882
20
-64.1602
11
86.9698
21
-64.0418
0
LINE
8
BLACK
6
CONTINUOUS
10
86.9698
20
-64.0418
11
86.8767
21
-63.9026
0
LINE
8
BLACK
6
CONTINUOUS
10
86.8767
20
-63.9026
11
86.8127
21
-63.7479
0
LINE
8
BLACK
6
CONTINUOUS
10
86.8127
20
-63.7479
11
86.78
21
-63.5837
0
LINE
8
BLACK
6
CONTINUOUS
10
86.78
20
-63.5837
11
86.78
21
-63.4163
0
LINE
8
BLACK
6
CONTINUOUS
10
86.78
20
-63.4163
11
86.8127
21
-63.2521
0
LINE
8
BLACK
6
CONTINUOUS
10
86.8127
20
-63.2521
11
86.8767
21
-63.0974
0
LINE
8
BLACK
6
CONTINUOUS
10
86.8767
20
-63.0974
11
86.9698
21
-62.9582
0
LINE
8
BLACK
6
CONTINUOUS
10
86.9698
20
-62.9582
11
87.0882
21
-62.8398
0
LINE
8
BLACK
6
CONTINUOUS
10
87.0882
20
-62.8398
11
87.2274
21
-62.7467
0
LINE
8
BLACK
6
CONTINUOUS
10
87.2274
20
-62.7467
11
87.3821
21
-62.6827
0
LINE
8
BLACK
6
CONTINUOUS
10
87.3821
20
-62.6827
11
87.5463
21
-62.65
0
LINE
8
BLACK
6
CONTINUOUS
10
87.5463
20
-62.65
11
87.7137
21
-62.65
0
LINE
8
BLACK
6
CONTINUOUS
10
87.7137
20
-62.65
11
87.8779
21
-62.6827
0
LINE
8
BLACK
6
CONTINUOUS
10
154.728
20
-62.6827
11
154.883
21
-62.7467
0
LINE
8
BLACK
6
CONTINUOUS
10
154.883
20
-62.7467
11
155.022
21
-62.8398
0
LINE
8
BLACK
6
CONTINUOUS
10
155.022
20
-62.8398
11
155.14
21
-62.9582
0
LINE
8
BLACK
6
CONTINUOUS
10
155.14
20
-62.9582
11
155.233
21
-63.0974
0
LINE
8
BLACK
6
CONTINUOUS
10
155.233
20
-63.0974
11
155.297
21
-63.2521
0
LINE
8
BLACK
6
CONTINUOUS
10
155.297
20
-63.2521
11
155.33
21
-63.4163
0
LINE
8
BLACK
6
CONTINUOUS
10
155.33
20
-63.4163
11
155.33
21
-63.5837
0
LINE
8
BLACK
6
CONTINUOUS
10
155.33
20
-63.5837
11
155.297
21
-63.7479
0
LINE
8
BLACK
6
CONTINUOUS
10
155.297
20
-63.7479
11
155.233
21
-63.9026
0
LINE
8
BLACK
6
CONTINUOUS
10
155.233
20
-63.9026
11
155.14
21
-64.0418
0
LINE
8
BLACK
6
CONTINUOUS
10
155.14
20
-64.0418
11
155.022
21
-64.1602
0
LINE
8
BLACK
6
CONTINUOUS
10
155.022
20
-64.1602
11
154.883
21
-64.2533
0
LINE
8
BLACK
6
CONTINUOUS
10
154.883
20
-64.2533
11
154.728
21
-64.3173
0
LINE
8
BLACK
6
CONTINUOUS
10
154.728
20
-64.3173
11
154.564
21
-64.35
0
LINE
8
BLACK
6
CONTINUOUS
10
154.564
20
-64.35
11
154.396
21
-64.35
0
LINE
8
BLACK
6
CONTINUOUS
10
154.396
20
-64.35
11
154.232
21
-64.3173
0
LINE
8
BLACK
6
CONTINUOUS
10
154.232
20
-64.3173
11
154.077
21
-64.2533
0
LINE
8
BLACK
6
CONTINUOUS
10
154.077
20
-64.2533
11
153.938
21
-64.1602
0
LINE
8
BLACK
6
CONTINUOUS
10
153.938
20
-64.1602
11
153.82
21
-64.0418
0
LINE
8
BLACK
6
CONTINUOUS
10
153.82
20
-64.0418
11
153.727
21
-63.9026
0
LINE
8
BLACK
6
CONTINUOUS
10
153.727
20
-63.9026
11
153.663
21
-63.7479
0
LINE
8
BLACK
6
CONTINUOUS
10
153.663
20
-63.7479
11
153.63
21
-63.5837
0
LINE
8
BLACK
6
CONTINUOUS
10
153.63
20
-63.5837
11
153.63
21
-63.4163
0
LINE
8
BLACK
6
CONTINUOUS
10
153.63
20
-63.4163
11
153.663
21
-63.2521
0
LINE
8
BLACK
6
CONTINUOUS
10
153.663
20
-63.2521
11
153.727
21
-63.0974
0
LINE
8
BLACK
6
CONTINUOUS
10
153.727
20
-63.0974
11
153.82
21
-62.9582
0
LINE
8
BLACK
6
CONTINUOUS
10
153.82
20
-62.9582
11
153.938
21
-62.8398
0
LINE
8
BLACK
6
CONTINUOUS
10
153.938
20
-62.8398
11
154.077
21
-62.7467
0
LINE
8
BLACK
6
CONTINUOUS
10
154.077
20
-62.7467
11
154.232
21
-62.6827
0
LINE
8
BLACK
6
CONTINUOUS
10
154.232
20
-62.6827
11
154.396
21
-62.65
0
LINE
8
BLACK
6
CONTINUOUS
10
154.396
20
-62.65
11
154.564
21
-62.65
0
LINE
8
BLACK
6
CONTINUOUS
10
154.564
20
-62.65
11
154.728
21
-62.6827
0
LINE
8
BLACK
6
CONTINUOUS
10
145.028
20
-62.6827
11
145.183
21
-62.7467
0
LINE
8
BLACK
6
CONTINUOUS
10
145.183
20
-62.7467
11
145.322
21
-62.8398
0
LINE
8
BLACK
6
CONTINUOUS
10
145.322
20
-62.8398
11
145.44
21
-62.9582
0
LINE
8
BLACK
6
CONTINUOUS
10
145.44
20
-62.9582
11
145.533
21
-63.0974
0
LINE
8
BLACK
6
CONTINUOUS
10
145.533
20
-63.0974
11
145.597
21
-63.2521
0
LINE
8
BLACK
6
CONTINUOUS
10
145.597
20
-63.2521
11
145.63
21
-63.4163
0
LINE
8
BLACK
6
CONTINUOUS
10
145.63
20
-63.4163
11
145.63
21
-63.5837
0
LINE
8
BLACK
6
CONTINUOUS
10
145.63
20
-63.5837
11
145.597
21
-63.7479
0
LINE
8
BLACK
6
CONTINUOUS
10
145.597
20
-63.7479
11
145.533
21
-63.9026
0
LINE
8
BLACK
6
CONTINUOUS
10
145.533
20
-63.9026
11
145.44
21
-64.0418
0
LINE
8
BLACK
6
CONTINUOUS
10
145.44
20
-64.0418
11
145.322
21
-64.1602
0
LINE
8
BLACK
6
CONTINUOUS
10
145.322
20
-64.1602
11
145.183
21
-64.2533
0
LINE
8
BLACK
6
CONTINUOUS
10
145.183
20
-64.2533
11
145.028
21
-64.3173
0
LINE
8
BLACK
6
CONTINUOUS
10
145.028
20
-64.3173
11
144.864
21
-64.35
0
LINE
8
BLACK
6
CONTINUOUS
10
144.864
20
-64.35
11
144.696
21
-64.35
0
LINE
8
BLACK
6
CONTINUOUS
10
144.696
20
-64.35
11
144.532
21
-64.3173
0
LINE
8
BLACK
6
CONTINUOUS
10
144.532
20
-64.3173
11
144.377
21
-64.2533
0
LINE
8
BLACK
6
CONTINUOUS
10
144.377
20
-64.2533
11
144.238
21
-64.1602
0
LINE
8
BLACK
6
CONTINUOUS
10
144.238
20
-64.1602
11
144.12
21
-64.0418
0
LINE
8
BLACK
6
CONTINUOUS
10
144.12
20
-64.0418
11
144.027
21
-63.9026
0
LINE
8
BLACK
6
CONTINUOUS
10
144.027
20
-63.9026
11
143.963
21
-63.7479
0
LINE
8
BLACK
6
CONTINUOUS
10
143.963
20
-63.7479
11
143.93
21
-63.5837
0
LINE
8
BLACK
6
CONTINUOUS
10
143.93
20
-63.5837
11
143.93
21
-63.4163
0
LINE
8
BLACK
6
CONTINUOUS
10
143.93
20
-63.4163
11
143.963
21
-63.2521
0
LINE
8
BLACK
6
CONTINUOUS
10
143.963
20
-63.2521
11
144.027
21
-63.0974
0
LINE
8
BLACK
6
CONTINUOUS
10
144.027
20
-63.0974
11
144.12
21
-62.9582
0
LINE
8
BLACK
6
CONTINUOUS
10
144.12
20
-62.9582
11
144.238
21
-62.8398
0
LINE
8
BLACK
6
CONTINUOUS
10
144.238
20
-62.8398
11
144.377
21
-62.7467
0
LINE
8
BLACK
6
CONTINUOUS
10
144.377
20
-62.7467
11
144.532
21
-62.6827
0
LINE
8
BLACK
6
CONTINUOUS
10
144.532
20
-62.6827
11
144.696
21
-62.65
0
LINE
8
BLACK
6
CONTINUOUS
10
144.696
20
-62.65
11
144.864
21
-62.65
0
LINE
8
BLACK
6
CONTINUOUS
10
144.864
20
-62.65
11
145.028
21
-62.6827
0
LINE
8
BLACK
6
CONTINUOUS
10
131.868
20
-62.6827
11
132.023
21
-62.7467
0
LINE
8
BLACK
6
CONTINUOUS
10
132.023
20
-62.7467
11
132.162
21
-62.8398
0
LINE
8
BLACK
6
CONTINUOUS
10
132.162
20
-62.8398
11
132.28
21
-62.9582
0
LINE
8
BLACK
6
CONTINUOUS
10
132.28
20
-62.9582
11
132.373
21
-63.0974
0
LINE
8
BLACK
6
CONTINUOUS
10
132.373
20
-63.0974
11
132.437
21
-63.2521
0
LINE
8
BLACK
6
CONTINUOUS
10
132.437
20
-63.2521
11
132.47
21
-63.4163
0
LINE
8
BLACK
6
CONTINUOUS
10
132.47
20
-63.4163
11
132.47
21
-63.5837
0
LINE
8
BLACK
6
CONTINUOUS
10
132.47
20
-63.5837
11
132.437
21
-63.7479
0
LINE
8
BLACK
6
CONTINUOUS
10
132.437
20
-63.7479
11
132.373
21
-63.9026
0
LINE
8
BLACK
6
CONTINUOUS
10
132.373
20
-63.9026
11
132.28
21
-64.0418
0
LINE
8
BLACK
6
CONTINUOUS
10
132.28
20
-64.0418
11
132.162
21
-64.1602
0
LINE
8
BLACK
6
CONTINUOUS
10
132.162
20
-64.1602
11
132.023
21
-64.2533
0
LINE
8
BLACK
6
CONTINUOUS
10
132.023
20
-64.2533
11
131.868
21
-64.3173
0
LINE
8
BLACK
6
CONTINUOUS
10
131.868
20
-64.3173
11
131.704
21
-64.35
0
LINE
8
BLACK
6
CONTINUOUS
10
131.704
20
-64.35
11
131.536
21
-64.35
0
LINE
8
BLACK
6
CONTINUOUS
10
131.536
20
-64.35
11
131.372
21
-64.3173
0
LINE
8
BLACK
6
CONTINUOUS
10
131.372
20
-64.3173
11
131.217
21
-64.2533
0
LINE
8
BLACK
6
CONTINUOUS
10
131.217
20
-64.2533
11
131.078
21
-64.1602
0
LINE
8
BLACK
6
CONTINUOUS
10
131.078
20
-64.1602
11
130.96
21
-64.0418
0
LINE
8
BLACK
6
CONTINUOUS
10
130.96
20
-64.0418
11
130.867
21
-63.9026
0
LINE
8
BLACK
6
CONTINUOUS
10
130.867
20
-63.9026
11
130.803
21
-63.7479
0
LINE
8
BLACK
6
CONTINUOUS
10
130.803
20
-63.7479
11
130.77
21
-63.5837
0
LINE
8
BLACK
6
CONTINUOUS
10
130.77
20
-63.5837
11
130.77
21
-63.4163
0
LINE
8
BLACK
6
CONTINUOUS
10
130.77
20
-63.4163
11
130.803
21
-63.2521
0
LINE
8
BLACK
6
CONTINUOUS
10
130.803
20
-63.2521
11
130.867
21
-63.0974
0
LINE
8
BLACK
6
CONTINUOUS
10
130.867
20
-63.0974
11
130.96
21
-62.9582
0
LINE
8
BLACK
6
CONTINUOUS
10
130.96
20
-62.9582
11
131.078
21
-62.8398
0
LINE
8
BLACK
6
CONTINUOUS
10
131.078
20
-62.8398
11
131.217
21
-62.7467
0
LINE
8
BLACK
6
CONTINUOUS
10
131.217
20
-62.7467
11
131.372
21
-62.6827
0
LINE
8
BLACK
6
CONTINUOUS
10
131.372
20
-62.6827
11
131.536
21
-62.65
0
LINE
8
BLACK
6
CONTINUOUS
10
131.536
20
-62.65
11
131.704
21
-62.65
0
LINE
8
BLACK
6
CONTINUOUS
10
131.704
20
-62.65
11
131.868
21
-62.6827
0
LINE
8
BLACK
6
CONTINUOUS
10
145.028
20
-60.1427
11
145.183
21
-60.2067
0
LINE
8
BLACK
6
CONTINUOUS
10
145.183
20
-60.2067
11
145.322
21
-60.2998
0
LINE
8
BLACK
6
CONTINUOUS
10
145.322
20
-60.2998
11
145.44
21
-60.4182
0
LINE
8
BLACK
6
CONTINUOUS
10
145.44
20
-60.4182
11
145.533
21
-60.5574
0
LINE
8
BLACK
6
CONTINUOUS
10
145.533
20
-60.5574
11
145.597
21
-60.7121
0
LINE
8
BLACK
6
CONTINUOUS
10
145.597
20
-60.7121
11
145.63
21
-60.8763
0
LINE
8
BLACK
6
CONTINUOUS
10
145.63
20
-60.8763
11
145.63
21
-61.0437
0
LINE
8
BLACK
6
CONTINUOUS
10
145.63
20
-61.0437
11
145.597
21
-61.2079
0
LINE
8
BLACK
6
CONTINUOUS
10
145.597
20
-61.2079
11
145.533
21
-61.3626
0
LINE
8
BLACK
6
CONTINUOUS
10
145.533
20
-61.3626
11
145.44
21
-61.5018
0
LINE
8
BLACK
6
CONTINUOUS
10
145.44
20
-61.5018
11
145.322
21
-61.6202
0
LINE
8
BLACK
6
CONTINUOUS
10
145.322
20
-61.6202
11
145.183
21
-61.7133
0
LINE
8
BLACK
6
CONTINUOUS
10
145.183
20
-61.7133
11
145.028
21
-61.7773
0
LINE
8
BLACK
6
CONTINUOUS
10
145.028
20
-61.7773
11
144.864
21
-61.81
0
LINE
8
BLACK
6
CONTINUOUS
10
144.864
20
-61.81
11
144.696
21
-61.81
0
LINE
8
BLACK
6
CONTINUOUS
10
144.696
20
-61.81
11
144.532
21
-61.7773
0
LINE
8
BLACK
6
CONTINUOUS
10
144.532
20
-61.7773
11
144.377
21
-61.7133
0
LINE
8
BLACK
6
CONTINUOUS
10
144.377
20
-61.7133
11
144.238
21
-61.6202
0
LINE
8
BLACK
6
CONTINUOUS
10
144.238
20
-61.6202
11
144.12
21
-61.5018
0
LINE
8
BLACK
6
CONTINUOUS
10
144.12
20
-61.5018
11
144.027
21
-61.3626
0
LINE
8
BLACK
6
CONTINUOUS
10
144.027
20
-61.3626
11
143.963
21
-61.2079
0
LINE
8
BLACK
6
CONTINUOUS
10
143.963
20
-61.2079
11
143.93
21
-61.0437
0
LINE
8
BLACK
6
CONTINUOUS
10
143.93
20
-61.0437
11
143.93
21
-60.8763
0
LINE
8
BLACK
6
CONTINUOUS
10
143.93
20
-60.8763
11
143.963
21
-60.7121
0
LINE
8
BLACK
6
CONTINUOUS
10
143.963
20
-60.7121
11
144.027
21
-60.5574
0
LINE
8
BLACK
6
CONTINUOUS
10
144.027
20
-60.5574
11
144.12
21
-60.4182
0
LINE
8
BLACK
6
CONTINUOUS
10
144.12
20
-60.4182
11
144.238
21
-60.2998
0
LINE
8
BLACK
6
CONTINUOUS
10
144.238
20
-60.2998
11
144.377
21
-60.2067
0
LINE
8
BLACK
6
CONTINUOUS
10
144.377
20
-60.2067
11
144.532
21
-60.1427
0
LINE
8
BLACK
6
CONTINUOUS
10
144.532
20
-60.1427
11
144.696
21
-60.11
0
LINE
8
BLACK
6
CONTINUOUS
10
144.696
20
-60.11
11
144.864
21
-60.11
0
LINE
8
BLACK
6
CONTINUOUS
10
144.864
20
-60.11
11
145.028
21
-60.1427
0
LINE
8
BLACK
6
CONTINUOUS
10
154.728
20
-60.1427
11
154.883
21
-60.2067
0
LINE
8
BLACK
6
CONTINUOUS
10
154.883
20
-60.2067
11
155.022
21
-60.2998
0
LINE
8
BLACK
6
CONTINUOUS
10
155.022
20
-60.2998
11
155.14
21
-60.4182
0
LINE
8
BLACK
6
CONTINUOUS
10
155.14
20
-60.4182
11
155.233
21
-60.5574
0
LINE
8
BLACK
6
CONTINUOUS
10
155.233
20
-60.5574
11
155.297
21
-60.7121
0
LINE
8
BLACK
6
CONTINUOUS
10
155.297
20
-60.7121
11
155.33
21
-60.8763
0
LINE
8
BLACK
6
CONTINUOUS
10
155.33
20
-60.8763
11
155.33
21
-61.0437
0
LINE
8
BLACK
6
CONTINUOUS
10
155.33
20
-61.0437
11
155.297
21
-61.2079
0
LINE
8
BLACK
6
CONTINUOUS
10
155.297
20
-61.2079
11
155.233
21
-61.3626
0
LINE
8
BLACK
6
CONTINUOUS
10
155.233
20
-61.3626
11
155.14
21
-61.5018
0
LINE
8
BLACK
6
CONTINUOUS
10
155.14
20
-61.5018
11
155.022
21
-61.6202
0
LINE
8
BLACK
6
CONTINUOUS
10
155.022
20
-61.6202
11
154.883
21
-61.7133
0
LINE
8
BLACK
6
CONTINUOUS
10
154.883
20
-61.7133
11
154.728
21
-61.7773
0
LINE
8
BLACK
6
CONTINUOUS
10
154.728
20
-61.7773
11
154.564
21
-61.81
0
LINE
8
BLACK
6
CONTINUOUS
10
154.564
20
-61.81
11
154.396
21
-61.81
0
LINE
8
BLACK
6
CONTINUOUS
10
154.396
20
-61.81
11
154.232
21
-61.7773
0
LINE
8
BLACK
6
CONTINUOUS
10
154.232
20
-61.7773
11
154.077
21
-61.7133
0
LINE
8
BLACK
6
CONTINUOUS
10
154.077
20
-61.7133
11
153.938
21
-61.6202
0
LINE
8
BLACK
6
CONTINUOUS
10
153.938
20
-61.6202
11
153.82
21
-61.5018
0
LINE
8
BLACK
6
CONTINUOUS
10
153.82
20
-61.5018
11
153.727
21
-61.3626
0
LINE
8
BLACK
6
CONTINUOUS
10
153.727
20
-61.3626
11
153.663
21
-61.2079
0
LINE
8
BLACK
6
CONTINUOUS
10
153.663
20
-61.2079
11
153.63
21
-61.0437
0
LINE
8
BLACK
6
CONTINUOUS
10
153.63
20
-61.0437
11
153.63
21
-60.8763
0
LINE
8
BLACK
6
CONTINUOUS
10
153.63
20
-60.8763
11
153.663
21
-60.7121
0
LINE
8
BLACK
6
CONTINUOUS
10
153.663
20
-60.7121
11
153.727
21
-60.5574
0
LINE
8
BLACK
6
CONTINUOUS
10
153.727
20
-60.5574
11
153.82
21
-60.4182
0
LINE
8
BLACK
6
CONTINUOUS
10
153.82
20
-60.4182
11
153.938
21
-60.2998
0
LINE
8
BLACK
6
CONTINUOUS
10
153.938
20
-60.2998
11
154.077
21
-60.2067
0
LINE
8
BLACK
6
CONTINUOUS
10
154.077
20
-60.2067
11
154.232
21
-60.1427
0
LINE
8
BLACK
6
CONTINUOUS
10
154.232
20
-60.1427
11
154.396
21
-60.11
0
LINE
8
BLACK
6
CONTINUOUS
10
154.396
20
-60.11
11
154.564
21
-60.11
0
LINE
8
BLACK
6
CONTINUOUS
10
154.564
20
-60.11
11
154.728
21
-60.1427
0
LINE
8
BLACK
6
CONTINUOUS
10
131.868
20
-60.1427
11
132.023
21
-60.2067
0
LINE
8
BLACK
6
CONTINUOUS
10
132.023
20
-60.2067
11
132.162
21
-60.2998
0
LINE
8
BLACK
6
CONTINUOUS
10
132.162
20
-60.2998
11
132.28
21
-60.4182
0
LINE
8
BLACK
6
CONTINUOUS
10
132.28
20
-60.4182
11
132.373
21
-60.5574
0
LINE
8
BLACK
6
CONTINUOUS
10
132.373
20
-60.5574
11
132.437
21
-60.7121
0
LINE
8
BLACK
6
CONTINUOUS
10
132.437
20
-60.7121
11
132.47
21
-60.8763
0
LINE
8
BLACK
6
CONTINUOUS
10
132.47
20
-60.8763
11
132.47
21
-61.0437
0
LINE
8
BLACK
6
CONTINUOUS
10
132.47
20
-61.0437
11
132.437
21
-61.2079
0
LINE
8
BLACK
6
CONTINUOUS
10
132.437
20
-61.2079
11
132.373
21
-61.3626
0
LINE
8
BLACK
6
CONTINUOUS
10
132.373
20
-61.3626
11
132.28
21
-61.5018
0
LINE
8
BLACK
6
CONTINUOUS
10
132.28
20
-61.5018
11
132.162
21
-61.6202
0
LINE
8
BLACK
6
CONTINUOUS
10
132.162
20
-61.6202
11
132.023
21
-61.7133
0
LINE
8
BLACK
6
CONTINUOUS
10
132.023
20
-61.7133
11
131.868
21
-61.7773
0
LINE
8
BLACK
6
CONTINUOUS
10
131.868
20
-61.7773
11
131.704
21
-61.81
0
LINE
8
BLACK
6
CONTINUOUS
10
131.704
20
-61.81
11
131.536
21
-61.81
0
LINE
8
BLACK
6
CONTINUOUS
10
131.536
20
-61.81
11
131.372
21
-61.7773
0
LINE
8
BLACK
6
CONTINUOUS
10
131.372
20
-61.7773
11
131.217
21
-61.7133
0
LINE
8
BLACK
6
CONTINUOUS
10
131.217
20
-61.7133
11
131.078
21
-61.6202
0
LINE
8
BLACK
6
CONTINUOUS
10
131.078
20
-61.6202
11
130.96
21
-61.5018
0
LINE
8
BLACK
6
CONTINUOUS
10
130.96
20
-61.5018
11
130.867
21
-61.3626
0
LINE
8
BLACK
6
CONTINUOUS
10
130.867
20
-61.3626
11
130.803
21
-61.2079
0
LINE
8
BLACK
6
CONTINUOUS
10
130.803
20
-61.2079
11
130.77
21
-61.0437
0
LINE
8
BLACK
6
CONTINUOUS
10
130.77
20
-61.0437
11
130.77
21
-60.8763
0
LINE
8
BLACK
6
CONTINUOUS
10
130.77
20
-60.8763
11
130.803
21
-60.7121
0
LINE
8
BLACK
6
CONTINUOUS
10
130.803
20
-60.7121
11
130.867
21
-60.5574
0
LINE
8
BLACK
6
CONTINUOUS
10
130.867
20
-60.5574
11
130.96
21
-60.4182
0
LINE
8
BLACK
6
CONTINUOUS
10
130.96
20
-60.4182
11
131.078
21
-60.2998
0
LINE
8
BLACK
6
CONTINUOUS
10
131.078
20
-60.2998
11
131.217
21
-60.2067
0
LINE
8
BLACK
6
CONTINUOUS
10
131.217
20
-60.2067
11
131.372
21
-60.1427
0
LINE
8
BLACK
6
CONTINUOUS
10
131.372
20
-60.1427
11
131.536
21
-60.11
0
LINE
8
BLACK
6
CONTINUOUS
10
131.536
20
-60.11
11
131.704
21
-60.11
0
LINE
8
BLACK
6
CONTINUOUS
10
131.704
20
-60.11
11
131.868
21
-60.1427
0
LINE
8
BLACK
6
CONTINUOUS
10
152.742
20
-61.81
11
151.042
21
-61.81
0
LINE
8
BLACK
6
CONTINUOUS
10
151.042
20
-61.81
11
151.042
21
-60.11
0
LINE
8
BLACK
6
CONTINUOUS
10
151.042
20
-60.11
11
152.742
21
-60.11
0
LINE
8
BLACK
6
CONTINUOUS
10
152.742
20
-60.11
11
152.742
21
-61.81
0
LINE
8
BLACK
6
CONTINUOUS
10
148.584
20
-60.1427
11
148.739
21
-60.2067
0
LINE
8
BLACK
6
CONTINUOUS
10
148.739
20
-60.2067
11
148.878
21
-60.2998
0
LINE
8
BLACK
6
CONTINUOUS
10
148.878
20
-60.2998
11
148.996
21
-60.4182
0
LINE
8
BLACK
6
CONTINUOUS
10
148.996
20
-60.4182
11
149.089
21
-60.5574
0
LINE
8
BLACK
6
CONTINUOUS
10
149.089
20
-60.5574
11
149.153
21
-60.7121
0
LINE
8
BLACK
6
CONTINUOUS
10
149.153
20
-60.7121
11
149.186
21
-60.8763
0
LINE
8
BLACK
6
CONTINUOUS
10
149.186
20
-60.8763
11
149.186
21
-61.0437
0
LINE
8
BLACK
6
CONTINUOUS
10
149.186
20
-61.0437
11
149.153
21
-61.2079
0
LINE
8
BLACK
6
CONTINUOUS
10
149.153
20
-61.2079
11
149.089
21
-61.3626
0
LINE
8
BLACK
6
CONTINUOUS
10
149.089
20
-61.3626
11
148.996
21
-61.5018
0
LINE
8
BLACK
6
CONTINUOUS
10
148.996
20
-61.5018
11
148.878
21
-61.6202
0
LINE
8
BLACK
6
CONTINUOUS
10
148.878
20
-61.6202
11
148.739
21
-61.7133
0
LINE
8
BLACK
6
CONTINUOUS
10
148.739
20
-61.7133
11
148.584
21
-61.7773
0
LINE
8
BLACK
6
CONTINUOUS
10
148.584
20
-61.7773
11
148.42
21
-61.81
0
LINE
8
BLACK
6
CONTINUOUS
10
148.42
20
-61.81
11
148.252
21
-61.81
0
LINE
8
BLACK
6
CONTINUOUS
10
148.252
20
-61.81
11
148.088
21
-61.7773
0
LINE
8
BLACK
6
CONTINUOUS
10
148.088
20
-61.7773
11
147.933
21
-61.7133
0
LINE
8
BLACK
6
CONTINUOUS
10
147.933
20
-61.7133
11
147.794
21
-61.6202
0
LINE
8
BLACK
6
CONTINUOUS
10
147.794
20
-61.6202
11
147.676
21
-61.5018
0
LINE
8
BLACK
6
CONTINUOUS
10
147.676
20
-61.5018
11
147.583
21
-61.3626
0
LINE
8
BLACK
6
CONTINUOUS
10
147.583
20
-61.3626
11
147.519
21
-61.2079
0
LINE
8
BLACK
6
CONTINUOUS
10
147.519
20
-61.2079
11
147.486
21
-61.0437
0
LINE
8
BLACK
6
CONTINUOUS
10
147.486
20
-61.0437
11
147.486
21
-60.8763
0
LINE
8
BLACK
6
CONTINUOUS
10
147.486
20
-60.8763
11
147.519
21
-60.7121
0
LINE
8
BLACK
6
CONTINUOUS
10
147.519
20
-60.7121
11
147.583
21
-60.5574
0
LINE
8
BLACK
6
CONTINUOUS
10
147.583
20
-60.5574
11
147.676
21
-60.4182
0
LINE
8
BLACK
6
CONTINUOUS
10
147.676
20
-60.4182
11
147.794
21
-60.2998
0
LINE
8
BLACK
6
CONTINUOUS
10
147.794
20
-60.2998
11
147.933
21
-60.2067
0
LINE
8
BLACK
6
CONTINUOUS
10
147.933
20
-60.2067
11
148.088
21
-60.1427
0
LINE
8
BLACK
6
CONTINUOUS
10
148.088
20
-60.1427
11
148.252
21
-60.11
0
LINE
8
BLACK
6
CONTINUOUS
10
148.252
20
-60.11
11
148.42
21
-60.11
0
LINE
8
BLACK
6
CONTINUOUS
10
148.42
20
-60.11
11
148.584
21
-60.1427
0
LINE
8
BLACK
6
CONTINUOUS
10
87.8779
20
-60.1427
11
88.0326
21
-60.2067
0
LINE
8
BLACK
6
CONTINUOUS
10
88.0326
20
-60.2067
11
88.1718
21
-60.2998
0
LINE
8
BLACK
6
CONTINUOUS
10
88.1718
20
-60.2998
11
88.2902
21
-60.4182
0
LINE
8
BLACK
6
CONTINUOUS
10
88.2902
20
-60.4182
11
88.3833
21
-60.5574
0
LINE
8
BLACK
6
CONTINUOUS
10
88.3833
20
-60.5574
11
88.4473
21
-60.7121
0
LINE
8
BLACK
6
CONTINUOUS
10
88.4473
20
-60.7121
11
88.48
21
-60.8763
0
LINE
8
BLACK
6
CONTINUOUS
10
88.48
20
-60.8763
11
88.48
21
-61.0437
0
LINE
8
BLACK
6
CONTINUOUS
10
88.48
20
-61.0437
11
88.4473
21
-61.2079
0
LINE
8
BLACK
6
CONTINUOUS
10
88.4473
20
-61.2079
11
88.3833
21
-61.3626
0
LINE
8
BLACK
6
CONTINUOUS
10
88.3833
20
-61.3626
11
88.2902
21
-61.5018
0
LINE
8
BLACK
6
CONTINUOUS
10
88.2902
20
-61.5018
11
88.1718
21
-61.6202
0
LINE
8
BLACK
6
CONTINUOUS
10
88.1718
20
-61.6202
11
88.0326
21
-61.7133
0
LINE
8
BLACK
6
CONTINUOUS
10
88.0326
20
-61.7133
11
87.8779
21
-61.7773
0
LINE
8
BLACK
6
CONTINUOUS
10
87.8779
20
-61.7773
11
87.7137
21
-61.81
0
LINE
8
BLACK
6
CONTINUOUS
10
87.7137
20
-61.81
11
87.5463
21
-61.81
0
LINE
8
BLACK
6
CONTINUOUS
10
87.5463
20
-61.81
11
87.3821
21
-61.7773
0
LINE
8
BLACK
6
CONTINUOUS
10
87.3821
20
-61.7773
11
87.2274
21
-61.7133
0
LINE
8
BLACK
6
CONTINUOUS
10
87.2274
20
-61.7133
11
87.0882
21
-61.6202
0
LINE
8
BLACK
6
CONTINUOUS
10
87.0882
20
-61.6202
11
86.9698
21
-61.5018
0
LINE
8
BLACK
6
CONTINUOUS
10
86.9698
20
-61.5018
11
86.8767
21
-61.3626
0
LINE
8
BLACK
6
CONTINUOUS
10
86.8767
20
-61.3626
11
86.8127
21
-61.2079
0
LINE
8
BLACK
6
CONTINUOUS
10
86.8127
20
-61.2079
11
86.78
21
-61.0437
0
LINE
8
BLACK
6
CONTINUOUS
10
86.78
20
-61.0437
11
86.78
21
-60.8763
0
LINE
8
BLACK
6
CONTINUOUS
10
86.78
20
-60.8763
11
86.8127
21
-60.7121
0
LINE
8
BLACK
6
CONTINUOUS
10
86.8127
20
-60.7121
11
86.8767
21
-60.5574
0
LINE
8
BLACK
6
CONTINUOUS
10
86.8767
20
-60.5574
11
86.9698
21
-60.4182
0
LINE
8
BLACK
6
CONTINUOUS
10
86.9698
20
-60.4182
11
87.0882
21
-60.2998
0
LINE
8
BLACK
6
CONTINUOUS
10
87.0882
20
-60.2998
11
87.2274
21
-60.2067
0
LINE
8
BLACK
6
CONTINUOUS
10
87.2274
20
-60.2067
11
87.3821
21
-60.1427
0
LINE
8
BLACK
6
CONTINUOUS
10
87.3821
20
-60.1427
11
87.5463
21
-60.11
0
LINE
8
BLACK
6
CONTINUOUS
10
87.5463
20
-60.11
11
87.7137
21
-60.11
0
LINE
8
BLACK
6
CONTINUOUS
10
87.7137
20
-60.11
11
87.8779
21
-60.1427
0
LINE
8
BLACK
6
CONTINUOUS
10
87.8779
20
-57.6027
11
88.0326
21
-57.6667
0
LINE
8
BLACK
6
CONTINUOUS
10
88.0326
20
-57.6667
11
88.1718
21
-57.7598
0
LINE
8
BLACK
6
CONTINUOUS
10
88.1718
20
-57.7598
11
88.2902
21
-57.8782
0
LINE
8
BLACK
6
CONTINUOUS
10
88.2902
20
-57.8782
11
88.3833
21
-58.0174
0
LINE
8
BLACK
6
CONTINUOUS
10
88.3833
20
-58.0174
11
88.4473
21
-58.1721
0
LINE
8
BLACK
6
CONTINUOUS
10
88.4473
20
-58.1721
11
88.48
21
-58.3363
0
LINE
8
BLACK
6
CONTINUOUS
10
88.48
20
-58.3363
11
88.48
21
-58.5037
0
LINE
8
BLACK
6
CONTINUOUS
10
88.48
20
-58.5037
11
88.4473
21
-58.6679
0
LINE
8
BLACK
6
CONTINUOUS
10
88.4473
20
-58.6679
11
88.3833
21
-58.8226
0
LINE
8
BLACK
6
CONTINUOUS
10
88.3833
20
-58.8226
11
88.2902
21
-58.9618
0
LINE
8
BLACK
6
CONTINUOUS
10
88.2902
20
-58.9618
11
88.1718
21
-59.0802
0
LINE
8
BLACK
6
CONTINUOUS
10
88.1718
20
-59.0802
11
88.0326
21
-59.1733
0
LINE
8
BLACK
6
CONTINUOUS
10
88.0326
20
-59.1733
11
87.8779
21
-59.2373
0
LINE
8
BLACK
6
CONTINUOUS
10
87.8779
20
-59.2373
11
87.7137
21
-59.27
0
LINE
8
BLACK
6
CONTINUOUS
10
87.7137
20
-59.27
11
87.5463
21
-59.27
0
LINE
8
BLACK
6
CONTINUOUS
10
87.5463
20
-59.27
11
87.3821
21
-59.2373
0
LINE
8
BLACK
6
CONTINUOUS
10
87.3821
20
-59.2373
11
87.2274
21
-59.1733
0
LINE
8
BLACK
6
CONTINUOUS
10
87.2274
20
-59.1733
11
87.0882
21
-59.0802
0
LINE
8
BLACK
6
CONTINUOUS
10
87.0882
20
-59.0802
11
86.9698
21
-58.9618
0
LINE
8
BLACK
6
CONTINUOUS
10
86.9698
20
-58.9618
11
86.8767
21
-58.8226
0
LINE
8
BLACK
6
CONTINUOUS
10
86.8767
20
-58.8226
11
86.8127
21
-58.6679
0
LINE
8
BLACK
6
CONTINUOUS
10
86.8127
20
-58.6679
11
86.78
21
-58.5037
0
LINE
8
BLACK
6
CONTINUOUS
10
86.78
20
-58.5037
11
86.78
21
-58.3363
0
LINE
8
BLACK
6
CONTINUOUS
10
86.78
20
-58.3363
11
86.8127
21
-58.1721
0
LINE
8
BLACK
6
CONTINUOUS
10
86.8127
20
-58.1721
11
86.8767
21
-58.0174
0
LINE
8
BLACK
6
CONTINUOUS
10
86.8767
20
-58.0174
11
86.9698
21
-57.8782
0
LINE
8
BLACK
6
CONTINUOUS
10
86.9698
20
-57.8782
11
87.0882
21
-57.7598
0
LINE
8
BLACK
6
CONTINUOUS
10
87.0882
20
-57.7598
11
87.2274
21
-57.6667
0
LINE
8
BLACK
6
CONTINUOUS
10
87.2274
20
-57.6667
11
87.3821
21
-57.6027
0
LINE
8
BLACK
6
CONTINUOUS
10
87.3821
20
-57.6027
11
87.5463
21
-57.57
0
LINE
8
BLACK
6
CONTINUOUS
10
87.5463
20
-57.57
11
87.7137
21
-57.57
0
LINE
8
BLACK
6
CONTINUOUS
10
87.7137
20
-57.57
11
87.8779
21
-57.6027
0
LINE
8
BLACK
6
CONTINUOUS
10
131.868
20
-57.6027
11
132.023
21
-57.6667
0
LINE
8
BLACK
6
CONTINUOUS
10
132.023
20
-57.6667
11
132.162
21
-57.7598
0
LINE
8
BLACK
6
CONTINUOUS
10
132.162
20
-57.7598
11
132.28
21
-57.8782
0
LINE
8
BLACK
6
CONTINUOUS
10
132.28
20
-57.8782
11
132.373
21
-58.0174
0
LINE
8
BLACK
6
CONTINUOUS
10
132.373
20
-58.0174
11
132.437
21
-58.1721
0
LINE
8
BLACK
6
CONTINUOUS
10
132.437
20
-58.1721
11
132.47
21
-58.3363
0
LINE
8
BLACK
6
CONTINUOUS
10
132.47
20
-58.3363
11
132.47
21
-58.5037
0
LINE
8
BLACK
6
CONTINUOUS
10
132.47
20
-58.5037
11
132.437
21
-58.6679
0
LINE
8
BLACK
6
CONTINUOUS
10
132.437
20
-58.6679
11
132.373
21
-58.8226
0
LINE
8
BLACK
6
CONTINUOUS
10
132.373
20
-58.8226
11
132.28
21
-58.9618
0
LINE
8
BLACK
6
CONTINUOUS
10
132.28
20
-58.9618
11
132.162
21
-59.0802
0
LINE
8
BLACK
6
CONTINUOUS
10
132.162
20
-59.0802
11
132.023
21
-59.1733
0
LINE
8
BLACK
6
CONTINUOUS
10
132.023
20
-59.1733
11
131.868
21
-59.2373
0
LINE
8
BLACK
6
CONTINUOUS
10
131.868
20
-59.2373
11
131.704
21
-59.27
0
LINE
8
BLACK
6
CONTINUOUS
10
131.704
20
-59.27
11
131.536
21
-59.27
0
LINE
8
BLACK
6
CONTINUOUS
10
131.536
20
-59.27
11
131.372
21
-59.2373
0
LINE
8
BLACK
6
CONTINUOUS
10
131.372
20
-59.2373
11
131.217
21
-59.1733
0
LINE
8
BLACK
6
CONTINUOUS
10
131.217
20
-59.1733
11
131.078
21
-59.0802
0
LINE
8
BLACK
6
CONTINUOUS
10
131.078
20
-59.0802
11
130.96
21
-58.9618
0
LINE
8
BLACK
6
CONTINUOUS
10
130.96
20
-58.9618
11
130.867
21
-58.8226
0
LINE
8
BLACK
6
CONTINUOUS
10
130.867
20
-58.8226
11
130.803
21
-58.6679
0
LINE
8
BLACK
6
CONTINUOUS
10
130.803
20
-58.6679
11
130.77
21
-58.5037
0
LINE
8
BLACK
6
CONTINUOUS
10
130.77
20
-58.5037
11
130.77
21
-58.3363
0
LINE
8
BLACK
6
CONTINUOUS
10
130.77
20
-58.3363
11
130.803
21
-58.1721
0
LINE
8
BLACK
6
CONTINUOUS
10
130.803
20
-58.1721
11
130.867
21
-58.0174
0
LINE
8
BLACK
6
CONTINUOUS
10
130.867
20
-58.0174
11
130.96
21
-57.8782
0
LINE
8
BLACK
6
CONTINUOUS
10
130.96
20
-57.8782
11
131.078
21
-57.7598
0
LINE
8
BLACK
6
CONTINUOUS
10
131.078
20
-57.7598
11
131.217
21
-57.6667
0
LINE
8
BLACK
6
CONTINUOUS
10
131.217
20
-57.6667
11
131.372
21
-57.6027
0
LINE
8
BLACK
6
CONTINUOUS
10
131.372
20
-57.6027
11
131.536
21
-57.57
0
LINE
8
BLACK
6
CONTINUOUS
10
131.536
20
-57.57
11
131.704
21
-57.57
0
LINE
8
BLACK
6
CONTINUOUS
10
131.704
20
-57.57
11
131.868
21
-57.6027
0
LINE
8
BLACK
6
CONTINUOUS
10
154.728
20
-57.6027
11
154.883
21
-57.6667
0
LINE
8
BLACK
6
CONTINUOUS
10
154.883
20
-57.6667
11
155.022
21
-57.7598
0
LINE
8
BLACK
6
CONTINUOUS
10
155.022
20
-57.7598
11
155.14
21
-57.8782
0
LINE
8
BLACK
6
CONTINUOUS
10
155.14
20
-57.8782
11
155.233
21
-58.0174
0
LINE
8
BLACK
6
CONTINUOUS
10
155.233
20
-58.0174
11
155.297
21
-58.1721
0
LINE
8
BLACK
6
CONTINUOUS
10
155.297
20
-58.1721
11
155.33
21
-58.3363
0
LINE
8
BLACK
6
CONTINUOUS
10
155.33
20
-58.3363
11
155.33
21
-58.5037
0
LINE
8
BLACK
6
CONTINUOUS
10
155.33
20
-58.5037
11
155.297
21
-58.6679
0
LINE
8
BLACK
6
CONTINUOUS
10
155.297
20
-58.6679
11
155.233
21
-58.8226
0
LINE
8
BLACK
6
CONTINUOUS
10
155.233
20
-58.8226
11
155.14
21
-58.9618
0
LINE
8
BLACK
6
CONTINUOUS
10
155.14
20
-58.9618
11
155.022
21
-59.0802
0
LINE
8
BLACK
6
CONTINUOUS
10
155.022
20
-59.0802
11
154.883
21
-59.1733
0
LINE
8
BLACK
6
CONTINUOUS
10
154.883
20
-59.1733
11
154.728
21
-59.2373
0
LINE
8
BLACK
6
CONTINUOUS
10
154.728
20
-59.2373
11
154.564
21
-59.27
0
LINE
8
BLACK
6
CONTINUOUS
10
154.564
20
-59.27
11
154.396
21
-59.27
0
LINE
8
BLACK
6
CONTINUOUS
10
154.396
20
-59.27
11
154.232
21
-59.2373
0
LINE
8
BLACK
6
CONTINUOUS
10
154.232
20
-59.2373
11
154.077
21
-59.1733
0
LINE
8
BLACK
6
CONTINUOUS
10
154.077
20
-59.1733
11
153.938
21
-59.0802
0
LINE
8
BLACK
6
CONTINUOUS
10
153.938
20
-59.0802
11
153.82
21
-58.9618
0
LINE
8
BLACK
6
CONTINUOUS
10
153.82
20
-58.9618
11
153.727
21
-58.8226
0
LINE
8
BLACK
6
CONTINUOUS
10
153.727
20
-58.8226
11
153.663
21
-58.6679
0
LINE
8
BLACK
6
CONTINUOUS
10
153.663
20
-58.6679
11
153.63
21
-58.5037
0
LINE
8
BLACK
6
CONTINUOUS
10
153.63
20
-58.5037
11
153.63
21
-58.3363
0
LINE
8
BLACK
6
CONTINUOUS
10
153.63
20
-58.3363
11
153.663
21
-58.1721
0
LINE
8
BLACK
6
CONTINUOUS
10
153.663
20
-58.1721
11
153.727
21
-58.0174
0
LINE
8
BLACK
6
CONTINUOUS
10
153.727
20
-58.0174
11
153.82
21
-57.8782
0
LINE
8
BLACK
6
CONTINUOUS
10
153.82
20
-57.8782
11
153.938
21
-57.7598
0
LINE
8
BLACK
6
CONTINUOUS
10
153.938
20
-57.7598
11
154.077
21
-57.6667
0
LINE
8
BLACK
6
CONTINUOUS
10
154.077
20
-57.6667
11
154.232
21
-57.6027
0
LINE
8
BLACK
6
CONTINUOUS
10
154.232
20
-57.6027
11
154.396
21
-57.57
0
LINE
8
BLACK
6
CONTINUOUS
10
154.396
20
-57.57
11
154.564
21
-57.57
0
LINE
8
BLACK
6
CONTINUOUS
10
154.564
20
-57.57
11
154.728
21
-57.6027
0
LINE
8
BLACK
6
CONTINUOUS
10
110.738
20
-57.6027
11
110.893
21
-57.6667
0
LINE
8
BLACK
6
CONTINUOUS
10
110.893
20
-57.6667
11
111.032
21
-57.7598
0
LINE
8
BLACK
6
CONTINUOUS
10
111.032
20
-57.7598
11
111.15
21
-57.8782
0
LINE
8
BLACK
6
CONTINUOUS
10
111.15
20
-57.8782
11
111.243
21
-58.0174
0
LINE
8
BLACK
6
CONTINUOUS
10
111.243
20
-58.0174
11
111.307
21
-58.1721
0
LINE
8
BLACK
6
CONTINUOUS
10
111.307
20
-58.1721
11
111.34
21
-58.3363
0
LINE
8
BLACK
6
CONTINUOUS
10
111.34
20
-58.3363
11
111.34
21
-58.5037
0
LINE
8
BLACK
6
CONTINUOUS
10
111.34
20
-58.5037
11
111.307
21
-58.6679
0
LINE
8
BLACK
6
CONTINUOUS
10
111.307
20
-58.6679
11
111.243
21
-58.8226
0
LINE
8
BLACK
6
CONTINUOUS
10
111.243
20
-58.8226
11
111.15
21
-58.9618
0
LINE
8
BLACK
6
CONTINUOUS
10
111.15
20
-58.9618
11
111.032
21
-59.0802
0
LINE
8
BLACK
6
CONTINUOUS
10
111.032
20
-59.0802
11
110.893
21
-59.1733
0
LINE
8
BLACK
6
CONTINUOUS
10
110.893
20
-59.1733
11
110.738
21
-59.2373
0
LINE
8
BLACK
6
CONTINUOUS
10
110.738
20
-59.2373
11
110.574
21
-59.27
0
LINE
8
BLACK
6
CONTINUOUS
10
110.574
20
-59.27
11
110.406
21
-59.27
0
LINE
8
BLACK
6
CONTINUOUS
10
110.406
20
-59.27
11
110.242
21
-59.2373
0
LINE
8
BLACK
6
CONTINUOUS
10
110.242
20
-59.2373
11
110.087
21
-59.1733
0
LINE
8
BLACK
6
CONTINUOUS
10
110.087
20
-59.1733
11
109.948
21
-59.0802
0
LINE
8
BLACK
6
CONTINUOUS
10
109.948
20
-59.0802
11
109.83
21
-58.9618
0
LINE
8
BLACK
6
CONTINUOUS
10
109.83
20
-58.9618
11
109.737
21
-58.8226
0
LINE
8
BLACK
6
CONTINUOUS
10
109.737
20
-58.8226
11
109.673
21
-58.6679
0
LINE
8
BLACK
6
CONTINUOUS
10
109.673
20
-58.6679
11
109.64
21
-58.5037
0
LINE
8
BLACK
6
CONTINUOUS
10
109.64
20
-58.5037
11
109.64
21
-58.3363
0
LINE
8
BLACK
6
CONTINUOUS
10
109.64
20
-58.3363
11
109.673
21
-58.1721
0
LINE
8
BLACK
6
CONTINUOUS
10
109.673
20
-58.1721
11
109.737
21
-58.0174
0
LINE
8
BLACK
6
CONTINUOUS
10
109.737
20
-58.0174
11
109.83
21
-57.8782
0
LINE
8
BLACK
6
CONTINUOUS
10
109.83
20
-57.8782
11
109.948
21
-57.7598
0
LINE
8
BLACK
6
CONTINUOUS
10
109.948
20
-57.7598
11
110.087
21
-57.6667
0
LINE
8
BLACK
6
CONTINUOUS
10
110.087
20
-57.6667
11
110.242
21
-57.6027
0
LINE
8
BLACK
6
CONTINUOUS
10
110.242
20
-57.6027
11
110.406
21
-57.57
0
LINE
8
BLACK
6
CONTINUOUS
10
110.406
20
-57.57
11
110.574
21
-57.57
0
LINE
8
BLACK
6
CONTINUOUS
10
110.574
20
-57.57
11
110.738
21
-57.6027
0
LINE
8
BLACK
6
CONTINUOUS
10
87.8779
20
-55.0627
11
88.0326
21
-55.1267
0
LINE
8
BLACK
6
CONTINUOUS
10
88.0326
20
-55.1267
11
88.1718
21
-55.2198
0
LINE
8
BLACK
6
CONTINUOUS
10
88.1718
20
-55.2198
11
88.2902
21
-55.3382
0
LINE
8
BLACK
6
CONTINUOUS
10
88.2902
20
-55.3382
11
88.3833
21
-55.4774
0
LINE
8
BLACK
6
CONTINUOUS
10
88.3833
20
-55.4774
11
88.4473
21
-55.6321
0
LINE
8
BLACK
6
CONTINUOUS
10
88.4473
20
-55.6321
11
88.48
21
-55.7963
0
LINE
8
BLACK
6
CONTINUOUS
10
88.48
20
-55.7963
11
88.48
21
-55.9637
0
LINE
8
BLACK
6
CONTINUOUS
10
88.48
20
-55.9637
11
88.4473
21
-56.1279
0
LINE
8
BLACK
6
CONTINUOUS
10
88.4473
20
-56.1279
11
88.3833
21
-56.2826
0
LINE
8
BLACK
6
CONTINUOUS
10
88.3833
20
-56.2826
11
88.2902
21
-56.4218
0
LINE
8
BLACK
6
CONTINUOUS
10
88.2902
20
-56.4218
11
88.1718
21
-56.5402
0
LINE
8
BLACK
6
CONTINUOUS
10
88.1718
20
-56.5402
11
88.0326
21
-56.6333
0
LINE
8
BLACK
6
CONTINUOUS
10
88.0326
20
-56.6333
11
87.8779
21
-56.6973
0
LINE
8
BLACK
6
CONTINUOUS
10
87.8779
20
-56.6973
11
87.7137
21
-56.73
0
LINE
8
BLACK
6
CONTINUOUS
10
87.7137
20
-56.73
11
87.5463
21
-56.73
0
LINE
8
BLACK
6
CONTINUOUS
10
87.5463
20
-56.73
11
87.3821
21
-56.6973
0
LINE
8
BLACK
6
CONTINUOUS
10
87.3821
20
-56.6973
11
87.2274
21
-56.6333
0
LINE
8
BLACK
6
CONTINUOUS
10
87.2274
20
-56.6333
11
87.0882
21
-56.5402
0
LINE
8
BLACK
6
CONTINUOUS
10
87.0882
20
-56.5402
11
86.9698
21
-56.4218
0
LINE
8
BLACK
6
CONTINUOUS
10
86.9698
20
-56.4218
11
86.8767
21
-56.2826
0
LINE
8
BLACK
6
CONTINUOUS
10
86.8767
20
-56.2826
11
86.8127
21
-56.1279
0
LINE
8
BLACK
6
CONTINUOUS
10
86.8127
20
-56.1279
11
86.78
21
-55.9637
0
LINE
8
BLACK
6
CONTINUOUS
10
86.78
20
-55.9637
11
86.78
21
-55.7963
0
LINE
8
BLACK
6
CONTINUOUS
10
86.78
20
-55.7963
11
86.8127
21
-55.6321
0
LINE
8
BLACK
6
CONTINUOUS
10
86.8127
20
-55.6321
11
86.8767
21
-55.4774
0
LINE
8
BLACK
6
CONTINUOUS
10
86.8767
20
-55.4774
11
86.9698
21
-55.3382
0
LINE
8
BLACK
6
CONTINUOUS
10
86.9698
20
-55.3382
11
87.0882
21
-55.2198
0
LINE
8
BLACK
6
CONTINUOUS
10
87.0882
20
-55.2198
11
87.2274
21
-55.1267
0
LINE
8
BLACK
6
CONTINUOUS
10
87.2274
20
-55.1267
11
87.3821
21
-55.0627
0
LINE
8
BLACK
6
CONTINUOUS
10
87.3821
20
-55.0627
11
87.5463
21
-55.03
0
LINE
8
BLACK
6
CONTINUOUS
10
87.5463
20
-55.03
11
87.7137
21
-55.03
0
LINE
8
BLACK
6
CONTINUOUS
10
87.7137
20
-55.03
11
87.8779
21
-55.0627
0
LINE
8
BLACK
6
CONTINUOUS
10
131.868
20
-55.0627
11
132.023
21
-55.1267
0
LINE
8
BLACK
6
CONTINUOUS
10
132.023
20
-55.1267
11
132.162
21
-55.2198
0
LINE
8
BLACK
6
CONTINUOUS
10
132.162
20
-55.2198
11
132.28
21
-55.3382
0
LINE
8
BLACK
6
CONTINUOUS
10
132.28
20
-55.3382
11
132.373
21
-55.4774
0
LINE
8
BLACK
6
CONTINUOUS
10
132.373
20
-55.4774
11
132.437
21
-55.6321
0
LINE
8
BLACK
6
CONTINUOUS
10
132.437
20
-55.6321
11
132.47
21
-55.7963
0
LINE
8
BLACK
6
CONTINUOUS
10
132.47
20
-55.7963
11
132.47
21
-55.9637
0
LINE
8
BLACK
6
CONTINUOUS
10
132.47
20
-55.9637
11
132.437
21
-56.1279
0
LINE
8
BLACK
6
CONTINUOUS
10
132.437
20
-56.1279
11
132.373
21
-56.2826
0
LINE
8
BLACK
6
CONTINUOUS
10
132.373
20
-56.2826
11
132.28
21
-56.4218
0
LINE
8
BLACK
6
CONTINUOUS
10
132.28
20
-56.4218
11
132.162
21
-56.5402
0
LINE
8
BLACK
6
CONTINUOUS
10
132.162
20
-56.5402
11
132.023
21
-56.6333
0
LINE
8
BLACK
6
CONTINUOUS
10
132.023
20
-56.6333
11
131.868
21
-56.6973
0
LINE
8
BLACK
6
CONTINUOUS
10
131.868
20
-56.6973
11
131.704
21
-56.73
0
LINE
8
BLACK
6
CONTINUOUS
10
131.704
20
-56.73
11
131.536
21
-56.73
0
LINE
8
BLACK
6
CONTINUOUS
10
131.536
20
-56.73
11
131.372
21
-56.6973
0
LINE
8
BLACK
6
CONTINUOUS
10
131.372
20
-56.6973
11
131.217
21
-56.6333
0
LINE
8
BLACK
6
CONTINUOUS
10
131.217
20
-56.6333
11
131.078
21
-56.5402
0
LINE
8
BLACK
6
CONTINUOUS
10
131.078
20
-56.5402
11
130.96
21
-56.4218
0
LINE
8
BLACK
6
CONTINUOUS
10
130.96
20
-56.4218
11
130.867
21
-56.2826
0
LINE
8
BLACK
6
CONTINUOUS
10
130.867
20
-56.2826
11
130.803
21
-56.1279
0
LINE
8
BLACK
6
CONTINUOUS
10
130.803
20
-56.1279
11
130.77
21
-55.9637
0
LINE
8
BLACK
6
CONTINUOUS
10
130.77
20
-55.9637
11
130.77
21
-55.7963
0
LINE
8
BLACK
6
CONTINUOUS
10
130.77
20
-55.7963
11
130.803
21
-55.6321
0
LINE
8
BLACK
6
CONTINUOUS
10
130.803
20
-55.6321
11
130.867
21
-55.4774
0
LINE
8
BLACK
6
CONTINUOUS
10
130.867
20
-55.4774
11
130.96
21
-55.3382
0
LINE
8
BLACK
6
CONTINUOUS
10
130.96
20
-55.3382
11
131.078
21
-55.2198
0
LINE
8
BLACK
6
CONTINUOUS
10
131.078
20
-55.2198
11
131.217
21
-55.1267
0
LINE
8
BLACK
6
CONTINUOUS
10
131.217
20
-55.1267
11
131.372
21
-55.0627
0
LINE
8
BLACK
6
CONTINUOUS
10
131.372
20
-55.0627
11
131.536
21
-55.03
0
LINE
8
BLACK
6
CONTINUOUS
10
131.536
20
-55.03
11
131.704
21
-55.03
0
LINE
8
BLACK
6
CONTINUOUS
10
131.704
20
-55.03
11
131.868
21
-55.0627
0
LINE
8
BLACK
6
CONTINUOUS
10
110.738
20
-55.0627
11
110.893
21
-55.1267
0
LINE
8
BLACK
6
CONTINUOUS
10
110.893
20
-55.1267
11
111.032
21
-55.2198
0
LINE
8
BLACK
6
CONTINUOUS
10
111.032
20
-55.2198
11
111.15
21
-55.3382
0
LINE
8
BLACK
6
CONTINUOUS
10
111.15
20
-55.3382
11
111.243
21
-55.4774
0
LINE
8
BLACK
6
CONTINUOUS
10
111.243
20
-55.4774
11
111.307
21
-55.6321
0
LINE
8
BLACK
6
CONTINUOUS
10
111.307
20
-55.6321
11
111.34
21
-55.7963
0
LINE
8
BLACK
6
CONTINUOUS
10
111.34
20
-55.7963
11
111.34
21
-55.9637
0
LINE
8
BLACK
6
CONTINUOUS
10
111.34
20
-55.9637
11
111.307
21
-56.1279
0
LINE
8
BLACK
6
CONTINUOUS
10
111.307
20
-56.1279
11
111.243
21
-56.2826
0
LINE
8
BLACK
6
CONTINUOUS
10
111.243
20
-56.2826
11
111.15
21
-56.4218
0
LINE
8
BLACK
6
CONTINUOUS
10
111.15
20
-56.4218
11
111.032
21
-56.5402
0
LINE
8
BLACK
6
CONTINUOUS
10
111.032
20
-56.5402
11
110.893
21
-56.6333
0
LINE
8
BLACK
6
CONTINUOUS
10
110.893
20
-56.6333
11
110.738
21
-56.6973
0
LINE
8
BLACK
6
CONTINUOUS
10
110.738
20
-56.6973
11
110.574
21
-56.73
0
LINE
8
BLACK
6
CONTINUOUS
10
110.574
20
-56.73
11
110.406
21
-56.73
0
LINE
8
BLACK
6
CONTINUOUS
10
110.406
20
-56.73
11
110.242
21
-56.6973
0
LINE
8
BLACK
6
CONTINUOUS
10
110.242
20
-56.6973
11
110.087
21
-56.6333
0
LINE
8
BLACK
6
CONTINUOUS
10
110.087
20
-56.6333
11
109.948
21
-56.5402
0
LINE
8
BLACK
6
CONTINUOUS
10
109.948
20
-56.5402
11
109.83
21
-56.4218
0
LINE
8
BLACK
6
CONTINUOUS
10
109.83
20
-56.4218
11
109.737
21
-56.2826
0
LINE
8
BLACK
6
CONTINUOUS
10
109.737
20
-56.2826
11
109.673
21
-56.1279
0
LINE
8
BLACK
6
CONTINUOUS
10
109.673
20
-56.1279
11
109.64
21
-55.9637
0
LINE
8
BLACK
6
CONTINUOUS
10
109.64
20
-55.9637
11
109.64
21
-55.7963
0
LINE
8
BLACK
6
CONTINUOUS
10
109.64
20
-55.7963
11
109.673
21
-55.6321
0
LINE
8
BLACK
6
CONTINUOUS
10
109.673
20
-55.6321
11
109.737
21
-55.4774
0
LINE
8
BLACK
6
CONTINUOUS
10
109.737
20
-55.4774
11
109.83
21
-55.3382
0
LINE
8
BLACK
6
CONTINUOUS
10
109.83
20
-55.3382
11
109.948
21
-55.2198
0
LINE
8
BLACK
6
CONTINUOUS
10
109.948
20
-55.2198
11
110.087
21
-55.1267
0
LINE
8
BLACK
6
CONTINUOUS
10
110.087
20
-55.1267
11
110.242
21
-55.0627
0
LINE
8
BLACK
6
CONTINUOUS
10
110.242
20
-55.0627
11
110.406
21
-55.03
0
LINE
8
BLACK
6
CONTINUOUS
10
110.406
20
-55.03
11
110.574
21
-55.03
0
LINE
8
BLACK
6
CONTINUOUS
10
110.574
20
-55.03
11
110.738
21
-55.0627
0
LINE
8
BLACK
6
CONTINUOUS
10
154.728
20
-55.0627
11
154.883
21
-55.1267
0
LINE
8
BLACK
6
CONTINUOUS
10
154.883
20
-55.1267
11
155.022
21
-55.2198
0
LINE
8
BLACK
6
CONTINUOUS
10
155.022
20
-55.2198
11
155.14
21
-55.3382
0
LINE
8
BLACK
6
CONTINUOUS
10
155.14
20
-55.3382
11
155.233
21
-55.4774
0
LINE
8
BLACK
6
CONTINUOUS
10
155.233
20
-55.4774
11
155.297
21
-55.6321
0
LINE
8
BLACK
6
CONTINUOUS
10
155.297
20
-55.6321
11
155.33
21
-55.7963
0
LINE
8
BLACK
6
CONTINUOUS
10
155.33
20
-55.7963
11
155.33
21
-55.9637
0
LINE
8
BLACK
6
CONTINUOUS
10
155.33
20
-55.9637
11
155.297
21
-56.1279
0
LINE
8
BLACK
6
CONTINUOUS
10
155.297
20
-56.1279
11
155.233
21
-56.2826
0
LINE
8
BLACK
6
CONTINUOUS
10
155.233
20
-56.2826
11
155.14
21
-56.4218
0
LINE
8
BLACK
6
CONTINUOUS
10
155.14
20
-56.4218
11
155.022
21
-56.5402
0
LINE
8
BLACK
6
CONTINUOUS
10
155.022
20
-56.5402
11
154.883
21
-56.6333
0
LINE
8
BLACK
6
CONTINUOUS
10
154.883
20
-56.6333
11
154.728
21
-56.6973
0
LINE
8
BLACK
6
CONTINUOUS
10
154.728
20
-56.6973
11
154.564
21
-56.73
0
LINE
8
BLACK
6
CONTINUOUS
10
154.564
20
-56.73
11
154.396
21
-56.73
0
LINE
8
BLACK
6
CONTINUOUS
10
154.396
20
-56.73
11
154.232
21
-56.6973
0
LINE
8
BLACK
6
CONTINUOUS
10
154.232
20
-56.6973
11
154.077
21
-56.6333
0
LINE
8
BLACK
6
CONTINUOUS
10
154.077
20
-56.6333
11
153.938
21
-56.5402
0
LINE
8
BLACK
6
CONTINUOUS
10
153.938
20
-56.5402
11
153.82
21
-56.4218
0
LINE
8
BLACK
6
CONTINUOUS
10
153.82
20
-56.4218
11
153.727
21
-56.2826
0
LINE
8
BLACK
6
CONTINUOUS
10
153.727
20
-56.2826
11
153.663
21
-56.1279
0
LINE
8
BLACK
6
CONTINUOUS
10
153.663
20
-56.1279
11
153.63
21
-55.9637
0
LINE
8
BLACK
6
CONTINUOUS
10
153.63
20
-55.9637
11
153.63
21
-55.7963
0
LINE
8
BLACK
6
CONTINUOUS
10
153.63
20
-55.7963
11
153.663
21
-55.6321
0
LINE
8
BLACK
6
CONTINUOUS
10
153.663
20
-55.6321
11
153.727
21
-55.4774
0
LINE
8
BLACK
6
CONTINUOUS
10
153.727
20
-55.4774
11
153.82
21
-55.3382
0
LINE
8
BLACK
6
CONTINUOUS
10
153.82
20
-55.3382
11
153.938
21
-55.2198
0
LINE
8
BLACK
6
CONTINUOUS
10
153.938
20
-55.2198
11
154.077
21
-55.1267
0
LINE
8
BLACK
6
CONTINUOUS
10
154.077
20
-55.1267
11
154.232
21
-55.0627
0
LINE
8
BLACK
6
CONTINUOUS
10
154.232
20
-55.0627
11
154.396
21
-55.03
0
LINE
8
BLACK
6
CONTINUOUS
10
154.396
20
-55.03
11
154.564
21
-55.03
0
LINE
8
BLACK
6
CONTINUOUS
10
154.564
20
-55.03
11
154.728
21
-55.0627
0
LINE
8
BLACK
6
CONTINUOUS
10
87.8779
20
-52.5227
11
88.0326
21
-52.5867
0
LINE
8
BLACK
6
CONTINUOUS
10
88.0326
20
-52.5867
11
88.1718
21
-52.6798
0
LINE
8
BLACK
6
CONTINUOUS
10
88.1718
20
-52.6798
11
88.2902
21
-52.7982
0
LINE
8
BLACK
6
CONTINUOUS
10
88.2902
20
-52.7982
11
88.3833
21
-52.9374
0
LINE
8
BLACK
6
CONTINUOUS
10
88.3833
20
-52.9374
11
88.4473
21
-53.0921
0
LINE
8
BLACK
6
CONTINUOUS
10
88.4473
20
-53.0921
11
88.48
21
-53.2563
0
LINE
8
BLACK
6
CONTINUOUS
10
88.48
20
-53.2563
11
88.48
21
-53.4237
0
LINE
8
BLACK
6
CONTINUOUS
10
88.48
20
-53.4237
11
88.4473
21
-53.5879
0
LINE
8
BLACK
6
CONTINUOUS
10
88.4473
20
-53.5879
11
88.3833
21
-53.7426
0
LINE
8
BLACK
6
CONTINUOUS
10
88.3833
20
-53.7426
11
88.2902
21
-53.8818
0
LINE
8
BLACK
6
CONTINUOUS
10
88.2902
20
-53.8818
11
88.1718
21
-54.0002
0
LINE
8
BLACK
6
CONTINUOUS
10
88.1718
20
-54.0002
11
88.0326
21
-54.0933
0
LINE
8
BLACK
6
CONTINUOUS
10
88.0326
20
-54.0933
11
87.8779
21
-54.1573
0
LINE
8
BLACK
6
CONTINUOUS
10
87.8779
20
-54.1573
11
87.7137
21
-54.19
0
LINE
8
BLACK
6
CONTINUOUS
10
87.7137
20
-54.19
11
87.5463
21
-54.19
0
LINE
8
BLACK
6
CONTINUOUS
10
87.5463
20
-54.19
11
87.3821
21
-54.1573
0
LINE
8
BLACK
6
CONTINUOUS
10
87.3821
20
-54.1573
11
87.2274
21
-54.0933
0
LINE
8
BLACK
6
CONTINUOUS
10
87.2274
20
-54.0933
11
87.0882
21
-54.0002
0
LINE
8
BLACK
6
CONTINUOUS
10
87.0882
20
-54.0002
11
86.9698
21
-53.8818
0
LINE
8
BLACK
6
CONTINUOUS
10
86.9698
20
-53.8818
11
86.8767
21
-53.7426
0
LINE
8
BLACK
6
CONTINUOUS
10
86.8767
20
-53.7426
11
86.8127
21
-53.5879
0
LINE
8
BLACK
6
CONTINUOUS
10
86.8127
20
-53.5879
11
86.78
21
-53.4237
0
LINE
8
BLACK
6
CONTINUOUS
10
86.78
20
-53.4237
11
86.78
21
-53.2563
0
LINE
8
BLACK
6
CONTINUOUS
10
86.78
20
-53.2563
11
86.8127
21
-53.0921
0
LINE
8
BLACK
6
CONTINUOUS
10
86.8127
20
-53.0921
11
86.8767
21
-52.9374
0
LINE
8
BLACK
6
CONTINUOUS
10
86.8767
20
-52.9374
11
86.9698
21
-52.7982
0
LINE
8
BLACK
6
CONTINUOUS
10
86.9698
20
-52.7982
11
87.0882
21
-52.6798
0
LINE
8
BLACK
6
CONTINUOUS
10
87.0882
20
-52.6798
11
87.2274
21
-52.5867
0
LINE
8
BLACK
6
CONTINUOUS
10
87.2274
20
-52.5867
11
87.3821
21
-52.5227
0
LINE
8
BLACK
6
CONTINUOUS
10
87.3821
20
-52.5227
11
87.5463
21
-52.49
0
LINE
8
BLACK
6
CONTINUOUS
10
87.5463
20
-52.49
11
87.7137
21
-52.49
0
LINE
8
BLACK
6
CONTINUOUS
10
87.7137
20
-52.49
11
87.8779
21
-52.5227
0
LINE
8
BLACK
6
CONTINUOUS
10
154.728
20
-52.5227
11
154.883
21
-52.5867
0
LINE
8
BLACK
6
CONTINUOUS
10
154.883
20
-52.5867
11
155.022
21
-52.6798
0
LINE
8
BLACK
6
CONTINUOUS
10
155.022
20
-52.6798
11
155.14
21
-52.7982
0
LINE
8
BLACK
6
CONTINUOUS
10
155.14
20
-52.7982
11
155.233
21
-52.9374
0
LINE
8
BLACK
6
CONTINUOUS
10
155.233
20
-52.9374
11
155.297
21
-53.0921
0
LINE
8
BLACK
6
CONTINUOUS
10
155.297
20
-53.0921
11
155.33
21
-53.2563
0
LINE
8
BLACK
6
CONTINUOUS
10
155.33
20
-53.2563
11
155.33
21
-53.4237
0
LINE
8
BLACK
6
CONTINUOUS
10
155.33
20
-53.4237
11
155.297
21
-53.5879
0
LINE
8
BLACK
6
CONTINUOUS
10
155.297
20
-53.5879
11
155.233
21
-53.7426
0
LINE
8
BLACK
6
CONTINUOUS
10
155.233
20
-53.7426
11
155.14
21
-53.8818
0
LINE
8
BLACK
6
CONTINUOUS
10
155.14
20
-53.8818
11
155.022
21
-54.0002
0
LINE
8
BLACK
6
CONTINUOUS
10
155.022
20
-54.0002
11
154.883
21
-54.0933
0
LINE
8
BLACK
6
CONTINUOUS
10
154.883
20
-54.0933
11
154.728
21
-54.1573
0
LINE
8
BLACK
6
CONTINUOUS
10
154.728
20
-54.1573
11
154.564
21
-54.19
0
LINE
8
BLACK
6
CONTINUOUS
10
154.564
20
-54.19
11
154.396
21
-54.19
0
LINE
8
BLACK
6
CONTINUOUS
10
154.396
20
-54.19
11
154.232
21
-54.1573
0
LINE
8
BLACK
6
CONTINUOUS
10
154.232
20
-54.1573
11
154.077
21
-54.0933
0
LINE
8
BLACK
6
CONTINUOUS
10
154.077
20
-54.0933
11
153.938
21
-54.0002
0
LINE
8
BLACK
6
CONTINUOUS
10
153.938
20
-54.0002
11
153.82
21
-53.8818
0
LINE
8
BLACK
6
CONTINUOUS
10
153.82
20
-53.8818
11
153.727
21
-53.7426
0
LINE
8
BLACK
6
CONTINUOUS
10
153.727
20
-53.7426
11
153.663
21
-53.5879
0
LINE
8
BLACK
6
CONTINUOUS
10
153.663
20
-53.5879
11
153.63
21
-53.4237
0
LINE
8
BLACK
6
CONTINUOUS
10
153.63
20
-53.4237
11
153.63
21
-53.2563
0
LINE
8
BLACK
6
CONTINUOUS
10
153.63
20
-53.2563
11
153.663
21
-53.0921
0
LINE
8
BLACK
6
CONTINUOUS
10
153.663
20
-53.0921
11
153.727
21
-52.9374
0
LINE
8
BLACK
6
CONTINUOUS
10
153.727
20
-52.9374
11
153.82
21
-52.7982
0
LINE
8
BLACK
6
CONTINUOUS
10
153.82
20
-52.7982
11
153.938
21
-52.6798
0
LINE
8
BLACK
6
CONTINUOUS
10
153.938
20
-52.6798
11
154.077
21
-52.5867
0
LINE
8
BLACK
6
CONTINUOUS
10
154.077
20
-52.5867
11
154.232
21
-52.5227
0
LINE
8
BLACK
6
CONTINUOUS
10
154.232
20
-52.5227
11
154.396
21
-52.49
0
LINE
8
BLACK
6
CONTINUOUS
10
154.396
20
-52.49
11
154.564
21
-52.49
0
LINE
8
BLACK
6
CONTINUOUS
10
154.564
20
-52.49
11
154.728
21
-52.5227
0
LINE
8
BLACK
6
CONTINUOUS
10
110.738
20
-52.5227
11
110.893
21
-52.5867
0
LINE
8
BLACK
6
CONTINUOUS
10
110.893
20
-52.5867
11
111.032
21
-52.6798
0
LINE
8
BLACK
6
CONTINUOUS
10
111.032
20
-52.6798
11
111.15
21
-52.7982
0
LINE
8
BLACK
6
CONTINUOUS
10
111.15
20
-52.7982
11
111.243
21
-52.9374
0
LINE
8
BLACK
6
CONTINUOUS
10
111.243
20
-52.9374
11
111.307
21
-53.0921
0
LINE
8
BLACK
6
CONTINUOUS
10
111.307
20
-53.0921
11
111.34
21
-53.2563
0
LINE
8
BLACK
6
CONTINUOUS
10
111.34
20
-53.2563
11
111.34
21
-53.4237
0
LINE
8
BLACK
6
CONTINUOUS
10
111.34
20
-53.4237
11
111.307
21
-53.5879
0
LINE
8
BLACK
6
CONTINUOUS
10
111.307
20
-53.5879
11
111.243
21
-53.7426
0
LINE
8
BLACK
6
CONTINUOUS
10
111.243
20
-53.7426
11
111.15
21
-53.8818
0
LINE
8
BLACK
6
CONTINUOUS
10
111.15
20
-53.8818
11
111.032
21
-54.0002
0
LINE
8
BLACK
6
CONTINUOUS
10
111.032
20
-54.0002
11
110.893
21
-54.0933
0
LINE
8
BLACK
6
CONTINUOUS
10
110.893
20
-54.0933
11
110.738
21
-54.1573
0
LINE
8
BLACK
6
CONTINUOUS
10
110.738
20
-54.1573
11
110.574
21
-54.19
0
LINE
8
BLACK
6
CONTINUOUS
10
110.574
20
-54.19
11
110.406
21
-54.19
0
LINE
8
BLACK
6
CONTINUOUS
10
110.406
20
-54.19
11
110.242
21
-54.1573
0
LINE
8
BLACK
6
CONTINUOUS
10
110.242
20
-54.1573
11
110.087
21
-54.0933
0
LINE
8
BLACK
6
CONTINUOUS
10
110.087
20
-54.0933
11
109.948
21
-54.0002
0
LINE
8
BLACK
6
CONTINUOUS
10
109.948
20
-54.0002
11
109.83
21
-53.8818
0
LINE
8
BLACK
6
CONTINUOUS
10
109.83
20
-53.8818
11
109.737
21
-53.7426
0
LINE
8
BLACK
6
CONTINUOUS
10
109.737
20
-53.7426
11
109.673
21
-53.5879
0
LINE
8
BLACK
6
CONTINUOUS
10
109.673
20
-53.5879
11
109.64
21
-53.4237
0
LINE
8
BLACK
6
CONTINUOUS
10
109.64
20
-53.4237
11
109.64
21
-53.2563
0
LINE
8
BLACK
6
CONTINUOUS
10
109.64
20
-53.2563
11
109.673
21
-53.0921
0
LINE
8
BLACK
6
CONTINUOUS
10
109.673
20
-53.0921
11
109.737
21
-52.9374
0
LINE
8
BLACK
6
CONTINUOUS
10
109.737
20
-52.9374
11
109.83
21
-52.7982
0
LINE
8
BLACK
6
CONTINUOUS
10
109.83
20
-52.7982
11
109.948
21
-52.6798
0
LINE
8
BLACK
6
CONTINUOUS
10
109.948
20
-52.6798
11
110.087
21
-52.5867
0
LINE
8
BLACK
6
CONTINUOUS
10
110.087
20
-52.5867
11
110.242
21
-52.5227
0
LINE
8
BLACK
6
CONTINUOUS
10
110.242
20
-52.5227
11
110.406
21
-52.49
0
LINE
8
BLACK
6
CONTINUOUS
10
110.406
20
-52.49
11
110.574
21
-52.49
0
LINE
8
BLACK
6
CONTINUOUS
10
110.574
20
-52.49
11
110.738
21
-52.5227
0
LINE
8
BLACK
6
CONTINUOUS
10
131.868
20
-52.5227
11
132.023
21
-52.5867
0
LINE
8
BLACK
6
CONTINUOUS
10
132.023
20
-52.5867
11
132.162
21
-52.6798
0
LINE
8
BLACK
6
CONTINUOUS
10
132.162
20
-52.6798
11
132.28
21
-52.7982
0
LINE
8
BLACK
6
CONTINUOUS
10
132.28
20
-52.7982
11
132.373
21
-52.9374
0
LINE
8
BLACK
6
CONTINUOUS
10
132.373
20
-52.9374
11
132.437
21
-53.0921
0
LINE
8
BLACK
6
CONTINUOUS
10
132.437
20
-53.0921
11
132.47
21
-53.2563
0
LINE
8
BLACK
6
CONTINUOUS
10
132.47
20
-53.2563
11
132.47
21
-53.4237
0
LINE
8
BLACK
6
CONTINUOUS
10
132.47
20
-53.4237
11
132.437
21
-53.5879
0
LINE
8
BLACK
6
CONTINUOUS
10
132.437
20
-53.5879
11
132.373
21
-53.7426
0
LINE
8
BLACK
6
CONTINUOUS
10
132.373
20
-53.7426
11
132.28
21
-53.8818
0
LINE
8
BLACK
6
CONTINUOUS
10
132.28
20
-53.8818
11
132.162
21
-54.0002
0
LINE
8
BLACK
6
CONTINUOUS
10
132.162
20
-54.0002
11
132.023
21
-54.0933
0
LINE
8
BLACK
6
CONTINUOUS
10
132.023
20
-54.0933
11
131.868
21
-54.1573
0
LINE
8
BLACK
6
CONTINUOUS
10
131.868
20
-54.1573
11
131.704
21
-54.19
0
LINE
8
BLACK
6
CONTINUOUS
10
131.704
20
-54.19
11
131.536
21
-54.19
0
LINE
8
BLACK
6
CONTINUOUS
10
131.536
20
-54.19
11
131.372
21
-54.1573
0
LINE
8
BLACK
6
CONTINUOUS
10
131.372
20
-54.1573
11
131.217
21
-54.0933
0
LINE
8
BLACK
6
CONTINUOUS
10
131.217
20
-54.0933
11
131.078
21
-54.0002
0
LINE
8
BLACK
6
CONTINUOUS
10
131.078
20
-54.0002
11
130.96
21
-53.8818
0
LINE
8
BLACK
6
CONTINUOUS
10
130.96
20
-53.8818
11
130.867
21
-53.7426
0
LINE
8
BLACK
6
CONTINUOUS
10
130.867
20
-53.7426
11
130.803
21
-53.5879
0
LINE
8
BLACK
6
CONTINUOUS
10
130.803
20
-53.5879
11
130.77
21
-53.4237
0
LINE
8
BLACK
6
CONTINUOUS
10
130.77
20
-53.4237
11
130.77
21
-53.2563
0
LINE
8
BLACK
6
CONTINUOUS
10
130.77
20
-53.2563
11
130.803
21
-53.0921
0
LINE
8
BLACK
6
CONTINUOUS
10
130.803
20
-53.0921
11
130.867
21
-52.9374
0
LINE
8
BLACK
6
CONTINUOUS
10
130.867
20
-52.9374
11
130.96
21
-52.7982
0
LINE
8
BLACK
6
CONTINUOUS
10
130.96
20
-52.7982
11
131.078
21
-52.6798
0
LINE
8
BLACK
6
CONTINUOUS
10
131.078
20
-52.6798
11
131.217
21
-52.5867
0
LINE
8
BLACK
6
CONTINUOUS
10
131.217
20
-52.5867
11
131.372
21
-52.5227
0
LINE
8
BLACK
6
CONTINUOUS
10
131.372
20
-52.5227
11
131.536
21
-52.49
0
LINE
8
BLACK
6
CONTINUOUS
10
131.536
20
-52.49
11
131.704
21
-52.49
0
LINE
8
BLACK
6
CONTINUOUS
10
131.704
20
-52.49
11
131.868
21
-52.5227
0
LINE
8
BLACK
6
CONTINUOUS
10
154.728
20
-49.9827
11
154.883
21
-50.0467
0
LINE
8
BLACK
6
CONTINUOUS
10
154.883
20
-50.0467
11
155.022
21
-50.1398
0
LINE
8
BLACK
6
CONTINUOUS
10
155.022
20
-50.1398
11
155.14
21
-50.2582
0
LINE
8
BLACK
6
CONTINUOUS
10
155.14
20
-50.2582
11
155.233
21
-50.3974
0
LINE
8
BLACK
6
CONTINUOUS
10
155.233
20
-50.3974
11
155.297
21
-50.5521
0
LINE
8
BLACK
6
CONTINUOUS
10
155.297
20
-50.5521
11
155.33
21
-50.7163
0
LINE
8
BLACK
6
CONTINUOUS
10
155.33
20
-50.7163
11
155.33
21
-50.8837
0
LINE
8
BLACK
6
CONTINUOUS
10
155.33
20
-50.8837
11
155.297
21
-51.0479
0
LINE
8
BLACK
6
CONTINUOUS
10
155.297
20
-51.0479
11
155.233
21
-51.2026
0
LINE
8
BLACK
6
CONTINUOUS
10
155.233
20
-51.2026
11
155.14
21
-51.3418
0
LINE
8
BLACK
6
CONTINUOUS
10
155.14
20
-51.3418
11
155.022
21
-51.4602
0
LINE
8
BLACK
6
CONTINUOUS
10
155.022
20
-51.4602
11
154.883
21
-51.5533
0
LINE
8
BLACK
6
CONTINUOUS
10
154.883
20
-51.5533
11
154.728
21
-51.6173
0
LINE
8
BLACK
6
CONTINUOUS
10
154.728
20
-51.6173
11
154.564
21
-51.65
0
LINE
8
BLACK
6
CONTINUOUS
10
154.564
20
-51.65
11
154.396
21
-51.65
0
LINE
8
BLACK
6
CONTINUOUS
10
154.396
20
-51.65
11
154.232
21
-51.6173
0
LINE
8
BLACK
6
CONTINUOUS
10
154.232
20
-51.6173
11
154.077
21
-51.5533
0
LINE
8
BLACK
6
CONTINUOUS
10
154.077
20
-51.5533
11
153.938
21
-51.4602
0
LINE
8
BLACK
6
CONTINUOUS
10
153.938
20
-51.4602
11
153.82
21
-51.3418
0
LINE
8
BLACK
6
CONTINUOUS
10
153.82
20
-51.3418
11
153.727
21
-51.2026
0
LINE
8
BLACK
6
CONTINUOUS
10
153.727
20
-51.2026
11
153.663
21
-51.0479
0
LINE
8
BLACK
6
CONTINUOUS
10
153.663
20
-51.0479
11
153.63
21
-50.8837
0
LINE
8
BLACK
6
CONTINUOUS
10
153.63
20
-50.8837
11
153.63
21
-50.7163
0
LINE
8
BLACK
6
CONTINUOUS
10
153.63
20
-50.7163
11
153.663
21
-50.5521
0
LINE
8
BLACK
6
CONTINUOUS
10
153.663
20
-50.5521
11
153.727
21
-50.3974
0
LINE
8
BLACK
6
CONTINUOUS
10
153.727
20
-50.3974
11
153.82
21
-50.2582
0
LINE
8
BLACK
6
CONTINUOUS
10
153.82
20
-50.2582
11
153.938
21
-50.1398
0
LINE
8
BLACK
6
CONTINUOUS
10
153.938
20
-50.1398
11
154.077
21
-50.0467
0
LINE
8
BLACK
6
CONTINUOUS
10
154.077
20
-50.0467
11
154.232
21
-49.9827
0
LINE
8
BLACK
6
CONTINUOUS
10
154.232
20
-49.9827
11
154.396
21
-49.95
0
LINE
8
BLACK
6
CONTINUOUS
10
154.396
20
-49.95
11
154.564
21
-49.95
0
LINE
8
BLACK
6
CONTINUOUS
10
154.564
20
-49.95
11
154.728
21
-49.9827
0
LINE
8
BLACK
6
CONTINUOUS
10
131.868
20
-49.9827
11
132.023
21
-50.0467
0
LINE
8
BLACK
6
CONTINUOUS
10
132.023
20
-50.0467
11
132.162
21
-50.1398
0
LINE
8
BLACK
6
CONTINUOUS
10
132.162
20
-50.1398
11
132.28
21
-50.2582
0
LINE
8
BLACK
6
CONTINUOUS
10
132.28
20
-50.2582
11
132.373
21
-50.3974
0
LINE
8
BLACK
6
CONTINUOUS
10
132.373
20
-50.3974
11
132.437
21
-50.5521
0
LINE
8
BLACK
6
CONTINUOUS
10
132.437
20
-50.5521
11
132.47
21
-50.7163
0
LINE
8
BLACK
6
CONTINUOUS
10
132.47
20
-50.7163
11
132.47
21
-50.8837
0
LINE
8
BLACK
6
CONTINUOUS
10
132.47
20
-50.8837
11
132.437
21
-51.0479
0
LINE
8
BLACK
6
CONTINUOUS
10
132.437
20
-51.0479
11
132.373
21
-51.2026
0
LINE
8
BLACK
6
CONTINUOUS
10
132.373
20
-51.2026
11
132.28
21
-51.3418
0
LINE
8
BLACK
6
CONTINUOUS
10
132.28
20
-51.3418
11
132.162
21
-51.4602
0
LINE
8
BLACK
6
CONTINUOUS
10
132.162
20
-51.4602
11
132.023
21
-51.5533
0
LINE
8
BLACK
6
CONTINUOUS
10
132.023
20
-51.5533
11
131.868
21
-51.6173
0
LINE
8
BLACK
6
CONTINUOUS
10
131.868
20
-51.6173
11
131.704
21
-51.65
0
LINE
8
BLACK
6
CONTINUOUS
10
131.704
20
-51.65
11
131.536
21
-51.65
0
LINE
8
BLACK
6
CONTINUOUS
10
131.536
20
-51.65
11
131.372
21
-51.6173
0
LINE
8
BLACK
6
CONTINUOUS
10
131.372
20
-51.6173
11
131.217
21
-51.5533
0
LINE
8
BLACK
6
CONTINUOUS
10
131.217
20
-51.5533
11
131.078
21
-51.4602
0
LINE
8
BLACK
6
CONTINUOUS
10
131.078
20
-51.4602
11
130.96
21
-51.3418
0
LINE
8
BLACK
6
CONTINUOUS
10
130.96
20
-51.3418
11
130.867
21
-51.2026
0
LINE
8
BLACK
6
CONTINUOUS
10
130.867
20
-51.2026
11
130.803
21
-51.0479
0
LINE
8
BLACK
6
CONTINUOUS
10
130.803
20
-51.0479
11
130.77
21
-50.8837
0
LINE
8
BLACK
6
CONTINUOUS
10
130.77
20
-50.8837
11
130.77
21
-50.7163
0
LINE
8
BLACK
6
CONTINUOUS
10
130.77
20
-50.7163
11
130.803
21
-50.5521
0
LINE
8
BLACK
6
CONTINUOUS
10
130.803
20
-50.5521
11
130.867
21
-50.3974
0
LINE
8
BLACK
6
CONTINUOUS
10
130.867
20
-50.3974
11
130.96
21
-50.2582
0
LINE
8
BLACK
6
CONTINUOUS
10
130.96
20
-50.2582
11
131.078
21
-50.1398
0
LINE
8
BLACK
6
CONTINUOUS
10
131.078
20
-50.1398
11
131.217
21
-50.0467
0
LINE
8
BLACK
6
CONTINUOUS
10
131.217
20
-50.0467
11
131.372
21
-49.9827
0
LINE
8
BLACK
6
CONTINUOUS
10
131.372
20
-49.9827
11
131.536
21
-49.95
0
LINE
8
BLACK
6
CONTINUOUS
10
131.536
20
-49.95
11
131.704
21
-49.95
0
LINE
8
BLACK
6
CONTINUOUS
10
131.704
20
-49.95
11
131.868
21
-49.9827
0
LINE
8
BLACK
6
CONTINUOUS
10
87.8779
20
-49.9827
11
88.0326
21
-50.0467
0
LINE
8
BLACK
6
CONTINUOUS
10
88.0326
20
-50.0467
11
88.1718
21
-50.1398
0
LINE
8
BLACK
6
CONTINUOUS
10
88.1718
20
-50.1398
11
88.2902
21
-50.2582
0
LINE
8
BLACK
6
CONTINUOUS
10
88.2902
20
-50.2582
11
88.3833
21
-50.3974
0
LINE
8
BLACK
6
CONTINUOUS
10
88.3833
20
-50.3974
11
88.4473
21
-50.5521
0
LINE
8
BLACK
6
CONTINUOUS
10
88.4473
20
-50.5521
11
88.48
21
-50.7163
0
LINE
8
BLACK
6
CONTINUOUS
10
88.48
20
-50.7163
11
88.48
21
-50.8837
0
LINE
8
BLACK
6
CONTINUOUS
10
88.48
20
-50.8837
11
88.4473
21
-51.0479
0
LINE
8
BLACK
6
CONTINUOUS
10
88.4473
20
-51.0479
11
88.3833
21
-51.2026
0
LINE
8
BLACK
6
CONTINUOUS
10
88.3833
20
-51.2026
11
88.2902
21
-51.3418
0
LINE
8
BLACK
6
CONTINUOUS
10
88.2902
20
-51.3418
11
88.1718
21
-51.4602
0
LINE
8
BLACK
6
CONTINUOUS
10
88.1718
20
-51.4602
11
88.0326
21
-51.5533
0
LINE
8
BLACK
6
CONTINUOUS
10
88.0326
20
-51.5533
11
87.8779
21
-51.6173
0
LINE
8
BLACK
6
CONTINUOUS
10
87.8779
20
-51.6173
11
87.7137
21
-51.65
0
LINE
8
BLACK
6
CONTINUOUS
10
87.7137
20
-51.65
11
87.5463
21
-51.65
0
LINE
8
BLACK
6
CONTINUOUS
10
87.5463
20
-51.65
11
87.3821
21
-51.6173
0
LINE
8
BLACK
6
CONTINUOUS
10
87.3821
20
-51.6173
11
87.2274
21
-51.5533
0
LINE
8
BLACK
6
CONTINUOUS
10
87.2274
20
-51.5533
11
87.0882
21
-51.4602
0
LINE
8
BLACK
6
CONTINUOUS
10
87.0882
20
-51.4602
11
86.9698
21
-51.3418
0
LINE
8
BLACK
6
CONTINUOUS
10
86.9698
20
-51.3418
11
86.8767
21
-51.2026
0
LINE
8
BLACK
6
CONTINUOUS
10
86.8767
20
-51.2026
11
86.8127
21
-51.0479
0
LINE
8
BLACK
6
CONTINUOUS
10
86.8127
20
-51.0479
11
86.78
21
-50.8837
0
LINE
8
BLACK
6
CONTINUOUS
10
86.78
20
-50.8837
11
86.78
21
-50.7163
0
LINE
8
BLACK
6
CONTINUOUS
10
86.78
20
-50.7163
11
86.8127
21
-50.5521
0
LINE
8
BLACK
6
CONTINUOUS
10
86.8127
20
-50.5521
11
86.8767
21
-50.3974
0
LINE
8
BLACK
6
CONTINUOUS
10
86.8767
20
-50.3974
11
86.9698
21
-50.2582
0
LINE
8
BLACK
6
CONTINUOUS
10
86.9698
20
-50.2582
11
87.0882
21
-50.1398
0
LINE
8
BLACK
6
CONTINUOUS
10
87.0882
20
-50.1398
11
87.2274
21
-50.0467
0
LINE
8
BLACK
6
CONTINUOUS
10
87.2274
20
-50.0467
11
87.3821
21
-49.9827
0
LINE
8
BLACK
6
CONTINUOUS
10
87.3821
20
-49.9827
11
87.5463
21
-49.95
0
LINE
8
BLACK
6
CONTINUOUS
10
87.5463
20
-49.95
11
87.7137
21
-49.95
0
LINE
8
BLACK
6
CONTINUOUS
10
87.7137
20
-49.95
11
87.8779
21
-49.9827
0
LINE
8
BLACK
6
CONTINUOUS
10
110.738
20
-49.9827
11
110.893
21
-50.0467
0
LINE
8
BLACK
6
CONTINUOUS
10
110.893
20
-50.0467
11
111.032
21
-50.1398
0
LINE
8
BLACK
6
CONTINUOUS
10
111.032
20
-50.1398
11
111.15
21
-50.2582
0
LINE
8
BLACK
6
CONTINUOUS
10
111.15
20
-50.2582
11
111.243
21
-50.3974
0
LINE
8
BLACK
6
CONTINUOUS
10
111.243
20
-50.3974
11
111.307
21
-50.5521
0
LINE
8
BLACK
6
CONTINUOUS
10
111.307
20
-50.5521
11
111.34
21
-50.7163
0
LINE
8
BLACK
6
CONTINUOUS
10
111.34
20
-50.7163
11
111.34
21
-50.8837
0
LINE
8
BLACK
6
CONTINUOUS
10
111.34
20
-50.8837
11
111.307
21
-51.0479
0
LINE
8
BLACK
6
CONTINUOUS
10
111.307
20
-51.0479
11
111.243
21
-51.2026
0
LINE
8
BLACK
6
CONTINUOUS
10
111.243
20
-51.2026
11
111.15
21
-51.3418
0
LINE
8
BLACK
6
CONTINUOUS
10
111.15
20
-51.3418
11
111.032
21
-51.4602
0
LINE
8
BLACK
6
CONTINUOUS
10
111.032
20
-51.4602
11
110.893
21
-51.5533
0
LINE
8
BLACK
6
CONTINUOUS
10
110.893
20
-51.5533
11
110.738
21
-51.6173
0
LINE
8
BLACK
6
CONTINUOUS
10
110.738
20
-51.6173
11
110.574
21
-51.65
0
LINE
8
BLACK
6
CONTINUOUS
10
110.574
20
-51.65
11
110.406
21
-51.65
0
LINE
8
BLACK
6
CONTINUOUS
10
110.406
20
-51.65
11
110.242
21
-51.6173
0
LINE
8
BLACK
6
CONTINUOUS
10
110.242
20
-51.6173
11
110.087
21
-51.5533
0
LINE
8
BLACK
6
CONTINUOUS
10
110.087
20
-51.5533
11
109.948
21
-51.4602
0
LINE
8
BLACK
6
CONTINUOUS
10
109.948
20
-51.4602
11
109.83
21
-51.3418
0
LINE
8
BLACK
6
CONTINUOUS
10
109.83
20
-51.3418
11
109.737
21
-51.2026
0
LINE
8
BLACK
6
CONTINUOUS
10
109.737
20
-51.2026
11
109.673
21
-51.0479
0
LINE
8
BLACK
6
CONTINUOUS
10
109.673
20
-51.0479
11
109.64
21
-50.8837
0
LINE
8
BLACK
6
CONTINUOUS
10
109.64
20
-50.8837
11
109.64
21
-50.7163
0
LINE
8
BLACK
6
CONTINUOUS
10
109.64
20
-50.7163
11
109.673
21
-50.5521
0
LINE
8
BLACK
6
CONTINUOUS
10
109.673
20
-50.5521
11
109.737
21
-50.3974
0
LINE
8
BLACK
6
CONTINUOUS
10
109.737
20
-50.3974
11
109.83
21
-50.2582
0
LINE
8
BLACK
6
CONTINUOUS
10
109.83
20
-50.2582
11
109.948
21
-50.1398
0
LINE
8
BLACK
6
CONTINUOUS
10
109.948
20
-50.1398
11
110.087
21
-50.0467
0
LINE
8
BLACK
6
CONTINUOUS
10
110.087
20
-50.0467
11
110.242
21
-49.9827
0
LINE
8
BLACK
6
CONTINUOUS
10
110.242
20
-49.9827
11
110.406
21
-49.95
0
LINE
8
BLACK
6
CONTINUOUS
10
110.406
20
-49.95
11
110.574
21
-49.95
0
LINE
8
BLACK
6
CONTINUOUS
10
110.574
20
-49.95
11
110.738
21
-49.9827
0
LINE
8
BLACK
6
CONTINUOUS
10
138.091
20
-48.3808
11
138.138
21
-48.395
0
LINE
8
BLACK
6
CONTINUOUS
10
138.138
20
-48.395
11
138.181
21
-48.4181
0
LINE
8
BLACK
6
CONTINUOUS
10
138.181
20
-48.4181
11
138.219
21
-48.4492
0
LINE
8
BLACK
6
CONTINUOUS
10
138.219
20
-48.4492
11
138.25
21
-48.4871
0
LINE
8
BLACK
6
CONTINUOUS
10
138.25
20
-48.4871
11
138.273
21
-48.5303
0
LINE
8
BLACK
6
CONTINUOUS
10
138.273
20
-48.5303
11
138.287
21
-48.5772
0
LINE
8
BLACK
6
CONTINUOUS
10
138.287
20
-48.5772
11
138.292
21
-48.626
0
LINE
8
BLACK
6
CONTINUOUS
10
138.292
20
-48.626
11
138.292
21
-49.926
0
LINE
8
BLACK
6
CONTINUOUS
10
138.292
20
-49.926
11
138.287
21
-49.9748
0
LINE
8
BLACK
6
CONTINUOUS
10
138.287
20
-49.9748
11
138.273
21
-50.0217
0
LINE
8
BLACK
6
CONTINUOUS
10
138.273
20
-50.0217
11
138.25
21
-50.0649
0
LINE
8
BLACK
6
CONTINUOUS
10
138.25
20
-50.0649
11
138.219
21
-50.1028
0
LINE
8
BLACK
6
CONTINUOUS
10
138.219
20
-50.1028
11
138.181
21
-50.1339
0
LINE
8
BLACK
6
CONTINUOUS
10
138.181
20
-50.1339
11
138.138
21
-50.157
0
LINE
8
BLACK
6
CONTINUOUS
10
138.138
20
-50.157
11
138.091
21
-50.1712
0
LINE
8
BLACK
6
CONTINUOUS
10
138.091
20
-50.1712
11
138.042
21
-50.176
0
LINE
8
BLACK
6
CONTINUOUS
10
138.042
20
-50.176
11
137.392
21
-50.176
0
LINE
8
BLACK
6
CONTINUOUS
10
137.392
20
-50.176
11
137.343
21
-50.1712
0
LINE
8
BLACK
6
CONTINUOUS
10
137.343
20
-50.1712
11
137.296
21
-50.157
0
LINE
8
BLACK
6
CONTINUOUS
10
137.296
20
-50.157
11
137.253
21
-50.1339
0
LINE
8
BLACK
6
CONTINUOUS
10
137.253
20
-50.1339
11
137.215
21
-50.1028
0
LINE
8
BLACK
6
CONTINUOUS
10
137.215
20
-50.1028
11
137.184
21
-50.0649
0
LINE
8
BLACK
6
CONTINUOUS
10
137.184
20
-50.0649
11
137.161
21
-50.0217
0
LINE
8
BLACK
6
CONTINUOUS
10
137.161
20
-50.0217
11
137.147
21
-49.9748
0
LINE
8
BLACK
6
CONTINUOUS
10
137.147
20
-49.9748
11
137.142
21
-49.926
0
LINE
8
BLACK
6
CONTINUOUS
10
137.142
20
-49.926
11
137.142
21
-48.626
0
LINE
8
BLACK
6
CONTINUOUS
10
137.142
20
-48.626
11
137.147
21
-48.5772
0
LINE
8
BLACK
6
CONTINUOUS
10
137.147
20
-48.5772
11
137.161
21
-48.5303
0
LINE
8
BLACK
6
CONTINUOUS
10
137.161
20
-48.5303
11
137.184
21
-48.4871
0
LINE
8
BLACK
6
CONTINUOUS
10
137.184
20
-48.4871
11
137.215
21
-48.4492
0
LINE
8
BLACK
6
CONTINUOUS
10
137.215
20
-48.4492
11
137.253
21
-48.4181
0
LINE
8
BLACK
6
CONTINUOUS
10
137.253
20
-48.4181
11
137.296
21
-48.395
0
LINE
8
BLACK
6
CONTINUOUS
10
137.296
20
-48.395
11
137.343
21
-48.3808
0
LINE
8
BLACK
6
CONTINUOUS
10
137.343
20
-48.3808
11
137.392
21
-48.376
0
LINE
8
BLACK
6
CONTINUOUS
10
137.392
20
-48.376
11
138.042
21
-48.376
0
LINE
8
BLACK
6
CONTINUOUS
10
138.042
20
-48.376
11
138.091
21
-48.3808
0
LINE
8
BLACK
6
CONTINUOUS
10
141.041
20
-48.3808
11
141.088
21
-48.395
0
LINE
8
BLACK
6
CONTINUOUS
10
141.088
20
-48.395
11
141.131
21
-48.4181
0
LINE
8
BLACK
6
CONTINUOUS
10
141.131
20
-48.4181
11
141.169
21
-48.4492
0
LINE
8
BLACK
6
CONTINUOUS
10
141.169
20
-48.4492
11
141.2
21
-48.4871
0
LINE
8
BLACK
6
CONTINUOUS
10
141.2
20
-48.4871
11
141.223
21
-48.5303
0
LINE
8
BLACK
6
CONTINUOUS
10
141.223
20
-48.5303
11
141.237
21
-48.5772
0
LINE
8
BLACK
6
CONTINUOUS
10
141.237
20
-48.5772
11
141.242
21
-48.626
0
LINE
8
BLACK
6
CONTINUOUS
10
141.242
20
-48.626
11
141.242
21
-49.926
0
LINE
8
BLACK
6
CONTINUOUS
10
141.242
20
-49.926
11
141.237
21
-49.9748
0
LINE
8
BLACK
6
CONTINUOUS
10
141.237
20
-49.9748
11
141.223
21
-50.0217
0
LINE
8
BLACK
6
CONTINUOUS
10
141.223
20
-50.0217
11
141.2
21
-50.0649
0
LINE
8
BLACK
6
CONTINUOUS
10
141.2
20
-50.0649
11
141.169
21
-50.1028
0
LINE
8
BLACK
6
CONTINUOUS
10
141.169
20
-50.1028
11
141.131
21
-50.1339
0
LINE
8
BLACK
6
CONTINUOUS
10
141.131
20
-50.1339
11
141.088
21
-50.157
0
LINE
8
BLACK
6
CONTINUOUS
10
141.088
20
-50.157
11
141.041
21
-50.1712
0
LINE
8
BLACK
6
CONTINUOUS
10
141.041
20
-50.1712
11
140.992
21
-50.176
0
LINE
8
BLACK
6
CONTINUOUS
10
140.992
20
-50.176
11
140.342
21
-50.176
0
LINE
8
BLACK
6
CONTINUOUS
10
140.342
20
-50.176
11
140.293
21
-50.1712
0
LINE
8
BLACK
6
CONTINUOUS
10
140.293
20
-50.1712
11
140.246
21
-50.157
0
LINE
8
BLACK
6
CONTINUOUS
10
140.246
20
-50.157
11
140.203
21
-50.1339
0
LINE
8
BLACK
6
CONTINUOUS
10
140.203
20
-50.1339
11
140.165
21
-50.1028
0
LINE
8
BLACK
6
CONTINUOUS
10
140.165
20
-50.1028
11
140.134
21
-50.0649
0
LINE
8
BLACK
6
CONTINUOUS
10
140.134
20
-50.0649
11
140.111
21
-50.0217
0
LINE
8
BLACK
6
CONTINUOUS
10
140.111
20
-50.0217
11
140.097
21
-49.9748
0
LINE
8
BLACK
6
CONTINUOUS
10
140.097
20
-49.9748
11
140.092
21
-49.926
0
LINE
8
BLACK
6
CONTINUOUS
10
140.092
20
-49.926
11
140.092
21
-48.626
0
LINE
8
BLACK
6
CONTINUOUS
10
140.092
20
-48.626
11
140.097
21
-48.5772
0
LINE
8
BLACK
6
CONTINUOUS
10
140.097
20
-48.5772
11
140.111
21
-48.5303
0
LINE
8
BLACK
6
CONTINUOUS
10
140.111
20
-48.5303
11
140.134
21
-48.4871
0
LINE
8
BLACK
6
CONTINUOUS
10
140.134
20
-48.4871
11
140.165
21
-48.4492
0
LINE
8
BLACK
6
CONTINUOUS
10
140.165
20
-48.4492
11
140.203
21
-48.4181
0
LINE
8
BLACK
6
CONTINUOUS
10
140.203
20
-48.4181
11
140.246
21
-48.395
0
LINE
8
BLACK
6
CONTINUOUS
10
140.246
20
-48.395
11
140.293
21
-48.3808
0
LINE
8
BLACK
6
CONTINUOUS
10
140.293
20
-48.3808
11
140.342
21
-48.376
0
LINE
8
BLACK
6
CONTINUOUS
10
140.342
20
-48.376
11
140.992
21
-48.376
0
LINE
8
BLACK
6
CONTINUOUS
10
140.992
20
-48.376
11
141.041
21
-48.3808
0
LINE
8
BLACK
6
CONTINUOUS
10
141.041
20
-46.0948
11
141.088
21
-46.109
0
LINE
8
BLACK
6
CONTINUOUS
10
141.088
20
-46.109
11
141.131
21
-46.1321
0
LINE
8
BLACK
6
CONTINUOUS
10
141.131
20
-46.1321
11
141.169
21
-46.1632
0
LINE
8
BLACK
6
CONTINUOUS
10
141.169
20
-46.1632
11
141.2
21
-46.2011
0
LINE
8
BLACK
6
CONTINUOUS
10
141.2
20
-46.2011
11
141.223
21
-46.2443
0
LINE
8
BLACK
6
CONTINUOUS
10
141.223
20
-46.2443
11
141.237
21
-46.2912
0
LINE
8
BLACK
6
CONTINUOUS
10
141.237
20
-46.2912
11
141.242
21
-46.34
0
LINE
8
BLACK
6
CONTINUOUS
10
141.242
20
-46.34
11
141.242
21
-47.64
0
LINE
8
BLACK
6
CONTINUOUS
10
141.242
20
-47.64
11
141.237
21
-47.6888
0
LINE
8
BLACK
6
CONTINUOUS
10
141.237
20
-47.6888
11
141.223
21
-47.7357
0
LINE
8
BLACK
6
CONTINUOUS
10
141.223
20
-47.7357
11
141.2
21
-47.7789
0
LINE
8
BLACK
6
CONTINUOUS
10
141.2
20
-47.7789
11
141.169
21
-47.8168
0
LINE
8
BLACK
6
CONTINUOUS
10
141.169
20
-47.8168
11
141.131
21
-47.8479
0
LINE
8
BLACK
6
CONTINUOUS
10
141.131
20
-47.8479
11
141.088
21
-47.871
0
LINE
8
BLACK
6
CONTINUOUS
10
141.088
20
-47.871
11
141.041
21
-47.8852
0
LINE
8
BLACK
6
CONTINUOUS
10
141.041
20
-47.8852
11
140.992
21
-47.89
0
LINE
8
BLACK
6
CONTINUOUS
10
140.992
20
-47.89
11
140.342
21
-47.89
0
LINE
8
BLACK
6
CONTINUOUS
10
140.342
20
-47.89
11
140.293
21
-47.8852
0
LINE
8
BLACK
6
CONTINUOUS
10
140.293
20
-47.8852
11
140.246
21
-47.871
0
LINE
8
BLACK
6
CONTINUOUS
10
140.246
20
-47.871
11
140.203
21
-47.8479
0
LINE
8
BLACK
6
CONTINUOUS
10
140.203
20
-47.8479
11
140.165
21
-47.8168
0
LINE
8
BLACK
6
CONTINUOUS
10
140.165
20
-47.8168
11
140.134
21
-47.7789
0
LINE
8
BLACK
6
CONTINUOUS
10
140.134
20
-47.7789
11
140.111
21
-47.7357
0
LINE
8
BLACK
6
CONTINUOUS
10
140.111
20
-47.7357
11
140.097
21
-47.6888
0
LINE
8
BLACK
6
CONTINUOUS
10
140.097
20
-47.6888
11
140.092
21
-47.64
0
LINE
8
BLACK
6
CONTINUOUS
10
140.092
20
-47.64
11
140.092
21
-46.34
0
LINE
8
BLACK
6
CONTINUOUS
10
140.092
20
-46.34
11
140.097
21
-46.2912
0
LINE
8
BLACK
6
CONTINUOUS
10
140.097
20
-46.2912
11
140.111
21
-46.2443
0
LINE
8
BLACK
6
CONTINUOUS
10
140.111
20
-46.2443
11
140.134
21
-46.2011
0
LINE
8
BLACK
6
CONTINUOUS
10
140.134
20
-46.2011
11
140.165
21
-46.1632
0
LINE
8
BLACK
6
CONTINUOUS
10
140.165
20
-46.1632
11
140.203
21
-46.1321
0
LINE
8
BLACK
6
CONTINUOUS
10
140.203
20
-46.1321
11
140.246
21
-46.109
0
LINE
8
BLACK
6
CONTINUOUS
10
140.246
20
-46.109
11
140.293
21
-46.0948
0
LINE
8
BLACK
6
CONTINUOUS
10
140.293
20
-46.0948
11
140.342
21
-46.09
0
LINE
8
BLACK
6
CONTINUOUS
10
140.342
20
-46.09
11
140.992
21
-46.09
0
LINE
8
BLACK
6
CONTINUOUS
10
140.992
20
-46.09
11
141.041
21
-46.0948
0
LINE
8
BLACK
6
CONTINUOUS
10
138.091
20
-46.0948
11
138.138
21
-46.109
0
LINE
8
BLACK
6
CONTINUOUS
10
138.138
20
-46.109
11
138.181
21
-46.1321
0
LINE
8
BLACK
6
CONTINUOUS
10
138.181
20
-46.1321
11
138.219
21
-46.1632
0
LINE
8
BLACK
6
CONTINUOUS
10
138.219
20
-46.1632
11
138.25
21
-46.2011
0
LINE
8
BLACK
6
CONTINUOUS
10
138.25
20
-46.2011
11
138.273
21
-46.2443
0
LINE
8
BLACK
6
CONTINUOUS
10
138.273
20
-46.2443
11
138.287
21
-46.2912
0
LINE
8
BLACK
6
CONTINUOUS
10
138.287
20
-46.2912
11
138.292
21
-46.34
0
LINE
8
BLACK
6
CONTINUOUS
10
138.292
20
-46.34
11
138.292
21
-47.64
0
LINE
8
BLACK
6
CONTINUOUS
10
138.292
20
-47.64
11
138.287
21
-47.6888
0
LINE
8
BLACK
6
CONTINUOUS
10
138.287
20
-47.6888
11
138.273
21
-47.7357
0
LINE
8
BLACK
6
CONTINUOUS
10
138.273
20
-47.7357
11
138.25
21
-47.7789
0
LINE
8
BLACK
6
CONTINUOUS
10
138.25
20
-47.7789
11
138.219
21
-47.8168
0
LINE
8
BLACK
6
CONTINUOUS
10
138.219
20
-47.8168
11
138.181
21
-47.8479
0
LINE
8
BLACK
6
CONTINUOUS
10
138.181
20
-47.8479
11
138.138
21
-47.871
0
LINE
8
BLACK
6
CONTINUOUS
10
138.138
20
-47.871
11
138.091
21
-47.8852
0
LINE
8
BLACK
6
CONTINUOUS
10
138.091
20
-47.8852
11
138.042
21
-47.89
0
LINE
8
BLACK
6
CONTINUOUS
10
138.042
20
-47.89
11
137.392
21
-47.89
0
LINE
8
BLACK
6
CONTINUOUS
10
137.392
20
-47.89
11
137.343
21
-47.8852
0
LINE
8
BLACK
6
CONTINUOUS
10
137.343
20
-47.8852
11
137.296
21
-47.871
0
LINE
8
BLACK
6
CONTINUOUS
10
137.296
20
-47.871
11
137.253
21
-47.8479
0
LINE
8
BLACK
6
CONTINUOUS
10
137.253
20
-47.8479
11
137.215
21
-47.8168
0
LINE
8
BLACK
6
CONTINUOUS
10
137.215
20
-47.8168
11
137.184
21
-47.7789
0
LINE
8
BLACK
6
CONTINUOUS
10
137.184
20
-47.7789
11
137.161
21
-47.7357
0
LINE
8
BLACK
6
CONTINUOUS
10
137.161
20
-47.7357
11
137.147
21
-47.6888
0
LINE
8
BLACK
6
CONTINUOUS
10
137.147
20
-47.6888
11
137.142
21
-47.64
0
LINE
8
BLACK
6
CONTINUOUS
10
137.142
20
-47.64
11
137.142
21
-46.34
0
LINE
8
BLACK
6
CONTINUOUS
10
137.142
20
-46.34
11
137.147
21
-46.2912
0
LINE
8
BLACK
6
CONTINUOUS
10
137.147
20
-46.2912
11
137.161
21
-46.2443
0
LINE
8
BLACK
6
CONTINUOUS
10
137.161
20
-46.2443
11
137.184
21
-46.2011
0
LINE
8
BLACK
6
CONTINUOUS
10
137.184
20
-46.2011
11
137.215
21
-46.1632
0
LINE
8
BLACK
6
CONTINUOUS
10
137.215
20
-46.1632
11
137.253
21
-46.1321
0
LINE
8
BLACK
6
CONTINUOUS
10
137.253
20
-46.1321
11
137.296
21
-46.109
0
LINE
8
BLACK
6
CONTINUOUS
10
137.296
20
-46.109
11
137.343
21
-46.0948
0
LINE
8
BLACK
6
CONTINUOUS
10
137.343
20
-46.0948
11
137.392
21
-46.09
0
LINE
8
BLACK
6
CONTINUOUS
10
137.392
20
-46.09
11
138.042
21
-46.09
0
LINE
8
BLACK
6
CONTINUOUS
10
138.042
20
-46.09
11
138.091
21
-46.0948
0
LINE
8
BLACK
6
CONTINUOUS
10
138.091
20
-43.8088
11
138.138
21
-43.823
0
LINE
8
BLACK
6
CONTINUOUS
10
138.138
20
-43.823
11
138.181
21
-43.8461
0
LINE
8
BLACK
6
CONTINUOUS
10
138.181
20
-43.8461
11
138.219
21
-43.8772
0
LINE
8
BLACK
6
CONTINUOUS
10
138.219
20
-43.8772
11
138.25
21
-43.9151
0
LINE
8
BLACK
6
CONTINUOUS
10
138.25
20
-43.9151
11
138.273
21
-43.9583
0
LINE
8
BLACK
6
CONTINUOUS
10
138.273
20
-43.9583
11
138.287
21
-44.0052
0
LINE
8
BLACK
6
CONTINUOUS
10
138.287
20
-44.0052
11
138.292
21
-44.054
0
LINE
8
BLACK
6
CONTINUOUS
10
138.292
20
-44.054
11
138.292
21
-45.354
0
LINE
8
BLACK
6
CONTINUOUS
10
138.292
20
-45.354
11
138.287
21
-45.4028
0
LINE
8
BLACK
6
CONTINUOUS
10
138.287
20
-45.4028
11
138.273
21
-45.4497
0
LINE
8
BLACK
6
CONTINUOUS
10
138.273
20
-45.4497
11
138.25
21
-45.4929
0
LINE
8
BLACK
6
CONTINUOUS
10
138.25
20
-45.4929
11
138.219
21
-45.5308
0
LINE
8
BLACK
6
CONTINUOUS
10
138.219
20
-45.5308
11
138.181
21
-45.5619
0
LINE
8
BLACK
6
CONTINUOUS
10
138.181
20
-45.5619
11
138.138
21
-45.585
0
LINE
8
BLACK
6
CONTINUOUS
10
138.138
20
-45.585
11
138.091
21
-45.5992
0
LINE
8
BLACK
6
CONTINUOUS
10
138.091
20
-45.5992
11
138.042
21
-45.604
0
LINE
8
BLACK
6
CONTINUOUS
10
138.042
20
-45.604
11
137.392
21
-45.604
0
LINE
8
BLACK
6
CONTINUOUS
10
137.392
20
-45.604
11
137.343
21
-45.5992
0
LINE
8
BLACK
6
CONTINUOUS
10
137.343
20
-45.5992
11
137.296
21
-45.585
0
LINE
8
BLACK
6
CONTINUOUS
10
137.296
20
-45.585
11
137.253
21
-45.5619
0
LINE
8
BLACK
6
CONTINUOUS
10
137.253
20
-45.5619
11
137.215
21
-45.5308
0
LINE
8
BLACK
6
CONTINUOUS
10
137.215
20
-45.5308
11
137.184
21
-45.4929
0
LINE
8
BLACK
6
CONTINUOUS
10
137.184
20
-45.4929
11
137.161
21
-45.4497
0
LINE
8
BLACK
6
CONTINUOUS
10
137.161
20
-45.4497
11
137.147
21
-45.4028
0
LINE
8
BLACK
6
CONTINUOUS
10
137.147
20
-45.4028
11
137.142
21
-45.354
0
LINE
8
BLACK
6
CONTINUOUS
10
137.142
20
-45.354
11
137.142
21
-44.054
0
LINE
8
BLACK
6
CONTINUOUS
10
137.142
20
-44.054
11
137.147
21
-44.0052
0
LINE
8
BLACK
6
CONTINUOUS
10
137.147
20
-44.0052
11
137.161
21
-43.9583
0
LINE
8
BLACK
6
CONTINUOUS
10
137.161
20
-43.9583
11
137.184
21
-43.9151
0
LINE
8
BLACK
6
CONTINUOUS
10
137.184
20
-43.9151
11
137.215
21
-43.8772
0
LINE
8
BLACK
6
CONTINUOUS
10
137.215
20
-43.8772
11
137.253
21
-43.8461
0
LINE
8
BLACK
6
CONTINUOUS
10
137.253
20
-43.8461
11
137.296
21
-43.823
0
LINE
8
BLACK
6
CONTINUOUS
10
137.296
20
-43.823
11
137.343
21
-43.8088
0
LINE
8
BLACK
6
CONTINUOUS
10
137.343
20
-43.8088
11
137.392
21
-43.804
0
LINE
8
BLACK
6
CONTINUOUS
10
137.392
20
-43.804
11
138.042
21
-43.804
0
LINE
8
BLACK
6
CONTINUOUS
10
138.042
20
-43.804
11
138.091
21
-43.8088
0
LINE
8
BLACK
6
CONTINUOUS
10
141.041
20
-43.8088
11
141.088
21
-43.823
0
LINE
8
BLACK
6
CONTINUOUS
10
141.088
20
-43.823
11
141.131
21
-43.8461
0
LINE
8
BLACK
6
CONTINUOUS
10
141.131
20
-43.8461
11
141.169
21
-43.8772
0
LINE
8
BLACK
6
CONTINUOUS
10
141.169
20
-43.8772
11
141.2
21
-43.9151
0
LINE
8
BLACK
6
CONTINUOUS
10
141.2
20
-43.9151
11
141.223
21
-43.9583
0
LINE
8
BLACK
6
CONTINUOUS
10
141.223
20
-43.9583
11
141.237
21
-44.0052
0
LINE
8
BLACK
6
CONTINUOUS
10
141.237
20
-44.0052
11
141.242
21
-44.054
0
LINE
8
BLACK
6
CONTINUOUS
10
141.242
20
-44.054
11
141.242
21
-45.354
0
LINE
8
BLACK
6
CONTINUOUS
10
141.242
20
-45.354
11
141.237
21
-45.4028
0
LINE
8
BLACK
6
CONTINUOUS
10
141.237
20
-45.4028
11
141.223
21
-45.4497
0
LINE
8
BLACK
6
CONTINUOUS
10
141.223
20
-45.4497
11
141.2
21
-45.4929
0
LINE
8
BLACK
6
CONTINUOUS
10
141.2
20
-45.4929
11
141.169
21
-45.5308
0
LINE
8
BLACK
6
CONTINUOUS
10
141.169
20
-45.5308
11
141.131
21
-45.5619
0
LINE
8
BLACK
6
CONTINUOUS
10
141.131
20
-45.5619
11
141.088
21
-45.585
0
LINE
8
BLACK
6
CONTINUOUS
10
141.088
20
-45.585
11
141.041
21
-45.5992
0
LINE
8
BLACK
6
CONTINUOUS
10
141.041
20
-45.5992
11
140.992
21
-45.604
0
LINE
8
BLACK
6
CONTINUOUS
10
140.992
20
-45.604
11
140.342
21
-45.604
0
LINE
8
BLACK
6
CONTINUOUS
10
140.342
20
-45.604
11
140.293
21
-45.5992
0
LINE
8
BLACK
6
CONTINUOUS
10
140.293
20
-45.5992
11
140.246
21
-45.585
0
LINE
8
BLACK
6
CONTINUOUS
10
140.246
20
-45.585
11
140.203
21
-45.5619
0
LINE
8
BLACK
6
CONTINUOUS
10
140.203
20
-45.5619
11
140.165
21
-45.5308
0
LINE
8
BLACK
6
CONTINUOUS
10
140.165
20
-45.5308
11
140.134
21
-45.4929
0
LINE
8
BLACK
6
CONTINUOUS
10
140.134
20
-45.4929
11
140.111
21
-45.4497
0
LINE
8
BLACK
6
CONTINUOUS
10
140.111
20
-45.4497
11
140.097
21
-45.4028
0
LINE
8
BLACK
6
CONTINUOUS
10
140.097
20
-45.4028
11
140.092
21
-45.354
0
LINE
8
BLACK
6
CONTINUOUS
10
140.092
20
-45.354
11
140.092
21
-44.054
0
LINE
8
BLACK
6
CONTINUOUS
10
140.092
20
-44.054
11
140.097
21
-44.0052
0
LINE
8
BLACK
6
CONTINUOUS
10
140.097
20
-44.0052
11
140.111
21
-43.9583
0
LINE
8
BLACK
6
CONTINUOUS
10
140.111
20
-43.9583
11
140.134
21
-43.9151
0
LINE
8
BLACK
6
CONTINUOUS
10
140.134
20
-43.9151
11
140.165
21
-43.8772
0
LINE
8
BLACK
6
CONTINUOUS
10
140.165
20
-43.8772
11
140.203
21
-43.8461
0
LINE
8
BLACK
6
CONTINUOUS
10
140.203
20
-43.8461
11
140.246
21
-43.823
0
LINE
8
BLACK
6
CONTINUOUS
10
140.246
20
-43.823
11
140.293
21
-43.8088
0
LINE
8
BLACK
6
CONTINUOUS
10
140.293
20
-43.8088
11
140.342
21
-43.804
0
LINE
8
BLACK
6
CONTINUOUS
10
140.342
20
-43.804
11
140.992
21
-43.804
0
LINE
8
BLACK
6
CONTINUOUS
10
140.992
20
-43.804
11
141.041
21
-43.8088
0
LINE
8
BLACK
6
CONTINUOUS
10
112.259
20
-44.3468
11
112.306
21
-44.361
0
LINE
8
BLACK
6
CONTINUOUS
10
112.306
20
-44.361
11
112.349
21
-44.3841
0
LINE
8
BLACK
6
CONTINUOUS
10
112.349
20
-44.3841
11
112.387
21
-44.4152
0
LINE
8
BLACK
6
CONTINUOUS
10
112.387
20
-44.4152
11
112.418
21
-44.4531
0
LINE
8
BLACK
6
CONTINUOUS
10
112.418
20
-44.4531
11
112.441
21
-44.4963
0
LINE
8
BLACK
6
CONTINUOUS
10
112.441
20
-44.4963
11
112.455
21
-44.5432
0
LINE
8
BLACK
6
CONTINUOUS
10
112.455
20
-44.5432
11
112.46
21
-44.592
0
LINE
8
BLACK
6
CONTINUOUS
10
112.46
20
-44.592
11
112.46
21
-45.117
0
LINE
8
BLACK
6
CONTINUOUS
10
112.46
20
-45.117
11
112.455
21
-45.1658
0
LINE
8
BLACK
6
CONTINUOUS
10
112.455
20
-45.1658
11
112.441
21
-45.2127
0
LINE
8
BLACK
6
CONTINUOUS
10
112.441
20
-45.2127
11
112.418
21
-45.2559
0
LINE
8
BLACK
6
CONTINUOUS
10
112.418
20
-45.2559
11
112.387
21
-45.2938
0
LINE
8
BLACK
6
CONTINUOUS
10
112.387
20
-45.2938
11
112.349
21
-45.3249
0
LINE
8
BLACK
6
CONTINUOUS
10
112.349
20
-45.3249
11
112.306
21
-45.348
0
LINE
8
BLACK
6
CONTINUOUS
10
112.306
20
-45.348
11
112.259
21
-45.3622
0
LINE
8
BLACK
6
CONTINUOUS
10
112.259
20
-45.3622
11
112.21
21
-45.367
0
LINE
8
BLACK
6
CONTINUOUS
10
112.21
20
-45.367
11
111.31
21
-45.367
0
LINE
8
BLACK
6
CONTINUOUS
10
111.31
20
-45.367
11
111.261
21
-45.3622
0
LINE
8
BLACK
6
CONTINUOUS
10
111.261
20
-45.3622
11
111.214
21
-45.348
0
LINE
8
BLACK
6
CONTINUOUS
10
111.214
20
-45.348
11
111.171
21
-45.3249
0
LINE
8
BLACK
6
CONTINUOUS
10
111.171
20
-45.3249
11
111.133
21
-45.2938
0
LINE
8
BLACK
6
CONTINUOUS
10
111.133
20
-45.2938
11
111.102
21
-45.2559
0
LINE
8
BLACK
6
CONTINUOUS
10
111.102
20
-45.2559
11
111.079
21
-45.2127
0
LINE
8
BLACK
6
CONTINUOUS
10
111.079
20
-45.2127
11
111.065
21
-45.1658
0
LINE
8
BLACK
6
CONTINUOUS
10
111.065
20
-45.1658
11
111.06
21
-45.117
0
LINE
8
BLACK
6
CONTINUOUS
10
111.06
20
-45.117
11
111.06
21
-44.592
0
LINE
8
BLACK
6
CONTINUOUS
10
111.06
20
-44.592
11
111.065
21
-44.5432
0
LINE
8
BLACK
6
CONTINUOUS
10
111.065
20
-44.5432
11
111.079
21
-44.4963
0
LINE
8
BLACK
6
CONTINUOUS
10
111.079
20
-44.4963
11
111.102
21
-44.4531
0
LINE
8
BLACK
6
CONTINUOUS
10
111.102
20
-44.4531
11
111.133
21
-44.4152
0
LINE
8
BLACK
6
CONTINUOUS
10
111.133
20
-44.4152
11
111.171
21
-44.3841
0
LINE
8
BLACK
6
CONTINUOUS
10
111.171
20
-44.3841
11
111.214
21
-44.361
0
LINE
8
BLACK
6
CONTINUOUS
10
111.214
20
-44.361
11
111.261
21
-44.3468
0
LINE
8
BLACK
6
CONTINUOUS
10
111.261
20
-44.3468
11
111.31
21
-44.342
0
LINE
8
BLACK
6
CONTINUOUS
10
111.31
20
-44.342
11
112.21
21
-44.342
0
LINE
8
BLACK
6
CONTINUOUS
10
112.21
20
-44.342
11
112.259
21
-44.3468
0
LINE
8
BLACK
6
CONTINUOUS
10
114.545
20
-44.3468
11
114.592
21
-44.361
0
LINE
8
BLACK
6
CONTINUOUS
10
114.592
20
-44.361
11
114.635
21
-44.3841
0
LINE
8
BLACK
6
CONTINUOUS
10
114.635
20
-44.3841
11
114.673
21
-44.4152
0
LINE
8
BLACK
6
CONTINUOUS
10
114.673
20
-44.4152
11
114.704
21
-44.4531
0
LINE
8
BLACK
6
CONTINUOUS
10
114.704
20
-44.4531
11
114.727
21
-44.4963
0
LINE
8
BLACK
6
CONTINUOUS
10
114.727
20
-44.4963
11
114.741
21
-44.5432
0
LINE
8
BLACK
6
CONTINUOUS
10
114.741
20
-44.5432
11
114.746
21
-44.592
0
LINE
8
BLACK
6
CONTINUOUS
10
114.746
20
-44.592
11
114.746
21
-45.117
0
LINE
8
BLACK
6
CONTINUOUS
10
114.746
20
-45.117
11
114.741
21
-45.1658
0
LINE
8
BLACK
6
CONTINUOUS
10
114.741
20
-45.1658
11
114.727
21
-45.2127
0
LINE
8
BLACK
6
CONTINUOUS
10
114.727
20
-45.2127
11
114.704
21
-45.2559
0
LINE
8
BLACK
6
CONTINUOUS
10
114.704
20
-45.2559
11
114.673
21
-45.2938
0
LINE
8
BLACK
6
CONTINUOUS
10
114.673
20
-45.2938
11
114.635
21
-45.3249
0
LINE
8
BLACK
6
CONTINUOUS
10
114.635
20
-45.3249
11
114.592
21
-45.348
0
LINE
8
BLACK
6
CONTINUOUS
10
114.592
20
-45.348
11
114.545
21
-45.3622
0
LINE
8
BLACK
6
CONTINUOUS
10
114.545
20
-45.3622
11
114.496
21
-45.367
0
LINE
8
BLACK
6
CONTINUOUS
10
114.496
20
-45.367
11
113.596
21
-45.367
0
LINE
8
BLACK
6
CONTINUOUS
10
113.596
20
-45.367
11
113.547
21
-45.3622
0
LINE
8
BLACK
6
CONTINUOUS
10
113.547
20
-45.3622
11
113.5
21
-45.348
0
LINE
8
BLACK
6
CONTINUOUS
10
113.5
20
-45.348
11
113.457
21
-45.3249
0
LINE
8
BLACK
6
CONTINUOUS
10
113.457
20
-45.3249
11
113.419
21
-45.2938
0
LINE
8
BLACK
6
CONTINUOUS
10
113.419
20
-45.2938
11
113.388
21
-45.2559
0
LINE
8
BLACK
6
CONTINUOUS
10
113.388
20
-45.2559
11
113.365
21
-45.2127
0
LINE
8
BLACK
6
CONTINUOUS
10
113.365
20
-45.2127
11
113.351
21
-45.1658
0
LINE
8
BLACK
6
CONTINUOUS
10
113.351
20
-45.1658
11
113.346
21
-45.117
0
LINE
8
BLACK
6
CONTINUOUS
10
113.346
20
-45.117
11
113.346
21
-44.592
0
LINE
8
BLACK
6
CONTINUOUS
10
113.346
20
-44.592
11
113.351
21
-44.5432
0
LINE
8
BLACK
6
CONTINUOUS
10
113.351
20
-44.5432
11
113.365
21
-44.4963
0
LINE
8
BLACK
6
CONTINUOUS
10
113.365
20
-44.4963
11
113.388
21
-44.4531
0
LINE
8
BLACK
6
CONTINUOUS
10
113.388
20
-44.4531
11
113.419
21
-44.4152
0
LINE
8
BLACK
6
CONTINUOUS
10
113.419
20
-44.4152
11
113.457
21
-44.3841
0
LINE
8
BLACK
6
CONTINUOUS
10
113.457
20
-44.3841
11
113.5
21
-44.361
0
LINE
8
BLACK
6
CONTINUOUS
10
113.5
20
-44.361
11
113.547
21
-44.3468
0
LINE
8
BLACK
6
CONTINUOUS
10
113.547
20
-44.3468
11
113.596
21
-44.342
0
LINE
8
BLACK
6
CONTINUOUS
10
113.596
20
-44.342
11
114.496
21
-44.342
0
LINE
8
BLACK
6
CONTINUOUS
10
114.496
20
-44.342
11
114.545
21
-44.3468
0
LINE
8
BLACK
6
CONTINUOUS
10
152.845
20
-43.0688
11
152.892
21
-43.083
0
LINE
8
BLACK
6
CONTINUOUS
10
152.892
20
-43.083
11
152.935
21
-43.1061
0
LINE
8
BLACK
6
CONTINUOUS
10
152.935
20
-43.1061
11
152.973
21
-43.1372
0
LINE
8
BLACK
6
CONTINUOUS
10
152.973
20
-43.1372
11
153.004
21
-43.1751
0
LINE
8
BLACK
6
CONTINUOUS
10
153.004
20
-43.1751
11
153.027
21
-43.2183
0
LINE
8
BLACK
6
CONTINUOUS
10
153.027
20
-43.2183
11
153.041
21
-43.2652
0
LINE
8
BLACK
6
CONTINUOUS
10
153.041
20
-43.2652
11
153.046
21
-43.314
0
LINE
8
BLACK
6
CONTINUOUS
10
153.046
20
-43.314
11
153.046
21
-43.964
0
LINE
8
BLACK
6
CONTINUOUS
10
153.046
20
-43.964
11
153.041
21
-44.0128
0
LINE
8
BLACK
6
CONTINUOUS
10
153.041
20
-44.0128
11
153.027
21
-44.0597
0
LINE
8
BLACK
6
CONTINUOUS
10
153.027
20
-44.0597
11
153.004
21
-44.1029
0
LINE
8
BLACK
6
CONTINUOUS
10
153.004
20
-44.1029
11
152.973
21
-44.1408
0
LINE
8
BLACK
6
CONTINUOUS
10
152.973
20
-44.1408
11
152.935
21
-44.1719
0
LINE
8
BLACK
6
CONTINUOUS
10
152.935
20
-44.1719
11
152.892
21
-44.195
0
LINE
8
BLACK
6
CONTINUOUS
10
152.892
20
-44.195
11
152.845
21
-44.2092
0
LINE
8
BLACK
6
CONTINUOUS
10
152.845
20
-44.2092
11
152.796
21
-44.214
0
LINE
8
BLACK
6
CONTINUOUS
10
152.796
20
-44.214
11
151.496
21
-44.214
0
LINE
8
BLACK
6
CONTINUOUS
10
151.496
20
-44.214
11
151.447
21
-44.2092
0
LINE
8
BLACK
6
CONTINUOUS
10
151.447
20
-44.2092
11
151.4
21
-44.195
0
LINE
8
BLACK
6
CONTINUOUS
10
151.4
20
-44.195
11
151.357
21
-44.1719
0
LINE
8
BLACK
6
CONTINUOUS
10
151.357
20
-44.1719
11
151.319
21
-44.1408
0
LINE
8
BLACK
6
CONTINUOUS
10
151.319
20
-44.1408
11
151.288
21
-44.1029
0
LINE
8
BLACK
6
CONTINUOUS
10
151.288
20
-44.1029
11
151.265
21
-44.0597
0
LINE
8
BLACK
6
CONTINUOUS
10
151.265
20
-44.0597
11
151.251
21
-44.0128
0
LINE
8
BLACK
6
CONTINUOUS
10
151.251
20
-44.0128
11
151.246
21
-43.964
0
LINE
8
BLACK
6
CONTINUOUS
10
151.246
20
-43.964
11
151.246
21
-43.314
0
LINE
8
BLACK
6
CONTINUOUS
10
151.246
20
-43.314
11
151.251
21
-43.2652
0
LINE
8
BLACK
6
CONTINUOUS
10
151.251
20
-43.2652
11
151.265
21
-43.2183
0
LINE
8
BLACK
6
CONTINUOUS
10
151.265
20
-43.2183
11
151.288
21
-43.1751
0
LINE
8
BLACK
6
CONTINUOUS
10
151.288
20
-43.1751
11
151.319
21
-43.1372
0
LINE
8
BLACK
6
CONTINUOUS
10
151.319
20
-43.1372
11
151.357
21
-43.1061
0
LINE
8
BLACK
6
CONTINUOUS
10
151.357
20
-43.1061
11
151.4
21
-43.083
0
LINE
8
BLACK
6
CONTINUOUS
10
151.4
20
-43.083
11
151.447
21
-43.0688
0
LINE
8
BLACK
6
CONTINUOUS
10
151.447
20
-43.0688
11
151.496
21
-43.064
0
LINE
8
BLACK
6
CONTINUOUS
10
151.496
20
-43.064
11
152.796
21
-43.064
0
LINE
8
BLACK
6
CONTINUOUS
10
152.796
20
-43.064
11
152.845
21
-43.0688
0
LINE
8
BLACK
6
CONTINUOUS
10
112.259
20
-42.5218
11
112.306
21
-42.536
0
LINE
8
BLACK
6
CONTINUOUS
10
112.306
20
-42.536
11
112.349
21
-42.5591
0
LINE
8
BLACK
6
CONTINUOUS
10
112.349
20
-42.5591
11
112.387
21
-42.5902
0
LINE
8
BLACK
6
CONTINUOUS
10
112.387
20
-42.5902
11
112.418
21
-42.6281
0
LINE
8
BLACK
6
CONTINUOUS
10
112.418
20
-42.6281
11
112.441
21
-42.6713
0
LINE
8
BLACK
6
CONTINUOUS
10
112.441
20
-42.6713
11
112.455
21
-42.7182
0
LINE
8
BLACK
6
CONTINUOUS
10
112.455
20
-42.7182
11
112.46
21
-42.767
0
LINE
8
BLACK
6
CONTINUOUS
10
112.46
20
-42.767
11
112.46
21
-43.292
0
LINE
8
BLACK
6
CONTINUOUS
10
112.46
20
-43.292
11
112.455
21
-43.3408
0
LINE
8
BLACK
6
CONTINUOUS
10
112.455
20
-43.3408
11
112.441
21
-43.3877
0
LINE
8
BLACK
6
CONTINUOUS
10
112.441
20
-43.3877
11
112.418
21
-43.4309
0
LINE
8
BLACK
6
CONTINUOUS
10
112.418
20
-43.4309
11
112.387
21
-43.4688
0
LINE
8
BLACK
6
CONTINUOUS
10
112.387
20
-43.4688
11
112.349
21
-43.4999
0
LINE
8
BLACK
6
CONTINUOUS
10
112.349
20
-43.4999
11
112.306
21
-43.523
0
LINE
8
BLACK
6
CONTINUOUS
10
112.306
20
-43.523
11
112.259
21
-43.5372
0
LINE
8
BLACK
6
CONTINUOUS
10
112.259
20
-43.5372
11
112.21
21
-43.542
0
LINE
8
BLACK
6
CONTINUOUS
10
112.21
20
-43.542
11
111.31
21
-43.542
0
LINE
8
BLACK
6
CONTINUOUS
10
111.31
20
-43.542
11
111.261
21
-43.5372
0
LINE
8
BLACK
6
CONTINUOUS
10
111.261
20
-43.5372
11
111.214
21
-43.523
0
LINE
8
BLACK
6
CONTINUOUS
10
111.214
20
-43.523
11
111.171
21
-43.4999
0
LINE
8
BLACK
6
CONTINUOUS
10
111.171
20
-43.4999
11
111.133
21
-43.4688
0
LINE
8
BLACK
6
CONTINUOUS
10
111.133
20
-43.4688
11
111.102
21
-43.4309
0
LINE
8
BLACK
6
CONTINUOUS
10
111.102
20
-43.4309
11
111.079
21
-43.3877
0
LINE
8
BLACK
6
CONTINUOUS
10
111.079
20
-43.3877
11
111.065
21
-43.3408
0
LINE
8
BLACK
6
CONTINUOUS
10
111.065
20
-43.3408
11
111.06
21
-43.292
0
LINE
8
BLACK
6
CONTINUOUS
10
111.06
20
-43.292
11
111.06
21
-42.767
0
LINE
8
BLACK
6
CONTINUOUS
10
111.06
20
-42.767
11
111.065
21
-42.7182
0
LINE
8
BLACK
6
CONTINUOUS
10
111.065
20
-42.7182
11
111.079
21
-42.6713
0
LINE
8
BLACK
6
CONTINUOUS
10
111.079
20
-42.6713
11
111.102
21
-42.6281
0
LINE
8
BLACK
6
CONTINUOUS
10
111.102
20
-42.6281
11
111.133
21
-42.5902
0
LINE
8
BLACK
6
CONTINUOUS
10
111.133
20
-42.5902
11
111.171
21
-42.5591
0
LINE
8
BLACK
6
CONTINUOUS
10
111.171
20
-42.5591
11
111.214
21
-42.536
0
LINE
8
BLACK
6
CONTINUOUS
10
111.214
20
-42.536
11
111.261
21
-42.5218
0
LINE
8
BLACK
6
CONTINUOUS
10
111.261
20
-42.5218
11
111.31
21
-42.517
0
LINE
8
BLACK
6
CONTINUOUS
10
111.31
20
-42.517
11
112.21
21
-42.517
0
LINE
8
BLACK
6
CONTINUOUS
10
112.21
20
-42.517
11
112.259
21
-42.5218
0
LINE
8
BLACK
6
CONTINUOUS
10
114.545
20
-42.5218
11
114.592
21
-42.536
0
LINE
8
BLACK
6
CONTINUOUS
10
114.592
20
-42.536
11
114.635
21
-42.5591
0
LINE
8
BLACK
6
CONTINUOUS
10
114.635
20
-42.5591
11
114.673
21
-42.5902
0
LINE
8
BLACK
6
CONTINUOUS
10
114.673
20
-42.5902
11
114.704
21
-42.6281
0
LINE
8
BLACK
6
CONTINUOUS
10
114.704
20
-42.6281
11
114.727
21
-42.6713
0
LINE
8
BLACK
6
CONTINUOUS
10
114.727
20
-42.6713
11
114.741
21
-42.7182
0
LINE
8
BLACK
6
CONTINUOUS
10
114.741
20
-42.7182
11
114.746
21
-42.767
0
LINE
8
BLACK
6
CONTINUOUS
10
114.746
20
-42.767
11
114.746
21
-43.292
0
LINE
8
BLACK
6
CONTINUOUS
10
114.746
20
-43.292
11
114.741
21
-43.3408
0
LINE
8
BLACK
6
CONTINUOUS
10
114.741
20
-43.3408
11
114.727
21
-43.3877
0
LINE
8
BLACK
6
CONTINUOUS
10
114.727
20
-43.3877
11
114.704
21
-43.4309
0
LINE
8
BLACK
6
CONTINUOUS
10
114.704
20
-43.4309
11
114.673
21
-43.4688
0
LINE
8
BLACK
6
CONTINUOUS
10
114.673
20
-43.4688
11
114.635
21
-43.4999
0
LINE
8
BLACK
6
CONTINUOUS
10
114.635
20
-43.4999
11
114.592
21
-43.523
0
LINE
8
BLACK
6
CONTINUOUS
10
114.592
20
-43.523
11
114.545
21
-43.5372
0
LINE
8
BLACK
6
CONTINUOUS
10
114.545
20
-43.5372
11
114.496
21
-43.542
0
LINE
8
BLACK
6
CONTINUOUS
10
114.496
20
-43.542
11
113.596
21
-43.542
0
LINE
8
BLACK
6
CONTINUOUS
10
113.596
20
-43.542
11
113.547
21
-43.5372
0
LINE
8
BLACK
6
CONTINUOUS
10
113.547
20
-43.5372
11
113.5
21
-43.523
0
LINE
8
BLACK
6
CONTINUOUS
10
113.5
20
-43.523
11
113.457
21
-43.4999
0
LINE
8
BLACK
6
CONTINUOUS
10
113.457
20
-43.4999
11
113.419
21
-43.4688
0
LINE
8
BLACK
6
CONTINUOUS
10
113.419
20
-43.4688
11
113.388
21
-43.4309
0
LINE
8
BLACK
6
CONTINUOUS
10
113.388
20
-43.4309
11
113.365
21
-43.3877
0
LINE
8
BLACK
6
CONTINUOUS
10
113.365
20
-43.3877
11
113.351
21
-43.3408
0
LINE
8
BLACK
6
CONTINUOUS
10
113.351
20
-43.3408
11
113.346
21
-43.292
0
LINE
8
BLACK
6
CONTINUOUS
10
113.346
20
-43.292
11
113.346
21
-42.767
0
LINE
8
BLACK
6
CONTINUOUS
10
113.346
20
-42.767
11
113.351
21
-42.7182
0
LINE
8
BLACK
6
CONTINUOUS
10
113.351
20
-42.7182
11
113.365
21
-42.6713
0
LINE
8
BLACK
6
CONTINUOUS
10
113.365
20
-42.6713
11
113.388
21
-42.6281
0
LINE
8
BLACK
6
CONTINUOUS
10
113.388
20
-42.6281
11
113.419
21
-42.5902
0
LINE
8
BLACK
6
CONTINUOUS
10
113.419
20
-42.5902
11
113.457
21
-42.5591
0
LINE
8
BLACK
6
CONTINUOUS
10
113.457
20
-42.5591
11
113.5
21
-42.536
0
LINE
8
BLACK
6
CONTINUOUS
10
113.5
20
-42.536
11
113.547
21
-42.5218
0
LINE
8
BLACK
6
CONTINUOUS
10
113.547
20
-42.5218
11
113.596
21
-42.517
0
LINE
8
BLACK
6
CONTINUOUS
10
113.596
20
-42.517
11
114.496
21
-42.517
0
LINE
8
BLACK
6
CONTINUOUS
10
114.496
20
-42.517
11
114.545
21
-42.5218
0
LINE
8
BLACK
6
CONTINUOUS
10
138.091
20
-41.5228
11
138.138
21
-41.537
0
LINE
8
BLACK
6
CONTINUOUS
10
138.138
20
-41.537
11
138.181
21
-41.5601
0
LINE
8
BLACK
6
CONTINUOUS
10
138.181
20
-41.5601
11
138.219
21
-41.5912
0
LINE
8
BLACK
6
CONTINUOUS
10
138.219
20
-41.5912
11
138.25
21
-41.6291
0
LINE
8
BLACK
6
CONTINUOUS
10
138.25
20
-41.6291
11
138.273
21
-41.6723
0
LINE
8
BLACK
6
CONTINUOUS
10
138.273
20
-41.6723
11
138.287
21
-41.7192
0
LINE
8
BLACK
6
CONTINUOUS
10
138.287
20
-41.7192
11
138.292
21
-41.768
0
LINE
8
BLACK
6
CONTINUOUS
10
138.292
20
-41.768
11
138.292
21
-43.068
0
LINE
8
BLACK
6
CONTINUOUS
10
138.292
20
-43.068
11
138.287
21
-43.1168
0
LINE
8
BLACK
6
CONTINUOUS
10
138.287
20
-43.1168
11
138.273
21
-43.1637
0
LINE
8
BLACK
6
CONTINUOUS
10
138.273
20
-43.1637
11
138.25
21
-43.2069
0
LINE
8
BLACK
6
CONTINUOUS
10
138.25
20
-43.2069
11
138.219
21
-43.2448
0
LINE
8
BLACK
6
CONTINUOUS
10
138.219
20
-43.2448
11
138.181
21
-43.2759
0
LINE
8
BLACK
6
CONTINUOUS
10
138.181
20
-43.2759
11
138.138
21
-43.299
0
LINE
8
BLACK
6
CONTINUOUS
10
138.138
20
-43.299
11
138.091
21
-43.3132
0
LINE
8
BLACK
6
CONTINUOUS
10
138.091
20
-43.3132
11
138.042
21
-43.318
0
LINE
8
BLACK
6
CONTINUOUS
10
138.042
20
-43.318
11
137.392
21
-43.318
0
LINE
8
BLACK
6
CONTINUOUS
10
137.392
20
-43.318
11
137.343
21
-43.3132
0
LINE
8
BLACK
6
CONTINUOUS
10
137.343
20
-43.3132
11
137.296
21
-43.299
0
LINE
8
BLACK
6
CONTINUOUS
10
137.296
20
-43.299
11
137.253
21
-43.2759
0
LINE
8
BLACK
6
CONTINUOUS
10
137.253
20
-43.2759
11
137.215
21
-43.2448
0
LINE
8
BLACK
6
CONTINUOUS
10
137.215
20
-43.2448
11
137.184
21
-43.2069
0
LINE
8
BLACK
6
CONTINUOUS
10
137.184
20
-43.2069
11
137.161
21
-43.1637
0
LINE
8
BLACK
6
CONTINUOUS
10
137.161
20
-43.1637
11
137.147
21
-43.1168
0
LINE
8
BLACK
6
CONTINUOUS
10
137.147
20
-43.1168
11
137.142
21
-43.068
0
LINE
8
BLACK
6
CONTINUOUS
10
137.142
20
-43.068
11
137.142
21
-41.768
0
LINE
8
BLACK
6
CONTINUOUS
10
137.142
20
-41.768
11
137.147
21
-41.7192
0
LINE
8
BLACK
6
CONTINUOUS
10
137.147
20
-41.7192
11
137.161
21
-41.6723
0
LINE
8
BLACK
6
CONTINUOUS
10
137.161
20
-41.6723
11
137.184
21
-41.6291
0
LINE
8
BLACK
6
CONTINUOUS
10
137.184
20
-41.6291
11
137.215
21
-41.5912
0
LINE
8
BLACK
6
CONTINUOUS
10
137.215
20
-41.5912
11
137.253
21
-41.5601
0
LINE
8
BLACK
6
CONTINUOUS
10
137.253
20
-41.5601
11
137.296
21
-41.537
0
LINE
8
BLACK
6
CONTINUOUS
10
137.296
20
-41.537
11
137.343
21
-41.5228
0
LINE
8
BLACK
6
CONTINUOUS
10
137.343
20
-41.5228
11
137.392
21
-41.518
0
LINE
8
BLACK
6
CONTINUOUS
10
137.392
20
-41.518
11
138.042
21
-41.518
0
LINE
8
BLACK
6
CONTINUOUS
10
138.042
20
-41.518
11
138.091
21
-41.5228
0
LINE
8
BLACK
6
CONTINUOUS
10
141.041
20
-41.5228
11
141.088
21
-41.537
0
LINE
8
BLACK
6
CONTINUOUS
10
141.088
20
-41.537
11
141.131
21
-41.5601
0
LINE
8
BLACK
6
CONTINUOUS
10
141.131
20
-41.5601
11
141.169
21
-41.5912
0
LINE
8
BLACK
6
CONTINUOUS
10
141.169
20
-41.5912
11
141.2
21
-41.6291
0
LINE
8
BLACK
6
CONTINUOUS
10
141.2
20
-41.6291
11
141.223
21
-41.6723
0
LINE
8
BLACK
6
CONTINUOUS
10
141.223
20
-41.6723
11
141.237
21
-41.7192
0
LINE
8
BLACK
6
CONTINUOUS
10
141.237
20
-41.7192
11
141.242
21
-41.768
0
LINE
8
BLACK
6
CONTINUOUS
10
141.242
20
-41.768
11
141.242
21
-43.068
0
LINE
8
BLACK
6
CONTINUOUS
10
141.242
20
-43.068
11
141.237
21
-43.1168
0
LINE
8
BLACK
6
CONTINUOUS
10
141.237
20
-43.1168
11
141.223
21
-43.1637
0
LINE
8
BLACK
6
CONTINUOUS
10
141.223
20
-43.1637
11
141.2
21
-43.2069
0
LINE
8
BLACK
6
CONTINUOUS
10
141.2
20
-43.2069
11
141.169
21
-43.2448
0
LINE
8
BLACK
6
CONTINUOUS
10
141.169
20
-43.2448
11
141.131
21
-43.2759
0
LINE
8
BLACK
6
CONTINUOUS
10
141.131
20
-43.2759
11
141.088
21
-43.299
0
LINE
8
BLACK
6
CONTINUOUS
10
141.088
20
-43.299
11
141.041
21
-43.3132
0
LINE
8
BLACK
6
CONTINUOUS
10
141.041
20
-43.3132
11
140.992
21
-43.318
0
LINE
8
BLACK
6
CONTINUOUS
10
140.992
20
-43.318
11
140.342
21
-43.318
0
LINE
8
BLACK
6
CONTINUOUS
10
140.342
20
-43.318
11
140.293
21
-43.3132
0
LINE
8
BLACK
6
CONTINUOUS
10
140.293
20
-43.3132
11
140.246
21
-43.299
0
LINE
8
BLACK
6
CONTINUOUS
10
140.246
20
-43.299
11
140.203
21
-43.2759
0
LINE
8
BLACK
6
CONTINUOUS
10
140.203
20
-43.2759
11
140.165
21
-43.2448
0
LINE
8
BLACK
6
CONTINUOUS
10
140.165
20
-43.2448
11
140.134
21
-43.2069
0
LINE
8
BLACK
6
CONTINUOUS
10
140.134
20
-43.2069
11
140.111
21
-43.1637
0
LINE
8
BLACK
6
CONTINUOUS
10
140.111
20
-43.1637
11
140.097
21
-43.1168
0
LINE
8
BLACK
6
CONTINUOUS
10
140.097
20
-43.1168
11
140.092
21
-43.068
0
LINE
8
BLACK
6
CONTINUOUS
10
140.092
20
-43.068
11
140.092
21
-41.768
0
LINE
8
BLACK
6
CONTINUOUS
10
140.092
20
-41.768
11
140.097
21
-41.7192
0
LINE
8
BLACK
6
CONTINUOUS
10
140.097
20
-41.7192
11
140.111
21
-41.6723
0
LINE
8
BLACK
6
CONTINUOUS
10
140.111
20
-41.6723
11
140.134
21
-41.6291
0
LINE
8
BLACK
6
CONTINUOUS
10
140.134
20
-41.6291
11
140.165
21
-41.5912
0
LINE
8
BLACK
6
CONTINUOUS
10
140.165
20
-41.5912
11
140.203
21
-41.5601
0
LINE
8
BLACK
6
CONTINUOUS
10
140.203
20
-41.5601
11
140.246
21
-41.537
0
LINE
8
BLACK
6
CONTINUOUS
10
140.246
20
-41.537
11
140.293
21
-41.5228
0
LINE
8
BLACK
6
CONTINUOUS
10
140.293
20
-41.5228
11
140.342
21
-41.518
0
LINE
8
BLACK
6
CONTINUOUS
10
140.342
20
-41.518
11
140.992
21
-41.518
0
LINE
8
BLACK
6
CONTINUOUS
10
140.992
20
-41.518
11
141.041
21
-41.5228
0
LINE
8
BLACK
6
CONTINUOUS
10
152.845
20
-40.1188
11
152.892
21
-40.133
0
LINE
8
BLACK
6
CONTINUOUS
10
152.892
20
-40.133
11
152.935
21
-40.1561
0
LINE
8
BLACK
6
CONTINUOUS
10
152.935
20
-40.1561
11
152.973
21
-40.1872
0
LINE
8
BLACK
6
CONTINUOUS
10
152.973
20
-40.1872
11
153.004
21
-40.2251
0
LINE
8
BLACK
6
CONTINUOUS
10
153.004
20
-40.2251
11
153.027
21
-40.2683
0
LINE
8
BLACK
6
CONTINUOUS
10
153.027
20
-40.2683
11
153.041
21
-40.3152
0
LINE
8
BLACK
6
CONTINUOUS
10
153.041
20
-40.3152
11
153.046
21
-40.364
0
LINE
8
BLACK
6
CONTINUOUS
10
153.046
20
-40.364
11
153.046
21
-41.014
0
LINE
8
BLACK
6
CONTINUOUS
10
153.046
20
-41.014
11
153.041
21
-41.0628
0
LINE
8
BLACK
6
CONTINUOUS
10
153.041
20
-41.0628
11
153.027
21
-41.1097
0
LINE
8
BLACK
6
CONTINUOUS
10
153.027
20
-41.1097
11
153.004
21
-41.1529
0
LINE
8
BLACK
6
CONTINUOUS
10
153.004
20
-41.1529
11
152.973
21
-41.1908
0
LINE
8
BLACK
6
CONTINUOUS
10
152.973
20
-41.1908
11
152.935
21
-41.2219
0
LINE
8
BLACK
6
CONTINUOUS
10
152.935
20
-41.2219
11
152.892
21
-41.245
0
LINE
8
BLACK
6
CONTINUOUS
10
152.892
20
-41.245
11
152.845
21
-41.2592
0
LINE
8
BLACK
6
CONTINUOUS
10
152.845
20
-41.2592
11
152.796
21
-41.264
0
LINE
8
BLACK
6
CONTINUOUS
10
152.796
20
-41.264
11
151.496
21
-41.264
0
LINE
8
BLACK
6
CONTINUOUS
10
151.496
20
-41.264
11
151.447
21
-41.2592
0
LINE
8
BLACK
6
CONTINUOUS
10
151.447
20
-41.2592
11
151.4
21
-41.245
0
LINE
8
BLACK
6
CONTINUOUS
10
151.4
20
-41.245
11
151.357
21
-41.2219
0
LINE
8
BLACK
6
CONTINUOUS
10
151.357
20
-41.2219
11
151.319
21
-41.1908
0
LINE
8
BLACK
6
CONTINUOUS
10
151.319
20
-41.1908
11
151.288
21
-41.1529
0
LINE
8
BLACK
6
CONTINUOUS
10
151.288
20
-41.1529
11
151.265
21
-41.1097
0
LINE
8
BLACK
6
CONTINUOUS
10
151.265
20
-41.1097
11
151.251
21
-41.0628
0
LINE
8
BLACK
6
CONTINUOUS
10
151.251
20
-41.0628
11
151.246
21
-41.014
0
LINE
8
BLACK
6
CONTINUOUS
10
151.246
20
-41.014
11
151.246
21
-40.364
0
LINE
8
BLACK
6
CONTINUOUS
10
151.246
20
-40.364
11
151.251
21
-40.3152
0
LINE
8
BLACK
6
CONTINUOUS
10
151.251
20
-40.3152
11
151.265
21
-40.2683
0
LINE
8
BLACK
6
CONTINUOUS
10
151.265
20
-40.2683
11
151.288
21
-40.2251
0
LINE
8
BLACK
6
CONTINUOUS
10
151.288
20
-40.2251
11
151.319
21
-40.1872
0
LINE
8
BLACK
6
CONTINUOUS
10
151.319
20
-40.1872
11
151.357
21
-40.1561
0
LINE
8
BLACK
6
CONTINUOUS
10
151.357
20
-40.1561
11
151.4
21
-40.133
0
LINE
8
BLACK
6
CONTINUOUS
10
151.4
20
-40.133
11
151.447
21
-40.1188
0
LINE
8
BLACK
6
CONTINUOUS
10
151.447
20
-40.1188
11
151.496
21
-40.114
0
LINE
8
BLACK
6
CONTINUOUS
10
151.496
20
-40.114
11
152.796
21
-40.114
0
LINE
8
BLACK
6
CONTINUOUS
10
152.796
20
-40.114
11
152.845
21
-40.1188
0
LINE
8
BLACK
6
CONTINUOUS
10
141.191
20
-37.9458
11
141.238
21
-37.96
0
LINE
8
BLACK
6
CONTINUOUS
10
141.238
20
-37.96
11
141.281
21
-37.9831
0
LINE
8
BLACK
6
CONTINUOUS
10
141.281
20
-37.9831
11
141.319
21
-38.0142
0
LINE
8
BLACK
6
CONTINUOUS
10
141.319
20
-38.0142
11
141.35
21
-38.0521
0
LINE
8
BLACK
6
CONTINUOUS
10
141.35
20
-38.0521
11
141.373
21
-38.0953
0
LINE
8
BLACK
6
CONTINUOUS
10
141.373
20
-38.0953
11
141.387
21
-38.1422
0
LINE
8
BLACK
6
CONTINUOUS
10
141.387
20
-38.1422
11
141.392
21
-38.191
0
LINE
8
BLACK
6
CONTINUOUS
10
141.392
20
-38.191
11
141.392
21
-40.041
0
LINE
8
BLACK
6
CONTINUOUS
10
141.392
20
-40.041
11
141.387
21
-40.0898
0
LINE
8
BLACK
6
CONTINUOUS
10
141.387
20
-40.0898
11
141.373
21
-40.1367
0
LINE
8
BLACK
6
CONTINUOUS
10
141.373
20
-40.1367
11
141.35
21
-40.1799
0
LINE
8
BLACK
6
CONTINUOUS
10
141.35
20
-40.1799
11
141.319
21
-40.2178
0
LINE
8
BLACK
6
CONTINUOUS
10
141.319
20
-40.2178
11
141.281
21
-40.2489
0
LINE
8
BLACK
6
CONTINUOUS
10
141.281
20
-40.2489
11
141.238
21
-40.272
0
LINE
8
BLACK
6
CONTINUOUS
10
141.238
20
-40.272
11
141.191
21
-40.2862
0
LINE
8
BLACK
6
CONTINUOUS
10
141.191
20
-40.2862
11
141.142
21
-40.291
0
LINE
8
BLACK
6
CONTINUOUS
10
141.142
20
-40.291
11
140.317
21
-40.291
0
LINE
8
BLACK
6
CONTINUOUS
10
140.317
20
-40.291
11
140.268
21
-40.2862
0
LINE
8
BLACK
6
CONTINUOUS
10
140.268
20
-40.2862
11
140.221
21
-40.272
0
LINE
8
BLACK
6
CONTINUOUS
10
140.221
20
-40.272
11
140.178
21
-40.2489
0
LINE
8
BLACK
6
CONTINUOUS
10
140.178
20
-40.2489
11
140.14
21
-40.2178
0
LINE
8
BLACK
6
CONTINUOUS
10
140.14
20
-40.2178
11
140.109
21
-40.1799
0
LINE
8
BLACK
6
CONTINUOUS
10
140.109
20
-40.1799
11
140.086
21
-40.1367
0
LINE
8
BLACK
6
CONTINUOUS
10
140.086
20
-40.1367
11
140.072
21
-40.0898
0
LINE
8
BLACK
6
CONTINUOUS
10
140.072
20
-40.0898
11
140.067
21
-40.041
0
LINE
8
BLACK
6
CONTINUOUS
10
140.067
20
-40.041
11
140.067
21
-38.191
0
LINE
8
BLACK
6
CONTINUOUS
10
140.067
20
-38.191
11
140.072
21
-38.1422
0
LINE
8
BLACK
6
CONTINUOUS
10
140.072
20
-38.1422
11
140.086
21
-38.0953
0
LINE
8
BLACK
6
CONTINUOUS
10
140.086
20
-38.0953
11
140.109
21
-38.0521
0
LINE
8
BLACK
6
CONTINUOUS
10
140.109
20
-38.0521
11
140.14
21
-38.0142
0
LINE
8
BLACK
6
CONTINUOUS
10
140.14
20
-38.0142
11
140.178
21
-37.9831
0
LINE
8
BLACK
6
CONTINUOUS
10
140.178
20
-37.9831
11
140.221
21
-37.96
0
LINE
8
BLACK
6
CONTINUOUS
10
140.221
20
-37.96
11
140.268
21
-37.9458
0
LINE
8
BLACK
6
CONTINUOUS
10
140.268
20
-37.9458
11
140.317
21
-37.941
0
LINE
8
BLACK
6
CONTINUOUS
10
140.317
20
-37.941
11
141.142
21
-37.941
0
LINE
8
BLACK
6
CONTINUOUS
10
141.142
20
-37.941
11
141.191
21
-37.9458
0
LINE
8
BLACK
6
CONTINUOUS
10
138.116
20
-37.9458
11
138.163
21
-37.96
0
LINE
8
BLACK
6
CONTINUOUS
10
138.163
20
-37.96
11
138.206
21
-37.9831
0
LINE
8
BLACK
6
CONTINUOUS
10
138.206
20
-37.9831
11
138.244
21
-38.0142
0
LINE
8
BLACK
6
CONTINUOUS
10
138.244
20
-38.0142
11
138.275
21
-38.0521
0
LINE
8
BLACK
6
CONTINUOUS
10
138.275
20
-38.0521
11
138.298
21
-38.0953
0
LINE
8
BLACK
6
CONTINUOUS
10
138.298
20
-38.0953
11
138.312
21
-38.1422
0
LINE
8
BLACK
6
CONTINUOUS
10
138.312
20
-38.1422
11
138.317
21
-38.191
0
LINE
8
BLACK
6
CONTINUOUS
10
138.317
20
-38.191
11
138.317
21
-40.041
0
LINE
8
BLACK
6
CONTINUOUS
10
138.317
20
-40.041
11
138.312
21
-40.0898
0
LINE
8
BLACK
6
CONTINUOUS
10
138.312
20
-40.0898
11
138.298
21
-40.1367
0
LINE
8
BLACK
6
CONTINUOUS
10
138.298
20
-40.1367
11
138.275
21
-40.1799
0
LINE
8
BLACK
6
CONTINUOUS
10
138.275
20
-40.1799
11
138.244
21
-40.2178
0
LINE
8
BLACK
6
CONTINUOUS
10
138.244
20
-40.2178
11
138.206
21
-40.2489
0
LINE
8
BLACK
6
CONTINUOUS
10
138.206
20
-40.2489
11
138.163
21
-40.272
0
LINE
8
BLACK
6
CONTINUOUS
10
138.163
20
-40.272
11
138.116
21
-40.2862
0
LINE
8
BLACK
6
CONTINUOUS
10
138.116
20
-40.2862
11
138.067
21
-40.291
0
LINE
8
BLACK
6
CONTINUOUS
10
138.067
20
-40.291
11
137.242
21
-40.291
0
LINE
8
BLACK
6
CONTINUOUS
10
137.242
20
-40.291
11
137.193
21
-40.2862
0
LINE
8
BLACK
6
CONTINUOUS
10
137.193
20
-40.2862
11
137.146
21
-40.272
0
LINE
8
BLACK
6
CONTINUOUS
10
137.146
20
-40.272
11
137.103
21
-40.2489
0
LINE
8
BLACK
6
CONTINUOUS
10
137.103
20
-40.2489
11
137.065
21
-40.2178
0
LINE
8
BLACK
6
CONTINUOUS
10
137.065
20
-40.2178
11
137.034
21
-40.1799
0
LINE
8
BLACK
6
CONTINUOUS
10
137.034
20
-40.1799
11
137.011
21
-40.1367
0
LINE
8
BLACK
6
CONTINUOUS
10
137.011
20
-40.1367
11
136.997
21
-40.0898
0
LINE
8
BLACK
6
CONTINUOUS
10
136.997
20
-40.0898
11
136.992
21
-40.041
0
LINE
8
BLACK
6
CONTINUOUS
10
136.992
20
-40.041
11
136.992
21
-38.191
0
LINE
8
BLACK
6
CONTINUOUS
10
136.992
20
-38.191
11
136.997
21
-38.1422
0
LINE
8
BLACK
6
CONTINUOUS
10
136.997
20
-38.1422
11
137.011
21
-38.0953
0
LINE
8
BLACK
6
CONTINUOUS
10
137.011
20
-38.0953
11
137.034
21
-38.0521
0
LINE
8
BLACK
6
CONTINUOUS
10
137.034
20
-38.0521
11
137.065
21
-38.0142
0
LINE
8
BLACK
6
CONTINUOUS
10
137.065
20
-38.0142
11
137.103
21
-37.9831
0
LINE
8
BLACK
6
CONTINUOUS
10
137.103
20
-37.9831
11
137.146
21
-37.96
0
LINE
8
BLACK
6
CONTINUOUS
10
137.146
20
-37.96
11
137.193
21
-37.9458
0
LINE
8
BLACK
6
CONTINUOUS
10
137.193
20
-37.9458
11
137.242
21
-37.941
0
LINE
8
BLACK
6
CONTINUOUS
10
137.242
20
-37.941
11
138.067
21
-37.941
0
LINE
8
BLACK
6
CONTINUOUS
10
138.067
20
-37.941
11
138.116
21
-37.9458
0
LINE
8
BLACK
6
CONTINUOUS
10
147.108
20
-29.6627
11
147.263
21
-29.7267
0
LINE
8
BLACK
6
CONTINUOUS
10
147.263
20
-29.7267
11
147.402
21
-29.8198
0
LINE
8
BLACK
6
CONTINUOUS
10
147.402
20
-29.8198
11
147.52
21
-29.9382
0
LINE
8
BLACK
6
CONTINUOUS
10
147.52
20
-29.9382
11
147.613
21
-30.0774
0
LINE
8
BLACK
6
CONTINUOUS
10
147.613
20
-30.0774
11
147.677
21
-30.2321
0
LINE
8
BLACK
6
CONTINUOUS
10
147.677
20
-30.2321
11
147.71
21
-30.3963
0
LINE
8
BLACK
6
CONTINUOUS
10
147.71
20
-30.3963
11
147.71
21
-30.5637
0
LINE
8
BLACK
6
CONTINUOUS
10
147.71
20
-30.5637
11
147.677
21
-30.7279
0
LINE
8
BLACK
6
CONTINUOUS
10
147.677
20
-30.7279
11
147.613
21
-30.8826
0
LINE
8
BLACK
6
CONTINUOUS
10
147.613
20
-30.8826
11
147.52
21
-31.0218
0
LINE
8
BLACK
6
CONTINUOUS
10
147.52
20
-31.0218
11
147.402
21
-31.1402
0
LINE
8
BLACK
6
CONTINUOUS
10
147.402
20
-31.1402
11
147.263
21
-31.2333
0
LINE
8
BLACK
6
CONTINUOUS
10
147.263
20
-31.2333
11
147.108
21
-31.2973
0
LINE
8
BLACK
6
CONTINUOUS
10
147.108
20
-31.2973
11
146.944
21
-31.33
0
LINE
8
BLACK
6
CONTINUOUS
10
146.944
20
-31.33
11
146.776
21
-31.33
0
LINE
8
BLACK
6
CONTINUOUS
10
146.776
20
-31.33
11
146.612
21
-31.2973
0
LINE
8
BLACK
6
CONTINUOUS
10
146.612
20
-31.2973
11
146.457
21
-31.2333
0
LINE
8
BLACK
6
CONTINUOUS
10
146.457
20
-31.2333
11
146.318
21
-31.1402
0
LINE
8
BLACK
6
CONTINUOUS
10
146.318
20
-31.1402
11
146.2
21
-31.0218
0
LINE
8
BLACK
6
CONTINUOUS
10
146.2
20
-31.0218
11
146.107
21
-30.8826
0
LINE
8
BLACK
6
CONTINUOUS
10
146.107
20
-30.8826
11
146.043
21
-30.7279
0
LINE
8
BLACK
6
CONTINUOUS
10
146.043
20
-30.7279
11
146.01
21
-30.5637
0
LINE
8
BLACK
6
CONTINUOUS
10
146.01
20
-30.5637
11
146.01
21
-30.3963
0
LINE
8
BLACK
6
CONTINUOUS
10
146.01
20
-30.3963
11
146.043
21
-30.2321
0
LINE
8
BLACK
6
CONTINUOUS
10
146.043
20
-30.2321
11
146.107
21
-30.0774
0
LINE
8
BLACK
6
CONTINUOUS
10
146.107
20
-30.0774
11
146.2
21
-29.9382
0
LINE
8
BLACK
6
CONTINUOUS
10
146.2
20
-29.9382
11
146.318
21
-29.8198
0
LINE
8
BLACK
6
CONTINUOUS
10
146.318
20
-29.8198
11
146.457
21
-29.7267
0
LINE
8
BLACK
6
CONTINUOUS
10
146.457
20
-29.7267
11
146.612
21
-29.6627
0
LINE
8
BLACK
6
CONTINUOUS
10
146.612
20
-29.6627
11
146.776
21
-29.63
0
LINE
8
BLACK
6
CONTINUOUS
10
146.776
20
-29.63
11
146.944
21
-29.63
0
LINE
8
BLACK
6
CONTINUOUS
10
146.944
20
-29.63
11
147.108
21
-29.6627
0
LINE
8
BLACK
6
CONTINUOUS
10
144.568
20
-29.6627
11
144.723
21
-29.7267
0
LINE
8
BLACK
6
CONTINUOUS
10
144.723
20
-29.7267
11
144.862
21
-29.8198
0
LINE
8
BLACK
6
CONTINUOUS
10
144.862
20
-29.8198
11
144.98
21
-29.9382
0
LINE
8
BLACK
6
CONTINUOUS
10
144.98
20
-29.9382
11
145.073
21
-30.0774
0
LINE
8
BLACK
6
CONTINUOUS
10
145.073
20
-30.0774
11
145.137
21
-30.2321
0
LINE
8
BLACK
6
CONTINUOUS
10
145.137
20
-30.2321
11
145.17
21
-30.3963
0
LINE
8
BLACK
6
CONTINUOUS
10
145.17
20
-30.3963
11
145.17
21
-30.5637
0
LINE
8
BLACK
6
CONTINUOUS
10
145.17
20
-30.5637
11
145.137
21
-30.7279
0
LINE
8
BLACK
6
CONTINUOUS
10
145.137
20
-30.7279
11
145.073
21
-30.8826
0
LINE
8
BLACK
6
CONTINUOUS
10
145.073
20
-30.8826
11
144.98
21
-31.0218
0
LINE
8
BLACK
6
CONTINUOUS
10
144.98
20
-31.0218
11
144.862
21
-31.1402
0
LINE
8
BLACK
6
CONTINUOUS
10
144.862
20
-31.1402
11
144.723
21
-31.2333
0
LINE
8
BLACK
6
CONTINUOUS
10
144.723
20
-31.2333
11
144.568
21
-31.2973
0
LINE
8
BLACK
6
CONTINUOUS
10
144.568
20
-31.2973
11
144.404
21
-31.33
0
LINE
8
BLACK
6
CONTINUOUS
10
144.404
20
-31.33
11
144.236
21
-31.33
0
LINE
8
BLACK
6
CONTINUOUS
10
144.236
20
-31.33
11
144.072
21
-31.2973
0
LINE
8
BLACK
6
CONTINUOUS
10
144.072
20
-31.2973
11
143.917
21
-31.2333
0
LINE
8
BLACK
6
CONTINUOUS
10
143.917
20
-31.2333
11
143.778
21
-31.1402
0
LINE
8
BLACK
6
CONTINUOUS
10
143.778
20
-31.1402
11
143.66
21
-31.0218
0
LINE
8
BLACK
6
CONTINUOUS
10
143.66
20
-31.0218
11
143.567
21
-30.8826
0
LINE
8
BLACK
6
CONTINUOUS
10
143.567
20
-30.8826
11
143.503
21
-30.7279
0
LINE
8
BLACK
6
CONTINUOUS
10
143.503
20
-30.7279
11
143.47
21
-30.5637
0
LINE
8
BLACK
6
CONTINUOUS
10
143.47
20
-30.5637
11
143.47
21
-30.3963
0
LINE
8
BLACK
6
CONTINUOUS
10
143.47
20
-30.3963
11
143.503
21
-30.2321
0
LINE
8
BLACK
6
CONTINUOUS
10
143.503
20
-30.2321
11
143.567
21
-30.0774
0
LINE
8
BLACK
6
CONTINUOUS
10
143.567
20
-30.0774
11
143.66
21
-29.9382
0
LINE
8
BLACK
6
CONTINUOUS
10
143.66
20
-29.9382
11
143.778
21
-29.8198
0
LINE
8
BLACK
6
CONTINUOUS
10
143.778
20
-29.8198
11
143.917
21
-29.7267
0
LINE
8
BLACK
6
CONTINUOUS
10
143.917
20
-29.7267
11
144.072
21
-29.6627
0
LINE
8
BLACK
6
CONTINUOUS
10
144.072
20
-29.6627
11
144.236
21
-29.63
0
LINE
8
BLACK
6
CONTINUOUS
10
144.236
20
-29.63
11
144.404
21
-29.63
0
LINE
8
BLACK
6
CONTINUOUS
10
144.404
20
-29.63
11
144.568
21
-29.6627
0
LINE
8
BLACK
6
CONTINUOUS
10
139.488
20
-29.6627
11
139.643
21
-29.7267
0
LINE
8
BLACK
6
CONTINUOUS
10
139.643
20
-29.7267
11
139.782
21
-29.8198
0
LINE
8
BLACK
6
CONTINUOUS
10
139.782
20
-29.8198
11
139.9
21
-29.9382
0
LINE
8
BLACK
6
CONTINUOUS
10
139.9
20
-29.9382
11
139.993
21
-30.0774
0
LINE
8
BLACK
6
CONTINUOUS
10
139.993
20
-30.0774
11
140.057
21
-30.2321
0
LINE
8
BLACK
6
CONTINUOUS
10
140.057
20
-30.2321
11
140.09
21
-30.3963
0
LINE
8
BLACK
6
CONTINUOUS
10
140.09
20
-30.3963
11
140.09
21
-30.5637
0
LINE
8
BLACK
6
CONTINUOUS
10
140.09
20
-30.5637
11
140.057
21
-30.7279
0
LINE
8
BLACK
6
CONTINUOUS
10
140.057
20
-30.7279
11
139.993
21
-30.8826
0
LINE
8
BLACK
6
CONTINUOUS
10
139.993
20
-30.8826
11
139.9
21
-31.0218
0
LINE
8
BLACK
6
CONTINUOUS
10
139.9
20
-31.0218
11
139.782
21
-31.1402
0
LINE
8
BLACK
6
CONTINUOUS
10
139.782
20
-31.1402
11
139.643
21
-31.2333
0
LINE
8
BLACK
6
CONTINUOUS
10
139.643
20
-31.2333
11
139.488
21
-31.2973
0
LINE
8
BLACK
6
CONTINUOUS
10
139.488
20
-31.2973
11
139.324
21
-31.33
0
LINE
8
BLACK
6
CONTINUOUS
10
139.324
20
-31.33
11
139.156
21
-31.33
0
LINE
8
BLACK
6
CONTINUOUS
10
139.156
20
-31.33
11
138.992
21
-31.2973
0
LINE
8
BLACK
6
CONTINUOUS
10
138.992
20
-31.2973
11
138.837
21
-31.2333
0
LINE
8
BLACK
6
CONTINUOUS
10
138.837
20
-31.2333
11
138.698
21
-31.1402
0
LINE
8
BLACK
6
CONTINUOUS
10
138.698
20
-31.1402
11
138.58
21
-31.0218
0
LINE
8
BLACK
6
CONTINUOUS
10
138.58
20
-31.0218
11
138.487
21
-30.8826
0
LINE
8
BLACK
6
CONTINUOUS
10
138.487
20
-30.8826
11
138.423
21
-30.7279
0
LINE
8
BLACK
6
CONTINUOUS
10
138.423
20
-30.7279
11
138.39
21
-30.5637
0
LINE
8
BLACK
6
CONTINUOUS
10
138.39
20
-30.5637
11
138.39
21
-30.3963
0
LINE
8
BLACK
6
CONTINUOUS
10
138.39
20
-30.3963
11
138.423
21
-30.2321
0
LINE
8
BLACK
6
CONTINUOUS
10
138.423
20
-30.2321
11
138.487
21
-30.0774
0
LINE
8
BLACK
6
CONTINUOUS
10
138.487
20
-30.0774
11
138.58
21
-29.9382
0
LINE
8
BLACK
6
CONTINUOUS
10
138.58
20
-29.9382
11
138.698
21
-29.8198
0
LINE
8
BLACK
6
CONTINUOUS
10
138.698
20
-29.8198
11
138.837
21
-29.7267
0
LINE
8
BLACK
6
CONTINUOUS
10
138.837
20
-29.7267
11
138.992
21
-29.6627
0
LINE
8
BLACK
6
CONTINUOUS
10
138.992
20
-29.6627
11
139.156
21
-29.63
0
LINE
8
BLACK
6
CONTINUOUS
10
139.156
20
-29.63
11
139.324
21
-29.63
0
LINE
8
BLACK
6
CONTINUOUS
10
139.324
20
-29.63
11
139.488
21
-29.6627
0
LINE
8
BLACK
6
CONTINUOUS
10
142.028
20
-29.6627
11
142.183
21
-29.7267
0
LINE
8
BLACK
6
CONTINUOUS
10
142.183
20
-29.7267
11
142.322
21
-29.8198
0
LINE
8
BLACK
6
CONTINUOUS
10
142.322
20
-29.8198
11
142.44
21
-29.9382
0
LINE
8
BLACK
6
CONTINUOUS
10
142.44
20
-29.9382
11
142.533
21
-30.0774
0
LINE
8
BLACK
6
CONTINUOUS
10
142.533
20
-30.0774
11
142.597
21
-30.2321
0
LINE
8
BLACK
6
CONTINUOUS
10
142.597
20
-30.2321
11
142.63
21
-30.3963
0
LINE
8
BLACK
6
CONTINUOUS
10
142.63
20
-30.3963
11
142.63
21
-30.5637
0
LINE
8
BLACK
6
CONTINUOUS
10
142.63
20
-30.5637
11
142.597
21
-30.7279
0
LINE
8
BLACK
6
CONTINUOUS
10
142.597
20
-30.7279
11
142.533
21
-30.8826
0
LINE
8
BLACK
6
CONTINUOUS
10
142.533
20
-30.8826
11
142.44
21
-31.0218
0
LINE
8
BLACK
6
CONTINUOUS
10
142.44
20
-31.0218
11
142.322
21
-31.1402
0
LINE
8
BLACK
6
CONTINUOUS
10
142.322
20
-31.1402
11
142.183
21
-31.2333
0
LINE
8
BLACK
6
CONTINUOUS
10
142.183
20
-31.2333
11
142.028
21
-31.2973
0
LINE
8
BLACK
6
CONTINUOUS
10
142.028
20
-31.2973
11
141.864
21
-31.33
0
LINE
8
BLACK
6
CONTINUOUS
10
141.864
20
-31.33
11
141.696
21
-31.33
0
LINE
8
BLACK
6
CONTINUOUS
10
141.696
20
-31.33
11
141.532
21
-31.2973
0
LINE
8
BLACK
6
CONTINUOUS
10
141.532
20
-31.2973
11
141.377
21
-31.2333
0
LINE
8
BLACK
6
CONTINUOUS
10
141.377
20
-31.2333
11
141.238
21
-31.1402
0
LINE
8
BLACK
6
CONTINUOUS
10
141.238
20
-31.1402
11
141.12
21
-31.0218
0
LINE
8
BLACK
6
CONTINUOUS
10
141.12
20
-31.0218
11
141.027
21
-30.8826
0
LINE
8
BLACK
6
CONTINUOUS
10
141.027
20
-30.8826
11
140.963
21
-30.7279
0
LINE
8
BLACK
6
CONTINUOUS
10
140.963
20
-30.7279
11
140.93
21
-30.5637
0
LINE
8
BLACK
6
CONTINUOUS
10
140.93
20
-30.5637
11
140.93
21
-30.3963
0
LINE
8
BLACK
6
CONTINUOUS
10
140.93
20
-30.3963
11
140.963
21
-30.2321
0
LINE
8
BLACK
6
CONTINUOUS
10
140.963
20
-30.2321
11
141.027
21
-30.0774
0
LINE
8
BLACK
6
CONTINUOUS
10
141.027
20
-30.0774
11
141.12
21
-29.9382
0
LINE
8
BLACK
6
CONTINUOUS
10
141.12
20
-29.9382
11
141.238
21
-29.8198
0
LINE
8
BLACK
6
CONTINUOUS
10
141.238
20
-29.8198
11
141.377
21
-29.7267
0
LINE
8
BLACK
6
CONTINUOUS
10
141.377
20
-29.7267
11
141.532
21
-29.6627
0
LINE
8
BLACK
6
CONTINUOUS
10
141.532
20
-29.6627
11
141.696
21
-29.63
0
LINE
8
BLACK
6
CONTINUOUS
10
141.696
20
-29.63
11
141.864
21
-29.63
0
LINE
8
BLACK
6
CONTINUOUS
10
141.864
20
-29.63
11
142.028
21
-29.6627
0
LINE
8
BLACK
6
CONTINUOUS
10
95.4979
20
-29.6627
11
95.6526
21
-29.7267
0
LINE
8
BLACK
6
CONTINUOUS
10
95.6526
20
-29.7267
11
95.7918
21
-29.8198
0
LINE
8
BLACK
6
CONTINUOUS
10
95.7918
20
-29.8198
11
95.9102
21
-29.9382
0
LINE
8
BLACK
6
CONTINUOUS
10
95.9102
20
-29.9382
11
96.0033
21
-30.0774
0
LINE
8
BLACK
6
CONTINUOUS
10
96.0033
20
-30.0774
11
96.0673
21
-30.2321
0
LINE
8
BLACK
6
CONTINUOUS
10
96.0673
20
-30.2321
11
96.1
21
-30.3963
0
LINE
8
BLACK
6
CONTINUOUS
10
96.1
20
-30.3963
11
96.1
21
-30.5637
0
LINE
8
BLACK
6
CONTINUOUS
10
96.1
20
-30.5637
11
96.0673
21
-30.7279
0
LINE
8
BLACK
6
CONTINUOUS
10
96.0673
20
-30.7279
11
96.0033
21
-30.8826
0
LINE
8
BLACK
6
CONTINUOUS
10
96.0033
20
-30.8826
11
95.9102
21
-31.0218
0
LINE
8
BLACK
6
CONTINUOUS
10
95.9102
20
-31.0218
11
95.7918
21
-31.1402
0
LINE
8
BLACK
6
CONTINUOUS
10
95.7918
20
-31.1402
11
95.6526
21
-31.2333
0
LINE
8
BLACK
6
CONTINUOUS
10
95.6526
20
-31.2333
11
95.4979
21
-31.2973
0
LINE
8
BLACK
6
CONTINUOUS
10
95.4979
20
-31.2973
11
95.3337
21
-31.33
0
LINE
8
BLACK
6
CONTINUOUS
10
95.3337
20
-31.33
11
95.1663
21
-31.33
0
LINE
8
BLACK
6
CONTINUOUS
10
95.1663
20
-31.33
11
95.0021
21
-31.2973
0
LINE
8
BLACK
6
CONTINUOUS
10
95.0021
20
-31.2973
11
94.8474
21
-31.2333
0
LINE
8
BLACK
6
CONTINUOUS
10
94.8474
20
-31.2333
11
94.7082
21
-31.1402
0
LINE
8
BLACK
6
CONTINUOUS
10
94.7082
20
-31.1402
11
94.5898
21
-31.0218
0
LINE
8
BLACK
6
CONTINUOUS
10
94.5898
20
-31.0218
11
94.4967
21
-30.8826
0
LINE
8
BLACK
6
CONTINUOUS
10
94.4967
20
-30.8826
11
94.4327
21
-30.7279
0
LINE
8
BLACK
6
CONTINUOUS
10
94.4327
20
-30.7279
11
94.4
21
-30.5637
0
LINE
8
BLACK
6
CONTINUOUS
10
94.4
20
-30.5637
11
94.4
21
-30.3963
0
LINE
8
BLACK
6
CONTINUOUS
10
94.4
20
-30.3963
11
94.4327
21
-30.2321
0
LINE
8
BLACK
6
CONTINUOUS
10
94.4327
20
-30.2321
11
94.4967
21
-30.0774
0
LINE
8
BLACK
6
CONTINUOUS
10
94.4967
20
-30.0774
11
94.5898
21
-29.9382
0
LINE
8
BLACK
6
CONTINUOUS
10
94.5898
20
-29.9382
11
94.7082
21
-29.8198
0
LINE
8
BLACK
6
CONTINUOUS
10
94.7082
20
-29.8198
11
94.8474
21
-29.7267
0
LINE
8
BLACK
6
CONTINUOUS
10
94.8474
20
-29.7267
11
95.0021
21
-29.6627
0
LINE
8
BLACK
6
CONTINUOUS
10
95.0021
20
-29.6627
11
95.1663
21
-29.63
0
LINE
8
BLACK
6
CONTINUOUS
10
95.1663
20
-29.63
11
95.3337
21
-29.63
0
LINE
8
BLACK
6
CONTINUOUS
10
95.3337
20
-29.63
11
95.4979
21
-29.6627
0
LINE
8
BLACK
6
CONTINUOUS
10
98.0379
20
-29.6627
11
98.1926
21
-29.7267
0
LINE
8
BLACK
6
CONTINUOUS
10
98.1926
20
-29.7267
11
98.3318
21
-29.8198
0
LINE
8
BLACK
6
CONTINUOUS
10
98.3318
20
-29.8198
11
98.4502
21
-29.9382
0
LINE
8
BLACK
6
CONTINUOUS
10
98.4502
20
-29.9382
11
98.5433
21
-30.0774
0
LINE
8
BLACK
6
CONTINUOUS
10
98.5433
20
-30.0774
11
98.6073
21
-30.2321
0
LINE
8
BLACK
6
CONTINUOUS
10
98.6073
20
-30.2321
11
98.64
21
-30.3963
0
LINE
8
BLACK
6
CONTINUOUS
10
98.64
20
-30.3963
11
98.64
21
-30.5637
0
LINE
8
BLACK
6
CONTINUOUS
10
98.64
20
-30.5637
11
98.6073
21
-30.7279
0
LINE
8
BLACK
6
CONTINUOUS
10
98.6073
20
-30.7279
11
98.5433
21
-30.8826
0
LINE
8
BLACK
6
CONTINUOUS
10
98.5433
20
-30.8826
11
98.4502
21
-31.0218
0
LINE
8
BLACK
6
CONTINUOUS
10
98.4502
20
-31.0218
11
98.3318
21
-31.1402
0
LINE
8
BLACK
6
CONTINUOUS
10
98.3318
20
-31.1402
11
98.1926
21
-31.2333
0
LINE
8
BLACK
6
CONTINUOUS
10
98.1926
20
-31.2333
11
98.0379
21
-31.2973
0
LINE
8
BLACK
6
CONTINUOUS
10
98.0379
20
-31.2973
11
97.8737
21
-31.33
0
LINE
8
BLACK
6
CONTINUOUS
10
97.8737
20
-31.33
11
97.7063
21
-31.33
0
LINE
8
BLACK
6
CONTINUOUS
10
97.7063
20
-31.33
11
97.5421
21
-31.2973
0
LINE
8
BLACK
6
CONTINUOUS
10
97.5421
20
-31.2973
11
97.3874
21
-31.2333
0
LINE
8
BLACK
6
CONTINUOUS
10
97.3874
20
-31.2333
11
97.2482
21
-31.1402
0
LINE
8
BLACK
6
CONTINUOUS
10
97.2482
20
-31.1402
11
97.1298
21
-31.0218
0
LINE
8
BLACK
6
CONTINUOUS
10
97.1298
20
-31.0218
11
97.0367
21
-30.8826
0
LINE
8
BLACK
6
CONTINUOUS
10
97.0367
20
-30.8826
11
96.9727
21
-30.7279
0
LINE
8
BLACK
6
CONTINUOUS
10
96.9727
20
-30.7279
11
96.94
21
-30.5637
0
LINE
8
BLACK
6
CONTINUOUS
10
96.94
20
-30.5637
11
96.94
21
-30.3963
0
LINE
8
BLACK
6
CONTINUOUS
10
96.94
20
-30.3963
11
96.9727
21
-30.2321
0
LINE
8
BLACK
6
CONTINUOUS
10
96.9727
20
-30.2321
11
97.0367
21
-30.0774
0
LINE
8
BLACK
6
CONTINUOUS
10
97.0367
20
-30.0774
11
97.1298
21
-29.9382
0
LINE
8
BLACK
6
CONTINUOUS
10
97.1298
20
-29.9382
11
97.2482
21
-29.8198
0
LINE
8
BLACK
6
CONTINUOUS
10
97.2482
20
-29.8198
11
97.3874
21
-29.7267
0
LINE
8
BLACK
6
CONTINUOUS
10
97.3874
20
-29.7267
11
97.5421
21
-29.6627
0
LINE
8
BLACK
6
CONTINUOUS
10
97.5421
20
-29.6627
11
97.7063
21
-29.63
0
LINE
8
BLACK
6
CONTINUOUS
10
97.7063
20
-29.63
11
97.8737
21
-29.63
0
LINE
8
BLACK
6
CONTINUOUS
10
97.8737
20
-29.63
11
98.0379
21
-29.6627
  0
ENDSEC
  0
EOF
