  0
SECTION
  2
HEADER
  9
$ANGBASE
  50
0.0
  9
$ANGDIR
  70
1
  9
$MEASUREMENT
  70
1
  0
ENDSEC
  0
SECTION
  2
TABLES
  0
TABLE
  2
LTYPE
  70
4
  0
LTYPE
  5
40F
  2
CONTINUOUS
  70
0
  3
Solid line
  72
65
  73
0
  40
0.0
  0
LTYPE
  5
410
  2
DASHDOT
 70
0
  3
Dash Dot ____ _ ____ _
 72
65
 73
4
 40
2.0
 49
1.25
 49
-0.25
 49
0.25
 49
-0.25
  0
LTYPE
  5
411
  2
DASHED
 70
0
  3
Dashed __ __ __ __ __
 72
65
 73
2
 40
0.75
 49
0.5
 49
-0.25
  0
LTYPE
  5
43B
  2
DOTTED
 70
0
  3
Dotted .  .  .  .
 72
65
 73
2
 40
0.2
 49
0.0
 49
-0.2
  0
ENDTAB
  0
TABLE
  2
STYLE
  70
4
  0
STYLE
  2
KICAD
  70
0
  40
0
  41
1
  42
1
  50
0
  71
0
  3
isocp.shx
  0
STYLE
  2
KICADB
  70
0
  40
0
  41
1
  42
1
  50
0
  71
0
  3
isocp.shx
  0
STYLE
  2
KICADI
  70
0
  40
0
  41
1
  42
1
  50
15
  71
0
  3
isocp.shx
  0
STYLE
  2
KICADBI
  70
0
  40
0
  41
1
  42
1
  50
15
  71
0
  3
isocp.shx
  0
ENDTAB
  0
TABLE
  2
LAYER
  70
1
  0
LAYER
  2
BLACK
  70
0
  62
7
  6
CONTINUOUS
  0
ENDTAB
  0
ENDSEC
  0
SECTION
  2
ENTITIES
0
LINE
8
BLACK
6
CONTINUOUS
10
156.362
20
-29.16
11
156.37
21
-29.1607
0
LINE
8
BLACK
6
CONTINUOUS
10
156.37
20
-29.1607
11
156.379
21
-29.1636
0
LINE
8
BLACK
6
CONTINUOUS
10
156.379
20
-29.1636
11
156.388
21
-29.1682
0
LINE
8
BLACK
6
CONTINUOUS
10
156.388
20
-29.1682
11
156.396
21
-29.1745
0
LINE
8
BLACK
6
CONTINUOUS
10
156.396
20
-29.1745
11
156.402
21
-29.1821
0
LINE
8
BLACK
6
CONTINUOUS
10
156.402
20
-29.1821
11
156.406
21
-29.1908
0
LINE
8
BLACK
6
CONTINUOUS
10
156.406
20
-29.1908
11
156.409
21
-29.2002
0
LINE
8
BLACK
6
CONTINUOUS
10
156.409
20
-29.2002
11
156.41
21
-29.21
0
LINE
8
BLACK
6
CONTINUOUS
10
156.41
20
-29.21
11
156.41
21
-29.2124
0
LINE
8
BLACK
6
CONTINUOUS
10
156.41
20
-29.2124
11
156.41
21
-69.8477
0
LINE
8
BLACK
6
CONTINUOUS
10
156.41
20
-69.8477
11
156.41
21
-69.8503
0
LINE
8
BLACK
6
CONTINUOUS
10
156.41
20
-69.8503
11
156.41
21
-69.8549
0
LINE
8
BLACK
6
CONTINUOUS
10
156.41
20
-69.8549
11
156.409
21
-69.8598
0
LINE
8
BLACK
6
CONTINUOUS
10
156.409
20
-69.8598
11
156.409
21
-69.86
0
LINE
8
BLACK
6
CONTINUOUS
10
156.409
20
-69.86
11
156.409
21
-69.8601
0
LINE
8
BLACK
6
CONTINUOUS
10
156.409
20
-69.8601
11
156.408
21
-69.8645
0
LINE
8
BLACK
6
CONTINUOUS
10
156.408
20
-69.8645
11
156.406
21
-69.8692
0
LINE
8
BLACK
6
CONTINUOUS
10
156.406
20
-69.8692
11
156.406
21
-69.8694
0
LINE
8
BLACK
6
CONTINUOUS
10
156.406
20
-69.8694
11
156.406
21
-69.8695
0
LINE
8
BLACK
6
CONTINUOUS
10
156.406
20
-69.8695
11
156.404
21
-69.8738
0
LINE
8
BLACK
6
CONTINUOUS
10
156.404
20
-69.8738
11
156.402
21
-69.8779
0
LINE
8
BLACK
6
CONTINUOUS
10
156.402
20
-69.8779
11
156.402
21
-69.878
0
LINE
8
BLACK
6
CONTINUOUS
10
156.402
20
-69.878
11
156.402
21
-69.8782
0
LINE
8
BLACK
6
CONTINUOUS
10
156.402
20
-69.8782
11
156.399
21
-69.8818
0
LINE
8
BLACK
6
CONTINUOUS
10
156.399
20
-69.8818
11
156.396
21
-69.8855
0
LINE
8
BLACK
6
CONTINUOUS
10
156.396
20
-69.8855
11
156.394
21
-69.8872
0
LINE
8
BLACK
6
CONTINUOUS
10
156.394
20
-69.8872
11
154.469
21
-71.7887
0
LINE
8
BLACK
6
CONTINUOUS
10
154.469
20
-71.7887
11
154.468
21
-71.7905
0
LINE
8
BLACK
6
CONTINUOUS
10
154.468
20
-71.7905
11
154.466
21
-71.7922
0
LINE
8
BLACK
6
CONTINUOUS
10
154.466
20
-71.7922
11
154.465
21
-71.7923
0
LINE
8
BLACK
6
CONTINUOUS
10
154.465
20
-71.7923
11
154.464
21
-71.7937
0
LINE
8
BLACK
6
CONTINUOUS
10
154.464
20
-71.7937
11
154.46
21
-71.7968
0
LINE
8
BLACK
6
CONTINUOUS
10
154.46
20
-71.7968
11
154.46
21
-71.7968
0
LINE
8
BLACK
6
CONTINUOUS
10
154.46
20
-71.7968
11
154.46
21
-71.7969
0
LINE
8
BLACK
6
CONTINUOUS
10
154.46
20
-71.7969
11
154.455
21
-71.7992
0
LINE
8
BLACK
6
CONTINUOUS
10
154.455
20
-71.7992
11
154.451
21
-71.8014
0
LINE
8
BLACK
6
CONTINUOUS
10
154.451
20
-71.8014
11
154.451
21
-71.8015
0
LINE
8
BLACK
6
CONTINUOUS
10
154.451
20
-71.8015
11
154.451
21
-71.8015
0
LINE
8
BLACK
6
CONTINUOUS
10
154.451
20
-71.8015
11
154.446
21
-71.8029
0
LINE
8
BLACK
6
CONTINUOUS
10
154.446
20
-71.8029
11
154.442
21
-71.8043
0
LINE
8
BLACK
6
CONTINUOUS
10
154.442
20
-71.8043
11
154.442
21
-71.8043
0
LINE
8
BLACK
6
CONTINUOUS
10
154.442
20
-71.8043
11
154.442
21
-71.8043
0
LINE
8
BLACK
6
CONTINUOUS
10
154.442
20
-71.8043
11
154.437
21
-71.8048
0
LINE
8
BLACK
6
CONTINUOUS
10
154.437
20
-71.8048
11
154.434
21
-71.805
0
LINE
8
BLACK
6
CONTINUOUS
10
154.434
20
-71.805
11
154.434
21
-71.805
0
LINE
8
BLACK
6
CONTINUOUS
10
154.434
20
-71.805
11
154.432
21
-71.8052
0
LINE
8
BLACK
6
CONTINUOUS
10
154.432
20
-71.8052
11
154.429
21
-71.805
0
LINE
8
BLACK
6
CONTINUOUS
10
154.429
20
-71.805
11
85.8624
21
-71.805
0
LINE
8
BLACK
6
CONTINUOUS
10
85.8624
20
-71.805
11
85.86
21
-71.8052
0
LINE
8
BLACK
6
CONTINUOUS
10
85.86
20
-71.8052
11
85.8502
21
-71.8043
0
LINE
8
BLACK
6
CONTINUOUS
10
85.8502
20
-71.8043
11
85.8408
21
-71.8014
0
LINE
8
BLACK
6
CONTINUOUS
10
85.8408
20
-71.8014
11
85.8321
21
-71.7968
0
LINE
8
BLACK
6
CONTINUOUS
10
85.8321
20
-71.7968
11
85.8245
21
-71.7905
0
LINE
8
BLACK
6
CONTINUOUS
10
85.8245
20
-71.7905
11
85.8243
21
-71.7903
0
LINE
8
BLACK
6
CONTINUOUS
10
85.8243
20
-71.7903
11
85.8182
21
-71.7829
0
LINE
8
BLACK
6
CONTINUOUS
10
85.8182
20
-71.7829
11
85.8136
21
-71.7742
0
LINE
8
BLACK
6
CONTINUOUS
10
85.8136
20
-71.7742
11
85.8107
21
-71.7648
0
LINE
8
BLACK
6
CONTINUOUS
10
85.8107
20
-71.7648
11
85.8098
21
-71.755
0
LINE
8
BLACK
6
CONTINUOUS
10
85.8098
20
-71.755
11
85.81
21
-71.7526
0
LINE
8
BLACK
6
CONTINUOUS
10
85.81
20
-71.7526
11
85.81
21
-29.2125
0
LINE
8
BLACK
6
CONTINUOUS
10
85.81
20
-29.2125
11
85.8098
21
-29.21
0
LINE
8
BLACK
6
CONTINUOUS
10
85.8098
20
-29.21
11
85.8107
21
-29.2002
0
LINE
8
BLACK
6
CONTINUOUS
10
85.8107
20
-29.2002
11
85.8136
21
-29.1908
0
LINE
8
BLACK
6
CONTINUOUS
10
85.8136
20
-29.1908
11
85.8182
21
-29.1821
0
LINE
8
BLACK
6
CONTINUOUS
10
85.8182
20
-29.1821
11
85.8245
21
-29.1745
0
LINE
8
BLACK
6
CONTINUOUS
10
85.8245
20
-29.1745
11
85.8321
21
-29.1682
0
LINE
8
BLACK
6
CONTINUOUS
10
85.8321
20
-29.1682
11
85.8408
21
-29.1636
0
LINE
8
BLACK
6
CONTINUOUS
10
85.8408
20
-29.1636
11
85.8502
21
-29.1607
0
LINE
8
BLACK
6
CONTINUOUS
10
85.8502
20
-29.1607
11
85.8576
21
-29.16
0
LINE
8
BLACK
6
CONTINUOUS
10
85.8576
20
-29.16
11
85.86
21
-29.1598
0
LINE
8
BLACK
6
CONTINUOUS
10
85.86
20
-29.1598
11
85.8624
21
-29.16
0
LINE
8
BLACK
6
CONTINUOUS
10
85.8624
20
-29.16
11
156.358
21
-29.16
0
LINE
8
BLACK
6
CONTINUOUS
10
156.358
20
-29.16
11
156.36
21
-29.1598
0
LINE
8
BLACK
6
CONTINUOUS
10
156.36
20
-29.1598
11
156.362
21
-29.16
0
LINE
8
BLACK
6
CONTINUOUS
10
85.91
20
-29.26
11
85.91
21
-71.705
0
LINE
8
BLACK
6
CONTINUOUS
10
85.91
20
-71.705
11
154.411
21
-71.705
0
LINE
8
BLACK
6
CONTINUOUS
10
154.411
20
-71.705
11
156.31
21
-69.8291
0
LINE
8
BLACK
6
CONTINUOUS
10
156.31
20
-69.8291
11
156.31
21
-29.26
0
LINE
8
BLACK
6
CONTINUOUS
10
156.31
20
-29.26
11
85.91
21
-29.26
  0
ENDSEC
  0
EOF
