  0
SECTION
  2
HEADER
  9
$ANGBASE
  50
0.0
  9
$ANGDIR
  70
1
  9
$MEASUREMENT
  70
0
  0
ENDSEC
  0
SECTION
  2
TABLES
  0
TABLE
  2
LTYPE
  70
4
  0
LTYPE
  5
40F
  2
CONTINUOUS
  70
0
  3
Solid line
  72
65
  73
0
  40
0.0
  0
LTYPE
  5
410
  2
DASHDOT
 70
0
  3
Dash Dot ____ _ ____ _
 72
65
 73
4
 40
2.0
 49
1.25
 49
-0.25
 49
0.25
 49
-0.25
  0
LTYPE
  5
411
  2
DASHED
 70
0
  3
Dashed __ __ __ __ __
 72
65
 73
2
 40
0.75
 49
0.5
 49
-0.25
  0
LTYPE
  5
43B
  2
DOTTED
 70
0
  3
Dotted .  .  .  .
 72
65
 73
2
 40
0.2
 49
0.0
 49
-0.2
  0
ENDTAB
  0
TABLE
  2
STYLE
  70
4
  0
STYLE
  2
KICAD
  70
0
  40
0
  41
1
  42
1
  50
0
  71
0
  3
isocp.shx
  0
STYLE
  2
KICADB
  70
0
  40
0
  41
1
  42
1
  50
0
  71
0
  3
isocp.shx
  0
STYLE
  2
KICADI
  70
0
  40
0
  41
1
  42
1
  50
15
  71
0
  3
isocp.shx
  0
STYLE
  2
KICADBI
  70
0
  40
0
  41
1
  42
1
  50
15
  71
0
  3
isocp.shx
  0
ENDTAB
  0
TABLE
  2
LAYER
  70
1
  0
LAYER
  2
BLACK
  70
0
  62
7
  6
CONTINUOUS
  0
ENDTAB
  0
ENDSEC
  0
SECTION
  2
ENTITIES
0
LINE
8
BLACK
6
CONTINUOUS
10
6.15591
20
-2.75
11
6.08
21
-2.825
0
LINE
8
BLACK
6
CONTINUOUS
10
6.15591
20
-1.15
11
6.15591
21
-2.75
0
LINE
8
BLACK
6
CONTINUOUS
10
3.38031
20
-1.15
11
6.15591
21
-1.15
0
LINE
8
BLACK
6
CONTINUOUS
10
3.38031
20
-2.825
11
3.38031
21
-1.15
0
LINE
8
BLACK
6
CONTINUOUS
10
6.08
20
-2.825
11
3.38031
21
-2.825
0
LINE
8
BLACK
6
CONTINUOUS
10
3.83409
20
-1.35409
11
3.84591
21
-1.36591
0
LINE
8
BLACK
6
CONTINUOUS
10
3.84591
20
-1.35409
11
3.83409
21
-1.36591
0
LINE
8
BLACK
6
CONTINUOUS
10
4.06409
20
-1.22409
11
4.07591
21
-1.23591
0
LINE
8
BLACK
6
CONTINUOUS
10
4.07591
20
-1.22409
11
4.06409
21
-1.23591
0
LINE
8
BLACK
6
CONTINUOUS
10
4.12409
20
-1.19409
11
4.13591
21
-1.20591
0
LINE
8
BLACK
6
CONTINUOUS
10
4.13591
20
-1.19409
11
4.12409
21
-1.20591
0
LINE
8
BLACK
6
CONTINUOUS
10
4.14409
20
-1.16409
11
4.15591
21
-1.17591
0
LINE
8
BLACK
6
CONTINUOUS
10
4.15591
20
-1.16409
11
4.14409
21
-1.17591
0
LINE
8
BLACK
6
CONTINUOUS
10
4.16409
20
-1.19409
11
4.17591
21
-1.20591
0
LINE
8
BLACK
6
CONTINUOUS
10
4.17591
20
-1.19409
11
4.16409
21
-1.20591
0
LINE
8
BLACK
6
CONTINUOUS
10
4.18409
20
-1.16409
11
4.19591
21
-1.17591
0
LINE
8
BLACK
6
CONTINUOUS
10
4.19591
20
-1.16409
11
4.18409
21
-1.17591
0
LINE
8
BLACK
6
CONTINUOUS
10
4.20409
20
-1.19409
11
4.21591
21
-1.20591
0
LINE
8
BLACK
6
CONTINUOUS
10
4.21591
20
-1.19409
11
4.20409
21
-1.20591
0
LINE
8
BLACK
6
CONTINUOUS
10
4.22409
20
-1.16409
11
4.23591
21
-1.17591
0
LINE
8
BLACK
6
CONTINUOUS
10
4.23591
20
-1.16409
11
4.22409
21
-1.17591
0
LINE
8
BLACK
6
CONTINUOUS
10
4.24409
20
-1.19409
11
4.25591
21
-1.20591
0
LINE
8
BLACK
6
CONTINUOUS
10
4.25591
20
-1.19409
11
4.24409
21
-1.20591
0
LINE
8
BLACK
6
CONTINUOUS
10
4.26409
20
-1.41047
11
4.27591
21
-1.42228
0
LINE
8
BLACK
6
CONTINUOUS
10
4.27591
20
-1.41047
11
4.26409
21
-1.42228
0
LINE
8
BLACK
6
CONTINUOUS
10
4.39409
20
-1.30409
11
4.40591
21
-1.31591
0
LINE
8
BLACK
6
CONTINUOUS
10
4.40591
20
-1.30409
11
4.39409
21
-1.31591
0
LINE
8
BLACK
6
CONTINUOUS
10
4.42409
20
-1.30409
11
4.43591
21
-1.31591
0
LINE
8
BLACK
6
CONTINUOUS
10
4.43591
20
-1.30409
11
4.42409
21
-1.31591
0
LINE
8
BLACK
6
CONTINUOUS
10
4.45409
20
-1.33409
11
4.46591
21
-1.34591
0
LINE
8
BLACK
6
CONTINUOUS
10
4.46591
20
-1.33409
11
4.45409
21
-1.34591
0
LINE
8
BLACK
6
CONTINUOUS
10
4.48409
20
-1.31409
11
4.49591
21
-1.32591
0
LINE
8
BLACK
6
CONTINUOUS
10
4.49591
20
-1.31409
11
4.48409
21
-1.32591
0
LINE
8
BLACK
6
CONTINUOUS
10
4.53409
20
-1.31409
11
4.54591
21
-1.32591
0
LINE
8
BLACK
6
CONTINUOUS
10
4.54591
20
-1.31409
11
4.53409
21
-1.32591
0
LINE
8
BLACK
6
CONTINUOUS
10
4.57409
20
-1.70409
11
4.58591
21
-1.71591
0
LINE
8
BLACK
6
CONTINUOUS
10
4.58591
20
-1.70409
11
4.57409
21
-1.71591
0
LINE
8
BLACK
6
CONTINUOUS
10
4.58409
20
-1.31409
11
4.59591
21
-1.32591
0
LINE
8
BLACK
6
CONTINUOUS
10
4.59591
20
-1.31409
11
4.58409
21
-1.32591
0
LINE
8
BLACK
6
CONTINUOUS
10
4.61409
20
-1.70409
11
4.62591
21
-1.71591
0
LINE
8
BLACK
6
CONTINUOUS
10
4.62591
20
-1.70409
11
4.61409
21
-1.71591
0
LINE
8
BLACK
6
CONTINUOUS
10
4.65409
20
-1.70409
11
4.66591
21
-1.71591
0
LINE
8
BLACK
6
CONTINUOUS
10
4.66591
20
-1.70409
11
4.65409
21
-1.71591
0
LINE
8
BLACK
6
CONTINUOUS
10
4.92409
20
-1.40409
11
4.93591
21
-1.41591
0
LINE
8
BLACK
6
CONTINUOUS
10
4.93591
20
-1.40409
11
4.92409
21
-1.41591
0
LINE
8
BLACK
6
CONTINUOUS
10
5.04543
20
-1.24543
11
5.05724
21
-1.25724
0
LINE
8
BLACK
6
CONTINUOUS
10
5.05724
20
-1.24543
11
5.04543
21
-1.25724
0
LINE
8
BLACK
6
CONTINUOUS
10
5.35409
20
-1.40409
11
5.36591
21
-1.41591
0
LINE
8
BLACK
6
CONTINUOUS
10
5.36591
20
-1.40409
11
5.35409
21
-1.41591
0
LINE
8
BLACK
6
CONTINUOUS
10
5.58409
20
-1.53409
11
5.59591
21
-1.54591
0
LINE
8
BLACK
6
CONTINUOUS
10
5.59591
20
-1.53409
11
5.58409
21
-1.54591
0
LINE
8
BLACK
6
CONTINUOUS
10
5.58409
20
-1.66409
11
5.59591
21
-1.67591
0
LINE
8
BLACK
6
CONTINUOUS
10
5.59591
20
-1.66409
11
5.58409
21
-1.67591
0
LINE
8
BLACK
6
CONTINUOUS
10
5.58409
20
-1.75409
11
5.59591
21
-1.76591
0
LINE
8
BLACK
6
CONTINUOUS
10
5.59591
20
-1.75409
11
5.58409
21
-1.76591
0
LINE
8
BLACK
6
CONTINUOUS
10
5.58409
20
-1.84409
11
5.59591
21
-1.85591
0
LINE
8
BLACK
6
CONTINUOUS
10
5.59591
20
-1.84409
11
5.58409
21
-1.85591
0
LINE
8
BLACK
6
CONTINUOUS
10
5.58409
20
-1.93409
11
5.59591
21
-1.94591
0
LINE
8
BLACK
6
CONTINUOUS
10
5.59591
20
-1.93409
11
5.58409
21
-1.94591
0
LINE
8
BLACK
6
CONTINUOUS
10
5.60409
20
-2.16409
11
5.61591
21
-2.17591
0
LINE
8
BLACK
6
CONTINUOUS
10
5.61591
20
-2.16409
11
5.60409
21
-2.17591
0
LINE
8
BLACK
6
CONTINUOUS
10
5.60409
20
-2.24409
11
5.61591
21
-2.25591
0
LINE
8
BLACK
6
CONTINUOUS
10
5.61591
20
-2.24409
11
5.60409
21
-2.25591
0
LINE
8
BLACK
6
CONTINUOUS
10
5.63409
20
-2.20409
11
5.64591
21
-2.21591
0
LINE
8
BLACK
6
CONTINUOUS
10
5.64591
20
-2.20409
11
5.63409
21
-2.21591
0
LINE
8
BLACK
6
CONTINUOUS
10
5.65409
20
-1.29409
11
5.66591
21
-1.30591
0
LINE
8
BLACK
6
CONTINUOUS
10
5.66591
20
-1.29409
11
5.65409
21
-1.30591
0
LINE
8
BLACK
6
CONTINUOUS
10
5.65409
20
-1.38409
11
5.66591
21
-1.39591
0
LINE
8
BLACK
6
CONTINUOUS
10
5.66591
20
-1.38409
11
5.65409
21
-1.39591
0
LINE
8
BLACK
6
CONTINUOUS
10
5.66409
20
-2.16409
11
5.67591
21
-2.17591
0
LINE
8
BLACK
6
CONTINUOUS
10
5.67591
20
-2.16409
11
5.66409
21
-2.17591
0
LINE
8
BLACK
6
CONTINUOUS
10
5.66409
20
-2.24409
11
5.67591
21
-2.25591
0
LINE
8
BLACK
6
CONTINUOUS
10
5.67591
20
-2.24409
11
5.66409
21
-2.25591
0
LINE
8
BLACK
6
CONTINUOUS
10
5.67409
20
-1.90594
11
5.68591
21
-1.91776
0
LINE
8
BLACK
6
CONTINUOUS
10
5.68591
20
-1.90594
11
5.67409
21
-1.91776
0
LINE
8
BLACK
6
CONTINUOUS
10
5.69409
20
-2.20409
11
5.70591
21
-2.21591
0
LINE
8
BLACK
6
CONTINUOUS
10
5.70591
20
-2.20409
11
5.69409
21
-2.21591
0
LINE
8
BLACK
6
CONTINUOUS
10
5.72409
20
-2.16409
11
5.73591
21
-2.17591
0
LINE
8
BLACK
6
CONTINUOUS
10
5.73591
20
-2.16409
11
5.72409
21
-2.17591
0
LINE
8
BLACK
6
CONTINUOUS
10
5.72409
20
-2.24409
11
5.73591
21
-2.25591
0
LINE
8
BLACK
6
CONTINUOUS
10
5.73591
20
-2.24409
11
5.72409
21
-2.25591
0
LINE
8
BLACK
6
CONTINUOUS
10
5.77409
20
-1.63409
11
5.78591
21
-1.64591
0
LINE
8
BLACK
6
CONTINUOUS
10
5.78591
20
-1.63409
11
5.77409
21
-1.64591
0
LINE
8
BLACK
6
CONTINUOUS
10
5.77409
20
-1.69409
11
5.78591
21
-1.70591
0
LINE
8
BLACK
6
CONTINUOUS
10
5.78591
20
-1.69409
11
5.77409
21
-1.70591
0
LINE
8
BLACK
6
CONTINUOUS
10
5.79909
20
-1.66409
11
5.81091
21
-1.67591
0
LINE
8
BLACK
6
CONTINUOUS
10
5.81091
20
-1.66409
11
5.79909
21
-1.67591
0
LINE
8
BLACK
6
CONTINUOUS
10
5.82409
20
-1.63409
11
5.83591
21
-1.64591
0
LINE
8
BLACK
6
CONTINUOUS
10
5.83591
20
-1.63409
11
5.82409
21
-1.64591
0
LINE
8
BLACK
6
CONTINUOUS
10
5.82409
20
-1.69409
11
5.83591
21
-1.70591
0
LINE
8
BLACK
6
CONTINUOUS
10
5.83591
20
-1.69409
11
5.82409
21
-1.70591
0
LINE
8
BLACK
6
CONTINUOUS
10
5.84909
20
-1.66409
11
5.86091
21
-1.67591
0
LINE
8
BLACK
6
CONTINUOUS
10
5.86091
20
-1.66409
11
5.84909
21
-1.67591
0
LINE
8
BLACK
6
CONTINUOUS
10
5.87409
20
-1.63409
11
5.88591
21
-1.64591
0
LINE
8
BLACK
6
CONTINUOUS
10
5.88591
20
-1.63409
11
5.87409
21
-1.64591
0
LINE
8
BLACK
6
CONTINUOUS
10
5.87409
20
-1.69409
11
5.88591
21
-1.70591
0
LINE
8
BLACK
6
CONTINUOUS
10
5.88591
20
-1.69409
11
5.87409
21
-1.70591
0
LINE
8
BLACK
6
CONTINUOUS
10
5.93409
20
-1.54409
11
5.94591
21
-1.55591
0
LINE
8
BLACK
6
CONTINUOUS
10
5.94591
20
-1.54409
11
5.93409
21
-1.55591
0
LINE
8
BLACK
6
CONTINUOUS
10
5.93409
20
-1.77409
11
5.94591
21
-1.78591
0
LINE
8
BLACK
6
CONTINUOUS
10
5.94591
20
-1.77409
11
5.93409
21
-1.78591
0
LINE
8
BLACK
6
CONTINUOUS
10
6.06409
20
-1.32409
11
6.07591
21
-1.33591
0
LINE
8
BLACK
6
CONTINUOUS
10
6.07591
20
-1.32409
11
6.06409
21
-1.33591
0
LINE
8
BLACK
6
CONTINUOUS
10
6.06409
20
-1.41409
11
6.07591
21
-1.42591
0
LINE
8
BLACK
6
CONTINUOUS
10
6.07591
20
-1.41409
11
6.06409
21
-1.42591
0
LINE
8
BLACK
6
CONTINUOUS
10
6.07409
20
-1.63409
11
6.08591
21
-1.64591
0
LINE
8
BLACK
6
CONTINUOUS
10
6.08591
20
-1.63409
11
6.07409
21
-1.64591
0
LINE
8
BLACK
6
CONTINUOUS
10
6.08409
20
-1.19409
11
6.09591
21
-1.20591
0
LINE
8
BLACK
6
CONTINUOUS
10
6.09591
20
-1.19409
11
6.08409
21
-1.20591
0
CIRCLE
8
BLACK
10
3.44
20
-1.19
40
0.00787402
0
LINE
8
BLACK
6
CONTINUOUS
10
3.45
20
-1.98031
11
3.45
21
-2.01969
0
LINE
8
BLACK
6
CONTINUOUS
10
3.43031
20
-2
11
3.46969
21
-2
0
LINE
8
BLACK
6
CONTINUOUS
10
3.45
20
-2.08031
11
3.45
21
-2.11969
0
LINE
8
BLACK
6
CONTINUOUS
10
3.43031
20
-2.1
11
3.46969
21
-2.1
0
LINE
8
BLACK
6
CONTINUOUS
10
3.45
20
-2.18031
11
3.45
21
-2.21969
0
LINE
8
BLACK
6
CONTINUOUS
10
3.43031
20
-2.2
11
3.46969
21
-2.2
0
LINE
8
BLACK
6
CONTINUOUS
10
3.45
20
-2.28031
11
3.45
21
-2.31969
0
LINE
8
BLACK
6
CONTINUOUS
10
3.43031
20
-2.3
11
3.46969
21
-2.3
0
LINE
8
BLACK
6
CONTINUOUS
10
3.45
20
-2.38031
11
3.45
21
-2.41969
0
LINE
8
BLACK
6
CONTINUOUS
10
3.43031
20
-2.4
11
3.46969
21
-2.4
0
LINE
8
BLACK
6
CONTINUOUS
10
3.45
20
-2.48031
11
3.45
21
-2.51969
0
LINE
8
BLACK
6
CONTINUOUS
10
3.43031
20
-2.5
11
3.46969
21
-2.5
0
LINE
8
BLACK
6
CONTINUOUS
10
3.45
20
-2.58031
11
3.45
21
-2.61969
0
LINE
8
BLACK
6
CONTINUOUS
10
3.43031
20
-2.6
11
3.46969
21
-2.6
0
LINE
8
BLACK
6
CONTINUOUS
10
3.45
20
-2.68031
11
3.45
21
-2.71969
0
LINE
8
BLACK
6
CONTINUOUS
10
3.43031
20
-2.7
11
3.46969
21
-2.7
0
LINE
8
BLACK
6
CONTINUOUS
10
3.75
20
-1.18031
11
3.75
21
-1.21969
0
LINE
8
BLACK
6
CONTINUOUS
10
3.73031
20
-1.2
11
3.76969
21
-1.2
0
LINE
8
BLACK
6
CONTINUOUS
10
3.85
20
-1.18031
11
3.85
21
-1.21969
0
LINE
8
BLACK
6
CONTINUOUS
10
3.83031
20
-1.2
11
3.86969
21
-1.2
0
LINE
8
BLACK
6
CONTINUOUS
10
4.35
20
-1.98031
11
4.35
21
-2.01969
0
LINE
8
BLACK
6
CONTINUOUS
10
4.33031
20
-2
11
4.36969
21
-2
0
LINE
8
BLACK
6
CONTINUOUS
10
4.35
20
-2.08031
11
4.35
21
-2.11969
0
LINE
8
BLACK
6
CONTINUOUS
10
4.33031
20
-2.1
11
4.36969
21
-2.1
0
LINE
8
BLACK
6
CONTINUOUS
10
4.35
20
-2.18031
11
4.35
21
-2.21969
0
LINE
8
BLACK
6
CONTINUOUS
10
4.33031
20
-2.2
11
4.36969
21
-2.2
0
LINE
8
BLACK
6
CONTINUOUS
10
4.35
20
-2.28031
11
4.35
21
-2.31969
0
LINE
8
BLACK
6
CONTINUOUS
10
4.33031
20
-2.3
11
4.36969
21
-2.3
0
LINE
8
BLACK
6
CONTINUOUS
10
5.18189
20
-1.98031
11
5.18189
21
-2.01969
0
LINE
8
BLACK
6
CONTINUOUS
10
5.1622
20
-2
11
5.20157
21
-2
0
LINE
8
BLACK
6
CONTINUOUS
10
5.18189
20
-2.08031
11
5.18189
21
-2.11969
0
LINE
8
BLACK
6
CONTINUOUS
10
5.1622
20
-2.1
11
5.20157
21
-2.1
0
LINE
8
BLACK
6
CONTINUOUS
10
5.18189
20
-2.18031
11
5.18189
21
-2.21969
0
LINE
8
BLACK
6
CONTINUOUS
10
5.1622
20
-2.2
11
5.20157
21
-2.2
0
LINE
8
BLACK
6
CONTINUOUS
10
5.18189
20
-2.28031
11
5.18189
21
-2.31969
0
LINE
8
BLACK
6
CONTINUOUS
10
5.1622
20
-2.3
11
5.20157
21
-2.3
0
LINE
8
BLACK
6
CONTINUOUS
10
5.18189
20
-2.38031
11
5.18189
21
-2.41969
0
LINE
8
BLACK
6
CONTINUOUS
10
5.1622
20
-2.4
11
5.20157
21
-2.4
0
LINE
8
BLACK
6
CONTINUOUS
10
5.18189
20
-2.48031
11
5.18189
21
-2.51969
0
LINE
8
BLACK
6
CONTINUOUS
10
5.1622
20
-2.5
11
5.20157
21
-2.5
0
LINE
8
BLACK
6
CONTINUOUS
10
5.18189
20
-2.58031
11
5.18189
21
-2.61969
0
LINE
8
BLACK
6
CONTINUOUS
10
5.1622
20
-2.6
11
5.20157
21
-2.6
0
LINE
8
BLACK
6
CONTINUOUS
10
5.18189
20
-2.68031
11
5.18189
21
-2.71969
0
LINE
8
BLACK
6
CONTINUOUS
10
5.1622
20
-2.7
11
5.20157
21
-2.7
0
LINE
8
BLACK
6
CONTINUOUS
10
5.48189
20
-1.18031
11
5.48189
21
-1.21969
0
LINE
8
BLACK
6
CONTINUOUS
10
5.4622
20
-1.2
11
5.50157
21
-1.2
0
LINE
8
BLACK
6
CONTINUOUS
10
5.58189
20
-1.18031
11
5.58189
21
-1.21969
0
LINE
8
BLACK
6
CONTINUOUS
10
5.5622
20
-1.2
11
5.60157
21
-1.2
0
LINE
8
BLACK
6
CONTINUOUS
10
5.68189
20
-1.18031
11
5.68189
21
-1.21969
0
LINE
8
BLACK
6
CONTINUOUS
10
5.6622
20
-1.2
11
5.70157
21
-1.2
0
LINE
8
BLACK
6
CONTINUOUS
10
5.7
20
-2.38031
11
5.7
21
-2.41969
0
LINE
8
BLACK
6
CONTINUOUS
10
5.68031
20
-2.4
11
5.71969
21
-2.4
0
LINE
8
BLACK
6
CONTINUOUS
10
5.7
20
-2.48031
11
5.7
21
-2.51969
0
LINE
8
BLACK
6
CONTINUOUS
10
5.68031
20
-2.5
11
5.71969
21
-2.5
0
LINE
8
BLACK
6
CONTINUOUS
10
5.7
20
-2.58031
11
5.7
21
-2.61969
0
LINE
8
BLACK
6
CONTINUOUS
10
5.68031
20
-2.6
11
5.71969
21
-2.6
0
LINE
8
BLACK
6
CONTINUOUS
10
5.7
20
-2.68031
11
5.7
21
-2.71969
0
LINE
8
BLACK
6
CONTINUOUS
10
5.68031
20
-2.7
11
5.71969
21
-2.7
0
LINE
8
BLACK
6
CONTINUOUS
10
5.78189
20
-1.18031
11
5.78189
21
-1.21969
0
LINE
8
BLACK
6
CONTINUOUS
10
5.7622
20
-1.2
11
5.80157
21
-1.2
0
LINE
8
BLACK
6
CONTINUOUS
10
5.84
20
-2.38031
11
5.84
21
-2.41969
0
LINE
8
BLACK
6
CONTINUOUS
10
5.82031
20
-2.4
11
5.85969
21
-2.4
0
LINE
8
BLACK
6
CONTINUOUS
10
5.84
20
-2.48031
11
5.84
21
-2.51969
0
LINE
8
BLACK
6
CONTINUOUS
10
5.82031
20
-2.5
11
5.85969
21
-2.5
0
LINE
8
BLACK
6
CONTINUOUS
10
5.84
20
-2.58031
11
5.84
21
-2.61969
0
LINE
8
BLACK
6
CONTINUOUS
10
5.82031
20
-2.6
11
5.85969
21
-2.6
0
LINE
8
BLACK
6
CONTINUOUS
10
5.84
20
-2.68031
11
5.84
21
-2.71969
0
LINE
8
BLACK
6
CONTINUOUS
10
5.82031
20
-2.7
11
5.85969
21
-2.7
0
LINE
8
BLACK
6
CONTINUOUS
10
5.98
20
-2.38031
11
5.98
21
-2.41969
0
LINE
8
BLACK
6
CONTINUOUS
10
5.96031
20
-2.4
11
5.99969
21
-2.4
0
LINE
8
BLACK
6
CONTINUOUS
10
5.98
20
-2.48031
11
5.98
21
-2.51969
0
LINE
8
BLACK
6
CONTINUOUS
10
5.96031
20
-2.5
11
5.99969
21
-2.5
0
LINE
8
BLACK
6
CONTINUOUS
10
5.98
20
-2.58031
11
5.98
21
-2.61969
0
LINE
8
BLACK
6
CONTINUOUS
10
5.96031
20
-2.6
11
5.99969
21
-2.6
0
LINE
8
BLACK
6
CONTINUOUS
10
5.98
20
-2.68031
11
5.98
21
-2.71969
0
LINE
8
BLACK
6
CONTINUOUS
10
5.96031
20
-2.7
11
5.99969
21
-2.7
0
LINE
8
BLACK
6
CONTINUOUS
10
6.08189
20
-1.98031
11
6.08189
21
-2.01969
0
LINE
8
BLACK
6
CONTINUOUS
10
6.0622
20
-2
11
6.10157
21
-2
0
LINE
8
BLACK
6
CONTINUOUS
10
6.08189
20
-2.08031
11
6.08189
21
-2.11969
0
LINE
8
BLACK
6
CONTINUOUS
10
6.0622
20
-2.1
11
6.10157
21
-2.1
0
LINE
8
BLACK
6
CONTINUOUS
10
6.08189
20
-2.18031
11
6.08189
21
-2.21969
0
LINE
8
BLACK
6
CONTINUOUS
10
6.0622
20
-2.2
11
6.10157
21
-2.2
0
LINE
8
BLACK
6
CONTINUOUS
10
6.08189
20
-2.28031
11
6.08189
21
-2.31969
0
LINE
8
BLACK
6
CONTINUOUS
10
6.0622
20
-2.3
11
6.10157
21
-2.3
0
LINE
8
BLACK
6
CONTINUOUS
10
6.08189
20
-2.38031
11
6.08189
21
-2.41969
0
LINE
8
BLACK
6
CONTINUOUS
10
6.0622
20
-2.4
11
6.10157
21
-2.4
0
LINE
8
BLACK
6
CONTINUOUS
10
6.08189
20
-2.48031
11
6.08189
21
-2.51969
0
LINE
8
BLACK
6
CONTINUOUS
10
6.0622
20
-2.5
11
6.10157
21
-2.5
0
LINE
8
BLACK
6
CONTINUOUS
10
6.08189
20
-2.58031
11
6.08189
21
-2.61969
0
LINE
8
BLACK
6
CONTINUOUS
10
6.0622
20
-2.6
11
6.10157
21
-2.6
0
LINE
8
BLACK
6
CONTINUOUS
10
6.08189
20
-2.68031
11
6.08189
21
-2.71969
0
LINE
8
BLACK
6
CONTINUOUS
10
6.0622
20
-2.7
11
6.10157
21
-2.7
0
LINE
8
BLACK
6
CONTINUOUS
10
3.62955
20
-1.38451
11
3.62955
21
-1.301
0
LINE
8
BLACK
6
CONTINUOUS
10
3.62955
20
-1.301
11
3.54604
21
-1.301
0
LINE
8
BLACK
6
CONTINUOUS
10
3.54604
20
-1.301
11
3.54604
21
-1.38451
0
LINE
8
BLACK
6
CONTINUOUS
10
3.54604
20
-1.38451
11
3.62955
21
-1.38451
0
LINE
8
BLACK
6
CONTINUOUS
10
3.62955
20
-2.68373
11
3.62955
21
-2.60021
0
LINE
8
BLACK
6
CONTINUOUS
10
3.62955
20
-2.60021
11
3.54604
21
-2.60021
0
LINE
8
BLACK
6
CONTINUOUS
10
3.54604
20
-2.60021
11
3.54604
21
-2.68373
0
LINE
8
BLACK
6
CONTINUOUS
10
3.54604
20
-2.68373
11
3.62955
21
-2.68373
0
LINE
8
BLACK
6
CONTINUOUS
10
5.51932
20
-1.38451
11
5.51932
21
-1.301
0
LINE
8
BLACK
6
CONTINUOUS
10
5.51932
20
-1.301
11
5.4358
21
-1.301
0
LINE
8
BLACK
6
CONTINUOUS
10
5.4358
20
-1.301
11
5.4358
21
-1.38451
0
LINE
8
BLACK
6
CONTINUOUS
10
5.4358
20
-1.38451
11
5.51932
21
-1.38451
0
LINE
8
BLACK
6
CONTINUOUS
10
5.51932
20
-2.68373
11
5.51932
21
-2.60021
0
LINE
8
BLACK
6
CONTINUOUS
10
5.51932
20
-2.60021
11
5.4358
21
-2.60021
0
LINE
8
BLACK
6
CONTINUOUS
10
5.4358
20
-2.60021
11
5.4358
21
-2.68373
0
LINE
8
BLACK
6
CONTINUOUS
10
5.4358
20
-2.68373
11
5.51932
21
-2.68373
0
LINE
8
BLACK
6
CONTINUOUS
10
3.49111
20
-3.01032
11
3.49111
21
-2.89221
0
LINE
8
BLACK
6
CONTINUOUS
10
3.49111
20
-2.89221
11
3.51924
21
-2.89221
0
LINE
8
BLACK
6
CONTINUOUS
10
3.51924
20
-2.89221
11
3.53611
21
-2.89783
0
LINE
8
BLACK
6
CONTINUOUS
10
3.53611
20
-2.89783
11
3.54736
21
-2.90908
0
LINE
8
BLACK
6
CONTINUOUS
10
3.54736
20
-2.90908
11
3.55298
21
-2.92033
0
LINE
8
BLACK
6
CONTINUOUS
10
3.55298
20
-2.92033
11
3.55861
21
-2.94283
0
LINE
8
BLACK
6
CONTINUOUS
10
3.55861
20
-2.94283
11
3.55861
21
-2.9597
0
LINE
8
BLACK
6
CONTINUOUS
10
3.55861
20
-2.9597
11
3.55298
21
-2.9822
0
LINE
8
BLACK
6
CONTINUOUS
10
3.55298
20
-2.9822
11
3.54736
21
-2.99345
0
LINE
8
BLACK
6
CONTINUOUS
10
3.54736
20
-2.99345
11
3.53611
21
-3.0047
0
LINE
8
BLACK
6
CONTINUOUS
10
3.53611
20
-3.0047
11
3.51924
21
-3.01032
0
LINE
8
BLACK
6
CONTINUOUS
10
3.51924
20
-3.01032
11
3.49111
21
-3.01032
0
LINE
8
BLACK
6
CONTINUOUS
10
3.60922
20
-3.01032
11
3.60922
21
-2.93158
0
LINE
8
BLACK
6
CONTINUOUS
10
3.60922
20
-2.95408
11
3.61485
21
-2.94283
0
LINE
8
BLACK
6
CONTINUOUS
10
3.61485
20
-2.94283
11
3.62047
21
-2.9372
0
LINE
8
BLACK
6
CONTINUOUS
10
3.62047
20
-2.9372
11
3.63172
21
-2.93158
0
LINE
8
BLACK
6
CONTINUOUS
10
3.63172
20
-2.93158
11
3.64297
21
-2.93158
0
LINE
8
BLACK
6
CONTINUOUS
10
3.68234
20
-3.01032
11
3.68234
21
-2.93158
0
LINE
8
BLACK
6
CONTINUOUS
10
3.68234
20
-2.89221
11
3.67672
21
-2.89783
0
LINE
8
BLACK
6
CONTINUOUS
10
3.67672
20
-2.89783
11
3.68234
21
-2.90346
0
LINE
8
BLACK
6
CONTINUOUS
10
3.68234
20
-2.90346
11
3.68796
21
-2.89783
0
LINE
8
BLACK
6
CONTINUOUS
10
3.68796
20
-2.89783
11
3.68234
21
-2.89221
0
LINE
8
BLACK
6
CONTINUOUS
10
3.68234
20
-2.89221
11
3.68234
21
-2.90346
0
LINE
8
BLACK
6
CONTINUOUS
10
3.75546
20
-3.01032
11
3.74421
21
-3.0047
0
LINE
8
BLACK
6
CONTINUOUS
10
3.74421
20
-3.0047
11
3.73858
21
-2.99345
0
LINE
8
BLACK
6
CONTINUOUS
10
3.73858
20
-2.99345
11
3.73858
21
-2.89221
0
LINE
8
BLACK
6
CONTINUOUS
10
3.81732
20
-3.01032
11
3.80607
21
-3.0047
0
LINE
8
BLACK
6
CONTINUOUS
10
3.80607
20
-3.0047
11
3.80045
21
-2.99345
0
LINE
8
BLACK
6
CONTINUOUS
10
3.80045
20
-2.99345
11
3.80045
21
-2.89221
0
LINE
8
BLACK
6
CONTINUOUS
10
3.95231
20
-3.01032
11
3.95231
21
-2.89221
0
LINE
8
BLACK
6
CONTINUOUS
10
3.95231
20
-2.89221
11
3.99168
21
-2.97657
0
LINE
8
BLACK
6
CONTINUOUS
10
3.99168
20
-2.97657
11
4.03105
21
-2.89221
0
LINE
8
BLACK
6
CONTINUOUS
10
4.03105
20
-2.89221
11
4.03105
21
-3.01032
0
LINE
8
BLACK
6
CONTINUOUS
10
4.13791
20
-3.01032
11
4.13791
21
-2.94845
0
LINE
8
BLACK
6
CONTINUOUS
10
4.13791
20
-2.94845
11
4.13228
21
-2.9372
0
LINE
8
BLACK
6
CONTINUOUS
10
4.13228
20
-2.9372
11
4.12103
21
-2.93158
0
LINE
8
BLACK
6
CONTINUOUS
10
4.12103
20
-2.93158
11
4.09854
21
-2.93158
0
LINE
8
BLACK
6
CONTINUOUS
10
4.09854
20
-2.93158
11
4.08729
21
-2.9372
0
LINE
8
BLACK
6
CONTINUOUS
10
4.13791
20
-3.0047
11
4.12666
21
-3.01032
0
LINE
8
BLACK
6
CONTINUOUS
10
4.12666
20
-3.01032
11
4.09854
21
-3.01032
0
LINE
8
BLACK
6
CONTINUOUS
10
4.09854
20
-3.01032
11
4.08729
21
-3.0047
0
LINE
8
BLACK
6
CONTINUOUS
10
4.08729
20
-3.0047
11
4.08166
21
-2.99345
0
LINE
8
BLACK
6
CONTINUOUS
10
4.08166
20
-2.99345
11
4.08166
21
-2.9822
0
LINE
8
BLACK
6
CONTINUOUS
10
4.08166
20
-2.9822
11
4.08729
21
-2.97095
0
LINE
8
BLACK
6
CONTINUOUS
10
4.08729
20
-2.97095
11
4.09854
21
-2.96533
0
LINE
8
BLACK
6
CONTINUOUS
10
4.09854
20
-2.96533
11
4.12666
21
-2.96533
0
LINE
8
BLACK
6
CONTINUOUS
10
4.12666
20
-2.96533
11
4.13791
21
-2.9597
0
LINE
8
BLACK
6
CONTINUOUS
10
4.19415
20
-2.93158
11
4.19415
21
-3.04969
0
LINE
8
BLACK
6
CONTINUOUS
10
4.19415
20
-2.9372
11
4.2054
21
-2.93158
0
LINE
8
BLACK
6
CONTINUOUS
10
4.2054
20
-2.93158
11
4.2279
21
-2.93158
0
LINE
8
BLACK
6
CONTINUOUS
10
4.2279
20
-2.93158
11
4.23915
21
-2.9372
0
LINE
8
BLACK
6
CONTINUOUS
10
4.23915
20
-2.9372
11
4.24477
21
-2.94283
0
LINE
8
BLACK
6
CONTINUOUS
10
4.24477
20
-2.94283
11
4.25039
21
-2.95408
0
LINE
8
BLACK
6
CONTINUOUS
10
4.25039
20
-2.95408
11
4.25039
21
-2.98782
0
LINE
8
BLACK
6
CONTINUOUS
10
4.25039
20
-2.98782
11
4.24477
21
-2.99907
0
LINE
8
BLACK
6
CONTINUOUS
10
4.24477
20
-2.99907
11
4.23915
21
-3.0047
0
LINE
8
BLACK
6
CONTINUOUS
10
4.23915
20
-3.0047
11
4.2279
21
-3.01032
0
LINE
8
BLACK
6
CONTINUOUS
10
4.2279
20
-3.01032
11
4.2054
21
-3.01032
0
LINE
8
BLACK
6
CONTINUOUS
10
4.2054
20
-3.01032
11
4.19415
21
-3.0047
0
LINE
8
BLACK
6
CONTINUOUS
10
4.30101
20
-2.99907
11
4.30664
21
-3.0047
0
LINE
8
BLACK
6
CONTINUOUS
10
4.30664
20
-3.0047
11
4.30101
21
-3.01032
0
LINE
8
BLACK
6
CONTINUOUS
10
4.30101
20
-3.01032
11
4.29539
21
-3.0047
0
LINE
8
BLACK
6
CONTINUOUS
10
4.29539
20
-3.0047
11
4.30101
21
-2.99907
0
LINE
8
BLACK
6
CONTINUOUS
10
4.30101
20
-2.99907
11
4.30101
21
-3.01032
0
LINE
8
BLACK
6
CONTINUOUS
10
4.30101
20
-2.9372
11
4.30664
21
-2.94283
0
LINE
8
BLACK
6
CONTINUOUS
10
4.30664
20
-2.94283
11
4.30101
21
-2.94845
0
LINE
8
BLACK
6
CONTINUOUS
10
4.30101
20
-2.94845
11
4.29539
21
-2.94283
0
LINE
8
BLACK
6
CONTINUOUS
10
4.29539
20
-2.94283
11
4.30101
21
-2.9372
0
LINE
8
BLACK
6
CONTINUOUS
10
4.30101
20
-2.9372
11
4.30101
21
-2.94845
0
LINE
8
BLACK
6
CONTINUOUS
10
3.36654
20
-3.19902
11
3.37835
21
-3.21083
0
LINE
8
BLACK
6
CONTINUOUS
10
3.37835
20
-3.19902
11
3.36654
21
-3.21083
0
LINE
8
BLACK
6
CONTINUOUS
10
3.51361
20
-3.14024
11
3.52486
21
-3.14024
0
LINE
8
BLACK
6
CONTINUOUS
10
3.52486
20
-3.14024
11
3.53611
21
-3.14587
0
LINE
8
BLACK
6
CONTINUOUS
10
3.53611
20
-3.14587
11
3.54173
21
-3.15149
0
LINE
8
BLACK
6
CONTINUOUS
10
3.54173
20
-3.15149
11
3.54736
21
-3.16274
0
LINE
8
BLACK
6
CONTINUOUS
10
3.54736
20
-3.16274
11
3.55298
21
-3.18524
0
LINE
8
BLACK
6
CONTINUOUS
10
3.55298
20
-3.18524
11
3.55298
21
-3.21336
0
LINE
8
BLACK
6
CONTINUOUS
10
3.55298
20
-3.21336
11
3.54736
21
-3.23585
0
LINE
8
BLACK
6
CONTINUOUS
10
3.54736
20
-3.23585
11
3.54173
21
-3.2471
0
LINE
8
BLACK
6
CONTINUOUS
10
3.54173
20
-3.2471
11
3.53611
21
-3.25273
0
LINE
8
BLACK
6
CONTINUOUS
10
3.53611
20
-3.25273
11
3.52486
21
-3.25835
0
LINE
8
BLACK
6
CONTINUOUS
10
3.52486
20
-3.25835
11
3.51361
21
-3.25835
0
LINE
8
BLACK
6
CONTINUOUS
10
3.51361
20
-3.25835
11
3.50236
21
-3.25273
0
LINE
8
BLACK
6
CONTINUOUS
10
3.50236
20
-3.25273
11
3.49674
21
-3.2471
0
LINE
8
BLACK
6
CONTINUOUS
10
3.49674
20
-3.2471
11
3.49111
21
-3.23585
0
LINE
8
BLACK
6
CONTINUOUS
10
3.49111
20
-3.23585
11
3.48549
21
-3.21336
0
LINE
8
BLACK
6
CONTINUOUS
10
3.48549
20
-3.21336
11
3.48549
21
-3.18524
0
LINE
8
BLACK
6
CONTINUOUS
10
3.48549
20
-3.18524
11
3.49111
21
-3.16274
0
LINE
8
BLACK
6
CONTINUOUS
10
3.49111
20
-3.16274
11
3.49674
21
-3.15149
0
LINE
8
BLACK
6
CONTINUOUS
10
3.49674
20
-3.15149
11
3.50236
21
-3.14587
0
LINE
8
BLACK
6
CONTINUOUS
10
3.50236
20
-3.14587
11
3.51361
21
-3.14024
0
LINE
8
BLACK
6
CONTINUOUS
10
3.6036
20
-3.2471
11
3.60922
21
-3.25273
0
LINE
8
BLACK
6
CONTINUOUS
10
3.60922
20
-3.25273
11
3.6036
21
-3.25835
0
LINE
8
BLACK
6
CONTINUOUS
10
3.6036
20
-3.25835
11
3.59798
21
-3.25273
0
LINE
8
BLACK
6
CONTINUOUS
10
3.59798
20
-3.25273
11
3.6036
21
-3.2471
0
LINE
8
BLACK
6
CONTINUOUS
10
3.6036
20
-3.2471
11
3.6036
21
-3.25835
0
LINE
8
BLACK
6
CONTINUOUS
10
3.64859
20
-3.14024
11
3.72171
21
-3.14024
0
LINE
8
BLACK
6
CONTINUOUS
10
3.72171
20
-3.14024
11
3.68234
21
-3.18524
0
LINE
8
BLACK
6
CONTINUOUS
10
3.68234
20
-3.18524
11
3.69921
21
-3.18524
0
LINE
8
BLACK
6
CONTINUOUS
10
3.69921
20
-3.18524
11
3.71046
21
-3.19086
0
LINE
8
BLACK
6
CONTINUOUS
10
3.71046
20
-3.19086
11
3.71609
21
-3.19648
0
LINE
8
BLACK
6
CONTINUOUS
10
3.71609
20
-3.19648
11
3.72171
21
-3.20773
0
LINE
8
BLACK
6
CONTINUOUS
10
3.72171
20
-3.20773
11
3.72171
21
-3.23585
0
LINE
8
BLACK
6
CONTINUOUS
10
3.72171
20
-3.23585
11
3.71609
21
-3.2471
0
LINE
8
BLACK
6
CONTINUOUS
10
3.71609
20
-3.2471
11
3.71046
21
-3.25273
0
LINE
8
BLACK
6
CONTINUOUS
10
3.71046
20
-3.25273
11
3.69921
21
-3.25835
0
LINE
8
BLACK
6
CONTINUOUS
10
3.69921
20
-3.25835
11
3.66547
21
-3.25835
0
LINE
8
BLACK
6
CONTINUOUS
10
3.66547
20
-3.25835
11
3.65422
21
-3.25273
0
LINE
8
BLACK
6
CONTINUOUS
10
3.65422
20
-3.25273
11
3.64859
21
-3.2471
0
LINE
8
BLACK
6
CONTINUOUS
10
3.79483
20
-3.14024
11
3.80607
21
-3.14024
0
LINE
8
BLACK
6
CONTINUOUS
10
3.80607
20
-3.14024
11
3.81732
21
-3.14587
0
LINE
8
BLACK
6
CONTINUOUS
10
3.81732
20
-3.14587
11
3.82295
21
-3.15149
0
LINE
8
BLACK
6
CONTINUOUS
10
3.82295
20
-3.15149
11
3.82857
21
-3.16274
0
LINE
8
BLACK
6
CONTINUOUS
10
3.82857
20
-3.16274
11
3.8342
21
-3.18524
0
LINE
8
BLACK
6
CONTINUOUS
10
3.8342
20
-3.18524
11
3.8342
21
-3.21336
0
LINE
8
BLACK
6
CONTINUOUS
10
3.8342
20
-3.21336
11
3.82857
21
-3.23585
0
LINE
8
BLACK
6
CONTINUOUS
10
3.82857
20
-3.23585
11
3.82295
21
-3.2471
0
LINE
8
BLACK
6
CONTINUOUS
10
3.82295
20
-3.2471
11
3.81732
21
-3.25273
0
LINE
8
BLACK
6
CONTINUOUS
10
3.81732
20
-3.25273
11
3.80607
21
-3.25835
0
LINE
8
BLACK
6
CONTINUOUS
10
3.80607
20
-3.25835
11
3.79483
21
-3.25835
0
LINE
8
BLACK
6
CONTINUOUS
10
3.79483
20
-3.25835
11
3.78358
21
-3.25273
0
LINE
8
BLACK
6
CONTINUOUS
10
3.78358
20
-3.25273
11
3.77795
21
-3.2471
0
LINE
8
BLACK
6
CONTINUOUS
10
3.77795
20
-3.2471
11
3.77233
21
-3.23585
0
LINE
8
BLACK
6
CONTINUOUS
10
3.77233
20
-3.23585
11
3.7667
21
-3.21336
0
LINE
8
BLACK
6
CONTINUOUS
10
3.7667
20
-3.21336
11
3.7667
21
-3.18524
0
LINE
8
BLACK
6
CONTINUOUS
10
3.7667
20
-3.18524
11
3.77233
21
-3.16274
0
LINE
8
BLACK
6
CONTINUOUS
10
3.77233
20
-3.16274
11
3.77795
21
-3.15149
0
LINE
8
BLACK
6
CONTINUOUS
10
3.77795
20
-3.15149
11
3.78358
21
-3.14587
0
LINE
8
BLACK
6
CONTINUOUS
10
3.78358
20
-3.14587
11
3.79483
21
-3.14024
0
LINE
8
BLACK
6
CONTINUOUS
10
3.88481
20
-3.25835
11
3.88481
21
-3.17961
0
LINE
8
BLACK
6
CONTINUOUS
10
3.88481
20
-3.19086
11
3.89044
21
-3.18524
0
LINE
8
BLACK
6
CONTINUOUS
10
3.89044
20
-3.18524
11
3.90169
21
-3.17961
0
LINE
8
BLACK
6
CONTINUOUS
10
3.90169
20
-3.17961
11
3.91856
21
-3.17961
0
LINE
8
BLACK
6
CONTINUOUS
10
3.91856
20
-3.17961
11
3.92981
21
-3.18524
0
LINE
8
BLACK
6
CONTINUOUS
10
3.92981
20
-3.18524
11
3.93543
21
-3.19648
0
LINE
8
BLACK
6
CONTINUOUS
10
3.93543
20
-3.19648
11
3.93543
21
-3.25835
0
LINE
8
BLACK
6
CONTINUOUS
10
3.93543
20
-3.19648
11
3.94106
21
-3.18524
0
LINE
8
BLACK
6
CONTINUOUS
10
3.94106
20
-3.18524
11
3.95231
21
-3.17961
0
LINE
8
BLACK
6
CONTINUOUS
10
3.95231
20
-3.17961
11
3.96918
21
-3.17961
0
LINE
8
BLACK
6
CONTINUOUS
10
3.96918
20
-3.17961
11
3.98043
21
-3.18524
0
LINE
8
BLACK
6
CONTINUOUS
10
3.98043
20
-3.18524
11
3.98605
21
-3.19648
0
LINE
8
BLACK
6
CONTINUOUS
10
3.98605
20
-3.19648
11
3.98605
21
-3.25835
0
LINE
8
BLACK
6
CONTINUOUS
10
4.04229
20
-3.25835
11
4.04229
21
-3.17961
0
LINE
8
BLACK
6
CONTINUOUS
10
4.04229
20
-3.19086
11
4.04792
21
-3.18524
0
LINE
8
BLACK
6
CONTINUOUS
10
4.04792
20
-3.18524
11
4.05917
21
-3.17961
0
LINE
8
BLACK
6
CONTINUOUS
10
4.05917
20
-3.17961
11
4.07604
21
-3.17961
0
LINE
8
BLACK
6
CONTINUOUS
10
4.07604
20
-3.17961
11
4.08729
21
-3.18524
0
LINE
8
BLACK
6
CONTINUOUS
10
4.08729
20
-3.18524
11
4.09291
21
-3.19648
0
LINE
8
BLACK
6
CONTINUOUS
10
4.09291
20
-3.19648
11
4.09291
21
-3.25835
0
LINE
8
BLACK
6
CONTINUOUS
10
4.09291
20
-3.19648
11
4.09854
21
-3.18524
0
LINE
8
BLACK
6
CONTINUOUS
10
4.09854
20
-3.18524
11
4.10979
21
-3.17961
0
LINE
8
BLACK
6
CONTINUOUS
10
4.10979
20
-3.17961
11
4.12666
21
-3.17961
0
LINE
8
BLACK
6
CONTINUOUS
10
4.12666
20
-3.17961
11
4.13791
21
-3.18524
0
LINE
8
BLACK
6
CONTINUOUS
10
4.13791
20
-3.18524
11
4.14353
21
-3.19648
0
LINE
8
BLACK
6
CONTINUOUS
10
4.14353
20
-3.19648
11
4.14353
21
-3.25835
0
LINE
8
BLACK
6
CONTINUOUS
10
4.37413
20
-3.13462
11
4.27289
21
-3.28647
0
LINE
8
BLACK
6
CONTINUOUS
10
4.52598
20
-3.14024
11
4.53723
21
-3.14024
0
LINE
8
BLACK
6
CONTINUOUS
10
4.53723
20
-3.14024
11
4.54848
21
-3.14587
0
LINE
8
BLACK
6
CONTINUOUS
10
4.54848
20
-3.14587
11
4.55411
21
-3.15149
0
LINE
8
BLACK
6
CONTINUOUS
10
4.55411
20
-3.15149
11
4.55973
21
-3.16274
0
LINE
8
BLACK
6
CONTINUOUS
10
4.55973
20
-3.16274
11
4.56535
21
-3.18524
0
LINE
8
BLACK
6
CONTINUOUS
10
4.56535
20
-3.18524
11
4.56535
21
-3.21336
0
LINE
8
BLACK
6
CONTINUOUS
10
4.56535
20
-3.21336
11
4.55973
21
-3.23585
0
LINE
8
BLACK
6
CONTINUOUS
10
4.55973
20
-3.23585
11
4.55411
21
-3.2471
0
LINE
8
BLACK
6
CONTINUOUS
10
4.55411
20
-3.2471
11
4.54848
21
-3.25273
0
LINE
8
BLACK
6
CONTINUOUS
10
4.54848
20
-3.25273
11
4.53723
21
-3.25835
0
LINE
8
BLACK
6
CONTINUOUS
10
4.53723
20
-3.25835
11
4.52598
21
-3.25835
0
LINE
8
BLACK
6
CONTINUOUS
10
4.52598
20
-3.25835
11
4.51474
21
-3.25273
0
LINE
8
BLACK
6
CONTINUOUS
10
4.51474
20
-3.25273
11
4.50911
21
-3.2471
0
LINE
8
BLACK
6
CONTINUOUS
10
4.50911
20
-3.2471
11
4.50349
21
-3.23585
0
LINE
8
BLACK
6
CONTINUOUS
10
4.50349
20
-3.23585
11
4.49786
21
-3.21336
0
LINE
8
BLACK
6
CONTINUOUS
10
4.49786
20
-3.21336
11
4.49786
21
-3.18524
0
LINE
8
BLACK
6
CONTINUOUS
10
4.49786
20
-3.18524
11
4.50349
21
-3.16274
0
LINE
8
BLACK
6
CONTINUOUS
10
4.50349
20
-3.16274
11
4.50911
21
-3.15149
0
LINE
8
BLACK
6
CONTINUOUS
10
4.50911
20
-3.15149
11
4.51474
21
-3.14587
0
LINE
8
BLACK
6
CONTINUOUS
10
4.51474
20
-3.14587
11
4.52598
21
-3.14024
0
LINE
8
BLACK
6
CONTINUOUS
10
4.61597
20
-3.2471
11
4.6216
21
-3.25273
0
LINE
8
BLACK
6
CONTINUOUS
10
4.6216
20
-3.25273
11
4.61597
21
-3.25835
0
LINE
8
BLACK
6
CONTINUOUS
10
4.61597
20
-3.25835
11
4.61035
21
-3.25273
0
LINE
8
BLACK
6
CONTINUOUS
10
4.61035
20
-3.25273
11
4.61597
21
-3.2471
0
LINE
8
BLACK
6
CONTINUOUS
10
4.61597
20
-3.2471
11
4.61597
21
-3.25835
0
LINE
8
BLACK
6
CONTINUOUS
10
4.69471
20
-3.14024
11
4.70596
21
-3.14024
0
LINE
8
BLACK
6
CONTINUOUS
10
4.70596
20
-3.14024
11
4.71721
21
-3.14587
0
LINE
8
BLACK
6
CONTINUOUS
10
4.71721
20
-3.14587
11
4.72283
21
-3.15149
0
LINE
8
BLACK
6
CONTINUOUS
10
4.72283
20
-3.15149
11
4.72846
21
-3.16274
0
LINE
8
BLACK
6
CONTINUOUS
10
4.72846
20
-3.16274
11
4.73408
21
-3.18524
0
LINE
8
BLACK
6
CONTINUOUS
10
4.73408
20
-3.18524
11
4.73408
21
-3.21336
0
LINE
8
BLACK
6
CONTINUOUS
10
4.73408
20
-3.21336
11
4.72846
21
-3.23585
0
LINE
8
BLACK
6
CONTINUOUS
10
4.72846
20
-3.23585
11
4.72283
21
-3.2471
0
LINE
8
BLACK
6
CONTINUOUS
10
4.72283
20
-3.2471
11
4.71721
21
-3.25273
0
LINE
8
BLACK
6
CONTINUOUS
10
4.71721
20
-3.25273
11
4.70596
21
-3.25835
0
LINE
8
BLACK
6
CONTINUOUS
10
4.70596
20
-3.25835
11
4.69471
21
-3.25835
0
LINE
8
BLACK
6
CONTINUOUS
10
4.69471
20
-3.25835
11
4.68346
21
-3.25273
0
LINE
8
BLACK
6
CONTINUOUS
10
4.68346
20
-3.25273
11
4.67784
21
-3.2471
0
LINE
8
BLACK
6
CONTINUOUS
10
4.67784
20
-3.2471
11
4.67222
21
-3.23585
0
LINE
8
BLACK
6
CONTINUOUS
10
4.67222
20
-3.23585
11
4.66659
21
-3.21336
0
LINE
8
BLACK
6
CONTINUOUS
10
4.66659
20
-3.21336
11
4.66659
21
-3.18524
0
LINE
8
BLACK
6
CONTINUOUS
10
4.66659
20
-3.18524
11
4.67222
21
-3.16274
0
LINE
8
BLACK
6
CONTINUOUS
10
4.67222
20
-3.16274
11
4.67784
21
-3.15149
0
LINE
8
BLACK
6
CONTINUOUS
10
4.67784
20
-3.15149
11
4.68346
21
-3.14587
0
LINE
8
BLACK
6
CONTINUOUS
10
4.68346
20
-3.14587
11
4.69471
21
-3.14024
0
LINE
8
BLACK
6
CONTINUOUS
10
4.84657
20
-3.25835
11
4.77908
21
-3.25835
0
LINE
8
BLACK
6
CONTINUOUS
10
4.81282
20
-3.25835
11
4.81282
21
-3.14024
0
LINE
8
BLACK
6
CONTINUOUS
10
4.81282
20
-3.14024
11
4.80157
21
-3.15711
0
LINE
8
BLACK
6
CONTINUOUS
10
4.80157
20
-3.15711
11
4.79033
21
-3.16836
0
LINE
8
BLACK
6
CONTINUOUS
10
4.79033
20
-3.16836
11
4.77908
21
-3.17399
0
LINE
8
BLACK
6
CONTINUOUS
10
4.89156
20
-3.15149
11
4.89719
21
-3.14587
0
LINE
8
BLACK
6
CONTINUOUS
10
4.89719
20
-3.14587
11
4.90844
21
-3.14024
0
LINE
8
BLACK
6
CONTINUOUS
10
4.90844
20
-3.14024
11
4.93656
21
-3.14024
0
LINE
8
BLACK
6
CONTINUOUS
10
4.93656
20
-3.14024
11
4.94781
21
-3.14587
0
LINE
8
BLACK
6
CONTINUOUS
10
4.94781
20
-3.14587
11
4.95343
21
-3.15149
0
LINE
8
BLACK
6
CONTINUOUS
10
4.95343
20
-3.15149
11
4.95906
21
-3.16274
0
LINE
8
BLACK
6
CONTINUOUS
10
4.95906
20
-3.16274
11
4.95906
21
-3.17399
0
LINE
8
BLACK
6
CONTINUOUS
10
4.95906
20
-3.17399
11
4.95343
21
-3.19086
0
LINE
8
BLACK
6
CONTINUOUS
10
4.95343
20
-3.19086
11
4.88594
21
-3.25835
0
LINE
8
BLACK
6
CONTINUOUS
10
4.88594
20
-3.25835
11
4.95906
21
-3.25835
0
LINE
8
BLACK
6
CONTINUOUS
10
5.00405
20
-3.14024
11
5.00405
21
-3.16274
0
LINE
8
BLACK
6
CONTINUOUS
10
5.04904
20
-3.14024
11
5.04904
21
-3.16274
0
LINE
8
BLACK
6
CONTINUOUS
10
5.2234
20
-3.30335
11
5.21777
21
-3.29772
0
LINE
8
BLACK
6
CONTINUOUS
10
5.21777
20
-3.29772
11
5.20652
21
-3.28085
0
LINE
8
BLACK
6
CONTINUOUS
10
5.20652
20
-3.28085
11
5.2009
21
-3.2696
0
LINE
8
BLACK
6
CONTINUOUS
10
5.2009
20
-3.2696
11
5.19528
21
-3.25273
0
LINE
8
BLACK
6
CONTINUOUS
10
5.19528
20
-3.25273
11
5.18965
21
-3.22461
0
LINE
8
BLACK
6
CONTINUOUS
10
5.18965
20
-3.22461
11
5.18965
21
-3.20211
0
LINE
8
BLACK
6
CONTINUOUS
10
5.18965
20
-3.20211
11
5.19528
21
-3.17399
0
LINE
8
BLACK
6
CONTINUOUS
10
5.19528
20
-3.17399
11
5.2009
21
-3.15711
0
LINE
8
BLACK
6
CONTINUOUS
10
5.2009
20
-3.15711
11
5.20652
21
-3.14587
0
LINE
8
BLACK
6
CONTINUOUS
10
5.20652
20
-3.14587
11
5.21777
21
-3.12899
0
LINE
8
BLACK
6
CONTINUOUS
10
5.21777
20
-3.12899
11
5.2234
21
-3.12337
0
LINE
8
BLACK
6
CONTINUOUS
10
5.32463
20
-3.14024
11
5.26839
21
-3.14024
0
LINE
8
BLACK
6
CONTINUOUS
10
5.26839
20
-3.14024
11
5.26277
21
-3.19648
0
LINE
8
BLACK
6
CONTINUOUS
10
5.26277
20
-3.19648
11
5.26839
21
-3.19086
0
LINE
8
BLACK
6
CONTINUOUS
10
5.26839
20
-3.19086
11
5.27964
21
-3.18524
0
LINE
8
BLACK
6
CONTINUOUS
10
5.27964
20
-3.18524
11
5.30776
21
-3.18524
0
LINE
8
BLACK
6
CONTINUOUS
10
5.30776
20
-3.18524
11
5.31901
21
-3.19086
0
LINE
8
BLACK
6
CONTINUOUS
10
5.31901
20
-3.19086
11
5.32463
21
-3.19648
0
LINE
8
BLACK
6
CONTINUOUS
10
5.32463
20
-3.19648
11
5.33026
21
-3.20773
0
LINE
8
BLACK
6
CONTINUOUS
10
5.33026
20
-3.20773
11
5.33026
21
-3.23585
0
LINE
8
BLACK
6
CONTINUOUS
10
5.33026
20
-3.23585
11
5.32463
21
-3.2471
0
LINE
8
BLACK
6
CONTINUOUS
10
5.32463
20
-3.2471
11
5.31901
21
-3.25273
0
LINE
8
BLACK
6
CONTINUOUS
10
5.31901
20
-3.25273
11
5.30776
21
-3.25835
0
LINE
8
BLACK
6
CONTINUOUS
10
5.30776
20
-3.25835
11
5.27964
21
-3.25835
0
LINE
8
BLACK
6
CONTINUOUS
10
5.27964
20
-3.25835
11
5.26839
21
-3.25273
0
LINE
8
BLACK
6
CONTINUOUS
10
5.26839
20
-3.25273
11
5.26277
21
-3.2471
0
LINE
8
BLACK
6
CONTINUOUS
10
5.37525
20
-3.15149
11
5.38088
21
-3.14587
0
LINE
8
BLACK
6
CONTINUOUS
10
5.38088
20
-3.14587
11
5.39213
21
-3.14024
0
LINE
8
BLACK
6
CONTINUOUS
10
5.39213
20
-3.14024
11
5.42025
21
-3.14024
0
LINE
8
BLACK
6
CONTINUOUS
10
5.42025
20
-3.14024
11
5.4315
21
-3.14587
0
LINE
8
BLACK
6
CONTINUOUS
10
5.4315
20
-3.14587
11
5.43712
21
-3.15149
0
LINE
8
BLACK
6
CONTINUOUS
10
5.43712
20
-3.15149
11
5.44274
21
-3.16274
0
LINE
8
BLACK
6
CONTINUOUS
10
5.44274
20
-3.16274
11
5.44274
21
-3.17399
0
LINE
8
BLACK
6
CONTINUOUS
10
5.44274
20
-3.17399
11
5.43712
21
-3.19086
0
LINE
8
BLACK
6
CONTINUOUS
10
5.43712
20
-3.19086
11
5.36963
21
-3.25835
0
LINE
8
BLACK
6
CONTINUOUS
10
5.36963
20
-3.25835
11
5.44274
21
-3.25835
0
LINE
8
BLACK
6
CONTINUOUS
10
5.58335
20
-3.25835
11
5.58335
21
-3.14024
0
LINE
8
BLACK
6
CONTINUOUS
10
5.63397
20
-3.25835
11
5.63397
21
-3.19648
0
LINE
8
BLACK
6
CONTINUOUS
10
5.63397
20
-3.19648
11
5.62835
21
-3.18524
0
LINE
8
BLACK
6
CONTINUOUS
10
5.62835
20
-3.18524
11
5.6171
21
-3.17961
0
LINE
8
BLACK
6
CONTINUOUS
10
5.6171
20
-3.17961
11
5.60022
21
-3.17961
0
LINE
8
BLACK
6
CONTINUOUS
10
5.60022
20
-3.17961
11
5.58898
21
-3.18524
0
LINE
8
BLACK
6
CONTINUOUS
10
5.58898
20
-3.18524
11
5.58335
21
-3.19086
0
LINE
8
BLACK
6
CONTINUOUS
10
5.70709
20
-3.25835
11
5.69584
21
-3.25273
0
LINE
8
BLACK
6
CONTINUOUS
10
5.69584
20
-3.25273
11
5.69021
21
-3.2471
0
LINE
8
BLACK
6
CONTINUOUS
10
5.69021
20
-3.2471
11
5.68459
21
-3.23585
0
LINE
8
BLACK
6
CONTINUOUS
10
5.68459
20
-3.23585
11
5.68459
21
-3.20211
0
LINE
8
BLACK
6
CONTINUOUS
10
5.68459
20
-3.20211
11
5.69021
21
-3.19086
0
LINE
8
BLACK
6
CONTINUOUS
10
5.69021
20
-3.19086
11
5.69584
21
-3.18524
0
LINE
8
BLACK
6
CONTINUOUS
10
5.69584
20
-3.18524
11
5.70709
21
-3.17961
0
LINE
8
BLACK
6
CONTINUOUS
10
5.70709
20
-3.17961
11
5.72396
21
-3.17961
0
LINE
8
BLACK
6
CONTINUOUS
10
5.72396
20
-3.17961
11
5.73521
21
-3.18524
0
LINE
8
BLACK
6
CONTINUOUS
10
5.73521
20
-3.18524
11
5.74083
21
-3.19086
0
LINE
8
BLACK
6
CONTINUOUS
10
5.74083
20
-3.19086
11
5.74646
21
-3.20211
0
LINE
8
BLACK
6
CONTINUOUS
10
5.74646
20
-3.20211
11
5.74646
21
-3.23585
0
LINE
8
BLACK
6
CONTINUOUS
10
5.74646
20
-3.23585
11
5.74083
21
-3.2471
0
LINE
8
BLACK
6
CONTINUOUS
10
5.74083
20
-3.2471
11
5.73521
21
-3.25273
0
LINE
8
BLACK
6
CONTINUOUS
10
5.73521
20
-3.25273
11
5.72396
21
-3.25835
0
LINE
8
BLACK
6
CONTINUOUS
10
5.72396
20
-3.25835
11
5.70709
21
-3.25835
0
LINE
8
BLACK
6
CONTINUOUS
10
5.81395
20
-3.25835
11
5.8027
21
-3.25273
0
LINE
8
BLACK
6
CONTINUOUS
10
5.8027
20
-3.25273
11
5.79708
21
-3.24148
0
LINE
8
BLACK
6
CONTINUOUS
10
5.79708
20
-3.24148
11
5.79708
21
-3.14024
0
LINE
8
BLACK
6
CONTINUOUS
10
5.90394
20
-3.25273
11
5.89269
21
-3.25835
0
LINE
8
BLACK
6
CONTINUOUS
10
5.89269
20
-3.25835
11
5.87019
21
-3.25835
0
LINE
8
BLACK
6
CONTINUOUS
10
5.87019
20
-3.25835
11
5.85894
21
-3.25273
0
LINE
8
BLACK
6
CONTINUOUS
10
5.85894
20
-3.25273
11
5.85332
21
-3.24148
0
LINE
8
BLACK
6
CONTINUOUS
10
5.85332
20
-3.24148
11
5.85332
21
-3.19648
0
LINE
8
BLACK
6
CONTINUOUS
10
5.85332
20
-3.19648
11
5.85894
21
-3.18524
0
LINE
8
BLACK
6
CONTINUOUS
10
5.85894
20
-3.18524
11
5.87019
21
-3.17961
0
LINE
8
BLACK
6
CONTINUOUS
10
5.87019
20
-3.17961
11
5.89269
21
-3.17961
0
LINE
8
BLACK
6
CONTINUOUS
10
5.89269
20
-3.17961
11
5.90394
21
-3.18524
0
LINE
8
BLACK
6
CONTINUOUS
10
5.90394
20
-3.18524
11
5.90956
21
-3.19648
0
LINE
8
BLACK
6
CONTINUOUS
10
5.90956
20
-3.19648
11
5.90956
21
-3.20773
0
LINE
8
BLACK
6
CONTINUOUS
10
5.90956
20
-3.20773
11
5.85332
21
-3.21898
0
LINE
8
BLACK
6
CONTINUOUS
10
5.95456
20
-3.25273
11
5.9658
21
-3.25835
0
LINE
8
BLACK
6
CONTINUOUS
10
5.9658
20
-3.25835
11
5.9883
21
-3.25835
0
LINE
8
BLACK
6
CONTINUOUS
10
5.9883
20
-3.25835
11
5.99955
21
-3.25273
0
LINE
8
BLACK
6
CONTINUOUS
10
5.99955
20
-3.25273
11
6.00517
21
-3.24148
0
LINE
8
BLACK
6
CONTINUOUS
10
6.00517
20
-3.24148
11
6.00517
21
-3.23585
0
LINE
8
BLACK
6
CONTINUOUS
10
6.00517
20
-3.23585
11
5.99955
21
-3.22461
0
LINE
8
BLACK
6
CONTINUOUS
10
5.99955
20
-3.22461
11
5.9883
21
-3.21898
0
LINE
8
BLACK
6
CONTINUOUS
10
5.9883
20
-3.21898
11
5.97143
21
-3.21898
0
LINE
8
BLACK
6
CONTINUOUS
10
5.97143
20
-3.21898
11
5.96018
21
-3.21336
0
LINE
8
BLACK
6
CONTINUOUS
10
5.96018
20
-3.21336
11
5.95456
21
-3.20211
0
LINE
8
BLACK
6
CONTINUOUS
10
5.95456
20
-3.20211
11
5.95456
21
-3.19648
0
LINE
8
BLACK
6
CONTINUOUS
10
5.95456
20
-3.19648
11
5.96018
21
-3.18524
0
LINE
8
BLACK
6
CONTINUOUS
10
5.96018
20
-3.18524
11
5.97143
21
-3.17961
0
LINE
8
BLACK
6
CONTINUOUS
10
5.97143
20
-3.17961
11
5.9883
21
-3.17961
0
LINE
8
BLACK
6
CONTINUOUS
10
5.9883
20
-3.17961
11
5.99955
21
-3.18524
0
LINE
8
BLACK
6
CONTINUOUS
10
6.04454
20
-3.30335
11
6.05017
21
-3.29772
0
LINE
8
BLACK
6
CONTINUOUS
10
6.05017
20
-3.29772
11
6.06142
21
-3.28085
0
LINE
8
BLACK
6
CONTINUOUS
10
6.06142
20
-3.28085
11
6.06704
21
-3.2696
0
LINE
8
BLACK
6
CONTINUOUS
10
6.06704
20
-3.2696
11
6.07267
21
-3.25273
0
LINE
8
BLACK
6
CONTINUOUS
10
6.07267
20
-3.25273
11
6.07829
21
-3.22461
0
LINE
8
BLACK
6
CONTINUOUS
10
6.07829
20
-3.22461
11
6.07829
21
-3.20211
0
LINE
8
BLACK
6
CONTINUOUS
10
6.07829
20
-3.20211
11
6.07267
21
-3.17399
0
LINE
8
BLACK
6
CONTINUOUS
10
6.07267
20
-3.17399
11
6.06704
21
-3.15711
0
LINE
8
BLACK
6
CONTINUOUS
10
6.06704
20
-3.15711
11
6.06142
21
-3.14587
0
LINE
8
BLACK
6
CONTINUOUS
10
6.06142
20
-3.14587
11
6.05017
21
-3.12899
0
LINE
8
BLACK
6
CONTINUOUS
10
6.05017
20
-3.12899
11
6.04454
21
-3.12337
0
CIRCLE
8
BLACK
10
3.37047
20
-3.36083
40
0.00787402
0
LINE
8
BLACK
6
CONTINUOUS
10
3.51361
20
-3.29615
11
3.52486
21
-3.29615
0
LINE
8
BLACK
6
CONTINUOUS
10
3.52486
20
-3.29615
11
3.53611
21
-3.30177
0
LINE
8
BLACK
6
CONTINUOUS
10
3.53611
20
-3.30177
11
3.54173
21
-3.3074
0
LINE
8
BLACK
6
CONTINUOUS
10
3.54173
20
-3.3074
11
3.54736
21
-3.31864
0
LINE
8
BLACK
6
CONTINUOUS
10
3.54736
20
-3.31864
11
3.55298
21
-3.34114
0
LINE
8
BLACK
6
CONTINUOUS
10
3.55298
20
-3.34114
11
3.55298
21
-3.36926
0
LINE
8
BLACK
6
CONTINUOUS
10
3.55298
20
-3.36926
11
3.54736
21
-3.39176
0
LINE
8
BLACK
6
CONTINUOUS
10
3.54736
20
-3.39176
11
3.54173
21
-3.40301
0
LINE
8
BLACK
6
CONTINUOUS
10
3.54173
20
-3.40301
11
3.53611
21
-3.40863
0
LINE
8
BLACK
6
CONTINUOUS
10
3.53611
20
-3.40863
11
3.52486
21
-3.41426
0
LINE
8
BLACK
6
CONTINUOUS
10
3.52486
20
-3.41426
11
3.51361
21
-3.41426
0
LINE
8
BLACK
6
CONTINUOUS
10
3.51361
20
-3.41426
11
3.50236
21
-3.40863
0
LINE
8
BLACK
6
CONTINUOUS
10
3.50236
20
-3.40863
11
3.49674
21
-3.40301
0
LINE
8
BLACK
6
CONTINUOUS
10
3.49674
20
-3.40301
11
3.49111
21
-3.39176
0
LINE
8
BLACK
6
CONTINUOUS
10
3.49111
20
-3.39176
11
3.48549
21
-3.36926
0
LINE
8
BLACK
6
CONTINUOUS
10
3.48549
20
-3.36926
11
3.48549
21
-3.34114
0
LINE
8
BLACK
6
CONTINUOUS
10
3.48549
20
-3.34114
11
3.49111
21
-3.31864
0
LINE
8
BLACK
6
CONTINUOUS
10
3.49111
20
-3.31864
11
3.49674
21
-3.3074
0
LINE
8
BLACK
6
CONTINUOUS
10
3.49674
20
-3.3074
11
3.50236
21
-3.30177
0
LINE
8
BLACK
6
CONTINUOUS
10
3.50236
20
-3.30177
11
3.51361
21
-3.29615
0
LINE
8
BLACK
6
CONTINUOUS
10
3.6036
20
-3.40301
11
3.60922
21
-3.40863
0
LINE
8
BLACK
6
CONTINUOUS
10
3.60922
20
-3.40863
11
3.6036
21
-3.41426
0
LINE
8
BLACK
6
CONTINUOUS
10
3.6036
20
-3.41426
11
3.59798
21
-3.40863
0
LINE
8
BLACK
6
CONTINUOUS
10
3.59798
20
-3.40863
11
3.6036
21
-3.40301
0
LINE
8
BLACK
6
CONTINUOUS
10
3.6036
20
-3.40301
11
3.6036
21
-3.41426
0
LINE
8
BLACK
6
CONTINUOUS
10
3.71046
20
-3.33552
11
3.71046
21
-3.41426
0
LINE
8
BLACK
6
CONTINUOUS
10
3.68234
20
-3.29052
11
3.65422
21
-3.37489
0
LINE
8
BLACK
6
CONTINUOUS
10
3.65422
20
-3.37489
11
3.72733
21
-3.37489
0
LINE
8
BLACK
6
CONTINUOUS
10
3.79483
20
-3.29615
11
3.80607
21
-3.29615
0
LINE
8
BLACK
6
CONTINUOUS
10
3.80607
20
-3.29615
11
3.81732
21
-3.30177
0
LINE
8
BLACK
6
CONTINUOUS
10
3.81732
20
-3.30177
11
3.82295
21
-3.3074
0
LINE
8
BLACK
6
CONTINUOUS
10
3.82295
20
-3.3074
11
3.82857
21
-3.31864
0
LINE
8
BLACK
6
CONTINUOUS
10
3.82857
20
-3.31864
11
3.8342
21
-3.34114
0
LINE
8
BLACK
6
CONTINUOUS
10
3.8342
20
-3.34114
11
3.8342
21
-3.36926
0
LINE
8
BLACK
6
CONTINUOUS
10
3.8342
20
-3.36926
11
3.82857
21
-3.39176
0
LINE
8
BLACK
6
CONTINUOUS
10
3.82857
20
-3.39176
11
3.82295
21
-3.40301
0
LINE
8
BLACK
6
CONTINUOUS
10
3.82295
20
-3.40301
11
3.81732
21
-3.40863
0
LINE
8
BLACK
6
CONTINUOUS
10
3.81732
20
-3.40863
11
3.80607
21
-3.41426
0
LINE
8
BLACK
6
CONTINUOUS
10
3.80607
20
-3.41426
11
3.79483
21
-3.41426
0
LINE
8
BLACK
6
CONTINUOUS
10
3.79483
20
-3.41426
11
3.78358
21
-3.40863
0
LINE
8
BLACK
6
CONTINUOUS
10
3.78358
20
-3.40863
11
3.77795
21
-3.40301
0
LINE
8
BLACK
6
CONTINUOUS
10
3.77795
20
-3.40301
11
3.77233
21
-3.39176
0
LINE
8
BLACK
6
CONTINUOUS
10
3.77233
20
-3.39176
11
3.7667
21
-3.36926
0
LINE
8
BLACK
6
CONTINUOUS
10
3.7667
20
-3.36926
11
3.7667
21
-3.34114
0
LINE
8
BLACK
6
CONTINUOUS
10
3.7667
20
-3.34114
11
3.77233
21
-3.31864
0
LINE
8
BLACK
6
CONTINUOUS
10
3.77233
20
-3.31864
11
3.77795
21
-3.3074
0
LINE
8
BLACK
6
CONTINUOUS
10
3.77795
20
-3.3074
11
3.78358
21
-3.30177
0
LINE
8
BLACK
6
CONTINUOUS
10
3.78358
20
-3.30177
11
3.79483
21
-3.29615
0
LINE
8
BLACK
6
CONTINUOUS
10
3.88481
20
-3.41426
11
3.88481
21
-3.33552
0
LINE
8
BLACK
6
CONTINUOUS
10
3.88481
20
-3.34677
11
3.89044
21
-3.34114
0
LINE
8
BLACK
6
CONTINUOUS
10
3.89044
20
-3.34114
11
3.90169
21
-3.33552
0
LINE
8
BLACK
6
CONTINUOUS
10
3.90169
20
-3.33552
11
3.91856
21
-3.33552
0
LINE
8
BLACK
6
CONTINUOUS
10
3.91856
20
-3.33552
11
3.92981
21
-3.34114
0
LINE
8
BLACK
6
CONTINUOUS
10
3.92981
20
-3.34114
11
3.93543
21
-3.35239
0
LINE
8
BLACK
6
CONTINUOUS
10
3.93543
20
-3.35239
11
3.93543
21
-3.41426
0
LINE
8
BLACK
6
CONTINUOUS
10
3.93543
20
-3.35239
11
3.94106
21
-3.34114
0
LINE
8
BLACK
6
CONTINUOUS
10
3.94106
20
-3.34114
11
3.95231
21
-3.33552
0
LINE
8
BLACK
6
CONTINUOUS
10
3.95231
20
-3.33552
11
3.96918
21
-3.33552
0
LINE
8
BLACK
6
CONTINUOUS
10
3.96918
20
-3.33552
11
3.98043
21
-3.34114
0
LINE
8
BLACK
6
CONTINUOUS
10
3.98043
20
-3.34114
11
3.98605
21
-3.35239
0
LINE
8
BLACK
6
CONTINUOUS
10
3.98605
20
-3.35239
11
3.98605
21
-3.41426
0
LINE
8
BLACK
6
CONTINUOUS
10
4.04229
20
-3.41426
11
4.04229
21
-3.33552
0
LINE
8
BLACK
6
CONTINUOUS
10
4.04229
20
-3.34677
11
4.04792
21
-3.34114
0
LINE
8
BLACK
6
CONTINUOUS
10
4.04792
20
-3.34114
11
4.05917
21
-3.33552
0
LINE
8
BLACK
6
CONTINUOUS
10
4.05917
20
-3.33552
11
4.07604
21
-3.33552
0
LINE
8
BLACK
6
CONTINUOUS
10
4.07604
20
-3.33552
11
4.08729
21
-3.34114
0
LINE
8
BLACK
6
CONTINUOUS
10
4.08729
20
-3.34114
11
4.09291
21
-3.35239
0
LINE
8
BLACK
6
CONTINUOUS
10
4.09291
20
-3.35239
11
4.09291
21
-3.41426
0
LINE
8
BLACK
6
CONTINUOUS
10
4.09291
20
-3.35239
11
4.09854
21
-3.34114
0
LINE
8
BLACK
6
CONTINUOUS
10
4.09854
20
-3.34114
11
4.10979
21
-3.33552
0
LINE
8
BLACK
6
CONTINUOUS
10
4.10979
20
-3.33552
11
4.12666
21
-3.33552
0
LINE
8
BLACK
6
CONTINUOUS
10
4.12666
20
-3.33552
11
4.13791
21
-3.34114
0
LINE
8
BLACK
6
CONTINUOUS
10
4.13791
20
-3.34114
11
4.14353
21
-3.35239
0
LINE
8
BLACK
6
CONTINUOUS
10
4.14353
20
-3.35239
11
4.14353
21
-3.41426
0
LINE
8
BLACK
6
CONTINUOUS
10
4.37413
20
-3.29052
11
4.27289
21
-3.44238
0
LINE
8
BLACK
6
CONTINUOUS
10
4.52598
20
-3.29615
11
4.53723
21
-3.29615
0
LINE
8
BLACK
6
CONTINUOUS
10
4.53723
20
-3.29615
11
4.54848
21
-3.30177
0
LINE
8
BLACK
6
CONTINUOUS
10
4.54848
20
-3.30177
11
4.55411
21
-3.3074
0
LINE
8
BLACK
6
CONTINUOUS
10
4.55411
20
-3.3074
11
4.55973
21
-3.31864
0
LINE
8
BLACK
6
CONTINUOUS
10
4.55973
20
-3.31864
11
4.56535
21
-3.34114
0
LINE
8
BLACK
6
CONTINUOUS
10
4.56535
20
-3.34114
11
4.56535
21
-3.36926
0
LINE
8
BLACK
6
CONTINUOUS
10
4.56535
20
-3.36926
11
4.55973
21
-3.39176
0
LINE
8
BLACK
6
CONTINUOUS
10
4.55973
20
-3.39176
11
4.55411
21
-3.40301
0
LINE
8
BLACK
6
CONTINUOUS
10
4.55411
20
-3.40301
11
4.54848
21
-3.40863
0
LINE
8
BLACK
6
CONTINUOUS
10
4.54848
20
-3.40863
11
4.53723
21
-3.41426
0
LINE
8
BLACK
6
CONTINUOUS
10
4.53723
20
-3.41426
11
4.52598
21
-3.41426
0
LINE
8
BLACK
6
CONTINUOUS
10
4.52598
20
-3.41426
11
4.51474
21
-3.40863
0
LINE
8
BLACK
6
CONTINUOUS
10
4.51474
20
-3.40863
11
4.50911
21
-3.40301
0
LINE
8
BLACK
6
CONTINUOUS
10
4.50911
20
-3.40301
11
4.50349
21
-3.39176
0
LINE
8
BLACK
6
CONTINUOUS
10
4.50349
20
-3.39176
11
4.49786
21
-3.36926
0
LINE
8
BLACK
6
CONTINUOUS
10
4.49786
20
-3.36926
11
4.49786
21
-3.34114
0
LINE
8
BLACK
6
CONTINUOUS
10
4.49786
20
-3.34114
11
4.50349
21
-3.31864
0
LINE
8
BLACK
6
CONTINUOUS
10
4.50349
20
-3.31864
11
4.50911
21
-3.3074
0
LINE
8
BLACK
6
CONTINUOUS
10
4.50911
20
-3.3074
11
4.51474
21
-3.30177
0
LINE
8
BLACK
6
CONTINUOUS
10
4.51474
20
-3.30177
11
4.52598
21
-3.29615
0
LINE
8
BLACK
6
CONTINUOUS
10
4.61597
20
-3.40301
11
4.6216
21
-3.40863
0
LINE
8
BLACK
6
CONTINUOUS
10
4.6216
20
-3.40863
11
4.61597
21
-3.41426
0
LINE
8
BLACK
6
CONTINUOUS
10
4.61597
20
-3.41426
11
4.61035
21
-3.40863
0
LINE
8
BLACK
6
CONTINUOUS
10
4.61035
20
-3.40863
11
4.61597
21
-3.40301
0
LINE
8
BLACK
6
CONTINUOUS
10
4.61597
20
-3.40301
11
4.61597
21
-3.41426
0
LINE
8
BLACK
6
CONTINUOUS
10
4.69471
20
-3.29615
11
4.70596
21
-3.29615
0
LINE
8
BLACK
6
CONTINUOUS
10
4.70596
20
-3.29615
11
4.71721
21
-3.30177
0
LINE
8
BLACK
6
CONTINUOUS
10
4.71721
20
-3.30177
11
4.72283
21
-3.3074
0
LINE
8
BLACK
6
CONTINUOUS
10
4.72283
20
-3.3074
11
4.72846
21
-3.31864
0
LINE
8
BLACK
6
CONTINUOUS
10
4.72846
20
-3.31864
11
4.73408
21
-3.34114
0
LINE
8
BLACK
6
CONTINUOUS
10
4.73408
20
-3.34114
11
4.73408
21
-3.36926
0
LINE
8
BLACK
6
CONTINUOUS
10
4.73408
20
-3.36926
11
4.72846
21
-3.39176
0
LINE
8
BLACK
6
CONTINUOUS
10
4.72846
20
-3.39176
11
4.72283
21
-3.40301
0
LINE
8
BLACK
6
CONTINUOUS
10
4.72283
20
-3.40301
11
4.71721
21
-3.40863
0
LINE
8
BLACK
6
CONTINUOUS
10
4.71721
20
-3.40863
11
4.70596
21
-3.41426
0
LINE
8
BLACK
6
CONTINUOUS
10
4.70596
20
-3.41426
11
4.69471
21
-3.41426
0
LINE
8
BLACK
6
CONTINUOUS
10
4.69471
20
-3.41426
11
4.68346
21
-3.40863
0
LINE
8
BLACK
6
CONTINUOUS
10
4.68346
20
-3.40863
11
4.67784
21
-3.40301
0
LINE
8
BLACK
6
CONTINUOUS
10
4.67784
20
-3.40301
11
4.67222
21
-3.39176
0
LINE
8
BLACK
6
CONTINUOUS
10
4.67222
20
-3.39176
11
4.66659
21
-3.36926
0
LINE
8
BLACK
6
CONTINUOUS
10
4.66659
20
-3.36926
11
4.66659
21
-3.34114
0
LINE
8
BLACK
6
CONTINUOUS
10
4.66659
20
-3.34114
11
4.67222
21
-3.31864
0
LINE
8
BLACK
6
CONTINUOUS
10
4.67222
20
-3.31864
11
4.67784
21
-3.3074
0
LINE
8
BLACK
6
CONTINUOUS
10
4.67784
20
-3.3074
11
4.68346
21
-3.30177
0
LINE
8
BLACK
6
CONTINUOUS
10
4.68346
20
-3.30177
11
4.69471
21
-3.29615
0
LINE
8
BLACK
6
CONTINUOUS
10
4.84657
20
-3.41426
11
4.77908
21
-3.41426
0
LINE
8
BLACK
6
CONTINUOUS
10
4.81282
20
-3.41426
11
4.81282
21
-3.29615
0
LINE
8
BLACK
6
CONTINUOUS
10
4.81282
20
-3.29615
11
4.80157
21
-3.31302
0
LINE
8
BLACK
6
CONTINUOUS
10
4.80157
20
-3.31302
11
4.79033
21
-3.32427
0
LINE
8
BLACK
6
CONTINUOUS
10
4.79033
20
-3.32427
11
4.77908
21
-3.32989
0
LINE
8
BLACK
6
CONTINUOUS
10
4.94781
20
-3.29615
11
4.92531
21
-3.29615
0
LINE
8
BLACK
6
CONTINUOUS
10
4.92531
20
-3.29615
11
4.91406
21
-3.30177
0
LINE
8
BLACK
6
CONTINUOUS
10
4.91406
20
-3.30177
11
4.90844
21
-3.3074
0
LINE
8
BLACK
6
CONTINUOUS
10
4.90844
20
-3.3074
11
4.89719
21
-3.32427
0
LINE
8
BLACK
6
CONTINUOUS
10
4.89719
20
-3.32427
11
4.89156
21
-3.34677
0
LINE
8
BLACK
6
CONTINUOUS
10
4.89156
20
-3.34677
11
4.89156
21
-3.39176
0
LINE
8
BLACK
6
CONTINUOUS
10
4.89156
20
-3.39176
11
4.89719
21
-3.40301
0
LINE
8
BLACK
6
CONTINUOUS
10
4.89719
20
-3.40301
11
4.90281
21
-3.40863
0
LINE
8
BLACK
6
CONTINUOUS
10
4.90281
20
-3.40863
11
4.91406
21
-3.41426
0
LINE
8
BLACK
6
CONTINUOUS
10
4.91406
20
-3.41426
11
4.93656
21
-3.41426
0
LINE
8
BLACK
6
CONTINUOUS
10
4.93656
20
-3.41426
11
4.94781
21
-3.40863
0
LINE
8
BLACK
6
CONTINUOUS
10
4.94781
20
-3.40863
11
4.95343
21
-3.40301
0
LINE
8
BLACK
6
CONTINUOUS
10
4.95343
20
-3.40301
11
4.95906
21
-3.39176
0
LINE
8
BLACK
6
CONTINUOUS
10
4.95906
20
-3.39176
11
4.95906
21
-3.36364
0
LINE
8
BLACK
6
CONTINUOUS
10
4.95906
20
-3.36364
11
4.95343
21
-3.35239
0
LINE
8
BLACK
6
CONTINUOUS
10
4.95343
20
-3.35239
11
4.94781
21
-3.34677
0
LINE
8
BLACK
6
CONTINUOUS
10
4.94781
20
-3.34677
11
4.93656
21
-3.34114
0
LINE
8
BLACK
6
CONTINUOUS
10
4.93656
20
-3.34114
11
4.91406
21
-3.34114
0
LINE
8
BLACK
6
CONTINUOUS
10
4.91406
20
-3.34114
11
4.90281
21
-3.34677
0
LINE
8
BLACK
6
CONTINUOUS
10
4.90281
20
-3.34677
11
4.89719
21
-3.35239
0
LINE
8
BLACK
6
CONTINUOUS
10
4.89719
20
-3.35239
11
4.89156
21
-3.36364
0
LINE
8
BLACK
6
CONTINUOUS
10
5.00405
20
-3.29615
11
5.00405
21
-3.31864
0
LINE
8
BLACK
6
CONTINUOUS
10
5.04904
20
-3.29615
11
5.04904
21
-3.31864
0
LINE
8
BLACK
6
CONTINUOUS
10
5.2234
20
-3.45925
11
5.21777
21
-3.45363
0
LINE
8
BLACK
6
CONTINUOUS
10
5.21777
20
-3.45363
11
5.20652
21
-3.43675
0
LINE
8
BLACK
6
CONTINUOUS
10
5.20652
20
-3.43675
11
5.2009
21
-3.42551
0
LINE
8
BLACK
6
CONTINUOUS
10
5.2009
20
-3.42551
11
5.19528
21
-3.40863
0
LINE
8
BLACK
6
CONTINUOUS
10
5.19528
20
-3.40863
11
5.18965
21
-3.38051
0
LINE
8
BLACK
6
CONTINUOUS
10
5.18965
20
-3.38051
11
5.18965
21
-3.35801
0
LINE
8
BLACK
6
CONTINUOUS
10
5.18965
20
-3.35801
11
5.19528
21
-3.32989
0
LINE
8
BLACK
6
CONTINUOUS
10
5.19528
20
-3.32989
11
5.2009
21
-3.31302
0
LINE
8
BLACK
6
CONTINUOUS
10
5.2009
20
-3.31302
11
5.20652
21
-3.30177
0
LINE
8
BLACK
6
CONTINUOUS
10
5.20652
20
-3.30177
11
5.21777
21
-3.2849
0
LINE
8
BLACK
6
CONTINUOUS
10
5.21777
20
-3.2849
11
5.2234
21
-3.27927
0
LINE
8
BLACK
6
CONTINUOUS
10
5.33026
20
-3.41426
11
5.26277
21
-3.41426
0
LINE
8
BLACK
6
CONTINUOUS
10
5.29651
20
-3.41426
11
5.29651
21
-3.29615
0
LINE
8
BLACK
6
CONTINUOUS
10
5.29651
20
-3.29615
11
5.28526
21
-3.31302
0
LINE
8
BLACK
6
CONTINUOUS
10
5.28526
20
-3.31302
11
5.27402
21
-3.32427
0
LINE
8
BLACK
6
CONTINUOUS
10
5.27402
20
-3.32427
11
5.26277
21
-3.32989
0
LINE
8
BLACK
6
CONTINUOUS
10
5.47087
20
-3.41426
11
5.47087
21
-3.29615
0
LINE
8
BLACK
6
CONTINUOUS
10
5.52148
20
-3.41426
11
5.52148
21
-3.35239
0
LINE
8
BLACK
6
CONTINUOUS
10
5.52148
20
-3.35239
11
5.51586
21
-3.34114
0
LINE
8
BLACK
6
CONTINUOUS
10
5.51586
20
-3.34114
11
5.50461
21
-3.33552
0
LINE
8
BLACK
6
CONTINUOUS
10
5.50461
20
-3.33552
11
5.48774
21
-3.33552
0
LINE
8
BLACK
6
CONTINUOUS
10
5.48774
20
-3.33552
11
5.47649
21
-3.34114
0
LINE
8
BLACK
6
CONTINUOUS
10
5.47649
20
-3.34114
11
5.47087
21
-3.34677
0
LINE
8
BLACK
6
CONTINUOUS
10
5.5946
20
-3.41426
11
5.58335
21
-3.40863
0
LINE
8
BLACK
6
CONTINUOUS
10
5.58335
20
-3.40863
11
5.57773
21
-3.40301
0
LINE
8
BLACK
6
CONTINUOUS
10
5.57773
20
-3.40301
11
5.5721
21
-3.39176
0
LINE
8
BLACK
6
CONTINUOUS
10
5.5721
20
-3.39176
11
5.5721
21
-3.35801
0
LINE
8
BLACK
6
CONTINUOUS
10
5.5721
20
-3.35801
11
5.57773
21
-3.34677
0
LINE
8
BLACK
6
CONTINUOUS
10
5.57773
20
-3.34677
11
5.58335
21
-3.34114
0
LINE
8
BLACK
6
CONTINUOUS
10
5.58335
20
-3.34114
11
5.5946
21
-3.33552
0
LINE
8
BLACK
6
CONTINUOUS
10
5.5946
20
-3.33552
11
5.61147
21
-3.33552
0
LINE
8
BLACK
6
CONTINUOUS
10
5.61147
20
-3.33552
11
5.62272
21
-3.34114
0
LINE
8
BLACK
6
CONTINUOUS
10
5.62272
20
-3.34114
11
5.62835
21
-3.34677
0
LINE
8
BLACK
6
CONTINUOUS
10
5.62835
20
-3.34677
11
5.63397
21
-3.35801
0
LINE
8
BLACK
6
CONTINUOUS
10
5.63397
20
-3.35801
11
5.63397
21
-3.39176
0
LINE
8
BLACK
6
CONTINUOUS
10
5.63397
20
-3.39176
11
5.62835
21
-3.40301
0
LINE
8
BLACK
6
CONTINUOUS
10
5.62835
20
-3.40301
11
5.62272
21
-3.40863
0
LINE
8
BLACK
6
CONTINUOUS
10
5.62272
20
-3.40863
11
5.61147
21
-3.41426
0
LINE
8
BLACK
6
CONTINUOUS
10
5.61147
20
-3.41426
11
5.5946
21
-3.41426
0
LINE
8
BLACK
6
CONTINUOUS
10
5.70146
20
-3.41426
11
5.69021
21
-3.40863
0
LINE
8
BLACK
6
CONTINUOUS
10
5.69021
20
-3.40863
11
5.68459
21
-3.39738
0
LINE
8
BLACK
6
CONTINUOUS
10
5.68459
20
-3.39738
11
5.68459
21
-3.29615
0
LINE
8
BLACK
6
CONTINUOUS
10
5.79145
20
-3.40863
11
5.7802
21
-3.41426
0
LINE
8
BLACK
6
CONTINUOUS
10
5.7802
20
-3.41426
11
5.75771
21
-3.41426
0
LINE
8
BLACK
6
CONTINUOUS
10
5.75771
20
-3.41426
11
5.74646
21
-3.40863
0
LINE
8
BLACK
6
CONTINUOUS
10
5.74646
20
-3.40863
11
5.74083
21
-3.39738
0
LINE
8
BLACK
6
CONTINUOUS
10
5.74083
20
-3.39738
11
5.74083
21
-3.35239
0
LINE
8
BLACK
6
CONTINUOUS
10
5.74083
20
-3.35239
11
5.74646
21
-3.34114
0
LINE
8
BLACK
6
CONTINUOUS
10
5.74646
20
-3.34114
11
5.75771
21
-3.33552
0
LINE
8
BLACK
6
CONTINUOUS
10
5.75771
20
-3.33552
11
5.7802
21
-3.33552
0
LINE
8
BLACK
6
CONTINUOUS
10
5.7802
20
-3.33552
11
5.79145
21
-3.34114
0
LINE
8
BLACK
6
CONTINUOUS
10
5.79145
20
-3.34114
11
5.79708
21
-3.35239
0
LINE
8
BLACK
6
CONTINUOUS
10
5.79708
20
-3.35239
11
5.79708
21
-3.36364
0
LINE
8
BLACK
6
CONTINUOUS
10
5.79708
20
-3.36364
11
5.74083
21
-3.37489
0
LINE
8
BLACK
6
CONTINUOUS
10
5.83645
20
-3.45925
11
5.84207
21
-3.45363
0
LINE
8
BLACK
6
CONTINUOUS
10
5.84207
20
-3.45363
11
5.85332
21
-3.43675
0
LINE
8
BLACK
6
CONTINUOUS
10
5.85332
20
-3.43675
11
5.85894
21
-3.42551
0
LINE
8
BLACK
6
CONTINUOUS
10
5.85894
20
-3.42551
11
5.86457
21
-3.40863
0
LINE
8
BLACK
6
CONTINUOUS
10
5.86457
20
-3.40863
11
5.87019
21
-3.38051
0
LINE
8
BLACK
6
CONTINUOUS
10
5.87019
20
-3.38051
11
5.87019
21
-3.35801
0
LINE
8
BLACK
6
CONTINUOUS
10
5.87019
20
-3.35801
11
5.86457
21
-3.32989
0
LINE
8
BLACK
6
CONTINUOUS
10
5.86457
20
-3.32989
11
5.85894
21
-3.31302
0
LINE
8
BLACK
6
CONTINUOUS
10
5.85894
20
-3.31302
11
5.85332
21
-3.30177
0
LINE
8
BLACK
6
CONTINUOUS
10
5.85332
20
-3.30177
11
5.84207
21
-3.2849
0
LINE
8
BLACK
6
CONTINUOUS
10
5.84207
20
-3.2849
11
5.83645
21
-3.27927
0
LINE
8
BLACK
6
CONTINUOUS
10
3.35866
20
-3.49705
11
3.35866
21
-3.53642
0
LINE
8
BLACK
6
CONTINUOUS
10
3.33898
20
-3.51673
11
3.37835
21
-3.51673
0
LINE
8
BLACK
6
CONTINUOUS
10
3.55298
20
-3.57016
11
3.48549
21
-3.57016
0
LINE
8
BLACK
6
CONTINUOUS
10
3.51924
20
-3.57016
11
3.51924
21
-3.45205
0
LINE
8
BLACK
6
CONTINUOUS
10
3.51924
20
-3.45205
11
3.50799
21
-3.46893
0
LINE
8
BLACK
6
CONTINUOUS
10
3.50799
20
-3.46893
11
3.49674
21
-3.48017
0
LINE
8
BLACK
6
CONTINUOUS
10
3.49674
20
-3.48017
11
3.48549
21
-3.4858
0
LINE
8
BLACK
6
CONTINUOUS
10
3.6036
20
-3.55891
11
3.60922
21
-3.56454
0
LINE
8
BLACK
6
CONTINUOUS
10
3.60922
20
-3.56454
11
3.6036
21
-3.57016
0
LINE
8
BLACK
6
CONTINUOUS
10
3.6036
20
-3.57016
11
3.59798
21
-3.56454
0
LINE
8
BLACK
6
CONTINUOUS
10
3.59798
20
-3.56454
11
3.6036
21
-3.55891
0
LINE
8
BLACK
6
CONTINUOUS
10
3.6036
20
-3.55891
11
3.6036
21
-3.57016
0
LINE
8
BLACK
6
CONTINUOUS
10
3.68234
20
-3.45205
11
3.69359
21
-3.45205
0
LINE
8
BLACK
6
CONTINUOUS
10
3.69359
20
-3.45205
11
3.70484
21
-3.45768
0
LINE
8
BLACK
6
CONTINUOUS
10
3.70484
20
-3.45768
11
3.71046
21
-3.4633
0
LINE
8
BLACK
6
CONTINUOUS
10
3.71046
20
-3.4633
11
3.71609
21
-3.47455
0
LINE
8
BLACK
6
CONTINUOUS
10
3.71609
20
-3.47455
11
3.72171
21
-3.49705
0
LINE
8
BLACK
6
CONTINUOUS
10
3.72171
20
-3.49705
11
3.72171
21
-3.52517
0
LINE
8
BLACK
6
CONTINUOUS
10
3.72171
20
-3.52517
11
3.71609
21
-3.54767
0
LINE
8
BLACK
6
CONTINUOUS
10
3.71609
20
-3.54767
11
3.71046
21
-3.55891
0
LINE
8
BLACK
6
CONTINUOUS
10
3.71046
20
-3.55891
11
3.70484
21
-3.56454
0
LINE
8
BLACK
6
CONTINUOUS
10
3.70484
20
-3.56454
11
3.69359
21
-3.57016
0
LINE
8
BLACK
6
CONTINUOUS
10
3.69359
20
-3.57016
11
3.68234
21
-3.57016
0
LINE
8
BLACK
6
CONTINUOUS
10
3.68234
20
-3.57016
11
3.67109
21
-3.56454
0
LINE
8
BLACK
6
CONTINUOUS
10
3.67109
20
-3.56454
11
3.66547
21
-3.55891
0
LINE
8
BLACK
6
CONTINUOUS
10
3.66547
20
-3.55891
11
3.65984
21
-3.54767
0
LINE
8
BLACK
6
CONTINUOUS
10
3.65984
20
-3.54767
11
3.65422
21
-3.52517
0
LINE
8
BLACK
6
CONTINUOUS
10
3.65422
20
-3.52517
11
3.65422
21
-3.49705
0
LINE
8
BLACK
6
CONTINUOUS
10
3.65422
20
-3.49705
11
3.65984
21
-3.47455
0
LINE
8
BLACK
6
CONTINUOUS
10
3.65984
20
-3.47455
11
3.66547
21
-3.4633
0
LINE
8
BLACK
6
CONTINUOUS
10
3.66547
20
-3.4633
11
3.67109
21
-3.45768
0
LINE
8
BLACK
6
CONTINUOUS
10
3.67109
20
-3.45768
11
3.68234
21
-3.45205
0
LINE
8
BLACK
6
CONTINUOUS
10
3.79483
20
-3.45205
11
3.80607
21
-3.45205
0
LINE
8
BLACK
6
CONTINUOUS
10
3.80607
20
-3.45205
11
3.81732
21
-3.45768
0
LINE
8
BLACK
6
CONTINUOUS
10
3.81732
20
-3.45768
11
3.82295
21
-3.4633
0
LINE
8
BLACK
6
CONTINUOUS
10
3.82295
20
-3.4633
11
3.82857
21
-3.47455
0
LINE
8
BLACK
6
CONTINUOUS
10
3.82857
20
-3.47455
11
3.8342
21
-3.49705
0
LINE
8
BLACK
6
CONTINUOUS
10
3.8342
20
-3.49705
11
3.8342
21
-3.52517
0
LINE
8
BLACK
6
CONTINUOUS
10
3.8342
20
-3.52517
11
3.82857
21
-3.54767
0
LINE
8
BLACK
6
CONTINUOUS
10
3.82857
20
-3.54767
11
3.82295
21
-3.55891
0
LINE
8
BLACK
6
CONTINUOUS
10
3.82295
20
-3.55891
11
3.81732
21
-3.56454
0
LINE
8
BLACK
6
CONTINUOUS
10
3.81732
20
-3.56454
11
3.80607
21
-3.57016
0
LINE
8
BLACK
6
CONTINUOUS
10
3.80607
20
-3.57016
11
3.79483
21
-3.57016
0
LINE
8
BLACK
6
CONTINUOUS
10
3.79483
20
-3.57016
11
3.78358
21
-3.56454
0
LINE
8
BLACK
6
CONTINUOUS
10
3.78358
20
-3.56454
11
3.77795
21
-3.55891
0
LINE
8
BLACK
6
CONTINUOUS
10
3.77795
20
-3.55891
11
3.77233
21
-3.54767
0
LINE
8
BLACK
6
CONTINUOUS
10
3.77233
20
-3.54767
11
3.7667
21
-3.52517
0
LINE
8
BLACK
6
CONTINUOUS
10
3.7667
20
-3.52517
11
3.7667
21
-3.49705
0
LINE
8
BLACK
6
CONTINUOUS
10
3.7667
20
-3.49705
11
3.77233
21
-3.47455
0
LINE
8
BLACK
6
CONTINUOUS
10
3.77233
20
-3.47455
11
3.77795
21
-3.4633
0
LINE
8
BLACK
6
CONTINUOUS
10
3.77795
20
-3.4633
11
3.78358
21
-3.45768
0
LINE
8
BLACK
6
CONTINUOUS
10
3.78358
20
-3.45768
11
3.79483
21
-3.45205
0
LINE
8
BLACK
6
CONTINUOUS
10
3.88481
20
-3.57016
11
3.88481
21
-3.49142
0
LINE
8
BLACK
6
CONTINUOUS
10
3.88481
20
-3.50267
11
3.89044
21
-3.49705
0
LINE
8
BLACK
6
CONTINUOUS
10
3.89044
20
-3.49705
11
3.90169
21
-3.49142
0
LINE
8
BLACK
6
CONTINUOUS
10
3.90169
20
-3.49142
11
3.91856
21
-3.49142
0
LINE
8
BLACK
6
CONTINUOUS
10
3.91856
20
-3.49142
11
3.92981
21
-3.49705
0
LINE
8
BLACK
6
CONTINUOUS
10
3.92981
20
-3.49705
11
3.93543
21
-3.5083
0
LINE
8
BLACK
6
CONTINUOUS
10
3.93543
20
-3.5083
11
3.93543
21
-3.57016
0
LINE
8
BLACK
6
CONTINUOUS
10
3.93543
20
-3.5083
11
3.94106
21
-3.49705
0
LINE
8
BLACK
6
CONTINUOUS
10
3.94106
20
-3.49705
11
3.95231
21
-3.49142
0
LINE
8
BLACK
6
CONTINUOUS
10
3.95231
20
-3.49142
11
3.96918
21
-3.49142
0
LINE
8
BLACK
6
CONTINUOUS
10
3.96918
20
-3.49142
11
3.98043
21
-3.49705
0
LINE
8
BLACK
6
CONTINUOUS
10
3.98043
20
-3.49705
11
3.98605
21
-3.5083
0
LINE
8
BLACK
6
CONTINUOUS
10
3.98605
20
-3.5083
11
3.98605
21
-3.57016
0
LINE
8
BLACK
6
CONTINUOUS
10
4.04229
20
-3.57016
11
4.04229
21
-3.49142
0
LINE
8
BLACK
6
CONTINUOUS
10
4.04229
20
-3.50267
11
4.04792
21
-3.49705
0
LINE
8
BLACK
6
CONTINUOUS
10
4.04792
20
-3.49705
11
4.05917
21
-3.49142
0
LINE
8
BLACK
6
CONTINUOUS
10
4.05917
20
-3.49142
11
4.07604
21
-3.49142
0
LINE
8
BLACK
6
CONTINUOUS
10
4.07604
20
-3.49142
11
4.08729
21
-3.49705
0
LINE
8
BLACK
6
CONTINUOUS
10
4.08729
20
-3.49705
11
4.09291
21
-3.5083
0
LINE
8
BLACK
6
CONTINUOUS
10
4.09291
20
-3.5083
11
4.09291
21
-3.57016
0
LINE
8
BLACK
6
CONTINUOUS
10
4.09291
20
-3.5083
11
4.09854
21
-3.49705
0
LINE
8
BLACK
6
CONTINUOUS
10
4.09854
20
-3.49705
11
4.10979
21
-3.49142
0
LINE
8
BLACK
6
CONTINUOUS
10
4.10979
20
-3.49142
11
4.12666
21
-3.49142
0
LINE
8
BLACK
6
CONTINUOUS
10
4.12666
20
-3.49142
11
4.13791
21
-3.49705
0
LINE
8
BLACK
6
CONTINUOUS
10
4.13791
20
-3.49705
11
4.14353
21
-3.5083
0
LINE
8
BLACK
6
CONTINUOUS
10
4.14353
20
-3.5083
11
4.14353
21
-3.57016
0
LINE
8
BLACK
6
CONTINUOUS
10
4.37413
20
-3.44643
11
4.27289
21
-3.59828
0
LINE
8
BLACK
6
CONTINUOUS
10
4.52598
20
-3.45205
11
4.53723
21
-3.45205
0
LINE
8
BLACK
6
CONTINUOUS
10
4.53723
20
-3.45205
11
4.54848
21
-3.45768
0
LINE
8
BLACK
6
CONTINUOUS
10
4.54848
20
-3.45768
11
4.55411
21
-3.4633
0
LINE
8
BLACK
6
CONTINUOUS
10
4.55411
20
-3.4633
11
4.55973
21
-3.47455
0
LINE
8
BLACK
6
CONTINUOUS
10
4.55973
20
-3.47455
11
4.56535
21
-3.49705
0
LINE
8
BLACK
6
CONTINUOUS
10
4.56535
20
-3.49705
11
4.56535
21
-3.52517
0
LINE
8
BLACK
6
CONTINUOUS
10
4.56535
20
-3.52517
11
4.55973
21
-3.54767
0
LINE
8
BLACK
6
CONTINUOUS
10
4.55973
20
-3.54767
11
4.55411
21
-3.55891
0
LINE
8
BLACK
6
CONTINUOUS
10
4.55411
20
-3.55891
11
4.54848
21
-3.56454
0
LINE
8
BLACK
6
CONTINUOUS
10
4.54848
20
-3.56454
11
4.53723
21
-3.57016
0
LINE
8
BLACK
6
CONTINUOUS
10
4.53723
20
-3.57016
11
4.52598
21
-3.57016
0
LINE
8
BLACK
6
CONTINUOUS
10
4.52598
20
-3.57016
11
4.51474
21
-3.56454
0
LINE
8
BLACK
6
CONTINUOUS
10
4.51474
20
-3.56454
11
4.50911
21
-3.55891
0
LINE
8
BLACK
6
CONTINUOUS
10
4.50911
20
-3.55891
11
4.50349
21
-3.54767
0
LINE
8
BLACK
6
CONTINUOUS
10
4.50349
20
-3.54767
11
4.49786
21
-3.52517
0
LINE
8
BLACK
6
CONTINUOUS
10
4.49786
20
-3.52517
11
4.49786
21
-3.49705
0
LINE
8
BLACK
6
CONTINUOUS
10
4.49786
20
-3.49705
11
4.50349
21
-3.47455
0
LINE
8
BLACK
6
CONTINUOUS
10
4.50349
20
-3.47455
11
4.50911
21
-3.4633
0
LINE
8
BLACK
6
CONTINUOUS
10
4.50911
20
-3.4633
11
4.51474
21
-3.45768
0
LINE
8
BLACK
6
CONTINUOUS
10
4.51474
20
-3.45768
11
4.52598
21
-3.45205
0
LINE
8
BLACK
6
CONTINUOUS
10
4.61597
20
-3.55891
11
4.6216
21
-3.56454
0
LINE
8
BLACK
6
CONTINUOUS
10
4.6216
20
-3.56454
11
4.61597
21
-3.57016
0
LINE
8
BLACK
6
CONTINUOUS
10
4.61597
20
-3.57016
11
4.61035
21
-3.56454
0
LINE
8
BLACK
6
CONTINUOUS
10
4.61035
20
-3.56454
11
4.61597
21
-3.55891
0
LINE
8
BLACK
6
CONTINUOUS
10
4.61597
20
-3.55891
11
4.61597
21
-3.57016
0
LINE
8
BLACK
6
CONTINUOUS
10
4.69471
20
-3.45205
11
4.70596
21
-3.45205
0
LINE
8
BLACK
6
CONTINUOUS
10
4.70596
20
-3.45205
11
4.71721
21
-3.45768
0
LINE
8
BLACK
6
CONTINUOUS
10
4.71721
20
-3.45768
11
4.72283
21
-3.4633
0
LINE
8
BLACK
6
CONTINUOUS
10
4.72283
20
-3.4633
11
4.72846
21
-3.47455
0
LINE
8
BLACK
6
CONTINUOUS
10
4.72846
20
-3.47455
11
4.73408
21
-3.49705
0
LINE
8
BLACK
6
CONTINUOUS
10
4.73408
20
-3.49705
11
4.73408
21
-3.52517
0
LINE
8
BLACK
6
CONTINUOUS
10
4.73408
20
-3.52517
11
4.72846
21
-3.54767
0
LINE
8
BLACK
6
CONTINUOUS
10
4.72846
20
-3.54767
11
4.72283
21
-3.55891
0
LINE
8
BLACK
6
CONTINUOUS
10
4.72283
20
-3.55891
11
4.71721
21
-3.56454
0
LINE
8
BLACK
6
CONTINUOUS
10
4.71721
20
-3.56454
11
4.70596
21
-3.57016
0
LINE
8
BLACK
6
CONTINUOUS
10
4.70596
20
-3.57016
11
4.69471
21
-3.57016
0
LINE
8
BLACK
6
CONTINUOUS
10
4.69471
20
-3.57016
11
4.68346
21
-3.56454
0
LINE
8
BLACK
6
CONTINUOUS
10
4.68346
20
-3.56454
11
4.67784
21
-3.55891
0
LINE
8
BLACK
6
CONTINUOUS
10
4.67784
20
-3.55891
11
4.67222
21
-3.54767
0
LINE
8
BLACK
6
CONTINUOUS
10
4.67222
20
-3.54767
11
4.66659
21
-3.52517
0
LINE
8
BLACK
6
CONTINUOUS
10
4.66659
20
-3.52517
11
4.66659
21
-3.49705
0
LINE
8
BLACK
6
CONTINUOUS
10
4.66659
20
-3.49705
11
4.67222
21
-3.47455
0
LINE
8
BLACK
6
CONTINUOUS
10
4.67222
20
-3.47455
11
4.67784
21
-3.4633
0
LINE
8
BLACK
6
CONTINUOUS
10
4.67784
20
-3.4633
11
4.68346
21
-3.45768
0
LINE
8
BLACK
6
CONTINUOUS
10
4.68346
20
-3.45768
11
4.69471
21
-3.45205
0
LINE
8
BLACK
6
CONTINUOUS
10
4.77345
20
-3.45205
11
4.84657
21
-3.45205
0
LINE
8
BLACK
6
CONTINUOUS
10
4.84657
20
-3.45205
11
4.8072
21
-3.49705
0
LINE
8
BLACK
6
CONTINUOUS
10
4.8072
20
-3.49705
11
4.82407
21
-3.49705
0
LINE
8
BLACK
6
CONTINUOUS
10
4.82407
20
-3.49705
11
4.83532
21
-3.50267
0
LINE
8
BLACK
6
CONTINUOUS
10
4.83532
20
-3.50267
11
4.84094
21
-3.5083
0
LINE
8
BLACK
6
CONTINUOUS
10
4.84094
20
-3.5083
11
4.84657
21
-3.51954
0
LINE
8
BLACK
6
CONTINUOUS
10
4.84657
20
-3.51954
11
4.84657
21
-3.54767
0
LINE
8
BLACK
6
CONTINUOUS
10
4.84657
20
-3.54767
11
4.84094
21
-3.55891
0
LINE
8
BLACK
6
CONTINUOUS
10
4.84094
20
-3.55891
11
4.83532
21
-3.56454
0
LINE
8
BLACK
6
CONTINUOUS
10
4.83532
20
-3.56454
11
4.82407
21
-3.57016
0
LINE
8
BLACK
6
CONTINUOUS
10
4.82407
20
-3.57016
11
4.79033
21
-3.57016
0
LINE
8
BLACK
6
CONTINUOUS
10
4.79033
20
-3.57016
11
4.77908
21
-3.56454
0
LINE
8
BLACK
6
CONTINUOUS
10
4.77908
20
-3.56454
11
4.77345
21
-3.55891
0
LINE
8
BLACK
6
CONTINUOUS
10
4.90281
20
-3.57016
11
4.92531
21
-3.57016
0
LINE
8
BLACK
6
CONTINUOUS
10
4.92531
20
-3.57016
11
4.93656
21
-3.56454
0
LINE
8
BLACK
6
CONTINUOUS
10
4.93656
20
-3.56454
11
4.94218
21
-3.55891
0
LINE
8
BLACK
6
CONTINUOUS
10
4.94218
20
-3.55891
11
4.95343
21
-3.54204
0
LINE
8
BLACK
6
CONTINUOUS
10
4.95343
20
-3.54204
11
4.95906
21
-3.51954
0
LINE
8
BLACK
6
CONTINUOUS
10
4.95906
20
-3.51954
11
4.95906
21
-3.47455
0
LINE
8
BLACK
6
CONTINUOUS
10
4.95906
20
-3.47455
11
4.95343
21
-3.4633
0
LINE
8
BLACK
6
CONTINUOUS
10
4.95343
20
-3.4633
11
4.94781
21
-3.45768
0
LINE
8
BLACK
6
CONTINUOUS
10
4.94781
20
-3.45768
11
4.93656
21
-3.45205
0
LINE
8
BLACK
6
CONTINUOUS
10
4.93656
20
-3.45205
11
4.91406
21
-3.45205
0
LINE
8
BLACK
6
CONTINUOUS
10
4.91406
20
-3.45205
11
4.90281
21
-3.45768
0
LINE
8
BLACK
6
CONTINUOUS
10
4.90281
20
-3.45768
11
4.89719
21
-3.4633
0
LINE
8
BLACK
6
CONTINUOUS
10
4.89719
20
-3.4633
11
4.89156
21
-3.47455
0
LINE
8
BLACK
6
CONTINUOUS
10
4.89156
20
-3.47455
11
4.89156
21
-3.50267
0
LINE
8
BLACK
6
CONTINUOUS
10
4.89156
20
-3.50267
11
4.89719
21
-3.51392
0
LINE
8
BLACK
6
CONTINUOUS
10
4.89719
20
-3.51392
11
4.90281
21
-3.51954
0
LINE
8
BLACK
6
CONTINUOUS
10
4.90281
20
-3.51954
11
4.91406
21
-3.52517
0
LINE
8
BLACK
6
CONTINUOUS
10
4.91406
20
-3.52517
11
4.93656
21
-3.52517
0
LINE
8
BLACK
6
CONTINUOUS
10
4.93656
20
-3.52517
11
4.94781
21
-3.51954
0
LINE
8
BLACK
6
CONTINUOUS
10
4.94781
20
-3.51954
11
4.95343
21
-3.51392
0
LINE
8
BLACK
6
CONTINUOUS
10
4.95343
20
-3.51392
11
4.95906
21
-3.50267
0
LINE
8
BLACK
6
CONTINUOUS
10
5.00405
20
-3.45205
11
5.00405
21
-3.47455
0
LINE
8
BLACK
6
CONTINUOUS
10
5.04904
20
-3.45205
11
5.04904
21
-3.47455
0
LINE
8
BLACK
6
CONTINUOUS
10
5.2234
20
-3.61516
11
5.21777
21
-3.60953
0
LINE
8
BLACK
6
CONTINUOUS
10
5.21777
20
-3.60953
11
5.20652
21
-3.59266
0
LINE
8
BLACK
6
CONTINUOUS
10
5.20652
20
-3.59266
11
5.2009
21
-3.58141
0
LINE
8
BLACK
6
CONTINUOUS
10
5.2009
20
-3.58141
11
5.19528
21
-3.56454
0
LINE
8
BLACK
6
CONTINUOUS
10
5.19528
20
-3.56454
11
5.18965
21
-3.53642
0
LINE
8
BLACK
6
CONTINUOUS
10
5.18965
20
-3.53642
11
5.18965
21
-3.51392
0
LINE
8
BLACK
6
CONTINUOUS
10
5.18965
20
-3.51392
11
5.19528
21
-3.4858
0
LINE
8
BLACK
6
CONTINUOUS
10
5.19528
20
-3.4858
11
5.2009
21
-3.46893
0
LINE
8
BLACK
6
CONTINUOUS
10
5.2009
20
-3.46893
11
5.20652
21
-3.45768
0
LINE
8
BLACK
6
CONTINUOUS
10
5.20652
20
-3.45768
11
5.21777
21
-3.4408
0
LINE
8
BLACK
6
CONTINUOUS
10
5.21777
20
-3.4408
11
5.2234
21
-3.43518
0
LINE
8
BLACK
6
CONTINUOUS
10
5.31901
20
-3.49142
11
5.31901
21
-3.57016
0
LINE
8
BLACK
6
CONTINUOUS
10
5.29089
20
-3.44643
11
5.26277
21
-3.53079
0
LINE
8
BLACK
6
CONTINUOUS
10
5.26277
20
-3.53079
11
5.33588
21
-3.53079
0
LINE
8
BLACK
6
CONTINUOUS
10
5.4315
20
-3.45205
11
5.409
21
-3.45205
0
LINE
8
BLACK
6
CONTINUOUS
10
5.409
20
-3.45205
11
5.39775
21
-3.45768
0
LINE
8
BLACK
6
CONTINUOUS
10
5.39775
20
-3.45768
11
5.39213
21
-3.4633
0
LINE
8
BLACK
6
CONTINUOUS
10
5.39213
20
-3.4633
11
5.38088
21
-3.48017
0
LINE
8
BLACK
6
CONTINUOUS
10
5.38088
20
-3.48017
11
5.37525
21
-3.50267
0
LINE
8
BLACK
6
CONTINUOUS
10
5.37525
20
-3.50267
11
5.37525
21
-3.54767
0
LINE
8
BLACK
6
CONTINUOUS
10
5.37525
20
-3.54767
11
5.38088
21
-3.55891
0
LINE
8
BLACK
6
CONTINUOUS
10
5.38088
20
-3.55891
11
5.3865
21
-3.56454
0
LINE
8
BLACK
6
CONTINUOUS
10
5.3865
20
-3.56454
11
5.39775
21
-3.57016
0
LINE
8
BLACK
6
CONTINUOUS
10
5.39775
20
-3.57016
11
5.42025
21
-3.57016
0
LINE
8
BLACK
6
CONTINUOUS
10
5.42025
20
-3.57016
11
5.4315
21
-3.56454
0
LINE
8
BLACK
6
CONTINUOUS
10
5.4315
20
-3.56454
11
5.43712
21
-3.55891
0
LINE
8
BLACK
6
CONTINUOUS
10
5.43712
20
-3.55891
11
5.44274
21
-3.54767
0
LINE
8
BLACK
6
CONTINUOUS
10
5.44274
20
-3.54767
11
5.44274
21
-3.51954
0
LINE
8
BLACK
6
CONTINUOUS
10
5.44274
20
-3.51954
11
5.43712
21
-3.5083
0
LINE
8
BLACK
6
CONTINUOUS
10
5.43712
20
-3.5083
11
5.4315
21
-3.50267
0
LINE
8
BLACK
6
CONTINUOUS
10
5.4315
20
-3.50267
11
5.42025
21
-3.49705
0
LINE
8
BLACK
6
CONTINUOUS
10
5.42025
20
-3.49705
11
5.39775
21
-3.49705
0
LINE
8
BLACK
6
CONTINUOUS
10
5.39775
20
-3.49705
11
5.3865
21
-3.50267
0
LINE
8
BLACK
6
CONTINUOUS
10
5.3865
20
-3.50267
11
5.38088
21
-3.5083
0
LINE
8
BLACK
6
CONTINUOUS
10
5.38088
20
-3.5083
11
5.37525
21
-3.51954
0
LINE
8
BLACK
6
CONTINUOUS
10
5.58335
20
-3.57016
11
5.58335
21
-3.45205
0
LINE
8
BLACK
6
CONTINUOUS
10
5.63397
20
-3.57016
11
5.63397
21
-3.5083
0
LINE
8
BLACK
6
CONTINUOUS
10
5.63397
20
-3.5083
11
5.62835
21
-3.49705
0
LINE
8
BLACK
6
CONTINUOUS
10
5.62835
20
-3.49705
11
5.6171
21
-3.49142
0
LINE
8
BLACK
6
CONTINUOUS
10
5.6171
20
-3.49142
11
5.60022
21
-3.49142
0
LINE
8
BLACK
6
CONTINUOUS
10
5.60022
20
-3.49142
11
5.58898
21
-3.49705
0
LINE
8
BLACK
6
CONTINUOUS
10
5.58898
20
-3.49705
11
5.58335
21
-3.50267
0
LINE
8
BLACK
6
CONTINUOUS
10
5.70709
20
-3.57016
11
5.69584
21
-3.56454
0
LINE
8
BLACK
6
CONTINUOUS
10
5.69584
20
-3.56454
11
5.69021
21
-3.55891
0
LINE
8
BLACK
6
CONTINUOUS
10
5.69021
20
-3.55891
11
5.68459
21
-3.54767
0
LINE
8
BLACK
6
CONTINUOUS
10
5.68459
20
-3.54767
11
5.68459
21
-3.51392
0
LINE
8
BLACK
6
CONTINUOUS
10
5.68459
20
-3.51392
11
5.69021
21
-3.50267
0
LINE
8
BLACK
6
CONTINUOUS
10
5.69021
20
-3.50267
11
5.69584
21
-3.49705
0
LINE
8
BLACK
6
CONTINUOUS
10
5.69584
20
-3.49705
11
5.70709
21
-3.49142
0
LINE
8
BLACK
6
CONTINUOUS
10
5.70709
20
-3.49142
11
5.72396
21
-3.49142
0
LINE
8
BLACK
6
CONTINUOUS
10
5.72396
20
-3.49142
11
5.73521
21
-3.49705
0
LINE
8
BLACK
6
CONTINUOUS
10
5.73521
20
-3.49705
11
5.74083
21
-3.50267
0
LINE
8
BLACK
6
CONTINUOUS
10
5.74083
20
-3.50267
11
5.74646
21
-3.51392
0
LINE
8
BLACK
6
CONTINUOUS
10
5.74646
20
-3.51392
11
5.74646
21
-3.54767
0
LINE
8
BLACK
6
CONTINUOUS
10
5.74646
20
-3.54767
11
5.74083
21
-3.55891
0
LINE
8
BLACK
6
CONTINUOUS
10
5.74083
20
-3.55891
11
5.73521
21
-3.56454
0
LINE
8
BLACK
6
CONTINUOUS
10
5.73521
20
-3.56454
11
5.72396
21
-3.57016
0
LINE
8
BLACK
6
CONTINUOUS
10
5.72396
20
-3.57016
11
5.70709
21
-3.57016
0
LINE
8
BLACK
6
CONTINUOUS
10
5.81395
20
-3.57016
11
5.8027
21
-3.56454
0
LINE
8
BLACK
6
CONTINUOUS
10
5.8027
20
-3.56454
11
5.79708
21
-3.55329
0
LINE
8
BLACK
6
CONTINUOUS
10
5.79708
20
-3.55329
11
5.79708
21
-3.45205
0
LINE
8
BLACK
6
CONTINUOUS
10
5.90394
20
-3.56454
11
5.89269
21
-3.57016
0
LINE
8
BLACK
6
CONTINUOUS
10
5.89269
20
-3.57016
11
5.87019
21
-3.57016
0
LINE
8
BLACK
6
CONTINUOUS
10
5.87019
20
-3.57016
11
5.85894
21
-3.56454
0
LINE
8
BLACK
6
CONTINUOUS
10
5.85894
20
-3.56454
11
5.85332
21
-3.55329
0
LINE
8
BLACK
6
CONTINUOUS
10
5.85332
20
-3.55329
11
5.85332
21
-3.5083
0
LINE
8
BLACK
6
CONTINUOUS
10
5.85332
20
-3.5083
11
5.85894
21
-3.49705
0
LINE
8
BLACK
6
CONTINUOUS
10
5.85894
20
-3.49705
11
5.87019
21
-3.49142
0
LINE
8
BLACK
6
CONTINUOUS
10
5.87019
20
-3.49142
11
5.89269
21
-3.49142
0
LINE
8
BLACK
6
CONTINUOUS
10
5.89269
20
-3.49142
11
5.90394
21
-3.49705
0
LINE
8
BLACK
6
CONTINUOUS
10
5.90394
20
-3.49705
11
5.90956
21
-3.5083
0
LINE
8
BLACK
6
CONTINUOUS
10
5.90956
20
-3.5083
11
5.90956
21
-3.51954
0
LINE
8
BLACK
6
CONTINUOUS
10
5.90956
20
-3.51954
11
5.85332
21
-3.53079
0
LINE
8
BLACK
6
CONTINUOUS
10
5.95456
20
-3.56454
11
5.9658
21
-3.57016
0
LINE
8
BLACK
6
CONTINUOUS
10
5.9658
20
-3.57016
11
5.9883
21
-3.57016
0
LINE
8
BLACK
6
CONTINUOUS
10
5.9883
20
-3.57016
11
5.99955
21
-3.56454
0
LINE
8
BLACK
6
CONTINUOUS
10
5.99955
20
-3.56454
11
6.00517
21
-3.55329
0
LINE
8
BLACK
6
CONTINUOUS
10
6.00517
20
-3.55329
11
6.00517
21
-3.54767
0
LINE
8
BLACK
6
CONTINUOUS
10
6.00517
20
-3.54767
11
5.99955
21
-3.53642
0
LINE
8
BLACK
6
CONTINUOUS
10
5.99955
20
-3.53642
11
5.9883
21
-3.53079
0
LINE
8
BLACK
6
CONTINUOUS
10
5.9883
20
-3.53079
11
5.97143
21
-3.53079
0
LINE
8
BLACK
6
CONTINUOUS
10
5.97143
20
-3.53079
11
5.96018
21
-3.52517
0
LINE
8
BLACK
6
CONTINUOUS
10
5.96018
20
-3.52517
11
5.95456
21
-3.51392
0
LINE
8
BLACK
6
CONTINUOUS
10
5.95456
20
-3.51392
11
5.95456
21
-3.5083
0
LINE
8
BLACK
6
CONTINUOUS
10
5.95456
20
-3.5083
11
5.96018
21
-3.49705
0
LINE
8
BLACK
6
CONTINUOUS
10
5.96018
20
-3.49705
11
5.97143
21
-3.49142
0
LINE
8
BLACK
6
CONTINUOUS
10
5.97143
20
-3.49142
11
5.9883
21
-3.49142
0
LINE
8
BLACK
6
CONTINUOUS
10
5.9883
20
-3.49142
11
5.99955
21
-3.49705
0
LINE
8
BLACK
6
CONTINUOUS
10
6.04454
20
-3.61516
11
6.05017
21
-3.60953
0
LINE
8
BLACK
6
CONTINUOUS
10
6.05017
20
-3.60953
11
6.06142
21
-3.59266
0
LINE
8
BLACK
6
CONTINUOUS
10
6.06142
20
-3.59266
11
6.06704
21
-3.58141
0
LINE
8
BLACK
6
CONTINUOUS
10
6.06704
20
-3.58141
11
6.07267
21
-3.56454
0
LINE
8
BLACK
6
CONTINUOUS
10
6.07267
20
-3.56454
11
6.07829
21
-3.53642
0
LINE
8
BLACK
6
CONTINUOUS
10
6.07829
20
-3.53642
11
6.07829
21
-3.51392
0
LINE
8
BLACK
6
CONTINUOUS
10
6.07829
20
-3.51392
11
6.07267
21
-3.4858
0
LINE
8
BLACK
6
CONTINUOUS
10
6.07267
20
-3.4858
11
6.06704
21
-3.46893
0
LINE
8
BLACK
6
CONTINUOUS
10
6.06704
20
-3.46893
11
6.06142
21
-3.45768
0
LINE
8
BLACK
6
CONTINUOUS
10
6.06142
20
-3.45768
11
6.05017
21
-3.4408
0
LINE
8
BLACK
6
CONTINUOUS
10
6.05017
20
-3.4408
11
6.04454
21
-3.43518
0
LINE
8
BLACK
6
CONTINUOUS
10
3.36105
20
-3.7144
11
3.36105
21
-3.63088
0
LINE
8
BLACK
6
CONTINUOUS
10
3.36105
20
-3.63088
11
3.27753
21
-3.63088
0
LINE
8
BLACK
6
CONTINUOUS
10
3.27753
20
-3.63088
11
3.27753
21
-3.7144
0
LINE
8
BLACK
6
CONTINUOUS
10
3.27753
20
-3.7144
11
3.36105
21
-3.7144
0
LINE
8
BLACK
6
CONTINUOUS
10
3.47986
20
-3.60796
11
3.55298
21
-3.60796
0
LINE
8
BLACK
6
CONTINUOUS
10
3.55298
20
-3.60796
11
3.51361
21
-3.65295
0
LINE
8
BLACK
6
CONTINUOUS
10
3.51361
20
-3.65295
11
3.53048
21
-3.65295
0
LINE
8
BLACK
6
CONTINUOUS
10
3.53048
20
-3.65295
11
3.54173
21
-3.65858
0
LINE
8
BLACK
6
CONTINUOUS
10
3.54173
20
-3.65858
11
3.54736
21
-3.6642
0
LINE
8
BLACK
6
CONTINUOUS
10
3.54736
20
-3.6642
11
3.55298
21
-3.67545
0
LINE
8
BLACK
6
CONTINUOUS
10
3.55298
20
-3.67545
11
3.55298
21
-3.70357
0
LINE
8
BLACK
6
CONTINUOUS
10
3.55298
20
-3.70357
11
3.54736
21
-3.71482
0
LINE
8
BLACK
6
CONTINUOUS
10
3.54736
20
-3.71482
11
3.54173
21
-3.72044
0
LINE
8
BLACK
6
CONTINUOUS
10
3.54173
20
-3.72044
11
3.53048
21
-3.72607
0
LINE
8
BLACK
6
CONTINUOUS
10
3.53048
20
-3.72607
11
3.49674
21
-3.72607
0
LINE
8
BLACK
6
CONTINUOUS
10
3.49674
20
-3.72607
11
3.48549
21
-3.72044
0
LINE
8
BLACK
6
CONTINUOUS
10
3.48549
20
-3.72044
11
3.47986
21
-3.71482
0
LINE
8
BLACK
6
CONTINUOUS
10
3.6036
20
-3.71482
11
3.60922
21
-3.72044
0
LINE
8
BLACK
6
CONTINUOUS
10
3.60922
20
-3.72044
11
3.6036
21
-3.72607
0
LINE
8
BLACK
6
CONTINUOUS
10
3.6036
20
-3.72607
11
3.59798
21
-3.72044
0
LINE
8
BLACK
6
CONTINUOUS
10
3.59798
20
-3.72044
11
3.6036
21
-3.71482
0
LINE
8
BLACK
6
CONTINUOUS
10
3.6036
20
-3.71482
11
3.6036
21
-3.72607
0
LINE
8
BLACK
6
CONTINUOUS
10
3.68234
20
-3.60796
11
3.69359
21
-3.60796
0
LINE
8
BLACK
6
CONTINUOUS
10
3.69359
20
-3.60796
11
3.70484
21
-3.61358
0
LINE
8
BLACK
6
CONTINUOUS
10
3.70484
20
-3.61358
11
3.71046
21
-3.61921
0
LINE
8
BLACK
6
CONTINUOUS
10
3.71046
20
-3.61921
11
3.71609
21
-3.63046
0
LINE
8
BLACK
6
CONTINUOUS
10
3.71609
20
-3.63046
11
3.72171
21
-3.65295
0
LINE
8
BLACK
6
CONTINUOUS
10
3.72171
20
-3.65295
11
3.72171
21
-3.68107
0
LINE
8
BLACK
6
CONTINUOUS
10
3.72171
20
-3.68107
11
3.71609
21
-3.70357
0
LINE
8
BLACK
6
CONTINUOUS
10
3.71609
20
-3.70357
11
3.71046
21
-3.71482
0
LINE
8
BLACK
6
CONTINUOUS
10
3.71046
20
-3.71482
11
3.70484
21
-3.72044
0
LINE
8
BLACK
6
CONTINUOUS
10
3.70484
20
-3.72044
11
3.69359
21
-3.72607
0
LINE
8
BLACK
6
CONTINUOUS
10
3.69359
20
-3.72607
11
3.68234
21
-3.72607
0
LINE
8
BLACK
6
CONTINUOUS
10
3.68234
20
-3.72607
11
3.67109
21
-3.72044
0
LINE
8
BLACK
6
CONTINUOUS
10
3.67109
20
-3.72044
11
3.66547
21
-3.71482
0
LINE
8
BLACK
6
CONTINUOUS
10
3.66547
20
-3.71482
11
3.65984
21
-3.70357
0
LINE
8
BLACK
6
CONTINUOUS
10
3.65984
20
-3.70357
11
3.65422
21
-3.68107
0
LINE
8
BLACK
6
CONTINUOUS
10
3.65422
20
-3.68107
11
3.65422
21
-3.65295
0
LINE
8
BLACK
6
CONTINUOUS
10
3.65422
20
-3.65295
11
3.65984
21
-3.63046
0
LINE
8
BLACK
6
CONTINUOUS
10
3.65984
20
-3.63046
11
3.66547
21
-3.61921
0
LINE
8
BLACK
6
CONTINUOUS
10
3.66547
20
-3.61921
11
3.67109
21
-3.61358
0
LINE
8
BLACK
6
CONTINUOUS
10
3.67109
20
-3.61358
11
3.68234
21
-3.60796
0
LINE
8
BLACK
6
CONTINUOUS
10
3.79483
20
-3.60796
11
3.80607
21
-3.60796
0
LINE
8
BLACK
6
CONTINUOUS
10
3.80607
20
-3.60796
11
3.81732
21
-3.61358
0
LINE
8
BLACK
6
CONTINUOUS
10
3.81732
20
-3.61358
11
3.82295
21
-3.61921
0
LINE
8
BLACK
6
CONTINUOUS
10
3.82295
20
-3.61921
11
3.82857
21
-3.63046
0
LINE
8
BLACK
6
CONTINUOUS
10
3.82857
20
-3.63046
11
3.8342
21
-3.65295
0
LINE
8
BLACK
6
CONTINUOUS
10
3.8342
20
-3.65295
11
3.8342
21
-3.68107
0
LINE
8
BLACK
6
CONTINUOUS
10
3.8342
20
-3.68107
11
3.82857
21
-3.70357
0
LINE
8
BLACK
6
CONTINUOUS
10
3.82857
20
-3.70357
11
3.82295
21
-3.71482
0
LINE
8
BLACK
6
CONTINUOUS
10
3.82295
20
-3.71482
11
3.81732
21
-3.72044
0
LINE
8
BLACK
6
CONTINUOUS
10
3.81732
20
-3.72044
11
3.80607
21
-3.72607
0
LINE
8
BLACK
6
CONTINUOUS
10
3.80607
20
-3.72607
11
3.79483
21
-3.72607
0
LINE
8
BLACK
6
CONTINUOUS
10
3.79483
20
-3.72607
11
3.78358
21
-3.72044
0
LINE
8
BLACK
6
CONTINUOUS
10
3.78358
20
-3.72044
11
3.77795
21
-3.71482
0
LINE
8
BLACK
6
CONTINUOUS
10
3.77795
20
-3.71482
11
3.77233
21
-3.70357
0
LINE
8
BLACK
6
CONTINUOUS
10
3.77233
20
-3.70357
11
3.7667
21
-3.68107
0
LINE
8
BLACK
6
CONTINUOUS
10
3.7667
20
-3.68107
11
3.7667
21
-3.65295
0
LINE
8
BLACK
6
CONTINUOUS
10
3.7667
20
-3.65295
11
3.77233
21
-3.63046
0
LINE
8
BLACK
6
CONTINUOUS
10
3.77233
20
-3.63046
11
3.77795
21
-3.61921
0
LINE
8
BLACK
6
CONTINUOUS
10
3.77795
20
-3.61921
11
3.78358
21
-3.61358
0
LINE
8
BLACK
6
CONTINUOUS
10
3.78358
20
-3.61358
11
3.79483
21
-3.60796
0
LINE
8
BLACK
6
CONTINUOUS
10
3.88481
20
-3.72607
11
3.88481
21
-3.64733
0
LINE
8
BLACK
6
CONTINUOUS
10
3.88481
20
-3.65858
11
3.89044
21
-3.65295
0
LINE
8
BLACK
6
CONTINUOUS
10
3.89044
20
-3.65295
11
3.90169
21
-3.64733
0
LINE
8
BLACK
6
CONTINUOUS
10
3.90169
20
-3.64733
11
3.91856
21
-3.64733
0
LINE
8
BLACK
6
CONTINUOUS
10
3.91856
20
-3.64733
11
3.92981
21
-3.65295
0
LINE
8
BLACK
6
CONTINUOUS
10
3.92981
20
-3.65295
11
3.93543
21
-3.6642
0
LINE
8
BLACK
6
CONTINUOUS
10
3.93543
20
-3.6642
11
3.93543
21
-3.72607
0
LINE
8
BLACK
6
CONTINUOUS
10
3.93543
20
-3.6642
11
3.94106
21
-3.65295
0
LINE
8
BLACK
6
CONTINUOUS
10
3.94106
20
-3.65295
11
3.95231
21
-3.64733
0
LINE
8
BLACK
6
CONTINUOUS
10
3.95231
20
-3.64733
11
3.96918
21
-3.64733
0
LINE
8
BLACK
6
CONTINUOUS
10
3.96918
20
-3.64733
11
3.98043
21
-3.65295
0
LINE
8
BLACK
6
CONTINUOUS
10
3.98043
20
-3.65295
11
3.98605
21
-3.6642
0
LINE
8
BLACK
6
CONTINUOUS
10
3.98605
20
-3.6642
11
3.98605
21
-3.72607
0
LINE
8
BLACK
6
CONTINUOUS
10
4.04229
20
-3.72607
11
4.04229
21
-3.64733
0
LINE
8
BLACK
6
CONTINUOUS
10
4.04229
20
-3.65858
11
4.04792
21
-3.65295
0
LINE
8
BLACK
6
CONTINUOUS
10
4.04792
20
-3.65295
11
4.05917
21
-3.64733
0
LINE
8
BLACK
6
CONTINUOUS
10
4.05917
20
-3.64733
11
4.07604
21
-3.64733
0
LINE
8
BLACK
6
CONTINUOUS
10
4.07604
20
-3.64733
11
4.08729
21
-3.65295
0
LINE
8
BLACK
6
CONTINUOUS
10
4.08729
20
-3.65295
11
4.09291
21
-3.6642
0
LINE
8
BLACK
6
CONTINUOUS
10
4.09291
20
-3.6642
11
4.09291
21
-3.72607
0
LINE
8
BLACK
6
CONTINUOUS
10
4.09291
20
-3.6642
11
4.09854
21
-3.65295
0
LINE
8
BLACK
6
CONTINUOUS
10
4.09854
20
-3.65295
11
4.10979
21
-3.64733
0
LINE
8
BLACK
6
CONTINUOUS
10
4.10979
20
-3.64733
11
4.12666
21
-3.64733
0
LINE
8
BLACK
6
CONTINUOUS
10
4.12666
20
-3.64733
11
4.13791
21
-3.65295
0
LINE
8
BLACK
6
CONTINUOUS
10
4.13791
20
-3.65295
11
4.14353
21
-3.6642
0
LINE
8
BLACK
6
CONTINUOUS
10
4.14353
20
-3.6642
11
4.14353
21
-3.72607
0
LINE
8
BLACK
6
CONTINUOUS
10
4.37413
20
-3.60233
11
4.27289
21
-3.75419
0
LINE
8
BLACK
6
CONTINUOUS
10
4.52598
20
-3.60796
11
4.53723
21
-3.60796
0
LINE
8
BLACK
6
CONTINUOUS
10
4.53723
20
-3.60796
11
4.54848
21
-3.61358
0
LINE
8
BLACK
6
CONTINUOUS
10
4.54848
20
-3.61358
11
4.55411
21
-3.61921
0
LINE
8
BLACK
6
CONTINUOUS
10
4.55411
20
-3.61921
11
4.55973
21
-3.63046
0
LINE
8
BLACK
6
CONTINUOUS
10
4.55973
20
-3.63046
11
4.56535
21
-3.65295
0
LINE
8
BLACK
6
CONTINUOUS
10
4.56535
20
-3.65295
11
4.56535
21
-3.68107
0
LINE
8
BLACK
6
CONTINUOUS
10
4.56535
20
-3.68107
11
4.55973
21
-3.70357
0
LINE
8
BLACK
6
CONTINUOUS
10
4.55973
20
-3.70357
11
4.55411
21
-3.71482
0
LINE
8
BLACK
6
CONTINUOUS
10
4.55411
20
-3.71482
11
4.54848
21
-3.72044
0
LINE
8
BLACK
6
CONTINUOUS
10
4.54848
20
-3.72044
11
4.53723
21
-3.72607
0
LINE
8
BLACK
6
CONTINUOUS
10
4.53723
20
-3.72607
11
4.52598
21
-3.72607
0
LINE
8
BLACK
6
CONTINUOUS
10
4.52598
20
-3.72607
11
4.51474
21
-3.72044
0
LINE
8
BLACK
6
CONTINUOUS
10
4.51474
20
-3.72044
11
4.50911
21
-3.71482
0
LINE
8
BLACK
6
CONTINUOUS
10
4.50911
20
-3.71482
11
4.50349
21
-3.70357
0
LINE
8
BLACK
6
CONTINUOUS
10
4.50349
20
-3.70357
11
4.49786
21
-3.68107
0
LINE
8
BLACK
6
CONTINUOUS
10
4.49786
20
-3.68107
11
4.49786
21
-3.65295
0
LINE
8
BLACK
6
CONTINUOUS
10
4.49786
20
-3.65295
11
4.50349
21
-3.63046
0
LINE
8
BLACK
6
CONTINUOUS
10
4.50349
20
-3.63046
11
4.50911
21
-3.61921
0
LINE
8
BLACK
6
CONTINUOUS
10
4.50911
20
-3.61921
11
4.51474
21
-3.61358
0
LINE
8
BLACK
6
CONTINUOUS
10
4.51474
20
-3.61358
11
4.52598
21
-3.60796
0
LINE
8
BLACK
6
CONTINUOUS
10
4.61597
20
-3.71482
11
4.6216
21
-3.72044
0
LINE
8
BLACK
6
CONTINUOUS
10
4.6216
20
-3.72044
11
4.61597
21
-3.72607
0
LINE
8
BLACK
6
CONTINUOUS
10
4.61597
20
-3.72607
11
4.61035
21
-3.72044
0
LINE
8
BLACK
6
CONTINUOUS
10
4.61035
20
-3.72044
11
4.61597
21
-3.71482
0
LINE
8
BLACK
6
CONTINUOUS
10
4.61597
20
-3.71482
11
4.61597
21
-3.72607
0
LINE
8
BLACK
6
CONTINUOUS
10
4.73408
20
-3.72607
11
4.66659
21
-3.72607
0
LINE
8
BLACK
6
CONTINUOUS
10
4.70034
20
-3.72607
11
4.70034
21
-3.60796
0
LINE
8
BLACK
6
CONTINUOUS
10
4.70034
20
-3.60796
11
4.68909
21
-3.62483
0
LINE
8
BLACK
6
CONTINUOUS
10
4.68909
20
-3.62483
11
4.67784
21
-3.63608
0
LINE
8
BLACK
6
CONTINUOUS
10
4.67784
20
-3.63608
11
4.66659
21
-3.6417
0
LINE
8
BLACK
6
CONTINUOUS
10
4.84657
20
-3.72607
11
4.77908
21
-3.72607
0
LINE
8
BLACK
6
CONTINUOUS
10
4.81282
20
-3.72607
11
4.81282
21
-3.60796
0
LINE
8
BLACK
6
CONTINUOUS
10
4.81282
20
-3.60796
11
4.80157
21
-3.62483
0
LINE
8
BLACK
6
CONTINUOUS
10
4.80157
20
-3.62483
11
4.79033
21
-3.63608
0
LINE
8
BLACK
6
CONTINUOUS
10
4.79033
20
-3.63608
11
4.77908
21
-3.6417
0
LINE
8
BLACK
6
CONTINUOUS
10
4.91406
20
-3.65858
11
4.90281
21
-3.65295
0
LINE
8
BLACK
6
CONTINUOUS
10
4.90281
20
-3.65295
11
4.89719
21
-3.64733
0
LINE
8
BLACK
6
CONTINUOUS
10
4.89719
20
-3.64733
11
4.89156
21
-3.63608
0
LINE
8
BLACK
6
CONTINUOUS
10
4.89156
20
-3.63608
11
4.89156
21
-3.63046
0
LINE
8
BLACK
6
CONTINUOUS
10
4.89156
20
-3.63046
11
4.89719
21
-3.61921
0
LINE
8
BLACK
6
CONTINUOUS
10
4.89719
20
-3.61921
11
4.90281
21
-3.61358
0
LINE
8
BLACK
6
CONTINUOUS
10
4.90281
20
-3.61358
11
4.91406
21
-3.60796
0
LINE
8
BLACK
6
CONTINUOUS
10
4.91406
20
-3.60796
11
4.93656
21
-3.60796
0
LINE
8
BLACK
6
CONTINUOUS
10
4.93656
20
-3.60796
11
4.94781
21
-3.61358
0
LINE
8
BLACK
6
CONTINUOUS
10
4.94781
20
-3.61358
11
4.95343
21
-3.61921
0
LINE
8
BLACK
6
CONTINUOUS
10
4.95343
20
-3.61921
11
4.95906
21
-3.63046
0
LINE
8
BLACK
6
CONTINUOUS
10
4.95906
20
-3.63046
11
4.95906
21
-3.63608
0
LINE
8
BLACK
6
CONTINUOUS
10
4.95906
20
-3.63608
11
4.95343
21
-3.64733
0
LINE
8
BLACK
6
CONTINUOUS
10
4.95343
20
-3.64733
11
4.94781
21
-3.65295
0
LINE
8
BLACK
6
CONTINUOUS
10
4.94781
20
-3.65295
11
4.93656
21
-3.65858
0
LINE
8
BLACK
6
CONTINUOUS
10
4.93656
20
-3.65858
11
4.91406
21
-3.65858
0
LINE
8
BLACK
6
CONTINUOUS
10
4.91406
20
-3.65858
11
4.90281
21
-3.6642
0
LINE
8
BLACK
6
CONTINUOUS
10
4.90281
20
-3.6642
11
4.89719
21
-3.66983
0
LINE
8
BLACK
6
CONTINUOUS
10
4.89719
20
-3.66983
11
4.89156
21
-3.68107
0
LINE
8
BLACK
6
CONTINUOUS
10
4.89156
20
-3.68107
11
4.89156
21
-3.70357
0
LINE
8
BLACK
6
CONTINUOUS
10
4.89156
20
-3.70357
11
4.89719
21
-3.71482
0
LINE
8
BLACK
6
CONTINUOUS
10
4.89719
20
-3.71482
11
4.90281
21
-3.72044
0
LINE
8
BLACK
6
CONTINUOUS
10
4.90281
20
-3.72044
11
4.91406
21
-3.72607
0
LINE
8
BLACK
6
CONTINUOUS
10
4.91406
20
-3.72607
11
4.93656
21
-3.72607
0
LINE
8
BLACK
6
CONTINUOUS
10
4.93656
20
-3.72607
11
4.94781
21
-3.72044
0
LINE
8
BLACK
6
CONTINUOUS
10
4.94781
20
-3.72044
11
4.95343
21
-3.71482
0
LINE
8
BLACK
6
CONTINUOUS
10
4.95343
20
-3.71482
11
4.95906
21
-3.70357
0
LINE
8
BLACK
6
CONTINUOUS
10
4.95906
20
-3.70357
11
4.95906
21
-3.68107
0
LINE
8
BLACK
6
CONTINUOUS
10
4.95906
20
-3.68107
11
4.95343
21
-3.66983
0
LINE
8
BLACK
6
CONTINUOUS
10
4.95343
20
-3.66983
11
4.94781
21
-3.6642
0
LINE
8
BLACK
6
CONTINUOUS
10
4.94781
20
-3.6642
11
4.93656
21
-3.65858
0
LINE
8
BLACK
6
CONTINUOUS
10
5.00405
20
-3.60796
11
5.00405
21
-3.63046
0
LINE
8
BLACK
6
CONTINUOUS
10
5.04904
20
-3.60796
11
5.04904
21
-3.63046
0
LINE
8
BLACK
6
CONTINUOUS
10
5.2234
20
-3.77106
11
5.21777
21
-3.76544
0
LINE
8
BLACK
6
CONTINUOUS
10
5.21777
20
-3.76544
11
5.20652
21
-3.74857
0
LINE
8
BLACK
6
CONTINUOUS
10
5.20652
20
-3.74857
11
5.2009
21
-3.73732
0
LINE
8
BLACK
6
CONTINUOUS
10
5.2009
20
-3.73732
11
5.19528
21
-3.72044
0
LINE
8
BLACK
6
CONTINUOUS
10
5.19528
20
-3.72044
11
5.18965
21
-3.69232
0
LINE
8
BLACK
6
CONTINUOUS
10
5.18965
20
-3.69232
11
5.18965
21
-3.66983
0
LINE
8
BLACK
6
CONTINUOUS
10
5.18965
20
-3.66983
11
5.19528
21
-3.6417
0
LINE
8
BLACK
6
CONTINUOUS
10
5.19528
20
-3.6417
11
5.2009
21
-3.62483
0
LINE
8
BLACK
6
CONTINUOUS
10
5.2009
20
-3.62483
11
5.20652
21
-3.61358
0
LINE
8
BLACK
6
CONTINUOUS
10
5.20652
20
-3.61358
11
5.21777
21
-3.59671
0
LINE
8
BLACK
6
CONTINUOUS
10
5.21777
20
-3.59671
11
5.2234
21
-3.59109
0
LINE
8
BLACK
6
CONTINUOUS
10
5.31901
20
-3.64733
11
5.31901
21
-3.72607
0
LINE
8
BLACK
6
CONTINUOUS
10
5.29089
20
-3.60233
11
5.26277
21
-3.6867
0
LINE
8
BLACK
6
CONTINUOUS
10
5.26277
20
-3.6867
11
5.33588
21
-3.6867
0
LINE
8
BLACK
6
CONTINUOUS
10
5.47087
20
-3.72607
11
5.47087
21
-3.60796
0
LINE
8
BLACK
6
CONTINUOUS
10
5.52148
20
-3.72607
11
5.52148
21
-3.6642
0
LINE
8
BLACK
6
CONTINUOUS
10
5.52148
20
-3.6642
11
5.51586
21
-3.65295
0
LINE
8
BLACK
6
CONTINUOUS
10
5.51586
20
-3.65295
11
5.50461
21
-3.64733
0
LINE
8
BLACK
6
CONTINUOUS
10
5.50461
20
-3.64733
11
5.48774
21
-3.64733
0
LINE
8
BLACK
6
CONTINUOUS
10
5.48774
20
-3.64733
11
5.47649
21
-3.65295
0
LINE
8
BLACK
6
CONTINUOUS
10
5.47649
20
-3.65295
11
5.47087
21
-3.65858
0
LINE
8
BLACK
6
CONTINUOUS
10
5.5946
20
-3.72607
11
5.58335
21
-3.72044
0
LINE
8
BLACK
6
CONTINUOUS
10
5.58335
20
-3.72044
11
5.57773
21
-3.71482
0
LINE
8
BLACK
6
CONTINUOUS
10
5.57773
20
-3.71482
11
5.5721
21
-3.70357
0
LINE
8
BLACK
6
CONTINUOUS
10
5.5721
20
-3.70357
11
5.5721
21
-3.66983
0
LINE
8
BLACK
6
CONTINUOUS
10
5.5721
20
-3.66983
11
5.57773
21
-3.65858
0
LINE
8
BLACK
6
CONTINUOUS
10
5.57773
20
-3.65858
11
5.58335
21
-3.65295
0
LINE
8
BLACK
6
CONTINUOUS
10
5.58335
20
-3.65295
11
5.5946
21
-3.64733
0
LINE
8
BLACK
6
CONTINUOUS
10
5.5946
20
-3.64733
11
5.61147
21
-3.64733
0
LINE
8
BLACK
6
CONTINUOUS
10
5.61147
20
-3.64733
11
5.62272
21
-3.65295
0
LINE
8
BLACK
6
CONTINUOUS
10
5.62272
20
-3.65295
11
5.62835
21
-3.65858
0
LINE
8
BLACK
6
CONTINUOUS
10
5.62835
20
-3.65858
11
5.63397
21
-3.66983
0
LINE
8
BLACK
6
CONTINUOUS
10
5.63397
20
-3.66983
11
5.63397
21
-3.70357
0
LINE
8
BLACK
6
CONTINUOUS
10
5.63397
20
-3.70357
11
5.62835
21
-3.71482
0
LINE
8
BLACK
6
CONTINUOUS
10
5.62835
20
-3.71482
11
5.62272
21
-3.72044
0
LINE
8
BLACK
6
CONTINUOUS
10
5.62272
20
-3.72044
11
5.61147
21
-3.72607
0
LINE
8
BLACK
6
CONTINUOUS
10
5.61147
20
-3.72607
11
5.5946
21
-3.72607
0
LINE
8
BLACK
6
CONTINUOUS
10
5.70146
20
-3.72607
11
5.69021
21
-3.72044
0
LINE
8
BLACK
6
CONTINUOUS
10
5.69021
20
-3.72044
11
5.68459
21
-3.7092
0
LINE
8
BLACK
6
CONTINUOUS
10
5.68459
20
-3.7092
11
5.68459
21
-3.60796
0
LINE
8
BLACK
6
CONTINUOUS
10
5.79145
20
-3.72044
11
5.7802
21
-3.72607
0
LINE
8
BLACK
6
CONTINUOUS
10
5.7802
20
-3.72607
11
5.75771
21
-3.72607
0
LINE
8
BLACK
6
CONTINUOUS
10
5.75771
20
-3.72607
11
5.74646
21
-3.72044
0
LINE
8
BLACK
6
CONTINUOUS
10
5.74646
20
-3.72044
11
5.74083
21
-3.7092
0
LINE
8
BLACK
6
CONTINUOUS
10
5.74083
20
-3.7092
11
5.74083
21
-3.6642
0
LINE
8
BLACK
6
CONTINUOUS
10
5.74083
20
-3.6642
11
5.74646
21
-3.65295
0
LINE
8
BLACK
6
CONTINUOUS
10
5.74646
20
-3.65295
11
5.75771
21
-3.64733
0
LINE
8
BLACK
6
CONTINUOUS
10
5.75771
20
-3.64733
11
5.7802
21
-3.64733
0
LINE
8
BLACK
6
CONTINUOUS
10
5.7802
20
-3.64733
11
5.79145
21
-3.65295
0
LINE
8
BLACK
6
CONTINUOUS
10
5.79145
20
-3.65295
11
5.79708
21
-3.6642
0
LINE
8
BLACK
6
CONTINUOUS
10
5.79708
20
-3.6642
11
5.79708
21
-3.67545
0
LINE
8
BLACK
6
CONTINUOUS
10
5.79708
20
-3.67545
11
5.74083
21
-3.6867
0
LINE
8
BLACK
6
CONTINUOUS
10
5.84207
20
-3.72044
11
5.85332
21
-3.72607
0
LINE
8
BLACK
6
CONTINUOUS
10
5.85332
20
-3.72607
11
5.87582
21
-3.72607
0
LINE
8
BLACK
6
CONTINUOUS
10
5.87582
20
-3.72607
11
5.88706
21
-3.72044
0
LINE
8
BLACK
6
CONTINUOUS
10
5.88706
20
-3.72044
11
5.89269
21
-3.7092
0
LINE
8
BLACK
6
CONTINUOUS
10
5.89269
20
-3.7092
11
5.89269
21
-3.70357
0
LINE
8
BLACK
6
CONTINUOUS
10
5.89269
20
-3.70357
11
5.88706
21
-3.69232
0
LINE
8
BLACK
6
CONTINUOUS
10
5.88706
20
-3.69232
11
5.87582
21
-3.6867
0
LINE
8
BLACK
6
CONTINUOUS
10
5.87582
20
-3.6867
11
5.85894
21
-3.6867
0
LINE
8
BLACK
6
CONTINUOUS
10
5.85894
20
-3.6867
11
5.84769
21
-3.68107
0
LINE
8
BLACK
6
CONTINUOUS
10
5.84769
20
-3.68107
11
5.84207
21
-3.66983
0
LINE
8
BLACK
6
CONTINUOUS
10
5.84207
20
-3.66983
11
5.84207
21
-3.6642
0
LINE
8
BLACK
6
CONTINUOUS
10
5.84207
20
-3.6642
11
5.84769
21
-3.65295
0
LINE
8
BLACK
6
CONTINUOUS
10
5.84769
20
-3.65295
11
5.85894
21
-3.64733
0
LINE
8
BLACK
6
CONTINUOUS
10
5.85894
20
-3.64733
11
5.87582
21
-3.64733
0
LINE
8
BLACK
6
CONTINUOUS
10
5.87582
20
-3.64733
11
5.88706
21
-3.65295
0
LINE
8
BLACK
6
CONTINUOUS
10
5.93206
20
-3.77106
11
5.93768
21
-3.76544
0
LINE
8
BLACK
6
CONTINUOUS
10
5.93768
20
-3.76544
11
5.94893
21
-3.74857
0
LINE
8
BLACK
6
CONTINUOUS
10
5.94893
20
-3.74857
11
5.95456
21
-3.73732
0
LINE
8
BLACK
6
CONTINUOUS
10
5.95456
20
-3.73732
11
5.96018
21
-3.72044
0
LINE
8
BLACK
6
CONTINUOUS
10
5.96018
20
-3.72044
11
5.9658
21
-3.69232
0
LINE
8
BLACK
6
CONTINUOUS
10
5.9658
20
-3.69232
11
5.9658
21
-3.66983
0
LINE
8
BLACK
6
CONTINUOUS
10
5.9658
20
-3.66983
11
5.96018
21
-3.6417
0
LINE
8
BLACK
6
CONTINUOUS
10
5.96018
20
-3.6417
11
5.95456
21
-3.62483
0
LINE
8
BLACK
6
CONTINUOUS
10
5.95456
20
-3.62483
11
5.94893
21
-3.61358
0
LINE
8
BLACK
6
CONTINUOUS
10
5.94893
20
-3.61358
11
5.93768
21
-3.59671
0
LINE
8
BLACK
6
CONTINUOUS
10
5.93768
20
-3.59671
11
5.93206
21
-3.59109
  0
ENDSEC
  0
EOF
