  0
SECTION
  2
HEADER
  9
$ANGBASE
  50
0.0
  9
$ANGDIR
  70
1
  9
$MEASUREMENT
  70
1
  0
ENDSEC
  0
SECTION
  2
TABLES
  0
TABLE
  2
LTYPE
  70
4
  0
LTYPE
  5
40F
  2
CONTINUOUS
  70
0
  3
Solid line
  72
65
  73
0
  40
0.0
  0
LTYPE
  5
410
  2
DASHDOT
 70
0
  3
Dash Dot ____ _ ____ _
 72
65
 73
4
 40
2.0
 49
1.25
 49
-0.25
 49
0.25
 49
-0.25
  0
LTYPE
  5
411
  2
DASHED
 70
0
  3
Dashed __ __ __ __ __
 72
65
 73
2
 40
0.75
 49
0.5
 49
-0.25
  0
LTYPE
  5
43B
  2
DOTTED
 70
0
  3
Dotted .  .  .  .
 72
65
 73
2
 40
0.2
 49
0.0
 49
-0.2
  0
ENDTAB
  0
TABLE
  2
STYLE
  70
4
  0
STYLE
  2
KICAD
  70
0
  40
0
  41
1
  42
1
  50
0
  71
0
  3
isocp.shx
  0
STYLE
  2
KICADB
  70
0
  40
0
  41
1
  42
1
  50
0
  71
0
  3
isocp.shx
  0
STYLE
  2
KICADI
  70
0
  40
0
  41
1
  42
1
  50
15
  71
0
  3
isocp.shx
  0
STYLE
  2
KICADBI
  70
0
  40
0
  41
1
  42
1
  50
15
  71
0
  3
isocp.shx
  0
ENDTAB
  0
TABLE
  2
LAYER
  70
1
  0
LAYER
  2
BLACK
  70
0
  62
7
  6
CONTINUOUS
  0
ENDTAB
  0
ENDSEC
  0
SECTION
  2
ENTITIES
0
LINE
8
BLACK
6
CONTINUOUS
10
141.041
20
-48.3808
11
141.088
21
-48.395
0
LINE
8
BLACK
6
CONTINUOUS
10
141.088
20
-48.395
11
141.131
21
-48.4181
0
LINE
8
BLACK
6
CONTINUOUS
10
141.131
20
-48.4181
11
141.169
21
-48.4492
0
LINE
8
BLACK
6
CONTINUOUS
10
141.169
20
-48.4492
11
141.2
21
-48.4871
0
LINE
8
BLACK
6
CONTINUOUS
10
141.2
20
-48.4871
11
141.223
21
-48.5303
0
LINE
8
BLACK
6
CONTINUOUS
10
141.223
20
-48.5303
11
141.237
21
-48.5772
0
LINE
8
BLACK
6
CONTINUOUS
10
141.237
20
-48.5772
11
141.242
21
-48.626
0
LINE
8
BLACK
6
CONTINUOUS
10
141.242
20
-48.626
11
141.242
21
-49.926
0
LINE
8
BLACK
6
CONTINUOUS
10
141.242
20
-49.926
11
141.237
21
-49.9748
0
LINE
8
BLACK
6
CONTINUOUS
10
141.237
20
-49.9748
11
141.223
21
-50.0217
0
LINE
8
BLACK
6
CONTINUOUS
10
141.223
20
-50.0217
11
141.2
21
-50.0649
0
LINE
8
BLACK
6
CONTINUOUS
10
141.2
20
-50.0649
11
141.169
21
-50.1028
0
LINE
8
BLACK
6
CONTINUOUS
10
141.169
20
-50.1028
11
141.131
21
-50.1339
0
LINE
8
BLACK
6
CONTINUOUS
10
141.131
20
-50.1339
11
141.088
21
-50.157
0
LINE
8
BLACK
6
CONTINUOUS
10
141.088
20
-50.157
11
141.041
21
-50.1712
0
LINE
8
BLACK
6
CONTINUOUS
10
141.041
20
-50.1712
11
140.992
21
-50.176
0
LINE
8
BLACK
6
CONTINUOUS
10
140.992
20
-50.176
11
140.342
21
-50.176
0
LINE
8
BLACK
6
CONTINUOUS
10
140.342
20
-50.176
11
140.293
21
-50.1712
0
LINE
8
BLACK
6
CONTINUOUS
10
140.293
20
-50.1712
11
140.246
21
-50.157
0
LINE
8
BLACK
6
CONTINUOUS
10
140.246
20
-50.157
11
140.203
21
-50.1339
0
LINE
8
BLACK
6
CONTINUOUS
10
140.203
20
-50.1339
11
140.165
21
-50.1028
0
LINE
8
BLACK
6
CONTINUOUS
10
140.165
20
-50.1028
11
140.134
21
-50.0649
0
LINE
8
BLACK
6
CONTINUOUS
10
140.134
20
-50.0649
11
140.111
21
-50.0217
0
LINE
8
BLACK
6
CONTINUOUS
10
140.111
20
-50.0217
11
140.097
21
-49.9748
0
LINE
8
BLACK
6
CONTINUOUS
10
140.097
20
-49.9748
11
140.092
21
-49.926
0
LINE
8
BLACK
6
CONTINUOUS
10
140.092
20
-49.926
11
140.092
21
-48.626
0
LINE
8
BLACK
6
CONTINUOUS
10
140.092
20
-48.626
11
140.097
21
-48.5772
0
LINE
8
BLACK
6
CONTINUOUS
10
140.097
20
-48.5772
11
140.111
21
-48.5303
0
LINE
8
BLACK
6
CONTINUOUS
10
140.111
20
-48.5303
11
140.134
21
-48.4871
0
LINE
8
BLACK
6
CONTINUOUS
10
140.134
20
-48.4871
11
140.165
21
-48.4492
0
LINE
8
BLACK
6
CONTINUOUS
10
140.165
20
-48.4492
11
140.203
21
-48.4181
0
LINE
8
BLACK
6
CONTINUOUS
10
140.203
20
-48.4181
11
140.246
21
-48.395
0
LINE
8
BLACK
6
CONTINUOUS
10
140.246
20
-48.395
11
140.293
21
-48.3808
0
LINE
8
BLACK
6
CONTINUOUS
10
140.293
20
-48.3808
11
140.342
21
-48.376
0
LINE
8
BLACK
6
CONTINUOUS
10
140.342
20
-48.376
11
140.992
21
-48.376
0
LINE
8
BLACK
6
CONTINUOUS
10
140.992
20
-48.376
11
141.041
21
-48.3808
0
LINE
8
BLACK
6
CONTINUOUS
10
138.091
20
-48.3808
11
138.138
21
-48.395
0
LINE
8
BLACK
6
CONTINUOUS
10
138.138
20
-48.395
11
138.181
21
-48.4181
0
LINE
8
BLACK
6
CONTINUOUS
10
138.181
20
-48.4181
11
138.219
21
-48.4492
0
LINE
8
BLACK
6
CONTINUOUS
10
138.219
20
-48.4492
11
138.25
21
-48.4871
0
LINE
8
BLACK
6
CONTINUOUS
10
138.25
20
-48.4871
11
138.273
21
-48.5303
0
LINE
8
BLACK
6
CONTINUOUS
10
138.273
20
-48.5303
11
138.287
21
-48.5772
0
LINE
8
BLACK
6
CONTINUOUS
10
138.287
20
-48.5772
11
138.292
21
-48.626
0
LINE
8
BLACK
6
CONTINUOUS
10
138.292
20
-48.626
11
138.292
21
-49.926
0
LINE
8
BLACK
6
CONTINUOUS
10
138.292
20
-49.926
11
138.287
21
-49.9748
0
LINE
8
BLACK
6
CONTINUOUS
10
138.287
20
-49.9748
11
138.273
21
-50.0217
0
LINE
8
BLACK
6
CONTINUOUS
10
138.273
20
-50.0217
11
138.25
21
-50.0649
0
LINE
8
BLACK
6
CONTINUOUS
10
138.25
20
-50.0649
11
138.219
21
-50.1028
0
LINE
8
BLACK
6
CONTINUOUS
10
138.219
20
-50.1028
11
138.181
21
-50.1339
0
LINE
8
BLACK
6
CONTINUOUS
10
138.181
20
-50.1339
11
138.138
21
-50.157
0
LINE
8
BLACK
6
CONTINUOUS
10
138.138
20
-50.157
11
138.091
21
-50.1712
0
LINE
8
BLACK
6
CONTINUOUS
10
138.091
20
-50.1712
11
138.042
21
-50.176
0
LINE
8
BLACK
6
CONTINUOUS
10
138.042
20
-50.176
11
137.392
21
-50.176
0
LINE
8
BLACK
6
CONTINUOUS
10
137.392
20
-50.176
11
137.343
21
-50.1712
0
LINE
8
BLACK
6
CONTINUOUS
10
137.343
20
-50.1712
11
137.296
21
-50.157
0
LINE
8
BLACK
6
CONTINUOUS
10
137.296
20
-50.157
11
137.253
21
-50.1339
0
LINE
8
BLACK
6
CONTINUOUS
10
137.253
20
-50.1339
11
137.215
21
-50.1028
0
LINE
8
BLACK
6
CONTINUOUS
10
137.215
20
-50.1028
11
137.184
21
-50.0649
0
LINE
8
BLACK
6
CONTINUOUS
10
137.184
20
-50.0649
11
137.161
21
-50.0217
0
LINE
8
BLACK
6
CONTINUOUS
10
137.161
20
-50.0217
11
137.147
21
-49.9748
0
LINE
8
BLACK
6
CONTINUOUS
10
137.147
20
-49.9748
11
137.142
21
-49.926
0
LINE
8
BLACK
6
CONTINUOUS
10
137.142
20
-49.926
11
137.142
21
-48.626
0
LINE
8
BLACK
6
CONTINUOUS
10
137.142
20
-48.626
11
137.147
21
-48.5772
0
LINE
8
BLACK
6
CONTINUOUS
10
137.147
20
-48.5772
11
137.161
21
-48.5303
0
LINE
8
BLACK
6
CONTINUOUS
10
137.161
20
-48.5303
11
137.184
21
-48.4871
0
LINE
8
BLACK
6
CONTINUOUS
10
137.184
20
-48.4871
11
137.215
21
-48.4492
0
LINE
8
BLACK
6
CONTINUOUS
10
137.215
20
-48.4492
11
137.253
21
-48.4181
0
LINE
8
BLACK
6
CONTINUOUS
10
137.253
20
-48.4181
11
137.296
21
-48.395
0
LINE
8
BLACK
6
CONTINUOUS
10
137.296
20
-48.395
11
137.343
21
-48.3808
0
LINE
8
BLACK
6
CONTINUOUS
10
137.343
20
-48.3808
11
137.392
21
-48.376
0
LINE
8
BLACK
6
CONTINUOUS
10
137.392
20
-48.376
11
138.042
21
-48.376
0
LINE
8
BLACK
6
CONTINUOUS
10
138.042
20
-48.376
11
138.091
21
-48.3808
0
LINE
8
BLACK
6
CONTINUOUS
10
141.041
20
-46.0948
11
141.088
21
-46.109
0
LINE
8
BLACK
6
CONTINUOUS
10
141.088
20
-46.109
11
141.131
21
-46.1321
0
LINE
8
BLACK
6
CONTINUOUS
10
141.131
20
-46.1321
11
141.169
21
-46.1632
0
LINE
8
BLACK
6
CONTINUOUS
10
141.169
20
-46.1632
11
141.2
21
-46.2011
0
LINE
8
BLACK
6
CONTINUOUS
10
141.2
20
-46.2011
11
141.223
21
-46.2443
0
LINE
8
BLACK
6
CONTINUOUS
10
141.223
20
-46.2443
11
141.237
21
-46.2912
0
LINE
8
BLACK
6
CONTINUOUS
10
141.237
20
-46.2912
11
141.242
21
-46.34
0
LINE
8
BLACK
6
CONTINUOUS
10
141.242
20
-46.34
11
141.242
21
-47.64
0
LINE
8
BLACK
6
CONTINUOUS
10
141.242
20
-47.64
11
141.237
21
-47.6888
0
LINE
8
BLACK
6
CONTINUOUS
10
141.237
20
-47.6888
11
141.223
21
-47.7357
0
LINE
8
BLACK
6
CONTINUOUS
10
141.223
20
-47.7357
11
141.2
21
-47.7789
0
LINE
8
BLACK
6
CONTINUOUS
10
141.2
20
-47.7789
11
141.169
21
-47.8168
0
LINE
8
BLACK
6
CONTINUOUS
10
141.169
20
-47.8168
11
141.131
21
-47.8479
0
LINE
8
BLACK
6
CONTINUOUS
10
141.131
20
-47.8479
11
141.088
21
-47.871
0
LINE
8
BLACK
6
CONTINUOUS
10
141.088
20
-47.871
11
141.041
21
-47.8852
0
LINE
8
BLACK
6
CONTINUOUS
10
141.041
20
-47.8852
11
140.992
21
-47.89
0
LINE
8
BLACK
6
CONTINUOUS
10
140.992
20
-47.89
11
140.342
21
-47.89
0
LINE
8
BLACK
6
CONTINUOUS
10
140.342
20
-47.89
11
140.293
21
-47.8852
0
LINE
8
BLACK
6
CONTINUOUS
10
140.293
20
-47.8852
11
140.246
21
-47.871
0
LINE
8
BLACK
6
CONTINUOUS
10
140.246
20
-47.871
11
140.203
21
-47.8479
0
LINE
8
BLACK
6
CONTINUOUS
10
140.203
20
-47.8479
11
140.165
21
-47.8168
0
LINE
8
BLACK
6
CONTINUOUS
10
140.165
20
-47.8168
11
140.134
21
-47.7789
0
LINE
8
BLACK
6
CONTINUOUS
10
140.134
20
-47.7789
11
140.111
21
-47.7357
0
LINE
8
BLACK
6
CONTINUOUS
10
140.111
20
-47.7357
11
140.097
21
-47.6888
0
LINE
8
BLACK
6
CONTINUOUS
10
140.097
20
-47.6888
11
140.092
21
-47.64
0
LINE
8
BLACK
6
CONTINUOUS
10
140.092
20
-47.64
11
140.092
21
-46.34
0
LINE
8
BLACK
6
CONTINUOUS
10
140.092
20
-46.34
11
140.097
21
-46.2912
0
LINE
8
BLACK
6
CONTINUOUS
10
140.097
20
-46.2912
11
140.111
21
-46.2443
0
LINE
8
BLACK
6
CONTINUOUS
10
140.111
20
-46.2443
11
140.134
21
-46.2011
0
LINE
8
BLACK
6
CONTINUOUS
10
140.134
20
-46.2011
11
140.165
21
-46.1632
0
LINE
8
BLACK
6
CONTINUOUS
10
140.165
20
-46.1632
11
140.203
21
-46.1321
0
LINE
8
BLACK
6
CONTINUOUS
10
140.203
20
-46.1321
11
140.246
21
-46.109
0
LINE
8
BLACK
6
CONTINUOUS
10
140.246
20
-46.109
11
140.293
21
-46.0948
0
LINE
8
BLACK
6
CONTINUOUS
10
140.293
20
-46.0948
11
140.342
21
-46.09
0
LINE
8
BLACK
6
CONTINUOUS
10
140.342
20
-46.09
11
140.992
21
-46.09
0
LINE
8
BLACK
6
CONTINUOUS
10
140.992
20
-46.09
11
141.041
21
-46.0948
0
LINE
8
BLACK
6
CONTINUOUS
10
138.091
20
-46.0948
11
138.138
21
-46.109
0
LINE
8
BLACK
6
CONTINUOUS
10
138.138
20
-46.109
11
138.181
21
-46.1321
0
LINE
8
BLACK
6
CONTINUOUS
10
138.181
20
-46.1321
11
138.219
21
-46.1632
0
LINE
8
BLACK
6
CONTINUOUS
10
138.219
20
-46.1632
11
138.25
21
-46.2011
0
LINE
8
BLACK
6
CONTINUOUS
10
138.25
20
-46.2011
11
138.273
21
-46.2443
0
LINE
8
BLACK
6
CONTINUOUS
10
138.273
20
-46.2443
11
138.287
21
-46.2912
0
LINE
8
BLACK
6
CONTINUOUS
10
138.287
20
-46.2912
11
138.292
21
-46.34
0
LINE
8
BLACK
6
CONTINUOUS
10
138.292
20
-46.34
11
138.292
21
-47.64
0
LINE
8
BLACK
6
CONTINUOUS
10
138.292
20
-47.64
11
138.287
21
-47.6888
0
LINE
8
BLACK
6
CONTINUOUS
10
138.287
20
-47.6888
11
138.273
21
-47.7357
0
LINE
8
BLACK
6
CONTINUOUS
10
138.273
20
-47.7357
11
138.25
21
-47.7789
0
LINE
8
BLACK
6
CONTINUOUS
10
138.25
20
-47.7789
11
138.219
21
-47.8168
0
LINE
8
BLACK
6
CONTINUOUS
10
138.219
20
-47.8168
11
138.181
21
-47.8479
0
LINE
8
BLACK
6
CONTINUOUS
10
138.181
20
-47.8479
11
138.138
21
-47.871
0
LINE
8
BLACK
6
CONTINUOUS
10
138.138
20
-47.871
11
138.091
21
-47.8852
0
LINE
8
BLACK
6
CONTINUOUS
10
138.091
20
-47.8852
11
138.042
21
-47.89
0
LINE
8
BLACK
6
CONTINUOUS
10
138.042
20
-47.89
11
137.392
21
-47.89
0
LINE
8
BLACK
6
CONTINUOUS
10
137.392
20
-47.89
11
137.343
21
-47.8852
0
LINE
8
BLACK
6
CONTINUOUS
10
137.343
20
-47.8852
11
137.296
21
-47.871
0
LINE
8
BLACK
6
CONTINUOUS
10
137.296
20
-47.871
11
137.253
21
-47.8479
0
LINE
8
BLACK
6
CONTINUOUS
10
137.253
20
-47.8479
11
137.215
21
-47.8168
0
LINE
8
BLACK
6
CONTINUOUS
10
137.215
20
-47.8168
11
137.184
21
-47.7789
0
LINE
8
BLACK
6
CONTINUOUS
10
137.184
20
-47.7789
11
137.161
21
-47.7357
0
LINE
8
BLACK
6
CONTINUOUS
10
137.161
20
-47.7357
11
137.147
21
-47.6888
0
LINE
8
BLACK
6
CONTINUOUS
10
137.147
20
-47.6888
11
137.142
21
-47.64
0
LINE
8
BLACK
6
CONTINUOUS
10
137.142
20
-47.64
11
137.142
21
-46.34
0
LINE
8
BLACK
6
CONTINUOUS
10
137.142
20
-46.34
11
137.147
21
-46.2912
0
LINE
8
BLACK
6
CONTINUOUS
10
137.147
20
-46.2912
11
137.161
21
-46.2443
0
LINE
8
BLACK
6
CONTINUOUS
10
137.161
20
-46.2443
11
137.184
21
-46.2011
0
LINE
8
BLACK
6
CONTINUOUS
10
137.184
20
-46.2011
11
137.215
21
-46.1632
0
LINE
8
BLACK
6
CONTINUOUS
10
137.215
20
-46.1632
11
137.253
21
-46.1321
0
LINE
8
BLACK
6
CONTINUOUS
10
137.253
20
-46.1321
11
137.296
21
-46.109
0
LINE
8
BLACK
6
CONTINUOUS
10
137.296
20
-46.109
11
137.343
21
-46.0948
0
LINE
8
BLACK
6
CONTINUOUS
10
137.343
20
-46.0948
11
137.392
21
-46.09
0
LINE
8
BLACK
6
CONTINUOUS
10
137.392
20
-46.09
11
138.042
21
-46.09
0
LINE
8
BLACK
6
CONTINUOUS
10
138.042
20
-46.09
11
138.091
21
-46.0948
0
LINE
8
BLACK
6
CONTINUOUS
10
141.041
20
-43.8088
11
141.088
21
-43.823
0
LINE
8
BLACK
6
CONTINUOUS
10
141.088
20
-43.823
11
141.131
21
-43.8461
0
LINE
8
BLACK
6
CONTINUOUS
10
141.131
20
-43.8461
11
141.169
21
-43.8772
0
LINE
8
BLACK
6
CONTINUOUS
10
141.169
20
-43.8772
11
141.2
21
-43.9151
0
LINE
8
BLACK
6
CONTINUOUS
10
141.2
20
-43.9151
11
141.223
21
-43.9583
0
LINE
8
BLACK
6
CONTINUOUS
10
141.223
20
-43.9583
11
141.237
21
-44.0052
0
LINE
8
BLACK
6
CONTINUOUS
10
141.237
20
-44.0052
11
141.242
21
-44.054
0
LINE
8
BLACK
6
CONTINUOUS
10
141.242
20
-44.054
11
141.242
21
-45.354
0
LINE
8
BLACK
6
CONTINUOUS
10
141.242
20
-45.354
11
141.237
21
-45.4028
0
LINE
8
BLACK
6
CONTINUOUS
10
141.237
20
-45.4028
11
141.223
21
-45.4497
0
LINE
8
BLACK
6
CONTINUOUS
10
141.223
20
-45.4497
11
141.2
21
-45.4929
0
LINE
8
BLACK
6
CONTINUOUS
10
141.2
20
-45.4929
11
141.169
21
-45.5308
0
LINE
8
BLACK
6
CONTINUOUS
10
141.169
20
-45.5308
11
141.131
21
-45.5619
0
LINE
8
BLACK
6
CONTINUOUS
10
141.131
20
-45.5619
11
141.088
21
-45.585
0
LINE
8
BLACK
6
CONTINUOUS
10
141.088
20
-45.585
11
141.041
21
-45.5992
0
LINE
8
BLACK
6
CONTINUOUS
10
141.041
20
-45.5992
11
140.992
21
-45.604
0
LINE
8
BLACK
6
CONTINUOUS
10
140.992
20
-45.604
11
140.342
21
-45.604
0
LINE
8
BLACK
6
CONTINUOUS
10
140.342
20
-45.604
11
140.293
21
-45.5992
0
LINE
8
BLACK
6
CONTINUOUS
10
140.293
20
-45.5992
11
140.246
21
-45.585
0
LINE
8
BLACK
6
CONTINUOUS
10
140.246
20
-45.585
11
140.203
21
-45.5619
0
LINE
8
BLACK
6
CONTINUOUS
10
140.203
20
-45.5619
11
140.165
21
-45.5308
0
LINE
8
BLACK
6
CONTINUOUS
10
140.165
20
-45.5308
11
140.134
21
-45.4929
0
LINE
8
BLACK
6
CONTINUOUS
10
140.134
20
-45.4929
11
140.111
21
-45.4497
0
LINE
8
BLACK
6
CONTINUOUS
10
140.111
20
-45.4497
11
140.097
21
-45.4028
0
LINE
8
BLACK
6
CONTINUOUS
10
140.097
20
-45.4028
11
140.092
21
-45.354
0
LINE
8
BLACK
6
CONTINUOUS
10
140.092
20
-45.354
11
140.092
21
-44.054
0
LINE
8
BLACK
6
CONTINUOUS
10
140.092
20
-44.054
11
140.097
21
-44.0052
0
LINE
8
BLACK
6
CONTINUOUS
10
140.097
20
-44.0052
11
140.111
21
-43.9583
0
LINE
8
BLACK
6
CONTINUOUS
10
140.111
20
-43.9583
11
140.134
21
-43.9151
0
LINE
8
BLACK
6
CONTINUOUS
10
140.134
20
-43.9151
11
140.165
21
-43.8772
0
LINE
8
BLACK
6
CONTINUOUS
10
140.165
20
-43.8772
11
140.203
21
-43.8461
0
LINE
8
BLACK
6
CONTINUOUS
10
140.203
20
-43.8461
11
140.246
21
-43.823
0
LINE
8
BLACK
6
CONTINUOUS
10
140.246
20
-43.823
11
140.293
21
-43.8088
0
LINE
8
BLACK
6
CONTINUOUS
10
140.293
20
-43.8088
11
140.342
21
-43.804
0
LINE
8
BLACK
6
CONTINUOUS
10
140.342
20
-43.804
11
140.992
21
-43.804
0
LINE
8
BLACK
6
CONTINUOUS
10
140.992
20
-43.804
11
141.041
21
-43.8088
0
LINE
8
BLACK
6
CONTINUOUS
10
138.091
20
-43.8088
11
138.138
21
-43.823
0
LINE
8
BLACK
6
CONTINUOUS
10
138.138
20
-43.823
11
138.181
21
-43.8461
0
LINE
8
BLACK
6
CONTINUOUS
10
138.181
20
-43.8461
11
138.219
21
-43.8772
0
LINE
8
BLACK
6
CONTINUOUS
10
138.219
20
-43.8772
11
138.25
21
-43.9151
0
LINE
8
BLACK
6
CONTINUOUS
10
138.25
20
-43.9151
11
138.273
21
-43.9583
0
LINE
8
BLACK
6
CONTINUOUS
10
138.273
20
-43.9583
11
138.287
21
-44.0052
0
LINE
8
BLACK
6
CONTINUOUS
10
138.287
20
-44.0052
11
138.292
21
-44.054
0
LINE
8
BLACK
6
CONTINUOUS
10
138.292
20
-44.054
11
138.292
21
-45.354
0
LINE
8
BLACK
6
CONTINUOUS
10
138.292
20
-45.354
11
138.287
21
-45.4028
0
LINE
8
BLACK
6
CONTINUOUS
10
138.287
20
-45.4028
11
138.273
21
-45.4497
0
LINE
8
BLACK
6
CONTINUOUS
10
138.273
20
-45.4497
11
138.25
21
-45.4929
0
LINE
8
BLACK
6
CONTINUOUS
10
138.25
20
-45.4929
11
138.219
21
-45.5308
0
LINE
8
BLACK
6
CONTINUOUS
10
138.219
20
-45.5308
11
138.181
21
-45.5619
0
LINE
8
BLACK
6
CONTINUOUS
10
138.181
20
-45.5619
11
138.138
21
-45.585
0
LINE
8
BLACK
6
CONTINUOUS
10
138.138
20
-45.585
11
138.091
21
-45.5992
0
LINE
8
BLACK
6
CONTINUOUS
10
138.091
20
-45.5992
11
138.042
21
-45.604
0
LINE
8
BLACK
6
CONTINUOUS
10
138.042
20
-45.604
11
137.392
21
-45.604
0
LINE
8
BLACK
6
CONTINUOUS
10
137.392
20
-45.604
11
137.343
21
-45.5992
0
LINE
8
BLACK
6
CONTINUOUS
10
137.343
20
-45.5992
11
137.296
21
-45.585
0
LINE
8
BLACK
6
CONTINUOUS
10
137.296
20
-45.585
11
137.253
21
-45.5619
0
LINE
8
BLACK
6
CONTINUOUS
10
137.253
20
-45.5619
11
137.215
21
-45.5308
0
LINE
8
BLACK
6
CONTINUOUS
10
137.215
20
-45.5308
11
137.184
21
-45.4929
0
LINE
8
BLACK
6
CONTINUOUS
10
137.184
20
-45.4929
11
137.161
21
-45.4497
0
LINE
8
BLACK
6
CONTINUOUS
10
137.161
20
-45.4497
11
137.147
21
-45.4028
0
LINE
8
BLACK
6
CONTINUOUS
10
137.147
20
-45.4028
11
137.142
21
-45.354
0
LINE
8
BLACK
6
CONTINUOUS
10
137.142
20
-45.354
11
137.142
21
-44.054
0
LINE
8
BLACK
6
CONTINUOUS
10
137.142
20
-44.054
11
137.147
21
-44.0052
0
LINE
8
BLACK
6
CONTINUOUS
10
137.147
20
-44.0052
11
137.161
21
-43.9583
0
LINE
8
BLACK
6
CONTINUOUS
10
137.161
20
-43.9583
11
137.184
21
-43.9151
0
LINE
8
BLACK
6
CONTINUOUS
10
137.184
20
-43.9151
11
137.215
21
-43.8772
0
LINE
8
BLACK
6
CONTINUOUS
10
137.215
20
-43.8772
11
137.253
21
-43.8461
0
LINE
8
BLACK
6
CONTINUOUS
10
137.253
20
-43.8461
11
137.296
21
-43.823
0
LINE
8
BLACK
6
CONTINUOUS
10
137.296
20
-43.823
11
137.343
21
-43.8088
0
LINE
8
BLACK
6
CONTINUOUS
10
137.343
20
-43.8088
11
137.392
21
-43.804
0
LINE
8
BLACK
6
CONTINUOUS
10
137.392
20
-43.804
11
138.042
21
-43.804
0
LINE
8
BLACK
6
CONTINUOUS
10
138.042
20
-43.804
11
138.091
21
-43.8088
0
LINE
8
BLACK
6
CONTINUOUS
10
112.259
20
-44.3468
11
112.306
21
-44.361
0
LINE
8
BLACK
6
CONTINUOUS
10
112.306
20
-44.361
11
112.349
21
-44.3841
0
LINE
8
BLACK
6
CONTINUOUS
10
112.349
20
-44.3841
11
112.387
21
-44.4152
0
LINE
8
BLACK
6
CONTINUOUS
10
112.387
20
-44.4152
11
112.418
21
-44.4531
0
LINE
8
BLACK
6
CONTINUOUS
10
112.418
20
-44.4531
11
112.441
21
-44.4963
0
LINE
8
BLACK
6
CONTINUOUS
10
112.441
20
-44.4963
11
112.455
21
-44.5432
0
LINE
8
BLACK
6
CONTINUOUS
10
112.455
20
-44.5432
11
112.46
21
-44.592
0
LINE
8
BLACK
6
CONTINUOUS
10
112.46
20
-44.592
11
112.46
21
-45.117
0
LINE
8
BLACK
6
CONTINUOUS
10
112.46
20
-45.117
11
112.455
21
-45.1658
0
LINE
8
BLACK
6
CONTINUOUS
10
112.455
20
-45.1658
11
112.441
21
-45.2127
0
LINE
8
BLACK
6
CONTINUOUS
10
112.441
20
-45.2127
11
112.418
21
-45.2559
0
LINE
8
BLACK
6
CONTINUOUS
10
112.418
20
-45.2559
11
112.387
21
-45.2938
0
LINE
8
BLACK
6
CONTINUOUS
10
112.387
20
-45.2938
11
112.349
21
-45.3249
0
LINE
8
BLACK
6
CONTINUOUS
10
112.349
20
-45.3249
11
112.306
21
-45.348
0
LINE
8
BLACK
6
CONTINUOUS
10
112.306
20
-45.348
11
112.259
21
-45.3622
0
LINE
8
BLACK
6
CONTINUOUS
10
112.259
20
-45.3622
11
112.21
21
-45.367
0
LINE
8
BLACK
6
CONTINUOUS
10
112.21
20
-45.367
11
111.31
21
-45.367
0
LINE
8
BLACK
6
CONTINUOUS
10
111.31
20
-45.367
11
111.261
21
-45.3622
0
LINE
8
BLACK
6
CONTINUOUS
10
111.261
20
-45.3622
11
111.214
21
-45.348
0
LINE
8
BLACK
6
CONTINUOUS
10
111.214
20
-45.348
11
111.171
21
-45.3249
0
LINE
8
BLACK
6
CONTINUOUS
10
111.171
20
-45.3249
11
111.133
21
-45.2938
0
LINE
8
BLACK
6
CONTINUOUS
10
111.133
20
-45.2938
11
111.102
21
-45.2559
0
LINE
8
BLACK
6
CONTINUOUS
10
111.102
20
-45.2559
11
111.079
21
-45.2127
0
LINE
8
BLACK
6
CONTINUOUS
10
111.079
20
-45.2127
11
111.065
21
-45.1658
0
LINE
8
BLACK
6
CONTINUOUS
10
111.065
20
-45.1658
11
111.06
21
-45.117
0
LINE
8
BLACK
6
CONTINUOUS
10
111.06
20
-45.117
11
111.06
21
-44.592
0
LINE
8
BLACK
6
CONTINUOUS
10
111.06
20
-44.592
11
111.065
21
-44.5432
0
LINE
8
BLACK
6
CONTINUOUS
10
111.065
20
-44.5432
11
111.079
21
-44.4963
0
LINE
8
BLACK
6
CONTINUOUS
10
111.079
20
-44.4963
11
111.102
21
-44.4531
0
LINE
8
BLACK
6
CONTINUOUS
10
111.102
20
-44.4531
11
111.133
21
-44.4152
0
LINE
8
BLACK
6
CONTINUOUS
10
111.133
20
-44.4152
11
111.171
21
-44.3841
0
LINE
8
BLACK
6
CONTINUOUS
10
111.171
20
-44.3841
11
111.214
21
-44.361
0
LINE
8
BLACK
6
CONTINUOUS
10
111.214
20
-44.361
11
111.261
21
-44.3468
0
LINE
8
BLACK
6
CONTINUOUS
10
111.261
20
-44.3468
11
111.31
21
-44.342
0
LINE
8
BLACK
6
CONTINUOUS
10
111.31
20
-44.342
11
112.21
21
-44.342
0
LINE
8
BLACK
6
CONTINUOUS
10
112.21
20
-44.342
11
112.259
21
-44.3468
0
LINE
8
BLACK
6
CONTINUOUS
10
114.545
20
-44.3468
11
114.592
21
-44.361
0
LINE
8
BLACK
6
CONTINUOUS
10
114.592
20
-44.361
11
114.635
21
-44.3841
0
LINE
8
BLACK
6
CONTINUOUS
10
114.635
20
-44.3841
11
114.673
21
-44.4152
0
LINE
8
BLACK
6
CONTINUOUS
10
114.673
20
-44.4152
11
114.704
21
-44.4531
0
LINE
8
BLACK
6
CONTINUOUS
10
114.704
20
-44.4531
11
114.727
21
-44.4963
0
LINE
8
BLACK
6
CONTINUOUS
10
114.727
20
-44.4963
11
114.741
21
-44.5432
0
LINE
8
BLACK
6
CONTINUOUS
10
114.741
20
-44.5432
11
114.746
21
-44.592
0
LINE
8
BLACK
6
CONTINUOUS
10
114.746
20
-44.592
11
114.746
21
-45.117
0
LINE
8
BLACK
6
CONTINUOUS
10
114.746
20
-45.117
11
114.741
21
-45.1658
0
LINE
8
BLACK
6
CONTINUOUS
10
114.741
20
-45.1658
11
114.727
21
-45.2127
0
LINE
8
BLACK
6
CONTINUOUS
10
114.727
20
-45.2127
11
114.704
21
-45.2559
0
LINE
8
BLACK
6
CONTINUOUS
10
114.704
20
-45.2559
11
114.673
21
-45.2938
0
LINE
8
BLACK
6
CONTINUOUS
10
114.673
20
-45.2938
11
114.635
21
-45.3249
0
LINE
8
BLACK
6
CONTINUOUS
10
114.635
20
-45.3249
11
114.592
21
-45.348
0
LINE
8
BLACK
6
CONTINUOUS
10
114.592
20
-45.348
11
114.545
21
-45.3622
0
LINE
8
BLACK
6
CONTINUOUS
10
114.545
20
-45.3622
11
114.496
21
-45.367
0
LINE
8
BLACK
6
CONTINUOUS
10
114.496
20
-45.367
11
113.596
21
-45.367
0
LINE
8
BLACK
6
CONTINUOUS
10
113.596
20
-45.367
11
113.547
21
-45.3622
0
LINE
8
BLACK
6
CONTINUOUS
10
113.547
20
-45.3622
11
113.5
21
-45.348
0
LINE
8
BLACK
6
CONTINUOUS
10
113.5
20
-45.348
11
113.457
21
-45.3249
0
LINE
8
BLACK
6
CONTINUOUS
10
113.457
20
-45.3249
11
113.419
21
-45.2938
0
LINE
8
BLACK
6
CONTINUOUS
10
113.419
20
-45.2938
11
113.388
21
-45.2559
0
LINE
8
BLACK
6
CONTINUOUS
10
113.388
20
-45.2559
11
113.365
21
-45.2127
0
LINE
8
BLACK
6
CONTINUOUS
10
113.365
20
-45.2127
11
113.351
21
-45.1658
0
LINE
8
BLACK
6
CONTINUOUS
10
113.351
20
-45.1658
11
113.346
21
-45.117
0
LINE
8
BLACK
6
CONTINUOUS
10
113.346
20
-45.117
11
113.346
21
-44.592
0
LINE
8
BLACK
6
CONTINUOUS
10
113.346
20
-44.592
11
113.351
21
-44.5432
0
LINE
8
BLACK
6
CONTINUOUS
10
113.351
20
-44.5432
11
113.365
21
-44.4963
0
LINE
8
BLACK
6
CONTINUOUS
10
113.365
20
-44.4963
11
113.388
21
-44.4531
0
LINE
8
BLACK
6
CONTINUOUS
10
113.388
20
-44.4531
11
113.419
21
-44.4152
0
LINE
8
BLACK
6
CONTINUOUS
10
113.419
20
-44.4152
11
113.457
21
-44.3841
0
LINE
8
BLACK
6
CONTINUOUS
10
113.457
20
-44.3841
11
113.5
21
-44.361
0
LINE
8
BLACK
6
CONTINUOUS
10
113.5
20
-44.361
11
113.547
21
-44.3468
0
LINE
8
BLACK
6
CONTINUOUS
10
113.547
20
-44.3468
11
113.596
21
-44.342
0
LINE
8
BLACK
6
CONTINUOUS
10
113.596
20
-44.342
11
114.496
21
-44.342
0
LINE
8
BLACK
6
CONTINUOUS
10
114.496
20
-44.342
11
114.545
21
-44.3468
0
LINE
8
BLACK
6
CONTINUOUS
10
152.845
20
-43.0688
11
152.892
21
-43.083
0
LINE
8
BLACK
6
CONTINUOUS
10
152.892
20
-43.083
11
152.935
21
-43.1061
0
LINE
8
BLACK
6
CONTINUOUS
10
152.935
20
-43.1061
11
152.973
21
-43.1372
0
LINE
8
BLACK
6
CONTINUOUS
10
152.973
20
-43.1372
11
153.004
21
-43.1751
0
LINE
8
BLACK
6
CONTINUOUS
10
153.004
20
-43.1751
11
153.027
21
-43.2183
0
LINE
8
BLACK
6
CONTINUOUS
10
153.027
20
-43.2183
11
153.041
21
-43.2652
0
LINE
8
BLACK
6
CONTINUOUS
10
153.041
20
-43.2652
11
153.046
21
-43.314
0
LINE
8
BLACK
6
CONTINUOUS
10
153.046
20
-43.314
11
153.046
21
-43.964
0
LINE
8
BLACK
6
CONTINUOUS
10
153.046
20
-43.964
11
153.041
21
-44.0128
0
LINE
8
BLACK
6
CONTINUOUS
10
153.041
20
-44.0128
11
153.027
21
-44.0597
0
LINE
8
BLACK
6
CONTINUOUS
10
153.027
20
-44.0597
11
153.004
21
-44.1029
0
LINE
8
BLACK
6
CONTINUOUS
10
153.004
20
-44.1029
11
152.973
21
-44.1408
0
LINE
8
BLACK
6
CONTINUOUS
10
152.973
20
-44.1408
11
152.935
21
-44.1719
0
LINE
8
BLACK
6
CONTINUOUS
10
152.935
20
-44.1719
11
152.892
21
-44.195
0
LINE
8
BLACK
6
CONTINUOUS
10
152.892
20
-44.195
11
152.845
21
-44.2092
0
LINE
8
BLACK
6
CONTINUOUS
10
152.845
20
-44.2092
11
152.796
21
-44.214
0
LINE
8
BLACK
6
CONTINUOUS
10
152.796
20
-44.214
11
151.496
21
-44.214
0
LINE
8
BLACK
6
CONTINUOUS
10
151.496
20
-44.214
11
151.447
21
-44.2092
0
LINE
8
BLACK
6
CONTINUOUS
10
151.447
20
-44.2092
11
151.4
21
-44.195
0
LINE
8
BLACK
6
CONTINUOUS
10
151.4
20
-44.195
11
151.357
21
-44.1719
0
LINE
8
BLACK
6
CONTINUOUS
10
151.357
20
-44.1719
11
151.319
21
-44.1408
0
LINE
8
BLACK
6
CONTINUOUS
10
151.319
20
-44.1408
11
151.288
21
-44.1029
0
LINE
8
BLACK
6
CONTINUOUS
10
151.288
20
-44.1029
11
151.265
21
-44.0597
0
LINE
8
BLACK
6
CONTINUOUS
10
151.265
20
-44.0597
11
151.251
21
-44.0128
0
LINE
8
BLACK
6
CONTINUOUS
10
151.251
20
-44.0128
11
151.246
21
-43.964
0
LINE
8
BLACK
6
CONTINUOUS
10
151.246
20
-43.964
11
151.246
21
-43.314
0
LINE
8
BLACK
6
CONTINUOUS
10
151.246
20
-43.314
11
151.251
21
-43.2652
0
LINE
8
BLACK
6
CONTINUOUS
10
151.251
20
-43.2652
11
151.265
21
-43.2183
0
LINE
8
BLACK
6
CONTINUOUS
10
151.265
20
-43.2183
11
151.288
21
-43.1751
0
LINE
8
BLACK
6
CONTINUOUS
10
151.288
20
-43.1751
11
151.319
21
-43.1372
0
LINE
8
BLACK
6
CONTINUOUS
10
151.319
20
-43.1372
11
151.357
21
-43.1061
0
LINE
8
BLACK
6
CONTINUOUS
10
151.357
20
-43.1061
11
151.4
21
-43.083
0
LINE
8
BLACK
6
CONTINUOUS
10
151.4
20
-43.083
11
151.447
21
-43.0688
0
LINE
8
BLACK
6
CONTINUOUS
10
151.447
20
-43.0688
11
151.496
21
-43.064
0
LINE
8
BLACK
6
CONTINUOUS
10
151.496
20
-43.064
11
152.796
21
-43.064
0
LINE
8
BLACK
6
CONTINUOUS
10
152.796
20
-43.064
11
152.845
21
-43.0688
0
LINE
8
BLACK
6
CONTINUOUS
10
112.259
20
-42.5218
11
112.306
21
-42.536
0
LINE
8
BLACK
6
CONTINUOUS
10
112.306
20
-42.536
11
112.349
21
-42.5591
0
LINE
8
BLACK
6
CONTINUOUS
10
112.349
20
-42.5591
11
112.387
21
-42.5902
0
LINE
8
BLACK
6
CONTINUOUS
10
112.387
20
-42.5902
11
112.418
21
-42.6281
0
LINE
8
BLACK
6
CONTINUOUS
10
112.418
20
-42.6281
11
112.441
21
-42.6713
0
LINE
8
BLACK
6
CONTINUOUS
10
112.441
20
-42.6713
11
112.455
21
-42.7182
0
LINE
8
BLACK
6
CONTINUOUS
10
112.455
20
-42.7182
11
112.46
21
-42.767
0
LINE
8
BLACK
6
CONTINUOUS
10
112.46
20
-42.767
11
112.46
21
-43.292
0
LINE
8
BLACK
6
CONTINUOUS
10
112.46
20
-43.292
11
112.455
21
-43.3408
0
LINE
8
BLACK
6
CONTINUOUS
10
112.455
20
-43.3408
11
112.441
21
-43.3877
0
LINE
8
BLACK
6
CONTINUOUS
10
112.441
20
-43.3877
11
112.418
21
-43.4309
0
LINE
8
BLACK
6
CONTINUOUS
10
112.418
20
-43.4309
11
112.387
21
-43.4688
0
LINE
8
BLACK
6
CONTINUOUS
10
112.387
20
-43.4688
11
112.349
21
-43.4999
0
LINE
8
BLACK
6
CONTINUOUS
10
112.349
20
-43.4999
11
112.306
21
-43.523
0
LINE
8
BLACK
6
CONTINUOUS
10
112.306
20
-43.523
11
112.259
21
-43.5372
0
LINE
8
BLACK
6
CONTINUOUS
10
112.259
20
-43.5372
11
112.21
21
-43.542
0
LINE
8
BLACK
6
CONTINUOUS
10
112.21
20
-43.542
11
111.31
21
-43.542
0
LINE
8
BLACK
6
CONTINUOUS
10
111.31
20
-43.542
11
111.261
21
-43.5372
0
LINE
8
BLACK
6
CONTINUOUS
10
111.261
20
-43.5372
11
111.214
21
-43.523
0
LINE
8
BLACK
6
CONTINUOUS
10
111.214
20
-43.523
11
111.171
21
-43.4999
0
LINE
8
BLACK
6
CONTINUOUS
10
111.171
20
-43.4999
11
111.133
21
-43.4688
0
LINE
8
BLACK
6
CONTINUOUS
10
111.133
20
-43.4688
11
111.102
21
-43.4309
0
LINE
8
BLACK
6
CONTINUOUS
10
111.102
20
-43.4309
11
111.079
21
-43.3877
0
LINE
8
BLACK
6
CONTINUOUS
10
111.079
20
-43.3877
11
111.065
21
-43.3408
0
LINE
8
BLACK
6
CONTINUOUS
10
111.065
20
-43.3408
11
111.06
21
-43.292
0
LINE
8
BLACK
6
CONTINUOUS
10
111.06
20
-43.292
11
111.06
21
-42.767
0
LINE
8
BLACK
6
CONTINUOUS
10
111.06
20
-42.767
11
111.065
21
-42.7182
0
LINE
8
BLACK
6
CONTINUOUS
10
111.065
20
-42.7182
11
111.079
21
-42.6713
0
LINE
8
BLACK
6
CONTINUOUS
10
111.079
20
-42.6713
11
111.102
21
-42.6281
0
LINE
8
BLACK
6
CONTINUOUS
10
111.102
20
-42.6281
11
111.133
21
-42.5902
0
LINE
8
BLACK
6
CONTINUOUS
10
111.133
20
-42.5902
11
111.171
21
-42.5591
0
LINE
8
BLACK
6
CONTINUOUS
10
111.171
20
-42.5591
11
111.214
21
-42.536
0
LINE
8
BLACK
6
CONTINUOUS
10
111.214
20
-42.536
11
111.261
21
-42.5218
0
LINE
8
BLACK
6
CONTINUOUS
10
111.261
20
-42.5218
11
111.31
21
-42.517
0
LINE
8
BLACK
6
CONTINUOUS
10
111.31
20
-42.517
11
112.21
21
-42.517
0
LINE
8
BLACK
6
CONTINUOUS
10
112.21
20
-42.517
11
112.259
21
-42.5218
0
LINE
8
BLACK
6
CONTINUOUS
10
114.545
20
-42.5218
11
114.592
21
-42.536
0
LINE
8
BLACK
6
CONTINUOUS
10
114.592
20
-42.536
11
114.635
21
-42.5591
0
LINE
8
BLACK
6
CONTINUOUS
10
114.635
20
-42.5591
11
114.673
21
-42.5902
0
LINE
8
BLACK
6
CONTINUOUS
10
114.673
20
-42.5902
11
114.704
21
-42.6281
0
LINE
8
BLACK
6
CONTINUOUS
10
114.704
20
-42.6281
11
114.727
21
-42.6713
0
LINE
8
BLACK
6
CONTINUOUS
10
114.727
20
-42.6713
11
114.741
21
-42.7182
0
LINE
8
BLACK
6
CONTINUOUS
10
114.741
20
-42.7182
11
114.746
21
-42.767
0
LINE
8
BLACK
6
CONTINUOUS
10
114.746
20
-42.767
11
114.746
21
-43.292
0
LINE
8
BLACK
6
CONTINUOUS
10
114.746
20
-43.292
11
114.741
21
-43.3408
0
LINE
8
BLACK
6
CONTINUOUS
10
114.741
20
-43.3408
11
114.727
21
-43.3877
0
LINE
8
BLACK
6
CONTINUOUS
10
114.727
20
-43.3877
11
114.704
21
-43.4309
0
LINE
8
BLACK
6
CONTINUOUS
10
114.704
20
-43.4309
11
114.673
21
-43.4688
0
LINE
8
BLACK
6
CONTINUOUS
10
114.673
20
-43.4688
11
114.635
21
-43.4999
0
LINE
8
BLACK
6
CONTINUOUS
10
114.635
20
-43.4999
11
114.592
21
-43.523
0
LINE
8
BLACK
6
CONTINUOUS
10
114.592
20
-43.523
11
114.545
21
-43.5372
0
LINE
8
BLACK
6
CONTINUOUS
10
114.545
20
-43.5372
11
114.496
21
-43.542
0
LINE
8
BLACK
6
CONTINUOUS
10
114.496
20
-43.542
11
113.596
21
-43.542
0
LINE
8
BLACK
6
CONTINUOUS
10
113.596
20
-43.542
11
113.547
21
-43.5372
0
LINE
8
BLACK
6
CONTINUOUS
10
113.547
20
-43.5372
11
113.5
21
-43.523
0
LINE
8
BLACK
6
CONTINUOUS
10
113.5
20
-43.523
11
113.457
21
-43.4999
0
LINE
8
BLACK
6
CONTINUOUS
10
113.457
20
-43.4999
11
113.419
21
-43.4688
0
LINE
8
BLACK
6
CONTINUOUS
10
113.419
20
-43.4688
11
113.388
21
-43.4309
0
LINE
8
BLACK
6
CONTINUOUS
10
113.388
20
-43.4309
11
113.365
21
-43.3877
0
LINE
8
BLACK
6
CONTINUOUS
10
113.365
20
-43.3877
11
113.351
21
-43.3408
0
LINE
8
BLACK
6
CONTINUOUS
10
113.351
20
-43.3408
11
113.346
21
-43.292
0
LINE
8
BLACK
6
CONTINUOUS
10
113.346
20
-43.292
11
113.346
21
-42.767
0
LINE
8
BLACK
6
CONTINUOUS
10
113.346
20
-42.767
11
113.351
21
-42.7182
0
LINE
8
BLACK
6
CONTINUOUS
10
113.351
20
-42.7182
11
113.365
21
-42.6713
0
LINE
8
BLACK
6
CONTINUOUS
10
113.365
20
-42.6713
11
113.388
21
-42.6281
0
LINE
8
BLACK
6
CONTINUOUS
10
113.388
20
-42.6281
11
113.419
21
-42.5902
0
LINE
8
BLACK
6
CONTINUOUS
10
113.419
20
-42.5902
11
113.457
21
-42.5591
0
LINE
8
BLACK
6
CONTINUOUS
10
113.457
20
-42.5591
11
113.5
21
-42.536
0
LINE
8
BLACK
6
CONTINUOUS
10
113.5
20
-42.536
11
113.547
21
-42.5218
0
LINE
8
BLACK
6
CONTINUOUS
10
113.547
20
-42.5218
11
113.596
21
-42.517
0
LINE
8
BLACK
6
CONTINUOUS
10
113.596
20
-42.517
11
114.496
21
-42.517
0
LINE
8
BLACK
6
CONTINUOUS
10
114.496
20
-42.517
11
114.545
21
-42.5218
0
LINE
8
BLACK
6
CONTINUOUS
10
141.041
20
-41.5228
11
141.088
21
-41.537
0
LINE
8
BLACK
6
CONTINUOUS
10
141.088
20
-41.537
11
141.131
21
-41.5601
0
LINE
8
BLACK
6
CONTINUOUS
10
141.131
20
-41.5601
11
141.169
21
-41.5912
0
LINE
8
BLACK
6
CONTINUOUS
10
141.169
20
-41.5912
11
141.2
21
-41.6291
0
LINE
8
BLACK
6
CONTINUOUS
10
141.2
20
-41.6291
11
141.223
21
-41.6723
0
LINE
8
BLACK
6
CONTINUOUS
10
141.223
20
-41.6723
11
141.237
21
-41.7192
0
LINE
8
BLACK
6
CONTINUOUS
10
141.237
20
-41.7192
11
141.242
21
-41.768
0
LINE
8
BLACK
6
CONTINUOUS
10
141.242
20
-41.768
11
141.242
21
-43.068
0
LINE
8
BLACK
6
CONTINUOUS
10
141.242
20
-43.068
11
141.237
21
-43.1168
0
LINE
8
BLACK
6
CONTINUOUS
10
141.237
20
-43.1168
11
141.223
21
-43.1637
0
LINE
8
BLACK
6
CONTINUOUS
10
141.223
20
-43.1637
11
141.2
21
-43.2069
0
LINE
8
BLACK
6
CONTINUOUS
10
141.2
20
-43.2069
11
141.169
21
-43.2448
0
LINE
8
BLACK
6
CONTINUOUS
10
141.169
20
-43.2448
11
141.131
21
-43.2759
0
LINE
8
BLACK
6
CONTINUOUS
10
141.131
20
-43.2759
11
141.088
21
-43.299
0
LINE
8
BLACK
6
CONTINUOUS
10
141.088
20
-43.299
11
141.041
21
-43.3132
0
LINE
8
BLACK
6
CONTINUOUS
10
141.041
20
-43.3132
11
140.992
21
-43.318
0
LINE
8
BLACK
6
CONTINUOUS
10
140.992
20
-43.318
11
140.342
21
-43.318
0
LINE
8
BLACK
6
CONTINUOUS
10
140.342
20
-43.318
11
140.293
21
-43.3132
0
LINE
8
BLACK
6
CONTINUOUS
10
140.293
20
-43.3132
11
140.246
21
-43.299
0
LINE
8
BLACK
6
CONTINUOUS
10
140.246
20
-43.299
11
140.203
21
-43.2759
0
LINE
8
BLACK
6
CONTINUOUS
10
140.203
20
-43.2759
11
140.165
21
-43.2448
0
LINE
8
BLACK
6
CONTINUOUS
10
140.165
20
-43.2448
11
140.134
21
-43.2069
0
LINE
8
BLACK
6
CONTINUOUS
10
140.134
20
-43.2069
11
140.111
21
-43.1637
0
LINE
8
BLACK
6
CONTINUOUS
10
140.111
20
-43.1637
11
140.097
21
-43.1168
0
LINE
8
BLACK
6
CONTINUOUS
10
140.097
20
-43.1168
11
140.092
21
-43.068
0
LINE
8
BLACK
6
CONTINUOUS
10
140.092
20
-43.068
11
140.092
21
-41.768
0
LINE
8
BLACK
6
CONTINUOUS
10
140.092
20
-41.768
11
140.097
21
-41.7192
0
LINE
8
BLACK
6
CONTINUOUS
10
140.097
20
-41.7192
11
140.111
21
-41.6723
0
LINE
8
BLACK
6
CONTINUOUS
10
140.111
20
-41.6723
11
140.134
21
-41.6291
0
LINE
8
BLACK
6
CONTINUOUS
10
140.134
20
-41.6291
11
140.165
21
-41.5912
0
LINE
8
BLACK
6
CONTINUOUS
10
140.165
20
-41.5912
11
140.203
21
-41.5601
0
LINE
8
BLACK
6
CONTINUOUS
10
140.203
20
-41.5601
11
140.246
21
-41.537
0
LINE
8
BLACK
6
CONTINUOUS
10
140.246
20
-41.537
11
140.293
21
-41.5228
0
LINE
8
BLACK
6
CONTINUOUS
10
140.293
20
-41.5228
11
140.342
21
-41.518
0
LINE
8
BLACK
6
CONTINUOUS
10
140.342
20
-41.518
11
140.992
21
-41.518
0
LINE
8
BLACK
6
CONTINUOUS
10
140.992
20
-41.518
11
141.041
21
-41.5228
0
LINE
8
BLACK
6
CONTINUOUS
10
138.091
20
-41.5228
11
138.138
21
-41.537
0
LINE
8
BLACK
6
CONTINUOUS
10
138.138
20
-41.537
11
138.181
21
-41.5601
0
LINE
8
BLACK
6
CONTINUOUS
10
138.181
20
-41.5601
11
138.219
21
-41.5912
0
LINE
8
BLACK
6
CONTINUOUS
10
138.219
20
-41.5912
11
138.25
21
-41.6291
0
LINE
8
BLACK
6
CONTINUOUS
10
138.25
20
-41.6291
11
138.273
21
-41.6723
0
LINE
8
BLACK
6
CONTINUOUS
10
138.273
20
-41.6723
11
138.287
21
-41.7192
0
LINE
8
BLACK
6
CONTINUOUS
10
138.287
20
-41.7192
11
138.292
21
-41.768
0
LINE
8
BLACK
6
CONTINUOUS
10
138.292
20
-41.768
11
138.292
21
-43.068
0
LINE
8
BLACK
6
CONTINUOUS
10
138.292
20
-43.068
11
138.287
21
-43.1168
0
LINE
8
BLACK
6
CONTINUOUS
10
138.287
20
-43.1168
11
138.273
21
-43.1637
0
LINE
8
BLACK
6
CONTINUOUS
10
138.273
20
-43.1637
11
138.25
21
-43.2069
0
LINE
8
BLACK
6
CONTINUOUS
10
138.25
20
-43.2069
11
138.219
21
-43.2448
0
LINE
8
BLACK
6
CONTINUOUS
10
138.219
20
-43.2448
11
138.181
21
-43.2759
0
LINE
8
BLACK
6
CONTINUOUS
10
138.181
20
-43.2759
11
138.138
21
-43.299
0
LINE
8
BLACK
6
CONTINUOUS
10
138.138
20
-43.299
11
138.091
21
-43.3132
0
LINE
8
BLACK
6
CONTINUOUS
10
138.091
20
-43.3132
11
138.042
21
-43.318
0
LINE
8
BLACK
6
CONTINUOUS
10
138.042
20
-43.318
11
137.392
21
-43.318
0
LINE
8
BLACK
6
CONTINUOUS
10
137.392
20
-43.318
11
137.343
21
-43.3132
0
LINE
8
BLACK
6
CONTINUOUS
10
137.343
20
-43.3132
11
137.296
21
-43.299
0
LINE
8
BLACK
6
CONTINUOUS
10
137.296
20
-43.299
11
137.253
21
-43.2759
0
LINE
8
BLACK
6
CONTINUOUS
10
137.253
20
-43.2759
11
137.215
21
-43.2448
0
LINE
8
BLACK
6
CONTINUOUS
10
137.215
20
-43.2448
11
137.184
21
-43.2069
0
LINE
8
BLACK
6
CONTINUOUS
10
137.184
20
-43.2069
11
137.161
21
-43.1637
0
LINE
8
BLACK
6
CONTINUOUS
10
137.161
20
-43.1637
11
137.147
21
-43.1168
0
LINE
8
BLACK
6
CONTINUOUS
10
137.147
20
-43.1168
11
137.142
21
-43.068
0
LINE
8
BLACK
6
CONTINUOUS
10
137.142
20
-43.068
11
137.142
21
-41.768
0
LINE
8
BLACK
6
CONTINUOUS
10
137.142
20
-41.768
11
137.147
21
-41.7192
0
LINE
8
BLACK
6
CONTINUOUS
10
137.147
20
-41.7192
11
137.161
21
-41.6723
0
LINE
8
BLACK
6
CONTINUOUS
10
137.161
20
-41.6723
11
137.184
21
-41.6291
0
LINE
8
BLACK
6
CONTINUOUS
10
137.184
20
-41.6291
11
137.215
21
-41.5912
0
LINE
8
BLACK
6
CONTINUOUS
10
137.215
20
-41.5912
11
137.253
21
-41.5601
0
LINE
8
BLACK
6
CONTINUOUS
10
137.253
20
-41.5601
11
137.296
21
-41.537
0
LINE
8
BLACK
6
CONTINUOUS
10
137.296
20
-41.537
11
137.343
21
-41.5228
0
LINE
8
BLACK
6
CONTINUOUS
10
137.343
20
-41.5228
11
137.392
21
-41.518
0
LINE
8
BLACK
6
CONTINUOUS
10
137.392
20
-41.518
11
138.042
21
-41.518
0
LINE
8
BLACK
6
CONTINUOUS
10
138.042
20
-41.518
11
138.091
21
-41.5228
0
LINE
8
BLACK
6
CONTINUOUS
10
152.845
20
-40.1188
11
152.892
21
-40.133
0
LINE
8
BLACK
6
CONTINUOUS
10
152.892
20
-40.133
11
152.935
21
-40.1561
0
LINE
8
BLACK
6
CONTINUOUS
10
152.935
20
-40.1561
11
152.973
21
-40.1872
0
LINE
8
BLACK
6
CONTINUOUS
10
152.973
20
-40.1872
11
153.004
21
-40.2251
0
LINE
8
BLACK
6
CONTINUOUS
10
153.004
20
-40.2251
11
153.027
21
-40.2683
0
LINE
8
BLACK
6
CONTINUOUS
10
153.027
20
-40.2683
11
153.041
21
-40.3152
0
LINE
8
BLACK
6
CONTINUOUS
10
153.041
20
-40.3152
11
153.046
21
-40.364
0
LINE
8
BLACK
6
CONTINUOUS
10
153.046
20
-40.364
11
153.046
21
-41.014
0
LINE
8
BLACK
6
CONTINUOUS
10
153.046
20
-41.014
11
153.041
21
-41.0628
0
LINE
8
BLACK
6
CONTINUOUS
10
153.041
20
-41.0628
11
153.027
21
-41.1097
0
LINE
8
BLACK
6
CONTINUOUS
10
153.027
20
-41.1097
11
153.004
21
-41.1529
0
LINE
8
BLACK
6
CONTINUOUS
10
153.004
20
-41.1529
11
152.973
21
-41.1908
0
LINE
8
BLACK
6
CONTINUOUS
10
152.973
20
-41.1908
11
152.935
21
-41.2219
0
LINE
8
BLACK
6
CONTINUOUS
10
152.935
20
-41.2219
11
152.892
21
-41.245
0
LINE
8
BLACK
6
CONTINUOUS
10
152.892
20
-41.245
11
152.845
21
-41.2592
0
LINE
8
BLACK
6
CONTINUOUS
10
152.845
20
-41.2592
11
152.796
21
-41.264
0
LINE
8
BLACK
6
CONTINUOUS
10
152.796
20
-41.264
11
151.496
21
-41.264
0
LINE
8
BLACK
6
CONTINUOUS
10
151.496
20
-41.264
11
151.447
21
-41.2592
0
LINE
8
BLACK
6
CONTINUOUS
10
151.447
20
-41.2592
11
151.4
21
-41.245
0
LINE
8
BLACK
6
CONTINUOUS
10
151.4
20
-41.245
11
151.357
21
-41.2219
0
LINE
8
BLACK
6
CONTINUOUS
10
151.357
20
-41.2219
11
151.319
21
-41.1908
0
LINE
8
BLACK
6
CONTINUOUS
10
151.319
20
-41.1908
11
151.288
21
-41.1529
0
LINE
8
BLACK
6
CONTINUOUS
10
151.288
20
-41.1529
11
151.265
21
-41.1097
0
LINE
8
BLACK
6
CONTINUOUS
10
151.265
20
-41.1097
11
151.251
21
-41.0628
0
LINE
8
BLACK
6
CONTINUOUS
10
151.251
20
-41.0628
11
151.246
21
-41.014
0
LINE
8
BLACK
6
CONTINUOUS
10
151.246
20
-41.014
11
151.246
21
-40.364
0
LINE
8
BLACK
6
CONTINUOUS
10
151.246
20
-40.364
11
151.251
21
-40.3152
0
LINE
8
BLACK
6
CONTINUOUS
10
151.251
20
-40.3152
11
151.265
21
-40.2683
0
LINE
8
BLACK
6
CONTINUOUS
10
151.265
20
-40.2683
11
151.288
21
-40.2251
0
LINE
8
BLACK
6
CONTINUOUS
10
151.288
20
-40.2251
11
151.319
21
-40.1872
0
LINE
8
BLACK
6
CONTINUOUS
10
151.319
20
-40.1872
11
151.357
21
-40.1561
0
LINE
8
BLACK
6
CONTINUOUS
10
151.357
20
-40.1561
11
151.4
21
-40.133
0
LINE
8
BLACK
6
CONTINUOUS
10
151.4
20
-40.133
11
151.447
21
-40.1188
0
LINE
8
BLACK
6
CONTINUOUS
10
151.447
20
-40.1188
11
151.496
21
-40.114
0
LINE
8
BLACK
6
CONTINUOUS
10
151.496
20
-40.114
11
152.796
21
-40.114
0
LINE
8
BLACK
6
CONTINUOUS
10
152.796
20
-40.114
11
152.845
21
-40.1188
0
LINE
8
BLACK
6
CONTINUOUS
10
141.191
20
-37.9458
11
141.238
21
-37.96
0
LINE
8
BLACK
6
CONTINUOUS
10
141.238
20
-37.96
11
141.281
21
-37.9831
0
LINE
8
BLACK
6
CONTINUOUS
10
141.281
20
-37.9831
11
141.319
21
-38.0142
0
LINE
8
BLACK
6
CONTINUOUS
10
141.319
20
-38.0142
11
141.35
21
-38.0521
0
LINE
8
BLACK
6
CONTINUOUS
10
141.35
20
-38.0521
11
141.373
21
-38.0953
0
LINE
8
BLACK
6
CONTINUOUS
10
141.373
20
-38.0953
11
141.387
21
-38.1422
0
LINE
8
BLACK
6
CONTINUOUS
10
141.387
20
-38.1422
11
141.392
21
-38.191
0
LINE
8
BLACK
6
CONTINUOUS
10
141.392
20
-38.191
11
141.392
21
-40.041
0
LINE
8
BLACK
6
CONTINUOUS
10
141.392
20
-40.041
11
141.387
21
-40.0898
0
LINE
8
BLACK
6
CONTINUOUS
10
141.387
20
-40.0898
11
141.373
21
-40.1367
0
LINE
8
BLACK
6
CONTINUOUS
10
141.373
20
-40.1367
11
141.35
21
-40.1799
0
LINE
8
BLACK
6
CONTINUOUS
10
141.35
20
-40.1799
11
141.319
21
-40.2178
0
LINE
8
BLACK
6
CONTINUOUS
10
141.319
20
-40.2178
11
141.281
21
-40.2489
0
LINE
8
BLACK
6
CONTINUOUS
10
141.281
20
-40.2489
11
141.238
21
-40.272
0
LINE
8
BLACK
6
CONTINUOUS
10
141.238
20
-40.272
11
141.191
21
-40.2862
0
LINE
8
BLACK
6
CONTINUOUS
10
141.191
20
-40.2862
11
141.142
21
-40.291
0
LINE
8
BLACK
6
CONTINUOUS
10
141.142
20
-40.291
11
140.317
21
-40.291
0
LINE
8
BLACK
6
CONTINUOUS
10
140.317
20
-40.291
11
140.268
21
-40.2862
0
LINE
8
BLACK
6
CONTINUOUS
10
140.268
20
-40.2862
11
140.221
21
-40.272
0
LINE
8
BLACK
6
CONTINUOUS
10
140.221
20
-40.272
11
140.178
21
-40.2489
0
LINE
8
BLACK
6
CONTINUOUS
10
140.178
20
-40.2489
11
140.14
21
-40.2178
0
LINE
8
BLACK
6
CONTINUOUS
10
140.14
20
-40.2178
11
140.109
21
-40.1799
0
LINE
8
BLACK
6
CONTINUOUS
10
140.109
20
-40.1799
11
140.086
21
-40.1367
0
LINE
8
BLACK
6
CONTINUOUS
10
140.086
20
-40.1367
11
140.072
21
-40.0898
0
LINE
8
BLACK
6
CONTINUOUS
10
140.072
20
-40.0898
11
140.067
21
-40.041
0
LINE
8
BLACK
6
CONTINUOUS
10
140.067
20
-40.041
11
140.067
21
-38.191
0
LINE
8
BLACK
6
CONTINUOUS
10
140.067
20
-38.191
11
140.072
21
-38.1422
0
LINE
8
BLACK
6
CONTINUOUS
10
140.072
20
-38.1422
11
140.086
21
-38.0953
0
LINE
8
BLACK
6
CONTINUOUS
10
140.086
20
-38.0953
11
140.109
21
-38.0521
0
LINE
8
BLACK
6
CONTINUOUS
10
140.109
20
-38.0521
11
140.14
21
-38.0142
0
LINE
8
BLACK
6
CONTINUOUS
10
140.14
20
-38.0142
11
140.178
21
-37.9831
0
LINE
8
BLACK
6
CONTINUOUS
10
140.178
20
-37.9831
11
140.221
21
-37.96
0
LINE
8
BLACK
6
CONTINUOUS
10
140.221
20
-37.96
11
140.268
21
-37.9458
0
LINE
8
BLACK
6
CONTINUOUS
10
140.268
20
-37.9458
11
140.317
21
-37.941
0
LINE
8
BLACK
6
CONTINUOUS
10
140.317
20
-37.941
11
141.142
21
-37.941
0
LINE
8
BLACK
6
CONTINUOUS
10
141.142
20
-37.941
11
141.191
21
-37.9458
0
LINE
8
BLACK
6
CONTINUOUS
10
138.116
20
-37.9458
11
138.163
21
-37.96
0
LINE
8
BLACK
6
CONTINUOUS
10
138.163
20
-37.96
11
138.206
21
-37.9831
0
LINE
8
BLACK
6
CONTINUOUS
10
138.206
20
-37.9831
11
138.244
21
-38.0142
0
LINE
8
BLACK
6
CONTINUOUS
10
138.244
20
-38.0142
11
138.275
21
-38.0521
0
LINE
8
BLACK
6
CONTINUOUS
10
138.275
20
-38.0521
11
138.298
21
-38.0953
0
LINE
8
BLACK
6
CONTINUOUS
10
138.298
20
-38.0953
11
138.312
21
-38.1422
0
LINE
8
BLACK
6
CONTINUOUS
10
138.312
20
-38.1422
11
138.317
21
-38.191
0
LINE
8
BLACK
6
CONTINUOUS
10
138.317
20
-38.191
11
138.317
21
-40.041
0
LINE
8
BLACK
6
CONTINUOUS
10
138.317
20
-40.041
11
138.312
21
-40.0898
0
LINE
8
BLACK
6
CONTINUOUS
10
138.312
20
-40.0898
11
138.298
21
-40.1367
0
LINE
8
BLACK
6
CONTINUOUS
10
138.298
20
-40.1367
11
138.275
21
-40.1799
0
LINE
8
BLACK
6
CONTINUOUS
10
138.275
20
-40.1799
11
138.244
21
-40.2178
0
LINE
8
BLACK
6
CONTINUOUS
10
138.244
20
-40.2178
11
138.206
21
-40.2489
0
LINE
8
BLACK
6
CONTINUOUS
10
138.206
20
-40.2489
11
138.163
21
-40.272
0
LINE
8
BLACK
6
CONTINUOUS
10
138.163
20
-40.272
11
138.116
21
-40.2862
0
LINE
8
BLACK
6
CONTINUOUS
10
138.116
20
-40.2862
11
138.067
21
-40.291
0
LINE
8
BLACK
6
CONTINUOUS
10
138.067
20
-40.291
11
137.242
21
-40.291
0
LINE
8
BLACK
6
CONTINUOUS
10
137.242
20
-40.291
11
137.193
21
-40.2862
0
LINE
8
BLACK
6
CONTINUOUS
10
137.193
20
-40.2862
11
137.146
21
-40.272
0
LINE
8
BLACK
6
CONTINUOUS
10
137.146
20
-40.272
11
137.103
21
-40.2489
0
LINE
8
BLACK
6
CONTINUOUS
10
137.103
20
-40.2489
11
137.065
21
-40.2178
0
LINE
8
BLACK
6
CONTINUOUS
10
137.065
20
-40.2178
11
137.034
21
-40.1799
0
LINE
8
BLACK
6
CONTINUOUS
10
137.034
20
-40.1799
11
137.011
21
-40.1367
0
LINE
8
BLACK
6
CONTINUOUS
10
137.011
20
-40.1367
11
136.997
21
-40.0898
0
LINE
8
BLACK
6
CONTINUOUS
10
136.997
20
-40.0898
11
136.992
21
-40.041
0
LINE
8
BLACK
6
CONTINUOUS
10
136.992
20
-40.041
11
136.992
21
-38.191
0
LINE
8
BLACK
6
CONTINUOUS
10
136.992
20
-38.191
11
136.997
21
-38.1422
0
LINE
8
BLACK
6
CONTINUOUS
10
136.997
20
-38.1422
11
137.011
21
-38.0953
0
LINE
8
BLACK
6
CONTINUOUS
10
137.011
20
-38.0953
11
137.034
21
-38.0521
0
LINE
8
BLACK
6
CONTINUOUS
10
137.034
20
-38.0521
11
137.065
21
-38.0142
0
LINE
8
BLACK
6
CONTINUOUS
10
137.065
20
-38.0142
11
137.103
21
-37.9831
0
LINE
8
BLACK
6
CONTINUOUS
10
137.103
20
-37.9831
11
137.146
21
-37.96
0
LINE
8
BLACK
6
CONTINUOUS
10
137.146
20
-37.96
11
137.193
21
-37.9458
0
LINE
8
BLACK
6
CONTINUOUS
10
137.193
20
-37.9458
11
137.242
21
-37.941
0
LINE
8
BLACK
6
CONTINUOUS
10
137.242
20
-37.941
11
138.067
21
-37.941
0
LINE
8
BLACK
6
CONTINUOUS
10
138.067
20
-37.941
11
138.116
21
-37.9458
  0
ENDSEC
  0
EOF
